<svg xmlns="http://www.w3.org/2000/svg" width="152" height="57" fill="none" viewBox="0 0 152 57"><g clip-path="url(#a)"><g fill="#677399" fill-rule="evenodd" clip-path="url(#b)" clip-rule="evenodd"><path d="M50.76 27.154c0-2.476-2.113-4.082-4.83-4.082-3.213 0-4.873 1.845-4.96 4.06h3.106c.021-.782.453-1.52 1.639-1.52.97 0 1.51.456 1.51 1.108 0 .52-.303.912-.863.912h-1.553c-2.286 0-3.838 1.302-3.838 3.452 0 1.824 1.445 3.279 3.471 3.279 1.402 0 2.502-.608 2.782-1.52v1.346h3.537zm-3.536 2.649v.087c0 1.02-.647 1.976-1.79 1.976-.625 0-1.1-.391-1.1-.956 0-.651.453-1.107 1.079-1.107zm4.495 8.816V23.245h3.558v.934c.625-.695 1.552-1.107 2.89-1.107 2.534 0 4.366 1.63 4.797 4.36.441-2.215 2.061-4.36 5.328-4.36 4.119 0 5.478 3.126 5.478 5.428 0 .5-.022.803-.044 1.064h-7.482c.216 1.216.97 1.911 2.264 1.911.97 0 1.639-.348 1.833-1.086h3.429l-.009.044h2.575c.108.781.776 1.302 1.682 1.302.755 0 1.272-.303 1.272-.781 0-.686-.835-.834-1.861-1.016-1.64-.29-3.767-.667-3.767-3.457 0-1.976 1.725-3.41 3.903-3.41 2.717 0 4.55 1.455 4.636 3.67h-3.019a1.47 1.47 0 0 0-1.466-1.26c-.668 0-1.121.283-1.121.848 0 .745.856.85 1.907.981 1.402.173 3.15.39 3.687 2.219a7 7 0 0 1-.05-.812c0-3.3 2.393-5.645 5.736-5.645 3.04 0 5.326 1.867 5.477 4.451h-3.58a1.79 1.79 0 0 0-1.768-1.412c-1.315 0-2.178 1.021-2.178 2.606s.884 2.606 2.221 2.606c.884 0 1.617-.608 1.768-1.433h3.645c-.28 2.497-2.74 4.473-5.585 4.473-2.793 0-4.923-1.637-5.548-4.1q.025.254.025.539c0 2.15-1.703 3.561-4.334 3.561-2.344 0-4.046-1.148-4.539-2.996-.777 1.86-2.676 2.996-4.971 2.996-3.3 0-5.073-2.188-5.543-4.426-.454 2.77-2.472 4.426-5.122 4.426-1.122 0-2.027-.26-2.566-.825v5.081zm5.628-7.296c1.337 0 2.242-1.042 2.242-2.606s-.905-2.605-2.242-2.605c-1.359 0-2.264 1.042-2.264 2.605 0 1.564.905 2.606 2.264 2.606m8.897-3.887c.237-1.325.906-1.824 2.048-1.824 1.23 0 1.898.89 1.963 1.824zm41.606 2.953c-.195.739-.863 1.086-1.833 1.086-1.294 0-2.049-.695-2.264-1.91h7.369c.343 2.36 2.127 4.798 5.609 4.798 2.674 0 4.808-1.542 5.261-3.974h-3.428c-.194.739-.863 1.086-1.833 1.086-1.293 0-2.048-.695-2.264-1.91h7.483c.021-.262.042-.566.042-1.065 0-2.302-1.358-5.428-5.476-5.428-3.273 0-4.893 2.15-5.331 4.369-.367-2.097-1.873-4.37-5.384-4.37-2.486 0-4.019 1.243-4.804 2.813v-2.639h-1.142c-1.208 0-2.006.348-2.631 1.65v-1.65h-3.558V34.19h3.558v-5.537c0-1.542.69-2.454 1.876-2.454h1.752a6.5 6.5 0 0 0-.507 2.52c0 2.583 1.769 5.645 5.672 5.645 2.674 0 4.808-1.542 5.261-3.974zm-4.097-2.953c.237-1.325.905-1.824 2.048-1.824 1.229 0 1.898.89 1.962 1.824zm12.763-1.824c-1.144 0-1.812.5-2.049 1.824h4.011c-.064-.934-.733-1.824-1.962-1.824m9.355-2.367h-3.558V34.19h3.558v-6.036c0-1.086.755-1.911 1.833-1.911s1.833.825 1.833 1.91v6.037h3.558v-6.883c0-2.432-1.595-4.235-4.033-4.235-1.422 0-2.565.587-3.191 1.434zm13.216 8.23c.969 0 1.638-.348 1.832-1.086h3.429c-.453 2.432-2.588 3.974-5.261 3.974-3.904 0-5.672-3.062-5.672-5.646s1.552-5.645 5.456-5.645c4.119 0 5.477 3.126 5.477 5.428 0 .5-.022.803-.043 1.064h-7.483c.216 1.216.97 1.911 2.265 1.911m-.216-5.863c-1.144 0-1.811.5-2.049 1.824h4.01c-.064-.934-.732-1.824-1.961-1.824m13.129.586h-1.898c-1.185 0-1.876.912-1.876 2.454v5.537h-3.558V23.245h3.558v1.65c.626-1.302 1.424-1.65 2.631-1.65H152zM34.497 31.002l.001-2.486v-.003l-.001-2.592q-.003-3.24.002-6.482c.002-1.119-.188-2.194-.618-3.228a8.2 8.2 0 0 0-1.443-2.313c-.603-.68-1.282-1.265-2.083-1.687-.487-.255-.992-.493-1.515-.655-.585-.182-1.195-.335-1.803-.382-.687-.053-1.379-.047-2.07-.042l-.624.003H23.21c-4.533-.003-9.066-.006-13.6 0q-.251.001-.504-.001c-.75-.005-1.499-.01-2.248.114q-1.2.198-2.288.716c-.746.355-1.412.843-2.02 1.412A8.1 8.1 0 0 0 .942 15.5c-.318.597-.583 1.224-.692 1.9q-.039.235-.082.47c-.084.462-.169.926-.168 1.39 0 .51.085 1.02.17 1.528l.074.465c.092.613.34 1.175.603 1.728.313.66.715 1.268 1.213 1.8.359.381.738.75 1.148 1.076.667.53 1.407.949 2.223 1.195.574.173 1.161.327 1.754.406.53.07 1.078.06 1.615.026.483-.03.975-.096 1.441-.226.52-.145 1.024-.361 1.52-.582a6 6 0 0 0 1.744-1.172c.58-.562 1.15-1.133 1.72-1.704q.771-.774 1.55-1.538c.188-.183.369-.374.55-.565.511-.54 1.023-1.08 1.689-1.448.495-.274 1.014-.483 1.573-.542.687-.073 1.383-.114 2.045.144l.045.017c.417.162.84.327 1.217.562.732.457 1.272 1.097 1.663 1.883.31.623.462 1.274.497 1.955a4.4 4.4 0 0 1-.216 1.557c-.212.664-.517 1.277-.996 1.773a177 177 0 0 1-2.229 2.251l-.98.98q-.19.192-.386.382c-.312.306-.625.613-.914.94a8.3 8.3 0 0 0-1.524 2.466 8 8 0 0 0-.536 2.112c-.109 1.062-.05 2.117.252 3.155.183.625.41 1.228.723 1.793a8.2 8.2 0 0 0 2.19 2.529c.706.542 1.472.976 2.328 1.224.453.132.913.254 1.378.321.516.074 1.043.13 1.56.101.584-.033 1.165-.147 1.738-.268.866-.182 1.654-.567 2.39-1.051a8.2 8.2 0 0 0 1.707-1.513 8.1 8.1 0 0 0 1.603-2.91c.248-.801.362-1.63.36-2.477q-.009-3.315-.005-6.631M8.086 45.872a8.1 8.1 0 0 0 8.18-8.196c.059-4.456-3.551-8.21-8.133-8.19-4.486.019-8.094 3.513-8.132 8.127-.037 4.605 3.533 8.215 8.085 8.258"/></g></g><defs><clipPath id="a"><path fill="#fff" d="M0 0h152v57H0z"/></clipPath><clipPath id="b"><path fill="#fff" d="M0 11.129h152v34.743H0z"/></clipPath></defs></svg>