<svg xmlns="http://www.w3.org/2000/svg" width="800" height="300" viewBox="0 0 800 300"><defs><linearGradient id="a" x1="0%" x2="100%" y1="0%" y2="0%"><stop offset="0%" style="stop-color:#999;stop-opacity:1"/><stop offset="100%" style="stop-color:#333;stop-opacity:1"/></linearGradient></defs><g fill="url(#a)"><path d="M50 100h110v35H95v30h55v35H95v30h70v35H50z"/><path d="m175 100 60 75-60 90h45l40-60 40 60h45l-60-90 60-75h-45l-40 55-40-55z"/><path d="M380 100h100c50 0 80 30 80 82s-30 83-80 83H380zm45 35v95h55c25 0 35-15 35-48 0-32-10-47-35-47z"/><path d="M580 100h170v35h-65v130h-40V135h-65z"/></g></svg>