<svg xmlns="http://www.w3.org/2000/svg" width="17" height="18" fill="none" viewBox="0 0 17 18"><path stroke="#414651" stroke-linecap="round" stroke-linejoin="round" stroke-width="1.5" d="M15.333 5.028 8.25 8.963m0 0L1.167 5.028M8.25 8.963v7.917m7.5-4.534V5.58c0-.285 0-.428-.042-.555a.8.8 0 0 0-.178-.304c-.091-.098-.216-.168-.466-.306L8.898.99C8.66.858 8.543.793 8.418.767a.8.8 0 0 0-.336 0c-.125.026-.243.091-.48.223L1.436 4.416c-.25.138-.375.208-.465.306a.8.8 0 0 0-.179.304c-.042.127-.042.27-.042.555v6.764c0 .286 0 .429.042.556a.8.8 0 0 0 .179.303c.09.099.215.168.465.307l6.166 3.426c.237.131.355.197.48.223.11.022.225.022.336 0 .125-.026.243-.092.48-.223l6.166-3.426c.25-.139.375-.208.466-.307a.8.8 0 0 0 .178-.303c.042-.127.042-.27.042-.556"/></svg>