<svg xmlns="http://www.w3.org/2000/svg" width="19" height="19" fill="none" viewBox="0 0 19 19"><path stroke="#414651" stroke-linecap="round" stroke-linejoin="round" stroke-width="1.5" d="m4.5 9.917.654 1.307c.221.443.332.664.48.855q.197.256.453.454c.192.148.413.259.856.48l1.307.654-1.307.653c-.443.222-.664.332-.856.48q-.256.198-.454.454c-.147.191-.258.413-.48.855L4.5 17.417l-.654-1.308c-.221-.442-.332-.664-.48-.855a2.5 2.5 0 0 0-.453-.454c-.192-.148-.413-.258-.856-.48L.75 13.667l1.307-.654c.443-.221.664-.332.856-.48q.256-.197.454-.453c.147-.192.258-.413.48-.856zM11.583.75l.982 2.554c.236.61.353.916.536 1.173q.245.344.588.589c.257.183.563.3 1.174.535l2.554.982-2.554.983c-.611.235-.917.352-1.173.535a2.5 2.5 0 0 0-.59.588c-.182.257-.3.563-.534 1.174l-.983 2.554-.982-2.554c-.235-.611-.352-.917-.535-1.174a2.5 2.5 0 0 0-.589-.588c-.257-.183-.562-.3-1.173-.535L5.75 6.583l2.554-.982c.61-.235.916-.352 1.173-.535a2.5 2.5 0 0 0 .589-.589c.183-.257.3-.562.535-1.173z"/></svg>