<svg width="15" height="15" viewBox="0 0 15 15" fill="none" xmlns="http://www.w3.org/2000/svg">
<path d="M7.11046 9.77791C10.6696 9.77791 13.5549 8.58401 13.5549 7.11125C13.5549 5.63849 10.6696 4.44458 7.11046 4.44458C3.55129 4.44458 0.666016 5.63849 0.666016 7.11125C0.666016 8.58401 3.55129 9.77791 7.11046 9.77791Z" stroke="#252B37" stroke-width="1.33333" stroke-linecap="round" stroke-linejoin="round"/>
<path d="M7.11003 13.5556C8.58279 13.5556 9.77669 10.6704 9.77669 7.11119C9.77669 3.55202 8.58279 0.666748 7.11003 0.666748C5.63727 0.666748 4.44336 3.55202 4.44336 7.11119C4.44336 10.6704 5.63727 13.5556 7.11003 13.5556Z" stroke="#252B37" stroke-width="1.33333" stroke-linecap="round" stroke-linejoin="round"/>
<path d="M7.11046 13.5556C10.6696 13.5556 13.5549 10.6704 13.5549 7.11119C13.5549 3.55202 10.6696 0.666748 7.11046 0.666748C3.55129 0.666748 0.666016 3.55202 0.666016 7.11119C0.666016 10.6704 3.55129 13.5556 7.11046 13.5556Z" stroke="#252B37" stroke-width="1.33333" stroke-linecap="round" stroke-linejoin="round"/>
</svg>
