<svg xmlns="http://www.w3.org/2000/svg" width="15" height="15" fill="none" viewBox="0 0 15 15"><path stroke="#252b37" stroke-linecap="round" stroke-linejoin="round" stroke-width="1.333" d="M7.11 9.778c3.56 0 6.445-1.194 6.445-2.667S10.67 4.445 7.11 4.445C3.551 4.445.666 5.638.666 7.11S3.551 9.778 7.11 9.778"/><path stroke="#252b37" stroke-linecap="round" stroke-linejoin="round" stroke-width="1.333" d="M7.11 13.556c1.473 0 2.667-2.886 2.667-6.445S8.583.667 7.11.667 4.443 3.552 4.443 7.11s1.194 6.445 2.667 6.445"/><path stroke="#252b37" stroke-linecap="round" stroke-linejoin="round" stroke-width="1.333" d="M7.11 13.556a6.444 6.444 0 1 0 0-12.89 6.444 6.444 0 0 0 0 12.89"/></svg>