<svg xmlns="http://www.w3.org/2000/svg" width="19" height="15" fill="none" viewBox="0 0 19 15"><path stroke="#414651" stroke-linecap="round" stroke-linejoin="round" stroke-width="1.5" d="M15.75 5.333V3.417c0-.934 0-1.4-.182-1.757a1.67 1.67 0 0 0-.728-.728C14.483.75 14.017.75 13.083.75H3.417c-.934 0-1.4 0-1.757.182-.314.16-.569.414-.728.728C.75 2.017.75 2.483.75 3.417v8c0 .933 0 1.4.182 1.756.16.314.414.569.728.729.357.181.823.181 1.757.181h9.666c.934 0 1.4 0 1.757-.181a1.66 1.66 0 0 0 .728-.729c.182-.356.182-.823.182-1.756V9.5m-4.167-2.083c0-.388 0-.581.032-.742a1.67 1.67 0 0 1 1.31-1.31c.16-.032.354-.032.742-.032h1.666c.387 0 .581 0 .742.032a1.67 1.67 0 0 1 1.31 1.31c.032.16.032.354.032.742 0 .387 0 .58-.032.741a1.67 1.67 0 0 1-1.31 1.31c-.16.032-.354.032-.742.032h-1.666c-.387 0-.581 0-.742-.032a1.67 1.67 0 0 1-1.31-1.31c-.032-.16-.032-.354-.032-.741"/></svg>