<svg xmlns="http://www.w3.org/2000/svg" width="16" height="19" fill="none" viewBox="0 0 16 19"><path stroke="#414651" stroke-linecap="round" stroke-linejoin="round" stroke-width="1.5" d="M14.083 9.5V4.75c0-1.4 0-2.1-.272-2.635a2.5 2.5 0 0 0-1.093-1.093C12.184.75 11.483.75 10.083.75H4.75c-1.4 0-2.1 0-2.635.272a2.5 2.5 0 0 0-1.093 1.093C.75 2.65.75 3.35.75 4.75v8.667c0 1.4 0 2.1.272 2.635a2.5 2.5 0 0 0 1.093 1.092c.535.273 1.235.273 2.635.273h2.667M9.083 8.25h-5m1.667 3.333H4.083m6.667-6.666H4.083m5.417 10 1.667 1.666 3.75-3.75"/></svg>