<svg xmlns="http://www.w3.org/2000/svg" width="16" height="16" fill="none" viewBox="0 0 16 16"><path stroke="#717680" stroke-linecap="round" stroke-linejoin="round" stroke-width="1.333" d="M10 14.666V12a3.2 3.2 0 0 0-.667-2.334c2 0 4-1.333 4-3.666a3.6 3.6 0 0 0-.667-2.334 4.9 4.9 0 0 0 0-2.333s-.667 0-2 1a14.4 14.4 0 0 0-5.333 0c-1.334-1-2-1-2-1a4.6 4.6 0 0 0 0 2.333A3.6 3.6 0 0 0 2.666 6c0 2.333 2 3.666 4 3.666A3.14 3.14 0 0 0 5.999 12v2.666"/><path stroke="#717680" stroke-linecap="round" stroke-linejoin="round" stroke-width="1.333" d="M6 12c-3.006 1.334-3.333-1.333-4.666-1.333"/></svg>