<svg width="16" height="16" viewBox="0 0 16 16" fill="none" xmlns="http://www.w3.org/2000/svg">
<path d="M10.668 5.33398C11.7288 5.33398 12.7463 5.75541 13.4964 6.50556C14.2465 7.2557 14.668 8.27312 14.668 9.33398V14.0007H12.0013V9.33398C12.0013 8.98036 11.8608 8.64122 11.6108 8.39118C11.3607 8.14113 11.0216 8.00065 10.668 8.00065C10.3143 8.00065 9.97521 8.14113 9.72516 8.39118C9.47511 8.64122 9.33464 8.98036 9.33464 9.33398V14.0007H6.66797V9.33398C6.66797 8.27312 7.0894 7.2557 7.83954 6.50556C8.58969 5.75541 9.6071 5.33398 10.668 5.33398Z" stroke="#717680" stroke-width="1.33333" stroke-linecap="round" stroke-linejoin="round"/>
<path d="M3.9987 6H1.33203V14H3.9987V6Z" stroke="#717680" stroke-width="1.33333" stroke-linecap="round" stroke-linejoin="round"/>
<path d="M2.66536 4.00065C3.40174 4.00065 3.9987 3.4037 3.9987 2.66732C3.9987 1.93094 3.40174 1.33398 2.66536 1.33398C1.92898 1.33398 1.33203 1.93094 1.33203 2.66732C1.33203 3.4037 1.92898 4.00065 2.66536 4.00065Z" stroke="#717680" stroke-width="1.33333" stroke-linecap="round" stroke-linejoin="round"/>
</svg>
