<svg width="32" height="32" viewBox="0 0 32 32" fill="none" xmlns="http://www.w3.org/2000/svg">
<path d="M23.3342 25.3327H12.0009C10.27 25.3322 8.57339 24.8505 7.10057 23.9413C5.62775 23.0321 4.43676 21.7313 3.66069 20.1842C2.88463 18.6371 2.55406 16.9046 2.70592 15.1804C2.85779 13.4563 3.4861 11.8083 4.52066 10.4207C5.55522 9.03303 6.95526 7.96041 8.56433 7.32267C10.1734 6.68492 11.9281 6.50718 13.6324 6.8093C15.3367 7.11142 16.9234 7.8815 18.2152 9.03349C19.507 10.1855 20.453 11.674 20.9475 13.3327H23.3342C24.9255 13.3327 26.4516 13.9648 27.5768 15.09C28.7021 16.2153 29.3342 17.7414 29.3342 19.3327C29.3342 20.924 28.7021 22.4501 27.5768 23.5753C26.4516 24.7005 24.9255 25.3327 23.3342 25.3327Z" stroke="#F97316" stroke-width="2.66667" stroke-linecap="round" stroke-linejoin="round"/>
</svg>
