<svg xmlns="http://www.w3.org/2000/svg" width="451" height="285" fill="none" viewBox="0 0 451 285"><path fill="#f9fafb" d="M1 129.895 223.501 1.535a4 4 0 0 1 3.998 0L450 129.895v21.56c0 1.429-.763 2.75-2.001 3.465L225.5 283.278 3.001 154.92A4 4 0 0 1 1 151.455z"/><path stroke="#d5d7da" stroke-width="2" d="m1 129.895 224.5 129.513M1 129.895 223.501 1.535a4 4 0 0 1 3.998 0L450 129.895m-449 0v21.56c0 1.429.763 2.75 2.001 3.465L225.5 283.278m0-23.87L450 129.895M225.5 259.408v23.87M450 129.895v21.56c0 1.429-.763 2.75-2.001 3.465L225.5 283.278"/><path fill="#474c59" stroke="#717680" stroke-linejoin="round" stroke-width="2" d="M313.209 122.781c1.383 0 2.82.301 3.964.962l32.862 18.974c1.059.611 1.819 1.516 1.922 2.618l.005.041.003.045.001.028.001.032v.091l.001.325.002 1.159.001 3.577-.001 5.861a1 1 0 0 1-.028.228l-.004.019a3.2 3.2 0 0 1-.302.835c-.272.514-.757 1.11-1.601 1.597l-66.683 38.5c-1.145.66-2.583.962-3.965.962-1.383 0-2.82-.302-3.964-.962l-32.862-18.974c-.86-.496-1.349-1.1-1.62-1.627a3 3 0 0 1-.251-.661 3 3 0 0 1-.042-.206l-.004-.028-.001-.008a1 1 0 0 1-.017-.175l-.001-5.862.004-4.737.001-.326.001-.094.001-.039.002-.04.003-.022h-.001c.099-1.108.862-2.017 1.925-2.63l66.684-38.5c1.144-.661 2.581-.963 3.964-.963Zm-71.68 54.208Zm-.389-.123q.029.016.062.031zm-.317-.275.015.016-.024-.032zm110.83-19.369.01-.007.008-.01zm.039-.04Z"/><path fill="url(#a)" d="M309.744 135.419c1.913-1.105 5.015-1.105 6.928 0l17.546 10.129h16.751v11.032h-.01c-.076.66-.55 1.307-1.424 1.812l-66.685 38.5c-1.913 1.105-5.015 1.105-6.928 0l-32.862-18.973c-.886-.511-1.362-1.17-1.427-1.839h-.007v-11.032h16.798z"/><path fill="url(#b)" d="M309.744 124.695c1.913-1.104 5.015-1.104 6.928 0l32.863 18.973c1.913 1.105 1.913 2.896 0 4l-66.685 38.501c-1.913 1.104-5.015 1.104-6.928 0l-32.862-18.973c-1.913-1.105-1.913-2.896 0-4z"/><path fill="#fff" d="M310.865 129.636c1.36-.785 3.566-.785 4.926 0l24.519 14.156c1.36.786 1.36 2.059 0 2.844l-47.902 27.656c-1.36.786-3.565.786-4.926 0l-24.518-14.156c-1.361-.785-1.361-2.058 0-2.844z"/><circle cx="5" cy="5" r="5" fill="#fff" transform="matrix(.86603 .5 -.86603 .5 266.951 166.156)"/><path fill="#474c59" stroke="#717680" stroke-linejoin="round" stroke-width="2" d="M185.175 46.442c1.383 0 2.82.3 3.965.962l88.334 51c1.138.657 1.935 1.659 1.935 2.866l-.001 10.747v.014c-.017 1.192-.808 2.178-1.934 2.829l-66.685 38.5c-1.144.66-2.581.962-3.964.962s-2.819-.302-3.964-.962l-88.335-51c-1.006-.582-1.742-1.427-1.901-2.457a1 1 0 0 1-.032-.249v-11.03q0-.121.029-.236c.151-1.042.889-1.897 1.904-2.484l66.685-38.5c1.144-.66 2.581-.962 3.964-.962Z"/><path fill="url(#c)" d="M181.711 59.08c1.913-1.105 5.015-1.105 6.928 0l73.225 42.276h16.545v10.747c-.01.716-.489 1.43-1.435 1.977l-66.685 38.5c-1.913 1.104-5.015 1.104-6.928 0l-88.334-51c-.886-.512-1.362-1.17-1.427-1.84h-.008V88.71h16.799z"/><path fill="url(#d)" d="M181.711 48.356c1.913-1.105 5.015-1.105 6.928 0l88.335 51c1.913 1.104 1.913 2.895 0 4l-66.685 38.5c-1.913 1.105-5.015 1.105-6.928 0l-88.334-51c-1.913-1.104-1.914-2.895 0-4z"/><path fill="#fff" d="M182.833 53.297c1.36-.785 3.566-.785 4.926 0l80.377 46.406c1.361.785 1.361 2.059 0 2.844l-58.726 33.906c-1.361.785-3.566.785-4.926 0l-80.378-46.406c-1.36-.785-1.36-2.059 0-2.844z"/><path fill="#6e7ca5" fill-rule="evenodd" d="M197.863 80.555c-.797-.46-2.089-.46-2.886 0l-4.331 2.5c-.797.46-.797 1.206 0 1.666l8.661 5-4.33 2.5-5.774-3.333c-.421-.243-1.006-.368-1.6-.342l-9.382.417a4 4 0 0 0-.372.036l-1.636-.944c-.797-.46-2.09-.46-2.887 0l-5.774 3.333c-.797.46-.797 1.206 0 1.667l5.774 3.333c.797.46 2.09.46 2.887 0l5.773-3.333c.797-.46.797-1.207 0-1.667l-.367-.212 5.361-.238 5.11 2.95-2.887 1.667-1.443-.834c-.797-.46-2.09-.46-2.887 0l-5.774 3.334c-.797.46-.797 1.206 0 1.666l5.774 3.334c.797.46 2.09.46 2.887 0l5.773-3.334c.797-.46.797-1.206 0-1.666l-1.443-.834 2.887-1.666 5.093 2.94-.402 3.101-.361-.208c-.797-.46-2.09-.46-2.887 0l-5.774 3.333c-.797.461-.797 1.207 0 1.667l5.774 3.333c.797.461 2.09.461 2.887 0l5.773-3.333c.797-.46.797-1.206 0-1.667l-1.636-.945a.7.7 0 0 0 .063-.217l.703-5.427c.045-.342-.171-.679-.592-.921l-5.755-3.323 4.33-2.5 8.661 5c.797.46 2.089.46 2.886 0l4.331-2.5c.797-.46.797-1.207 0-1.667zM186.316 97.22l2.887 1.667-2.887 1.667-2.886-1.667zm25.981-3.333 1.443-.833-17.32-10-1.443.833zm-40.414-1.667 2.886-1.666 2.887 1.666-2.887 1.667zm23.094 13.334 2.886-1.667 2.887 1.667-2.887 1.666z" clip-rule="evenodd"/><path fill="#6e7ca5" d="m213.74 93.055-1.443.833-17.32-10 1.443-.833zm-38.971-2.5-2.886 1.666 2.886 1.667 2.887-1.667zm11.547 10 2.887-1.667-2.887-1.667-2.886 1.667zm11.547 3.333-2.886 1.667 2.886 1.666 2.887-1.666z"/><path fill="#535862" d="m120.35 149.728 11.712-3.178 1.928 1.113-5.504 6.762-1.649-.952 1.321-1.589-3.407-1.967-2.752.763zm6.208-.322 2.485 1.435 2.401-2.814zm.951 6.555 8.293-4.788 1.491.861-1.346.819-.084-.133a4.8 4.8 0 0 1 1.867-.168q.933.105 1.673.532.921.531 1.067 1.148.157.622-.303 1.239-.46.615-1.395 1.155a7.5 7.5 0 0 1-2.012.798 6.6 6.6 0 0 1-2.146.175 4.7 4.7 0 0 1-1.989-.616q-.484-.28-.739-.623a1.1 1.1 0 0 1-.231-.693q.025-.35.328-.665l.267.014-3.189 1.841zm6.014.084q.702.405 1.661.315.981-.092 1.976-.665.995-.575 1.14-1.134.17-.561-.534-.966a2.6 2.6 0 0 0-1.055-.329 3.6 3.6 0 0 0-1.236.098 5.4 5.4 0 0 0-1.358.574q-.704.406-.994.784t-.194.714q.12.336.594.609m1.398 4.195 8.293-4.788 1.491.861-1.346.819-.084-.133a4.8 4.8 0 0 1 1.867-.168q.933.105 1.673.532.921.532 1.067 1.148.157.622-.303 1.239-.46.616-1.395 1.155a7.5 7.5 0 0 1-2.012.798 6.5 6.5 0 0 1-2.146.175 4.66 4.66 0 0 1-1.989-.616q-.484-.28-.739-.623a1.1 1.1 0 0 1-.231-.693q.025-.35.328-.665l.267.014-3.189 1.841zm6.014.084q.702.406 1.661.315.981-.091 1.976-.665t1.14-1.134q.17-.56-.534-.966a2.6 2.6 0 0 0-1.055-.329 3.6 3.6 0 0 0-1.236.098q-.656.168-1.358.574-.704.406-.995.784-.29.378-.194.714.121.336.595.609m4.828 4.075q-.704-.405-.764-.861t.739-.917l7.081-4.088 1.552.896-6.923 3.997q-.243.14-.243.28.012.148.243.28l.473.273-1.201.693zm1.952 1.128 6.475-3.738 1.552.896-6.475 3.738zm7.311-4.249 1.383-.798 1.612.931-1.382.798zm-1.506 7.768q-.97-.56-1.273-1.211-.29-.657.073-1.33.376-.665 1.394-1.253a6.7 6.7 0 0 1 2.159-.798 7.1 7.1 0 0 1 2.303-.042q1.14.168 2.11.728.824.477 1.176 1.015.351.54.206 1.085-.122.546-.8 1.05l-1.686-.875q.522-.412.449-.819-.048-.405-.606-.728-.751-.433-1.734-.343-.97.085-1.964.658-1.007.582-1.152 1.141-.145.56.606.994.57.33 1.273.357.715.036 1.492-.315l1.527.966a5.9 5.9 0 0 1-1.843.49 6.5 6.5 0 0 1-1.927-.091 6 6 0 0 1-1.783-.679m6.076 3.508q-1.019-.587-1.176-1.211-.145-.63.691-1.113a3.4 3.4 0 0 1 1.831-.455q.995.029 2.267.525l2.571.994q.69-.399.715-.777.036-.385-.582-.742a2.6 2.6 0 0 0-1.152-.357 3 3 0 0 0-1.176.175l-1.503-.952a5.4 5.4 0 0 1 2.522-.364 6 6 0 0 1 2.509.805q1.382.798 1.382 1.61.025.813-1.273 1.561l-2.352 1.358q-.254.147-.266.252 0 .112.181.217l.207.119-1.128.651a1.7 1.7 0 0 1-.279-.119 6 6 0 0 1-.339-.182q-.4-.231-.594-.483a.48.48 0 0 1-.037-.539q.158-.287.716-.609l.036.133a3.6 3.6 0 0 1-1.188.196 5 5 0 0 1-1.31-.168 5 5 0 0 1-1.273-.525m1.443-.469q.522.301 1.103.399.582.099 1.152.007a3.1 3.1 0 0 0 1.067-.378l.364-.21-2.013-.77q-.63-.237-1.079-.245a1.47 1.47 0 0 0-.764.189q-.375.218-.339.476.048.267.509.532m6.096 4.654q-.97-.56-.982-1.085 0-.519.958-1.071l6.135-3.542 1.552.896-5.99 3.458q-.448.258-.436.476.024.21.436.448l.909.525-1.2.693zm2.376-4.718 1.201-.693 4.28 2.471-1.201.693zm.144 6.173 6.475-3.738 1.552.896-6.475 3.738zm7.311-4.249 1.382-.798 1.613.931-1.382.798zm-1.506 7.768q-.958-.552-1.273-1.211-.291-.658.073-1.33.376-.665 1.394-1.253a6.8 6.8 0 0 1 2.171-.805 6.9 6.9 0 0 1 2.291-.035q1.152.176 2.11.728.957.554 1.248 1.211.304.651-.072 1.316-.352.666-1.382 1.26a6.7 6.7 0 0 1-2.183.798 6.9 6.9 0 0 1-2.291.049 6 6 0 0 1-2.086-.728m1.261-.728q.751.435 1.71.343.97-.083 1.976-.665.994-.573 1.14-1.134.17-.56-.582-.994-.751-.433-1.734-.343-.97.084-1.964.658-1.007.582-1.152 1.141-.146.56.606.994m3.259 3.17 6.474-3.738 1.407.812-1.758 1.085-.109-.147a4.8 4.8 0 0 1 1.491-.399 4.4 4.4 0 0 1 1.346.077q.63.14 1.152.441.714.413.885.875.181.468-.122.938-.29.462-1.018.882l-4.159 2.401-1.552-.896 3.662-2.114q.546-.315.812-.595.267-.28.206-.539-.036-.26-.448-.497-.619-.357-1.431-.322-.8.041-1.625.518l-3.661 2.114zm9.613 5.718q-.957-.553-1.333-1.092-.365-.532-.219-1.022t.728-.882l1.661.875q-.424.343-.364.7t.728.742q.545.315 1.018.392.497.077.873-.14.218-.126.255-.273.036-.147-.158-.385t-.679-.644q-.825-.672-1.152-1.141-.315-.476-.182-.833.146-.35.703-.672.91-.525 2.159-.448 1.272.077 2.618.854.873.504 1.177 1.015.315.504.145.98-.145.476-.691.889l-1.637-.861q.267-.224.352-.455a.49.49 0 0 0-.061-.455q-.133-.231-.497-.441-.546-.315-1.043-.35t-.86.175q-.255.147-.304.315-.036.175.146.406.193.224.594.553.861.68 1.188 1.162.352.483.206.847-.121.364-.654.672a3.2 3.2 0 0 1-1.407.406 5 5 0 0 1-1.637-.175 7.2 7.2 0 0 1-1.673-.714"/><defs><linearGradient id="a" x1="350.97" x2="241.625" y1="173.767" y2="173.767" gradientUnits="userSpaceOnUse"><stop stop-color="#d1d8ef"/><stop offset=".61" stop-color="#d8e1fb"/><stop offset=".692" stop-color="#b5bed9"/><stop offset="1" stop-color="#b4bdd8"/></linearGradient><linearGradient id="b" x1="241.56" x2="245.795" y1="123.904" y2="193.436" gradientUnits="userSpaceOnUse"><stop stop-color="#edf1fd"/><stop offset="1" stop-color="#e1e5f1"/></linearGradient><linearGradient id="c" x1="278.409" x2="113.592" y1="97.428" y2="97.428" gradientUnits="userSpaceOnUse"><stop stop-color="#d1d8ef"/><stop offset=".4" stop-color="#d8e1fb"/><stop offset=".473" stop-color="#b5bed9"/><stop offset="1" stop-color="#b4bdd8"/></linearGradient><linearGradient id="d" x1="113.494" x2="119.878" y1="47.584" y2="152.391" gradientUnits="userSpaceOnUse"><stop stop-color="#edf1fd"/><stop offset="1" stop-color="#e1e5f1"/></linearGradient></defs></svg>