<svg width="451" height="285" viewBox="0 0 451 285" fill="none" xmlns="http://www.w3.org/2000/svg">
<path d="M1 129.895L223.501 1.53522C224.738 0.821597 226.262 0.821601 227.499 1.53522L450 129.895V151.455C450 152.884 449.237 154.205 447.999 154.92L225.5 283.278L3.00118 154.92C1.76291 154.205 1 152.884 1 151.455V129.895Z" fill="#F9FAFB"/>
<path d="M1 129.895L225.5 259.408M1 129.895L223.501 1.53522C224.738 0.821597 226.262 0.821601 227.499 1.53522L450 129.895M1 129.895V151.455C1 152.884 1.76291 154.205 3.00118 154.92L225.5 283.278M225.5 259.408L450 129.895M225.5 259.408V283.278M450 129.895V151.455C450 152.884 449.237 154.205 447.999 154.92L225.5 283.278" stroke="#D5D7DA" stroke-width="2"/>
<path d="M313.209 122.781C314.592 122.781 316.029 123.082 317.173 123.743L350.035 142.717C351.094 143.328 351.854 144.233 351.957 145.335C351.959 145.352 351.961 145.368 351.962 145.376C351.964 145.398 351.965 145.416 351.965 145.421C351.965 145.433 351.966 145.445 351.966 145.449C351.966 145.459 351.967 145.471 351.967 145.481C351.967 145.503 351.967 145.535 351.967 145.572C351.967 145.648 351.967 145.758 351.968 145.897C351.968 146.176 351.969 146.576 351.97 147.056C351.97 148.019 351.971 149.311 351.971 150.633C351.971 153.274 351.97 156.034 351.97 156.494C351.97 156.573 351.96 156.649 351.942 156.722L351.938 156.741C351.93 156.783 351.916 156.85 351.893 156.933C351.847 157.1 351.769 157.323 351.636 157.576C351.364 158.09 350.879 158.686 350.035 159.173L283.352 197.673C282.207 198.333 280.769 198.635 279.387 198.635C278.004 198.635 276.567 198.333 275.423 197.673L242.561 178.699C241.701 178.203 241.212 177.599 240.941 177.072C240.809 176.813 240.733 176.584 240.69 176.411C240.669 176.324 240.656 176.253 240.648 176.205C240.647 176.193 240.645 176.183 240.644 176.177C240.643 176.17 240.643 176.169 240.643 176.169C240.632 176.111 240.626 176.053 240.626 175.994C240.626 175.534 240.625 172.772 240.625 170.132C240.625 168.811 240.626 167.518 240.627 166.555C240.627 166.074 240.628 165.675 240.629 165.395C240.629 165.256 240.629 165.146 240.63 165.069C240.63 165.031 240.63 164.999 240.631 164.975C240.631 164.965 240.631 164.95 240.632 164.936C240.632 164.931 240.632 164.915 240.634 164.896C240.634 164.893 240.636 164.885 240.637 164.874H240.636C240.735 163.766 241.498 162.857 242.561 162.244L309.245 123.744C310.389 123.083 311.826 122.781 313.209 122.781ZM241.529 176.989C241.56 176.992 241.593 176.994 241.626 176.994C241.594 176.994 241.561 176.992 241.529 176.989ZM241.14 176.866C241.159 176.877 241.18 176.887 241.202 176.897C241.181 176.887 241.16 176.877 241.14 176.866ZM240.823 176.591C240.827 176.595 240.832 176.6 240.838 176.607C240.83 176.597 240.822 176.586 240.814 176.575C240.818 176.58 240.82 176.586 240.823 176.591ZM351.653 157.222C351.656 157.22 351.66 157.217 351.663 157.215C351.666 157.212 351.668 157.208 351.671 157.205C351.665 157.211 351.659 157.217 351.653 157.222ZM351.692 157.182C351.71 157.164 351.726 157.147 351.74 157.13C351.725 157.148 351.709 157.165 351.692 157.182Z" fill="#474C59" stroke="#717680" stroke-width="2" stroke-linejoin="round"/>
<path d="M309.744 135.419C311.657 134.314 314.759 134.314 316.672 135.419L334.218 145.548H350.969V156.351C350.97 156.378 350.97 156.406 350.969 156.433V156.58H350.959C350.883 157.24 350.409 157.887 349.535 158.392L282.85 196.892C280.937 197.997 277.835 197.997 275.922 196.892L243.06 177.919C242.174 177.408 241.698 176.749 241.633 176.08H241.626L241.626 175.96C241.625 175.933 241.625 175.906 241.626 175.878L241.626 165.048H258.424L309.744 135.419Z" fill="url(#paint0_linear_328_114881)"/>
<path d="M309.744 124.695C311.657 123.591 314.759 123.591 316.672 124.695L349.535 143.668C351.448 144.773 351.448 146.564 349.535 147.668L282.85 186.169C280.937 187.273 277.835 187.273 275.922 186.169L243.06 167.196C241.147 166.091 241.147 164.3 243.06 163.196L309.744 124.695Z" fill="url(#paint1_linear_328_114881)"/>
<path d="M310.865 129.636C312.225 128.851 314.431 128.851 315.791 129.636L340.31 143.792C341.67 144.578 341.67 145.851 340.31 146.636L292.408 174.292C291.048 175.078 288.843 175.078 287.482 174.292L262.964 160.136C261.603 159.351 261.603 158.078 262.964 157.292L310.865 129.636Z" fill="white"/>
<circle cx="5" cy="5" r="5" transform="matrix(0.866025 0.5 -0.866026 0.5 266.951 166.156)" fill="white"/>
<path d="M185.175 46.4416C186.558 46.4416 187.995 46.7428 189.14 47.4035L277.474 98.4035C278.612 99.0607 279.409 100.063 279.409 101.27L279.408 112.017C279.408 112.021 279.408 112.027 279.408 112.031C279.391 113.223 278.6 114.209 277.474 114.86L210.789 153.36C209.645 154.02 208.208 154.322 206.825 154.322C205.442 154.322 204.006 154.02 202.861 153.36L114.526 102.36C113.52 101.778 112.784 100.933 112.625 99.9025C112.605 99.8231 112.593 99.7402 112.593 99.6544V88.6232C112.593 88.5431 112.603 88.4644 112.622 88.3878C112.773 87.3463 113.511 86.4907 114.526 85.9044L181.211 47.4044C182.355 46.7438 183.792 46.4416 185.175 46.4416Z" fill="#474C59" stroke="#717680" stroke-width="2" stroke-linejoin="round"/>
<path d="M181.711 59.0796C183.624 57.975 186.726 57.975 188.639 59.0796L261.864 101.356H278.409V112.103C278.399 112.819 277.92 113.533 276.974 114.08L210.289 152.58C208.376 153.684 205.274 153.684 203.361 152.58L115.027 101.58C114.141 101.068 113.665 100.41 113.6 99.7404H113.592L113.592 99.6205C113.592 99.5934 113.592 99.5662 113.592 99.5391L113.592 88.7092H130.391L181.711 59.0796Z" fill="url(#paint2_linear_328_114881)"/>
<path d="M181.711 48.3559C183.624 47.2514 186.726 47.2514 188.639 48.3559L276.974 99.3559C278.887 100.46 278.887 102.251 276.974 103.356L210.289 141.856C208.376 142.961 205.274 142.961 203.361 141.856L115.027 90.8562C113.114 89.7516 113.113 87.9608 115.027 86.8562L181.711 48.3559Z" fill="url(#paint3_linear_328_114881)"/>
<path d="M182.833 53.2971C184.193 52.5117 186.399 52.5117 187.759 53.2971L268.136 99.703C269.497 100.488 269.497 101.762 268.136 102.547L209.41 136.453C208.049 137.238 205.844 137.238 204.484 136.453L124.106 90.0471C122.746 89.2617 122.746 87.9884 124.106 87.203L182.833 53.2971Z" fill="white"/>
<path fill-rule="evenodd" clip-rule="evenodd" d="M197.863 80.5546C197.066 80.0944 195.774 80.0944 194.977 80.5546L190.646 83.0546C189.849 83.5148 189.849 84.261 190.646 84.7213L199.307 89.7213L194.977 92.2213L189.203 88.8879C188.782 88.6447 188.197 88.5198 187.603 88.5462L178.221 88.9629C178.093 88.9686 177.969 88.981 177.849 88.9994L176.213 88.0546C175.416 87.5944 174.123 87.5944 173.326 88.0546L167.552 91.3879C166.755 91.8482 166.755 92.5944 167.552 93.0546L173.326 96.3879C174.123 96.8482 175.416 96.8482 176.213 96.3879L181.986 93.0546C182.783 92.5944 182.783 91.8482 181.986 91.3879L181.619 91.176L186.98 90.9379L192.09 93.8879L189.203 95.5546L187.76 94.7213C186.963 94.261 185.67 94.261 184.873 94.7213L179.099 98.0546C178.302 98.5148 178.302 99.261 179.099 99.7213L184.873 103.055C185.67 103.515 186.963 103.515 187.76 103.055L193.533 99.7213C194.33 99.261 194.33 98.5148 193.533 98.0546L192.09 97.2213L194.977 95.5546L200.07 98.495L199.668 101.596L199.307 101.388C198.51 100.928 197.217 100.928 196.42 101.388L190.646 104.721C189.849 105.182 189.849 105.928 190.646 106.388L196.42 109.721C197.217 110.182 198.51 110.182 199.307 109.721L205.08 106.388C205.877 105.928 205.877 105.182 205.08 104.721L203.444 103.776C203.476 103.707 203.498 103.634 203.507 103.559L204.21 98.1318C204.255 97.7896 204.039 97.4532 203.618 97.2106L197.863 93.8879L202.193 91.3879L210.854 96.3879C211.651 96.8482 212.943 96.8482 213.74 96.3879L218.071 93.8879C218.868 93.4277 218.868 92.6815 218.071 92.2213L197.863 80.5546ZM186.316 97.2213L189.203 98.8879L186.316 100.555L183.43 98.8879L186.316 97.2213ZM212.297 93.8879L213.74 93.0546L196.42 83.0546L194.977 83.8879L212.297 93.8879ZM171.883 92.2213L174.769 90.5546L177.656 92.2213L174.769 93.8879L171.883 92.2213ZM194.977 105.555L197.863 103.888L200.75 105.555L197.863 107.221L194.977 105.555Z" fill="#6E7CA5"/>
<path d="M213.74 93.0546L212.297 93.8879L194.977 83.8879L196.42 83.0546L213.74 93.0546Z" fill="#6E7CA5"/>
<path d="M174.769 90.5546L171.883 92.2213L174.769 93.8879L177.656 92.2213L174.769 90.5546Z" fill="#6E7CA5"/>
<path d="M186.316 100.555L189.203 98.8879L186.316 97.2213L183.43 98.8879L186.316 100.555Z" fill="#6E7CA5"/>
<path d="M197.863 103.888L194.977 105.555L197.863 107.221L200.75 105.555L197.863 103.888Z" fill="#6E7CA5"/>
<path d="M120.35 149.728L132.062 146.55L133.99 147.663L128.486 154.425L126.837 153.473L128.158 151.884L124.751 149.917L121.999 150.68L120.35 149.728ZM126.558 149.406L129.043 150.841L131.444 148.027L126.558 149.406ZM127.509 155.961L135.802 151.173L137.293 152.034L135.947 152.853L135.863 152.72C136.501 152.538 137.124 152.482 137.73 152.552C138.352 152.622 138.91 152.799 139.403 153.084C140.017 153.438 140.373 153.821 140.47 154.232C140.575 154.647 140.474 155.06 140.167 155.471C139.86 155.881 139.395 156.266 138.772 156.626C138.15 156.985 137.479 157.251 136.76 157.424C136.049 157.601 135.333 157.659 134.614 157.599C133.903 157.543 133.24 157.337 132.625 156.983C132.302 156.796 132.056 156.588 131.886 156.36C131.724 156.136 131.647 155.905 131.655 155.667C131.672 155.433 131.781 155.212 131.983 155.002L132.25 155.016L129.061 156.857L127.509 155.961ZM133.523 156.045C133.991 156.315 134.545 156.42 135.184 156.36C135.838 156.299 136.497 156.077 137.16 155.695C137.823 155.312 138.203 154.934 138.3 154.561C138.413 154.187 138.235 153.865 137.766 153.595C137.451 153.413 137.099 153.303 136.711 153.266C136.331 153.224 135.919 153.256 135.475 153.364C135.038 153.476 134.586 153.667 134.117 153.938C133.648 154.208 133.316 154.47 133.123 154.722C132.929 154.974 132.864 155.212 132.929 155.436C133.009 155.66 133.207 155.863 133.523 156.045ZM134.921 160.24L143.214 155.452L144.705 156.313L143.359 157.132L143.275 156.999C143.913 156.817 144.535 156.761 145.142 156.831C145.764 156.901 146.322 157.078 146.815 157.363C147.429 157.718 147.785 158.1 147.882 158.511C147.987 158.926 147.886 159.339 147.579 159.75C147.272 160.161 146.807 160.546 146.184 160.905C145.562 161.264 144.891 161.53 144.172 161.703C143.46 161.88 142.745 161.939 142.026 161.878C141.314 161.822 140.652 161.617 140.037 161.262C139.714 161.075 139.468 160.868 139.298 160.639C139.136 160.415 139.059 160.184 139.067 159.946C139.084 159.713 139.193 159.491 139.395 159.281L139.662 159.295L136.473 161.136L134.921 160.24ZM140.935 160.324C141.403 160.595 141.957 160.7 142.596 160.639C143.25 160.578 143.909 160.357 144.572 159.974C145.235 159.591 145.615 159.213 145.712 158.84C145.825 158.467 145.647 158.145 145.178 157.874C144.863 157.692 144.511 157.582 144.123 157.545C143.743 157.503 143.331 157.536 142.887 157.643C142.45 157.755 141.997 157.946 141.529 158.217C141.06 158.488 140.728 158.749 140.534 159.001C140.34 159.253 140.276 159.491 140.34 159.715C140.421 159.939 140.619 160.142 140.935 160.324ZM145.763 164.399C145.294 164.129 145.039 163.842 144.999 163.538C144.958 163.235 145.205 162.929 145.738 162.621L152.819 158.533L154.371 159.429L147.448 163.426C147.286 163.52 147.205 163.613 147.205 163.706C147.213 163.804 147.294 163.898 147.448 163.986L147.921 164.259L146.72 164.952L145.763 164.399ZM147.715 165.527L154.19 161.789L155.742 162.685L149.267 166.423L147.715 165.527ZM155.026 161.278L156.409 160.48L158.021 161.411L156.639 162.209L155.026 161.278ZM153.52 169.046C152.874 168.673 152.449 168.269 152.247 167.835C152.053 167.397 152.078 166.953 152.32 166.505C152.571 166.062 153.035 165.644 153.714 165.252C154.393 164.86 155.113 164.594 155.873 164.454C156.648 164.314 157.416 164.3 158.176 164.412C158.936 164.524 159.639 164.767 160.286 165.14C160.835 165.458 161.227 165.796 161.462 166.155C161.696 166.515 161.765 166.876 161.668 167.24C161.587 167.604 161.32 167.954 160.868 168.29L159.182 167.415C159.53 167.14 159.68 166.867 159.631 166.596C159.599 166.326 159.397 166.083 159.025 165.868C158.524 165.579 157.946 165.465 157.291 165.525C156.644 165.581 155.99 165.801 155.327 166.183C154.656 166.571 154.272 166.951 154.175 167.324C154.078 167.698 154.28 168.029 154.781 168.318C155.161 168.538 155.586 168.657 156.054 168.675C156.531 168.699 157.028 168.594 157.546 168.36L159.073 169.326C158.491 169.588 157.877 169.751 157.23 169.816C156.584 169.882 155.941 169.851 155.303 169.725C154.672 169.595 154.078 169.368 153.52 169.046ZM159.596 172.554C158.917 172.162 158.525 171.759 158.42 171.343C158.323 170.923 158.554 170.552 159.111 170.23C159.669 169.908 160.279 169.757 160.942 169.775C161.605 169.794 162.361 169.969 163.209 170.3L165.78 171.294C166.24 171.028 166.479 170.769 166.495 170.517C166.519 170.261 166.325 170.013 165.913 169.775C165.541 169.561 165.157 169.442 164.761 169.418C164.381 169.395 163.989 169.453 163.585 169.593L162.082 168.641C162.898 168.319 163.739 168.198 164.604 168.277C165.477 168.352 166.313 168.62 167.113 169.082C168.035 169.614 168.495 170.151 168.495 170.692C168.512 171.234 168.087 171.754 167.222 172.253L164.87 173.611C164.701 173.709 164.612 173.793 164.604 173.863C164.604 173.938 164.664 174.01 164.785 174.08L164.992 174.199L163.864 174.85C163.799 174.832 163.706 174.792 163.585 174.731C163.472 174.675 163.359 174.615 163.246 174.549C162.979 174.395 162.781 174.234 162.652 174.066C162.53 173.894 162.518 173.714 162.615 173.527C162.72 173.336 162.959 173.133 163.331 172.918L163.367 173.051C163.019 173.177 162.623 173.243 162.179 173.247C161.75 173.252 161.314 173.196 160.869 173.079C160.425 172.963 160 172.788 159.596 172.554ZM161.039 172.085C161.387 172.286 161.754 172.419 162.142 172.484C162.53 172.55 162.914 172.552 163.294 172.491C163.674 172.431 164.03 172.305 164.361 172.113L164.725 171.903L162.712 171.133C162.292 170.975 161.932 170.893 161.633 170.888C161.35 170.884 161.096 170.947 160.869 171.077C160.619 171.222 160.506 171.381 160.53 171.553C160.562 171.731 160.732 171.908 161.039 172.085ZM167.135 176.739C166.488 176.365 166.161 176.004 166.153 175.654C166.153 175.308 166.472 174.951 167.111 174.583L173.246 171.041L174.798 171.937L168.808 175.395C168.509 175.567 168.364 175.726 168.372 175.871C168.388 176.011 168.533 176.16 168.808 176.319L169.717 176.844L168.517 177.537L167.135 176.739ZM169.511 172.021L170.712 171.328L174.992 173.799L173.791 174.492L169.511 172.021ZM169.655 178.194L176.13 174.456L177.682 175.352L171.207 179.09L169.655 178.194ZM176.966 173.945L178.348 173.147L179.961 174.078L178.579 174.876L176.966 173.945ZM175.46 181.713C174.822 181.345 174.397 180.941 174.187 180.502C173.993 180.064 174.017 179.62 174.26 179.172C174.511 178.729 174.975 178.311 175.654 177.919C176.341 177.523 177.065 177.254 177.825 177.114C178.6 176.974 179.364 176.963 180.116 177.079C180.884 177.196 181.587 177.439 182.226 177.807C182.864 178.176 183.28 178.58 183.474 179.018C183.677 179.452 183.652 179.891 183.402 180.334C183.167 180.778 182.707 181.198 182.02 181.594C181.341 181.986 180.613 182.252 179.837 182.392C179.069 182.537 178.305 182.553 177.546 182.441C176.794 182.325 176.099 182.082 175.46 181.713ZM176.721 180.985C177.222 181.275 177.792 181.389 178.431 181.328C179.077 181.272 179.736 181.051 180.407 180.663C181.07 180.281 181.45 179.903 181.547 179.529C181.66 179.156 181.466 178.825 180.965 178.535C180.464 178.246 179.886 178.132 179.231 178.192C178.584 178.248 177.93 178.468 177.267 178.85C176.596 179.238 176.212 179.618 176.115 179.991C176.018 180.365 176.22 180.696 176.721 180.985ZM179.98 184.155L186.454 180.417L187.861 181.229L186.103 182.314L185.994 182.167C186.511 181.943 187.008 181.81 187.485 181.768C187.962 181.726 188.41 181.751 188.831 181.845C189.251 181.938 189.635 182.085 189.983 182.286C190.459 182.561 190.754 182.853 190.868 183.161C190.989 183.473 190.948 183.786 190.746 184.099C190.552 184.407 190.213 184.701 189.728 184.981L185.569 187.382L184.017 186.486L187.679 184.372C188.043 184.162 188.313 183.963 188.491 183.777C188.669 183.59 188.738 183.41 188.697 183.238C188.673 183.065 188.524 182.899 188.249 182.741C187.836 182.503 187.36 182.395 186.818 182.419C186.285 182.447 185.743 182.619 185.193 182.937L181.532 185.051L179.98 184.155ZM189.593 189.873C188.955 189.504 188.51 189.14 188.26 188.781C188.017 188.426 187.944 188.086 188.041 187.759C188.138 187.432 188.381 187.138 188.769 186.877L190.43 187.752C190.147 187.981 190.026 188.214 190.066 188.452C190.106 188.69 190.349 188.937 190.794 189.194C191.157 189.404 191.497 189.535 191.812 189.586C192.143 189.637 192.434 189.591 192.685 189.446C192.83 189.362 192.915 189.271 192.94 189.173C192.964 189.075 192.911 188.947 192.782 188.788C192.653 188.629 192.426 188.415 192.103 188.144C191.553 187.696 191.169 187.316 190.951 187.003C190.741 186.686 190.68 186.408 190.769 186.17C190.866 185.937 191.101 185.713 191.472 185.498C192.079 185.148 192.798 184.999 193.631 185.05C194.479 185.101 195.352 185.386 196.249 185.904C196.831 186.24 197.223 186.578 197.426 186.919C197.636 187.255 197.684 187.582 197.571 187.899C197.474 188.216 197.244 188.513 196.88 188.788L195.243 187.927C195.421 187.778 195.538 187.626 195.595 187.472C195.651 187.318 195.631 187.166 195.534 187.017C195.445 186.863 195.28 186.716 195.037 186.576C194.673 186.366 194.326 186.249 193.994 186.226C193.663 186.203 193.376 186.261 193.134 186.401C192.964 186.499 192.863 186.604 192.83 186.716C192.806 186.833 192.855 186.968 192.976 187.122C193.105 187.271 193.303 187.456 193.57 187.675C194.144 188.128 194.54 188.515 194.758 188.837C194.993 189.159 195.061 189.441 194.964 189.684C194.883 189.927 194.665 190.151 194.31 190.356C193.897 190.594 193.429 190.729 192.903 190.762C192.386 190.799 191.84 190.741 191.266 190.587C190.709 190.433 190.151 190.195 189.593 189.873Z" fill="#535862"/>
<defs>
<linearGradient id="paint0_linear_328_114881" x1="350.97" y1="173.767" x2="241.625" y2="173.767" gradientUnits="userSpaceOnUse">
<stop stop-color="#D1D8EF"/>
<stop offset="0.610162" stop-color="#D8E1FB"/>
<stop offset="0.69247" stop-color="#B5BED9"/>
<stop offset="1" stop-color="#B4BDD8"/>
</linearGradient>
<linearGradient id="paint1_linear_328_114881" x1="241.56" y1="123.904" x2="245.795" y2="193.436" gradientUnits="userSpaceOnUse">
<stop stop-color="#EDF1FD"/>
<stop offset="1" stop-color="#E1E5F1"/>
</linearGradient>
<linearGradient id="paint2_linear_328_114881" x1="278.409" y1="97.428" x2="113.592" y2="97.428" gradientUnits="userSpaceOnUse">
<stop stop-color="#D1D8EF"/>
<stop offset="0.400167" stop-color="#D8E1FB"/>
<stop offset="0.472975" stop-color="#B5BED9"/>
<stop offset="1" stop-color="#B4BDD8"/>
</linearGradient>
<linearGradient id="paint3_linear_328_114881" x1="113.494" y1="47.5838" x2="119.878" y2="152.391" gradientUnits="userSpaceOnUse">
<stop stop-color="#EDF1FD"/>
<stop offset="1" stop-color="#E1E5F1"/>
</linearGradient>
</defs>
</svg>
