<svg width="451" height="288" viewBox="0 0 451 288" fill="none" xmlns="http://www.w3.org/2000/svg">
<path d="M1 133.409L223.501 5.04904C224.738 4.33542 226.262 4.33543 227.499 5.04905L450 133.409V154.969C450 156.398 449.237 157.719 447.999 158.434L225.5 286.792L3.00118 158.434C1.76291 157.719 1 156.398 1 154.969V133.409Z" fill="#3B82F6"/>
<path d="M1 133.409L225.5 262.922M1 133.409L223.501 5.04904C224.738 4.33542 226.262 4.33543 227.499 5.04905L450 133.409M1 133.409V154.969C1 156.398 1.76291 157.719 3.00118 158.434L225.5 286.792M225.5 262.922L450 133.409M225.5 262.922V286.792M450 133.409V154.969C450 156.398 449.237 157.719 447.999 158.434L225.5 286.792" stroke="#1C3A69" stroke-width="2"/>
<path d="M301.473 64.5756C313.209 60.7452 327.659 62.3226 336.683 67.5853C343.495 71.5588 346.918 77.7286 345.224 83.7367C345.336 83.8039 345.437 83.864 345.519 83.9115L345.526 83.9154L345.534 83.9203C349.989 86.5878 352.745 90.407 352.51 94.5805V130.272C352.531 130.641 352.53 131.011 352.506 131.38V131.39L352.505 131.4L352.489 131.598L352.487 131.618C352.151 135.238 349.819 138.66 345.546 141.152C340.996 143.806 335.125 145.076 329.338 145.063C323.55 145.05 317.683 143.753 313.137 141.101H313.136L278.989 121.172C275.252 118.993 273.157 116.121 272.983 112.811V112.809L272.973 112.402C272.973 112.292 272.977 112.182 272.981 112.073V76.017H272.982C272.976 75.7904 272.969 75.2856 272.985 75.0785V75.0775C273.239 71.8326 275.478 68.906 279.125 66.7787C285.263 63.1988 294.252 62.5125 301.473 64.5756Z" fill="#3258C2" stroke="#3258C2" stroke-width="3"/>
<path d="M351.132 131.498C350.852 134.524 348.73 137.502 344.766 139.814C336.236 144.789 322.405 144.789 313.875 139.814L279.857 119.973C276.396 117.955 274.596 115.334 274.458 112.69L274.458 112.688C274.446 112.469 274.446 112.249 274.458 112.03L274.458 94.9524L313.408 94.9524L313.408 100.663C321.477 100.285 329.768 101.895 335.94 105.495C339.976 107.849 342.554 110.731 343.673 113.76L351.148 113.76V130.311C351.17 130.64 351.17 130.97 351.148 131.3V131.498H351.132Z" fill="url(#paint0_linear_328_114853)"/>
<path d="M279.857 103.061C272.647 98.8556 272.647 92.0373 279.857 87.832C285.71 84.4184 294.514 83.7757 301.479 85.9039C312.409 82.2424 326.6 83.1354 335.94 88.5827C343.215 92.8259 345.752 98.7859 343.552 104.227C343.967 104.435 344.372 104.654 344.766 104.884C353.297 109.859 353.297 117.926 344.766 122.901C336.236 127.877 322.405 127.877 313.875 122.901L295.497 112.183C295.494 112.181 295.49 112.179 295.487 112.177C295.483 112.175 295.48 112.173 295.476 112.171L279.857 103.061Z" fill="url(#paint1_linear_328_114853)"/>
<path d="M351.132 111.698C350.852 114.724 348.73 117.702 344.766 120.014C336.236 124.989 322.405 124.989 313.875 120.014L279.857 100.173C276.396 98.155 274.596 95.5345 274.458 92.8899L274.458 92.8881C274.446 92.6688 274.446 92.4493 274.458 92.2299L274.458 75.1524L313.408 75.1524L313.408 80.8627C321.477 80.4845 329.768 82.0954 335.94 85.6953C339.976 88.0491 342.554 90.9313 343.673 93.9602L351.148 93.9602V110.511C351.17 110.84 351.17 111.17 351.148 111.5V111.698H351.132Z" fill="url(#paint2_linear_328_114853)"/>
<path d="M283.6 93.8373C283.6 92.4705 284.55 91.9165 285.722 92.6C286.893 93.2835 287.843 94.946 287.843 96.3129C287.843 97.6794 286.893 98.2333 285.722 97.5502C284.55 96.8667 283.6 95.2042 283.6 93.8373ZM277.883 90.5375C277.883 89.1706 278.833 88.6167 280.005 89.3002C281.176 89.9837 282.126 91.6454 282.126 93.0121C282.126 94.3788 281.177 94.9335 280.005 94.2504C278.833 93.5669 277.883 91.9044 277.883 90.5375Z" fill="#D6E0FF"/>
<path d="M279.857 83.2609C272.647 79.0556 272.647 72.2373 279.857 68.032C285.71 64.6184 294.514 63.9757 301.479 66.1039C312.409 62.4424 326.6 63.3354 335.94 68.7827C343.215 73.0259 345.752 78.9859 343.552 84.4266C343.967 84.6352 344.372 84.8543 344.766 85.0841C353.297 90.0595 353.297 98.1261 344.766 103.101C336.236 108.077 322.405 108.077 313.875 103.101L295.497 92.383C295.494 92.3809 295.49 92.3789 295.487 92.3768C295.483 92.3748 295.48 92.3727 295.476 92.3707L279.857 83.2609Z" fill="url(#paint3_linear_328_114853)"/>
<g clip-path="url(#clip0_328_114853)">
<path d="M192.531 11.0266C192.982 10.9197 193.443 10.9254 193.888 11.0139L219.557 13.3351L219.666 13.3449L219.772 13.3713C220.582 13.566 221.33 14.0284 221.957 14.6017L222.013 14.6525L222.062 14.7092L245.191 40.5783C246.578 41.8857 247.56 43.9168 247.56 45.7541V62.6594C247.56 75.0666 243.198 84.4882 235.46 88.9094L235.458 88.9103L223.574 95.6818L223.567 95.6857C219.11 98.1947 213.696 98.9534 207.688 97.7961C206.76 97.6174 205.907 97.0797 205.214 96.4133C189.252 81.0584 178.441 57.5855 178.441 37.9953V21.0978C178.441 19.9163 178.877 18.6435 180.049 18.007V18.006L191.918 11.2414L192.327 11.008L192.531 11.0266Z" fill="#3258C2" stroke="#3258C2" stroke-width="3"/>
<path d="M219.422 14.8294C219.919 14.9489 220.447 15.2541 220.945 15.7089L244.105 41.6139C245.263 42.6736 246.06 44.36 246.06 45.7537L246.06 62.6592C246.06 74.7603 241.815 83.5511 234.716 87.6072L234.737 87.6091L222.856 94.3812L209.713 93.1897L217.925 88.509C202.274 73.3918 191.725 50.3593 191.725 31.2812V20.3086L180.779 19.3163L192.66 12.5443L192.681 12.5462C192.966 12.4305 193.304 12.4108 193.681 12.5012L219.422 14.8294Z" fill="url(#paint4_linear_328_114853)"/>
<path fill-rule="evenodd" clip-rule="evenodd" d="M207.638 21.5939C208.135 21.7134 208.664 22.0186 209.161 22.4734L232.321 48.3784C233.48 49.4381 234.276 51.1245 234.276 52.5182L234.276 69.4237C234.276 88.543 223.68 99.3989 207.971 96.3733C207.414 96.266 206.811 95.9181 206.254 95.3819C190.541 80.2665 179.941 57.1694 179.941 38.0457L179.941 21.148C179.941 19.754 180.738 18.9872 181.897 19.2657L207.638 21.5939Z" fill="url(#paint5_linear_328_114853)"/>
<path d="M192.201 37.1C192.201 34.6607 193.914 33.672 196.026 34.8917C198.139 36.1113 199.851 39.0774 199.851 41.5167C199.851 43.9559 198.139 44.9446 196.026 43.725C193.914 42.5054 192.201 39.5392 192.201 37.1Z" fill="white"/>
<path d="M212.601 48.8778C212.601 46.4385 214.313 45.4498 216.426 46.6694C218.538 47.8891 220.251 50.8552 220.251 53.2944C220.251 55.7337 218.538 56.7224 216.426 55.5028C214.313 54.2832 212.601 51.317 212.601 48.8778Z" fill="white"/>
<path d="M202.401 54.7667C202.401 52.3274 204.114 51.3387 206.226 52.5583C208.338 53.7779 210.051 56.7441 210.051 59.1833C210.051 61.6226 208.338 62.6113 206.226 61.3917C204.114 60.1721 202.401 57.2059 202.401 54.7667Z" fill="white"/>
<path d="M212.601 72.4333C212.601 69.9941 214.313 69.0054 216.426 70.225C218.538 71.4446 220.251 74.4108 220.251 76.85C220.251 79.2892 218.538 80.278 216.426 79.0583C214.313 77.8387 212.601 74.8726 212.601 72.4333Z" fill="white"/>
<path d="M192.201 60.6556C192.201 58.2163 193.914 57.2276 196.026 58.4472C198.139 59.6668 199.851 62.633 199.851 65.0722C199.851 67.5115 198.139 68.5002 196.026 67.2806C193.914 66.0609 192.201 63.0948 192.201 60.6556Z" fill="white"/>
<path d="M202.401 42.9889C202.401 42.1758 202.972 41.8462 203.676 42.2528L208.776 45.1972C209.48 45.6038 210.051 46.5925 210.051 47.4056C210.051 48.2186 209.48 48.5482 208.776 48.1417L203.676 45.1972C202.972 44.7907 202.401 43.802 202.401 42.9889Z" fill="white"/>
<path d="M202.401 66.5444C202.401 65.7314 202.972 65.4018 203.676 65.8083L208.776 68.7528C209.48 69.1593 210.051 70.148 210.051 70.9611C210.051 71.7742 209.48 72.1038 208.776 71.6972L203.676 68.7528C202.972 68.3462 202.401 67.3575 202.401 66.5444Z" fill="white"/>
<path d="M196.026 46.6694C196.73 47.076 197.301 48.0647 197.301 48.8778L197.301 54.7667C197.301 55.5798 196.73 55.9093 196.026 55.5028C195.322 55.0962 194.751 54.1075 194.751 53.2944L194.751 47.4056C194.751 46.5925 195.322 46.2629 196.026 46.6694Z" fill="white"/>
<path d="M216.426 58.4472C217.13 58.8538 217.701 59.8425 217.701 60.6556L217.701 66.5444C217.701 67.3575 217.13 67.6871 216.426 67.2806C215.722 66.874 215.151 65.8853 215.151 65.0722L215.151 59.1833C215.151 58.3702 215.722 58.0407 216.426 58.4472Z" fill="white"/>
</g>
<g clip-path="url(#clip1_328_114853)">
<rect width="182" height="32" rx="16" transform="matrix(0.866025 0.5 -0.866025 0.5 81.5566 124.25)" fill="#3B82F6"/>
<path d="M82.0122 145.513L90.6205 140.543L93.4818 142.195C94.8559 142.988 95.5349 143.814 95.5187 144.673C95.5187 145.531 94.8276 146.36 93.4455 147.158C92.0714 147.951 90.6488 148.352 89.1777 148.362C87.7066 148.371 86.2961 147.986 84.9463 147.207L82.0122 145.513ZM84.9584 145.632L86.2436 146.374C87.1408 146.892 88.0501 147.137 88.9716 147.109C89.893 147.081 90.8428 146.784 91.8208 146.22C92.815 145.646 93.3363 145.093 93.3848 144.561C93.4333 144.029 93.009 143.504 92.1118 142.986L90.8266 142.244L84.9584 145.632ZM90.333 150.317L96.8074 146.579L98.3593 147.475L91.8849 151.213L90.333 150.317ZM97.644 146.068L99.0262 145.27L100.639 146.201L99.2565 146.999L97.644 146.068ZM94.2709 154.858C93.7051 154.532 93.2969 154.207 93.0463 153.885C92.7957 153.563 92.6866 153.248 92.7189 152.94C92.7513 152.642 92.9008 152.359 93.1675 152.093L94.8771 152.954C94.7154 153.141 94.6629 153.33 94.7195 153.521C94.7841 153.717 95.0266 153.937 95.4469 154.179C95.9238 154.455 96.4007 154.604 96.8776 154.627C97.3464 154.655 97.8071 154.539 98.2598 154.277L99.0842 153.801C98.6154 153.895 98.1143 153.899 97.5808 153.815C97.0554 153.727 96.5826 153.561 96.1623 153.318C95.6288 153.01 95.2812 152.66 95.1196 152.268C94.9741 151.876 95.0185 151.477 95.2529 151.071C95.4954 150.661 95.9279 150.276 96.5502 149.916C97.1726 149.557 97.8314 149.307 98.5265 149.167C99.2378 149.027 99.9329 148.999 100.612 149.083C101.299 149.163 101.909 149.356 102.443 149.664C102.911 149.935 103.211 150.229 103.34 150.546C103.469 150.864 103.437 151.167 103.243 151.456L104.249 150.875L105.765 151.75L99.8602 155.159C99.3105 155.477 98.7165 155.67 98.0779 155.74C97.4474 155.815 96.8089 155.773 96.1623 155.614C95.5156 155.465 94.8852 155.213 94.2709 154.858ZM97.7384 152.828C98.1991 153.094 98.7367 153.209 99.351 153.171C99.9733 153.129 100.592 152.936 101.206 152.59C101.618 152.362 101.901 152.128 102.055 151.89C102.224 151.652 102.269 151.421 102.188 151.197C102.123 150.973 101.933 150.77 101.618 150.588C101.141 150.313 100.592 150.201 99.9693 150.252C99.3631 150.304 98.765 150.5 98.1749 150.84C97.5848 151.181 97.2454 151.531 97.1565 151.89C97.0837 152.25 97.2777 152.562 97.7384 152.828ZM100.871 156.401L107.345 152.663L108.897 153.559L102.423 157.297L100.871 156.401ZM108.182 152.152L109.564 151.354L111.176 152.285L109.794 153.083L108.182 152.152ZM106.319 159.546C105.672 159.173 105.345 158.811 105.337 158.461C105.337 158.116 105.656 157.759 106.295 157.39L112.43 153.848L113.981 154.744L107.992 158.202C107.693 158.375 107.547 158.533 107.556 158.678C107.572 158.818 107.717 158.967 107.992 159.126L108.901 159.651L107.701 160.344L106.319 159.546ZM108.695 154.828L109.896 154.135L114.175 156.606L112.975 157.299L108.695 154.828ZM110.537 162.15C109.859 161.758 109.466 161.354 109.361 160.939C109.264 160.519 109.495 160.148 110.053 159.826C110.61 159.504 111.22 159.352 111.883 159.371C112.546 159.389 113.302 159.564 114.151 159.896L116.721 160.89C117.182 160.624 117.42 160.365 117.436 160.113C117.46 159.856 117.266 159.609 116.854 159.371C116.482 159.156 116.099 159.037 115.702 159.014C115.323 158.99 114.931 159.049 114.526 159.189L113.023 158.237C113.839 157.915 114.68 157.793 115.545 157.873C116.418 157.947 117.254 158.216 118.055 158.678C118.976 159.21 119.437 159.746 119.437 160.288C119.453 160.829 119.029 161.349 118.164 161.849L115.812 163.207C115.642 163.305 115.553 163.389 115.545 163.459C115.545 163.533 115.605 163.606 115.727 163.676L115.933 163.795L114.805 164.446C114.741 164.427 114.648 164.387 114.526 164.327C114.413 164.271 114.3 164.21 114.187 164.145C113.92 163.991 113.722 163.83 113.593 163.662C113.472 163.489 113.459 163.309 113.556 163.123C113.662 162.931 113.9 162.728 114.272 162.514L114.308 162.647C113.961 162.773 113.565 162.838 113.12 162.843C112.692 162.847 112.255 162.791 111.811 162.675C111.366 162.558 110.942 162.383 110.537 162.15ZM111.98 161.681C112.328 161.881 112.696 162.014 113.084 162.08C113.472 162.145 113.856 162.147 114.235 162.087C114.615 162.026 114.971 161.9 115.302 161.709L115.666 161.499L113.653 160.729C113.233 160.57 112.873 160.488 112.574 160.484C112.291 160.479 112.037 160.542 111.811 160.673C111.56 160.817 111.447 160.976 111.471 161.149C111.503 161.326 111.673 161.503 111.98 161.681ZM117.27 165.869C116.801 165.598 116.547 165.311 116.506 165.008C116.466 164.705 116.713 164.399 117.246 164.091L124.327 160.003L125.879 160.899L118.956 164.896C118.794 164.989 118.713 165.083 118.713 165.176C118.721 165.274 118.802 165.367 118.956 165.456L119.428 165.729L118.228 166.422L117.27 165.869ZM123.917 169.874C123.238 169.482 122.846 169.079 122.741 168.663C122.644 168.243 122.874 167.872 123.432 167.55C123.99 167.228 124.6 167.077 125.263 167.095C125.925 167.114 126.681 167.289 127.53 167.62L130.1 168.614C130.561 168.348 130.799 168.089 130.816 167.837C130.84 167.581 130.646 167.333 130.234 167.095C129.862 166.881 129.478 166.762 129.082 166.738C128.702 166.715 128.31 166.773 127.906 166.913L126.402 165.961C127.219 165.639 128.059 165.518 128.924 165.597C129.797 165.672 130.634 165.94 131.434 166.402C132.355 166.934 132.816 167.471 132.816 168.012C132.832 168.554 132.408 169.074 131.543 169.573L129.191 170.931C129.021 171.029 128.932 171.113 128.924 171.183C128.924 171.258 128.985 171.33 129.106 171.4L129.312 171.519L128.185 172.17C128.12 172.152 128.027 172.112 127.906 172.051C127.793 171.995 127.679 171.935 127.566 171.869C127.3 171.715 127.102 171.554 126.972 171.386C126.851 171.214 126.839 171.034 126.936 170.847C127.041 170.656 127.279 170.453 127.651 170.238L127.688 170.371C127.34 170.497 126.944 170.563 126.499 170.567C126.071 170.572 125.635 170.516 125.19 170.399C124.745 170.283 124.321 170.108 123.917 169.874ZM125.36 169.405C125.707 169.606 126.075 169.739 126.463 169.804C126.851 169.87 127.235 169.872 127.615 169.811C127.995 169.751 128.35 169.625 128.682 169.433L129.045 169.223L127.033 168.453C126.613 168.295 126.253 168.213 125.954 168.208C125.671 168.204 125.416 168.267 125.19 168.397C124.939 168.542 124.826 168.701 124.85 168.873C124.883 169.051 125.053 169.228 125.36 169.405ZM131.607 174.314C130.968 173.946 130.524 173.582 130.273 173.222C130.031 172.868 129.958 172.527 130.055 172.2C130.152 171.874 130.395 171.58 130.782 171.318L132.444 172.193C132.161 172.422 132.039 172.655 132.08 172.893C132.12 173.131 132.363 173.379 132.807 173.635C133.171 173.845 133.51 173.976 133.826 174.027C134.157 174.079 134.448 174.032 134.699 173.887C134.844 173.803 134.929 173.712 134.953 173.614C134.978 173.516 134.925 173.388 134.796 173.229C134.666 173.071 134.44 172.856 134.117 172.585C133.567 172.137 133.183 171.757 132.965 171.444C132.755 171.127 132.694 170.849 132.783 170.611C132.88 170.378 133.114 170.154 133.486 169.939C134.092 169.589 134.812 169.44 135.644 169.491C136.493 169.543 137.366 169.827 138.263 170.345C138.845 170.681 139.237 171.02 139.439 171.36C139.649 171.696 139.698 172.023 139.585 172.34C139.488 172.658 139.257 172.954 138.894 173.229L137.257 172.368C137.435 172.219 137.552 172.067 137.609 171.913C137.665 171.759 137.645 171.608 137.548 171.458C137.459 171.304 137.293 171.157 137.051 171.017C136.687 170.807 136.339 170.691 136.008 170.667C135.677 170.644 135.39 170.702 135.147 170.842C134.978 170.94 134.876 171.045 134.844 171.157C134.82 171.274 134.868 171.409 134.99 171.563C135.119 171.713 135.317 171.897 135.584 172.116C136.158 172.569 136.554 172.956 136.772 173.278C137.006 173.6 137.075 173.883 136.978 174.125C136.897 174.368 136.679 174.592 136.323 174.797C135.911 175.035 135.442 175.171 134.917 175.203C134.4 175.241 133.854 175.182 133.28 175.028C132.722 174.874 132.165 174.636 131.607 174.314ZM138.226 178.135C137.587 177.767 137.143 177.403 136.892 177.043C136.649 176.689 136.577 176.348 136.674 176.021C136.771 175.695 137.013 175.401 137.401 175.139L139.062 176.014C138.779 176.243 138.658 176.476 138.698 176.714C138.739 176.952 138.981 177.2 139.426 177.456C139.79 177.666 140.129 177.797 140.444 177.848C140.776 177.9 141.067 177.853 141.317 177.708C141.463 177.624 141.548 177.533 141.572 177.435C141.596 177.337 141.544 177.209 141.414 177.05C141.285 176.892 141.059 176.677 140.735 176.406C140.186 175.958 139.802 175.578 139.584 175.265C139.373 174.948 139.313 174.67 139.402 174.432C139.499 174.199 139.733 173.975 140.105 173.76C140.711 173.41 141.43 173.261 142.263 173.312C143.112 173.364 143.985 173.648 144.882 174.166C145.464 174.502 145.856 174.841 146.058 175.181C146.268 175.517 146.317 175.844 146.203 176.161C146.106 176.479 145.876 176.775 145.512 177.05L143.876 176.189C144.053 176.04 144.171 175.888 144.227 175.734C144.284 175.58 144.264 175.429 144.167 175.279C144.078 175.125 143.912 174.978 143.669 174.838C143.306 174.628 142.958 174.512 142.627 174.488C142.295 174.465 142.008 174.523 141.766 174.663C141.596 174.761 141.495 174.866 141.463 174.978C141.439 175.095 141.487 175.23 141.608 175.384C141.738 175.534 141.936 175.718 142.202 175.937C142.776 176.39 143.172 176.777 143.391 177.099C143.625 177.421 143.694 177.704 143.597 177.946C143.516 178.189 143.298 178.413 142.942 178.618C142.53 178.856 142.061 178.992 141.536 179.024C141.018 179.062 140.473 179.003 139.899 178.849C139.341 178.695 138.783 178.457 138.226 178.135ZM145.014 182.055C144.367 181.681 143.943 181.278 143.741 180.844C143.547 180.405 143.575 179.964 143.826 179.521C144.076 179.077 144.541 178.66 145.22 178.268C145.899 177.876 146.618 177.61 147.378 177.47C148.146 177.325 148.906 177.306 149.658 177.414C150.417 177.526 151.113 177.764 151.743 178.128C152.357 178.482 152.757 178.872 152.943 179.297C153.137 179.726 153.101 180.162 152.834 180.606C152.568 181.049 152.07 181.481 151.343 181.901L150.991 182.104L146.396 179.451C145.863 179.796 145.588 180.132 145.572 180.459C145.572 180.785 145.802 181.082 146.263 181.348C146.61 181.548 146.974 181.67 147.354 181.712C147.75 181.754 148.134 181.719 148.506 181.607L149.997 182.58C149.189 182.841 148.34 182.925 147.451 182.832C146.57 182.743 145.758 182.484 145.014 182.055ZM147.439 178.849L150.434 180.578C150.927 180.256 151.165 179.945 151.149 179.647C151.141 179.343 150.931 179.073 150.518 178.835C150.106 178.597 149.629 178.475 149.088 178.471C148.554 178.471 148.005 178.597 147.439 178.849ZM151.773 185.789C151.127 185.416 150.799 185.054 150.791 184.704C150.791 184.359 151.111 184.002 151.749 183.633L157.884 180.091L159.436 180.987L153.447 184.445C153.147 184.618 153.002 184.777 153.01 184.921C153.026 185.061 153.172 185.211 153.447 185.369L154.356 185.894L153.156 186.587L151.773 185.789ZM154.15 181.071L155.35 180.378L159.63 182.849L158.43 183.542L154.15 181.071ZM159.886 190.641C159.239 190.268 158.815 189.864 158.613 189.43C158.419 188.991 158.443 188.548 158.685 188.1C158.936 187.657 159.401 187.239 160.08 186.847C160.759 186.455 161.478 186.189 162.238 186.049C163.014 185.909 163.782 185.895 164.541 186.007C165.301 186.119 166.004 186.362 166.651 186.735C167.201 187.052 167.593 187.391 167.827 187.75C168.061 188.109 168.13 188.471 168.033 188.835C167.952 189.199 167.686 189.549 167.233 189.885L165.548 189.01C165.895 188.735 166.045 188.462 165.996 188.191C165.964 187.92 165.762 187.678 165.39 187.463C164.889 187.174 164.311 187.059 163.656 187.12C163.01 187.176 162.355 187.395 161.692 187.778C161.021 188.165 160.637 188.546 160.54 188.919C160.443 189.292 160.645 189.624 161.147 189.913C161.526 190.132 161.951 190.251 162.42 190.27C162.896 190.293 163.394 190.188 163.911 189.955L165.439 190.921C164.857 191.182 164.242 191.346 163.596 191.411C162.949 191.476 162.306 191.446 161.668 191.32C161.037 191.189 160.443 190.963 159.886 190.641ZM166.121 194.241C165.467 193.863 165.159 193.438 165.2 192.967C165.256 192.496 165.669 192.038 166.437 191.595L170.607 189.187L172.159 190.083L168.376 192.267C167.835 192.58 167.524 192.862 167.443 193.114C167.378 193.366 167.532 193.599 167.904 193.814C168.324 194.057 168.785 194.164 169.286 194.136C169.803 194.108 170.328 193.94 170.862 193.632L174.584 191.483L176.136 192.379L169.662 196.117L168.243 195.298L169.989 194.248L170.122 194.395C169.411 194.694 168.716 194.829 168.037 194.801C167.358 194.773 166.719 194.586 166.121 194.241ZM173.734 198.636C173.096 198.268 172.651 197.904 172.401 197.544C172.158 197.19 172.085 196.849 172.182 196.522C172.279 196.196 172.522 195.902 172.91 195.64L174.571 196.515C174.288 196.744 174.167 196.977 174.207 197.215C174.248 197.453 174.49 197.701 174.935 197.957C175.298 198.167 175.638 198.298 175.953 198.349C176.285 198.401 176.575 198.354 176.826 198.209C176.972 198.125 177.056 198.034 177.081 197.936C177.105 197.838 177.052 197.71 176.923 197.551C176.794 197.393 176.567 197.178 176.244 196.907C175.694 196.459 175.311 196.079 175.092 195.766C174.882 195.449 174.822 195.171 174.91 194.933C175.007 194.7 175.242 194.476 175.614 194.261C176.22 193.911 176.939 193.762 177.772 193.813C178.62 193.865 179.493 194.149 180.391 194.667C180.973 195.003 181.365 195.342 181.567 195.682C181.777 196.018 181.825 196.345 181.712 196.662C181.615 196.98 181.385 197.276 181.021 197.551L179.384 196.69C179.562 196.541 179.679 196.389 179.736 196.235C179.792 196.081 179.772 195.93 179.675 195.78C179.586 195.626 179.421 195.479 179.178 195.339C178.814 195.129 178.467 195.013 178.135 194.989C177.804 194.966 177.517 195.024 177.275 195.164C177.105 195.262 177.004 195.367 176.972 195.479C176.947 195.596 176.996 195.731 177.117 195.885C177.246 196.035 177.444 196.219 177.711 196.438C178.285 196.891 178.681 197.278 178.899 197.6C179.134 197.922 179.202 198.205 179.105 198.447C179.025 198.69 178.806 198.914 178.451 199.119C178.039 199.357 177.57 199.493 177.044 199.525C176.527 199.563 175.981 199.504 175.408 199.35C174.85 199.196 174.292 198.958 173.734 198.636ZM180.237 202.223C179.591 201.85 179.263 201.488 179.255 201.138C179.255 200.793 179.574 200.436 180.213 200.067L186.348 196.525L187.9 197.421L181.91 200.879C181.611 201.052 181.466 201.21 181.474 201.355C181.49 201.495 181.636 201.644 181.91 201.803L182.82 202.328L181.619 203.021L180.237 202.223ZM182.614 197.505L183.814 196.812L188.094 199.283L186.893 199.976L182.614 197.505ZM185.318 205.324C184.68 204.956 184.255 204.552 184.045 204.113C183.851 203.675 183.876 203.231 184.118 202.783C184.369 202.34 184.833 201.922 185.512 201.53C186.199 201.134 186.923 200.865 187.683 200.725C188.459 200.585 189.222 200.574 189.974 200.69C190.742 200.807 191.445 201.05 192.084 201.418C192.722 201.787 193.139 202.191 193.333 202.629C193.535 203.063 193.51 203.502 193.26 203.945C193.025 204.389 192.565 204.809 191.878 205.205C191.199 205.597 190.471 205.863 189.695 206.003C188.927 206.148 188.164 206.164 187.404 206.052C186.652 205.936 185.957 205.693 185.318 205.324ZM186.579 204.596C187.08 204.886 187.65 205 188.289 204.939C188.935 204.883 189.594 204.662 190.265 204.274C190.928 203.892 191.308 203.514 191.405 203.14C191.518 202.767 191.324 202.436 190.823 202.146C190.322 201.857 189.744 201.743 189.089 201.803C188.442 201.859 187.788 202.079 187.125 202.461C186.454 202.849 186.07 203.229 185.973 203.602C185.876 203.976 186.078 204.307 186.579 204.596ZM191.996 209.18C191.446 208.863 191.107 208.508 190.978 208.116C190.856 207.729 190.941 207.325 191.232 206.905C191.523 206.485 192.012 206.077 192.699 205.68C193.386 205.283 194.094 205.001 194.821 204.833C195.549 204.665 196.252 204.618 196.931 204.693C197.61 204.768 198.22 204.961 198.761 205.274C199.214 205.535 199.517 205.818 199.671 206.121C199.832 206.429 199.832 206.732 199.671 207.031L202.726 205.267L204.278 206.163L195.67 211.133L194.191 210.279L195.112 209.705C194.587 209.803 194.049 209.805 193.5 209.712C192.95 209.619 192.449 209.441 191.996 209.18ZM193.73 208.725C194.053 208.912 194.405 209.021 194.785 209.054C195.173 209.091 195.581 209.052 196.009 208.935C196.454 208.818 196.902 208.629 197.355 208.368C197.816 208.102 198.143 207.843 198.337 207.591C198.539 207.344 198.608 207.108 198.543 206.884C198.487 206.665 198.297 206.462 197.973 206.275C197.505 206.004 196.939 205.897 196.276 205.953C195.629 206.009 194.975 206.228 194.312 206.611C193.665 206.984 193.285 207.362 193.172 207.745C193.075 208.128 193.261 208.454 193.73 208.725ZM195.892 213.361L197.092 212.668L197.917 213.144C198.127 213.266 198.313 213.336 198.474 213.354C198.644 213.378 198.834 213.361 199.044 213.305L199.675 213.151L199.226 212.892L203.13 207.964L204.743 208.895L201.603 212.584L207.919 210.729L209.532 211.66L199.845 214.327C199.295 214.477 198.798 214.526 198.353 214.474C197.917 214.428 197.464 214.269 196.995 213.998L195.892 213.361Z" fill="white"/>
</g>
<rect x="4.47035e-08" y="-0.75" width="183.5" height="33.5" rx="16.75" transform="matrix(0.866025 0.5 -0.866025 0.5 80.9071 123.875)" stroke="white" stroke-width="1.5"/>
<g clip-path="url(#clip2_328_114853)">
<path d="M211.924 89.945C213.052 89.294 214.495 89.0643 215.806 89.1755C215.946 89.1874 216.164 89.2272 216.308 89.2536C216.494 89.2877 216.727 89.332 216.969 89.3786C217.462 89.4738 217.99 89.5767 218.318 89.6355L252.757 95.7976H252.758C253.074 95.8543 253.401 95.9507 253.69 96.0466L254.4 96.2956L254.71 96.4001L254.947 96.6247C255.009 96.6832 255.082 96.7475 255.188 96.8425C255.287 96.9301 255.409 97.039 255.531 97.1569C255.764 97.3805 256.084 97.7145 256.316 98.1403L256.35 98.2009L256.377 98.2644L264.09 116.096C264.253 116.474 264.378 116.717 264.607 117.236C264.698 117.44 264.794 117.665 264.866 117.871C264.902 117.973 264.942 118.099 264.973 118.23C264.99 118.307 265.028 118.483 265.025 118.703L265.026 144.182C265.026 145.603 264.092 146.573 263.252 147.057L249.825 154.806C234.237 163.804 210.609 165.981 191.071 160.341C190.209 160.092 189.366 159.652 188.778 158.973C184.675 154.239 182.797 148.996 183.19 143.756V120.721C182.537 112.037 188.113 103.688 198.504 97.6901L211.924 89.945Z" fill="#3258C2" stroke="#3258C2" stroke-width="3"/>
<path d="M227.845 118.497H263.696V144.139C263.707 144.231 263.707 144.323 263.696 144.415V144.5H263.683C263.597 144.95 263.253 145.382 262.67 145.719L249.215 153.487C233.998 162.273 210.75 164.45 191.504 158.892C190.821 158.695 190.267 158.375 189.925 157.981C186.013 153.465 184.312 148.568 184.693 143.756V118.497H209.951L212.735 116.889C213.845 116.249 215.553 116.108 216.929 116.543L227.845 118.497Z" fill="url(#paint6_linear_328_114853)"/>
<path fill-rule="evenodd" clip-rule="evenodd" d="M253.48 97.2472C254.07 97.4341 254.555 97.7145 254.879 98.0554L263.269 117.461C264.023 118.255 263.779 119.241 262.67 119.881L249.215 127.65C233.998 136.435 210.75 138.612 191.503 133.055C190.82 132.857 190.267 132.538 189.925 132.143C180.295 121.029 184.066 107.604 199.286 98.8164L212.735 91.0517C213.844 90.4112 215.553 90.2702 216.929 90.7056L253.48 97.2472Z" fill="url(#paint7_linear_328_114853)"/>
<path fill-rule="evenodd" clip-rule="evenodd" d="M226.53 100.298C225.825 99.8916 224.684 99.8916 223.98 100.298L220.155 102.507C219.451 102.913 219.451 103.572 220.155 103.979L227.805 108.395L223.98 110.604L218.88 107.659C218.508 107.444 217.991 107.334 217.466 107.357L209.179 107.726C209.066 107.731 208.956 107.741 208.85 107.758L207.405 106.923C206.701 106.517 205.559 106.517 204.855 106.923L199.755 109.868C199.051 110.274 199.051 110.933 199.755 111.34L204.855 114.284C205.559 114.691 206.701 114.691 207.405 114.284L212.505 111.34C213.209 110.933 213.209 110.274 212.505 109.868L212.181 109.68L216.916 109.47L221.43 112.076L218.88 113.548L217.605 112.812C216.901 112.406 215.759 112.406 215.055 112.812L209.955 115.757C209.251 116.163 209.251 116.822 209.955 117.229L215.055 120.173C215.759 120.58 216.901 120.58 217.605 120.173L222.705 117.229C223.409 116.822 223.409 116.163 222.705 115.757L221.43 115.02L223.98 113.548L228.478 116.146L228.123 118.885L227.805 118.701C227.1 118.294 225.959 118.294 225.255 118.701L220.155 121.645C219.451 122.052 219.451 122.711 220.155 123.118L225.255 126.062C225.959 126.469 227.1 126.469 227.805 126.062L232.905 123.118C233.609 122.711 233.609 122.052 232.905 121.645L231.459 120.811C231.488 120.749 231.507 120.685 231.515 120.619L232.136 115.825C232.175 115.522 231.984 115.225 231.613 115.011L226.53 112.076L230.355 109.868L238.004 114.284C238.709 114.691 239.85 114.691 240.554 114.284L244.379 112.076C245.084 111.669 245.084 111.01 244.379 110.604L226.53 100.298ZM216.33 115.02L218.88 116.493L216.33 117.965L213.78 116.493L216.33 115.02ZM239.279 112.076L240.554 111.34L225.255 102.507L223.98 103.243L239.279 112.076ZM203.58 110.604L206.13 109.132L208.68 110.604L206.13 112.076L203.58 110.604ZM223.98 122.382L226.53 120.909L229.08 122.382L226.53 123.854L223.98 122.382Z" fill="white"/>
<path d="M240.554 111.34L239.279 112.076L223.98 103.243L225.255 102.507L240.554 111.34Z" fill="white"/>
<path d="M206.13 109.132L203.58 110.604L206.13 112.076L208.68 110.604L206.13 109.132Z" fill="white"/>
<path d="M216.33 117.965L218.88 116.493L216.33 115.02L213.78 116.493L216.33 117.965Z" fill="white"/>
<path d="M226.53 120.909L223.98 122.382L226.53 123.854L229.08 122.382L226.53 120.909Z" fill="white"/>
</g>
<defs>
<linearGradient id="paint0_linear_328_114853" x1="352.163" y1="113.239" x2="273.763" y2="113.239" gradientUnits="userSpaceOnUse">
<stop stop-color="#9CB6FF"/>
<stop offset="0.267632" stop-color="#91ADFF"/>
<stop offset="0.439507" stop-color="#618AFF"/>
<stop offset="1" stop-color="#3564E6"/>
</linearGradient>
<linearGradient id="paint1_linear_328_114853" x1="274.404" y1="83.7216" x2="311.002" y2="149.111" gradientUnits="userSpaceOnUse">
<stop stop-color="#5983F8"/>
<stop offset="1" stop-color="#3258C2"/>
</linearGradient>
<linearGradient id="paint2_linear_328_114853" x1="352.163" y1="93.4389" x2="273.763" y2="93.4389" gradientUnits="userSpaceOnUse">
<stop stop-color="#9CB6FF"/>
<stop offset="0.267632" stop-color="#91ADFF"/>
<stop offset="0.439507" stop-color="#618AFF"/>
<stop offset="1" stop-color="#3564E6"/>
</linearGradient>
<linearGradient id="paint3_linear_328_114853" x1="274.404" y1="63.9216" x2="277.197" y2="111.223" gradientUnits="userSpaceOnUse">
<stop stop-color="#88A7FF"/>
<stop offset="1" stop-color="#A3BBFF"/>
</linearGradient>
<linearGradient id="paint4_linear_328_114853" x1="183.759" y1="16.4881" x2="221.352" y2="98.4417" gradientUnits="userSpaceOnUse">
<stop stop-color="#6F93F8"/>
<stop offset="0.147964" stop-color="#8FACFF"/>
<stop offset="0.229046" stop-color="#AEC4FF"/>
<stop offset="0.55746" stop-color="#BED0FF"/>
<stop offset="0.62351" stop-color="#A0B9FF"/>
<stop offset="1" stop-color="#6E92F9"/>
</linearGradient>
<linearGradient id="paint5_linear_328_114853" x1="188.672" y1="85.3663" x2="180.415" y2="11.4147" gradientUnits="userSpaceOnUse">
<stop stop-color="#618AFF"/>
<stop offset="1" stop-color="#3261E4"/>
</linearGradient>
<linearGradient id="paint6_linear_328_114853" x1="263.704" y1="139.208" x2="184.91" y2="139.208" gradientUnits="userSpaceOnUse">
<stop stop-color="#97B2FF"/>
<stop offset="0.223958" stop-color="#7A9CFA"/>
<stop offset="0.859375" stop-color="#3C69EA"/>
<stop offset="1" stop-color="#618BFF"/>
</linearGradient>
<linearGradient id="paint7_linear_328_114853" x1="227.775" y1="82.334" x2="201.77" y2="141.012" gradientUnits="userSpaceOnUse">
<stop stop-color="#88A7FF"/>
<stop offset="1" stop-color="#A3BBFF"/>
</linearGradient>
<clipPath id="clip0_328_114853">
<rect width="106" height="106" fill="white" transform="translate(160)"/>
</clipPath>
<clipPath id="clip1_328_114853">
<rect width="182" height="32" rx="16" transform="matrix(0.866025 0.5 -0.866025 0.5 81.5566 124.25)" fill="white"/>
</clipPath>
<clipPath id="clip2_328_114853">
<rect width="106" height="106" fill="white" transform="translate(171 65)"/>
</clipPath>
</defs>
</svg>
