<svg xmlns="http://www.w3.org/2000/svg" width="451" height="288" fill="none" viewBox="0 0 451 288"><path fill="#3b82f6" d="M1 133.409 223.501 5.049a4 4 0 0 1 3.998 0L450 133.41v21.56c0 1.429-.763 2.75-2.001 3.465L225.5 286.792 3.001 158.434A4 4 0 0 1 1 154.969z"/><path stroke="#1c3a69" stroke-width="2" d="m1 133.409 224.5 129.513M1 133.409 223.501 5.049a4 4 0 0 1 3.998 0L450 133.41m-449 0v21.56c0 1.429.763 2.75 2.001 3.465L225.5 286.792m0-23.87L450 133.409M225.5 262.922v23.87M450 133.409v21.56c0 1.429-.763 2.75-2.001 3.465L225.5 286.792"/><path fill="#3258c2" stroke="#3258c2" stroke-width="3" d="M301.473 64.576c11.736-3.83 26.186-2.253 35.21 3.01 6.812 3.973 10.235 10.143 8.541 16.15.112.068.213.128.295.175l.007.004.008.005c4.455 2.668 7.211 6.487 6.976 10.66v35.692q.032.554-.004 1.108v.01l-.001.01-.016.198-.002.02c-.336 3.62-2.668 7.042-6.941 9.534-4.55 2.654-10.421 3.924-16.208 3.911-5.788-.013-11.655-1.31-16.201-3.962h-.001l-34.147-19.929c-3.737-2.179-5.832-5.051-6.006-8.361v-.002l-.01-.407q.001-.165.008-.329V76.017h.001c-.006-.227-.013-.731.003-.938v-.001c.254-3.245 2.493-6.172 6.14-8.3 6.138-3.58 15.127-4.266 22.348-2.202Z"/><path fill="url(#a)" d="M351.132 131.498c-.28 3.026-2.402 6.004-6.366 8.316-8.53 4.975-22.361 4.975-30.891 0l-34.018-19.841c-3.461-2.018-5.261-4.639-5.399-7.283v-.002a6 6 0 0 1 0-.658V94.952h38.95v5.711c8.069-.378 16.36 1.232 22.532 4.832 4.036 2.354 6.614 5.236 7.733 8.265h7.475v16.551q.033.494 0 .989v.198z"/><path fill="url(#b)" d="M279.857 103.061c-7.21-4.205-7.21-11.024 0-15.229 5.853-3.414 14.657-4.056 21.622-1.928 10.93-3.662 25.121-2.769 34.461 2.679 7.275 4.243 9.812 10.203 7.612 15.644q.623.312 1.214.657c8.531 4.975 8.531 13.042 0 18.017-8.53 4.976-22.361 4.976-30.891 0l-18.378-10.718-.01-.006-.011-.006z"/><path fill="url(#c)" d="M351.132 111.698c-.28 3.026-2.402 6.004-6.366 8.316-8.53 4.975-22.361 4.975-30.891 0l-34.018-19.841c-3.461-2.018-5.261-4.639-5.399-7.283v-.002a6 6 0 0 1 0-.658V75.152h38.95v5.71c8.069-.377 16.36 1.233 22.532 4.833 4.036 2.354 6.614 5.236 7.733 8.265h7.475v16.551q.033.494 0 .989v.198z"/><path fill="#d6e0ff" d="M283.6 93.837c0-1.367.95-1.92 2.122-1.237 1.171.684 2.121 2.346 2.121 3.713s-.95 1.92-2.121 1.237-2.122-2.346-2.122-3.713m-5.717-3.3c0-1.366.95-1.92 2.122-1.237 1.171.684 2.121 2.345 2.121 3.712s-.949 1.921-2.121 1.238-2.122-2.346-2.122-3.713"/><path fill="url(#d)" d="M279.857 83.26c-7.21-4.204-7.21-11.023 0-15.228 5.853-3.414 14.657-4.056 21.622-1.928 10.93-3.662 25.121-2.769 34.461 2.679 7.275 4.243 9.812 10.203 7.612 15.644q.623.312 1.214.657c8.531 4.975 8.531 13.042 0 18.017-8.53 4.976-22.361 4.976-30.891 0l-18.378-10.718-.01-.006-.011-.006z"/><g clip-path="url(#e)"><path fill="#3258c2" stroke="#3258c2" stroke-width="3" d="M192.531 11.027a3.2 3.2 0 0 1 1.357-.013l25.669 2.321.109.01.106.026c.81.195 1.558.657 2.185 1.23l.056.051.049.057 23.129 25.87c1.387 1.307 2.369 3.338 2.369 5.175V62.66c0 12.408-4.362 21.83-12.1 26.25l-.002.001-11.884 6.772-.007.004c-4.457 2.509-9.871 3.267-15.879 2.11-.928-.179-1.781-.716-2.474-1.383-15.962-15.355-26.773-38.827-26.773-58.418V21.098c0-1.182.436-2.454 1.608-3.091v-.001l11.869-6.765.409-.233z"/><path fill="url(#f)" d="M219.422 14.83c.497.119 1.025.424 1.523.879l23.16 25.905c1.158 1.06 1.955 2.746 1.955 4.14v16.905c0 12.101-4.245 20.892-11.344 24.948l.021.002-11.881 6.772-13.143-1.191 8.212-4.681c-15.651-15.117-26.2-38.15-26.2-57.228V20.31l-10.946-.993 11.881-6.772.021.002c.285-.115.623-.135 1-.045z"/><path fill="url(#g)" fill-rule="evenodd" d="M207.638 21.594c.497.12 1.026.425 1.523.88l23.16 25.904c1.159 1.06 1.955 2.746 1.955 4.14v16.906c0 19.119-10.596 29.975-26.305 26.95-.557-.108-1.16-.456-1.717-.992-15.713-15.116-26.313-38.213-26.313-57.336V21.148c0-1.394.797-2.16 1.956-1.882z" clip-rule="evenodd"/><path fill="#fff" d="M192.201 37.1c0-2.44 1.713-3.428 3.825-2.208s3.825 4.185 3.825 6.625c0 2.439-1.712 3.428-3.825 2.208-2.112-1.22-3.825-4.186-3.825-6.625m20.4 11.778c0-2.44 1.712-3.428 3.825-2.209 2.112 1.22 3.825 4.186 3.825 6.625s-1.713 3.428-3.825 2.209c-2.113-1.22-3.825-4.186-3.825-6.625m-10.2 5.889c0-2.44 1.713-3.428 3.825-2.209 2.112 1.22 3.825 4.186 3.825 6.625s-1.713 3.428-3.825 2.209c-2.112-1.22-3.825-4.186-3.825-6.625m10.2 17.666c0-2.439 1.712-3.428 3.825-2.208 2.112 1.22 3.825 4.186 3.825 6.625s-1.713 3.428-3.825 2.208-3.825-4.185-3.825-6.625m-20.4-11.777c0-2.44 1.713-3.428 3.825-2.209 2.113 1.22 3.825 4.186 3.825 6.625s-1.712 3.428-3.825 2.209c-2.112-1.22-3.825-4.186-3.825-6.625m10.2-17.667c0-.813.571-1.143 1.275-.736l5.1 2.944c.704.407 1.275 1.395 1.275 2.209 0 .813-.571 1.142-1.275.736l-5.1-2.945c-.704-.406-1.275-1.395-1.275-2.208m0 23.555c0-.813.571-1.142 1.275-.736l5.1 2.945c.704.406 1.275 1.395 1.275 2.208s-.571 1.143-1.275.736l-5.1-2.944c-.704-.407-1.275-1.395-1.275-2.209m-6.375-19.874c.704.406 1.275 1.395 1.275 2.208v5.889c0 .813-.571 1.142-1.275.736-.704-.407-1.275-1.395-1.275-2.209v-5.888c0-.813.571-1.143 1.275-.737m20.4 11.778c.704.407 1.275 1.395 1.275 2.209v5.888c0 .814-.571 1.143-1.275.737s-1.275-1.396-1.275-2.209v-5.889c0-.813.571-1.142 1.275-.736"/></g><g clip-path="url(#h)"><rect width="182" height="32" fill="#3b82f6" rx="16" transform="matrix(.86603 .5 -.86603 .5 81.557 124.25)"/><path fill="#fff" d="m82.012 145.513 8.609-4.97 2.86 1.652q2.062 1.19 2.038 2.478 0 1.288-2.074 2.485-2.06 1.19-4.267 1.204-2.207.013-4.232-1.155zm2.946.119 1.286.742q1.345.777 2.728.735 1.381-.042 2.849-.889 1.49-.861 1.564-1.659.072-.798-1.273-1.575l-1.285-.742zm5.375 4.685 6.474-3.738 1.552.896-6.474 3.738zm7.311-4.249 1.382-.798 1.613.931-1.382.798zm-3.373 8.79q-.849-.49-1.225-.973t-.327-.945q.048-.447.449-.847l1.71.861q-.244.28-.159.567.098.294.728.658.716.414 1.43.448.704.043 1.383-.35l.824-.476q-.704.14-1.503.014a4.2 4.2 0 0 1-1.419-.497q-.8-.462-1.042-1.05-.22-.588.133-1.197.363-.615 1.297-1.155a6.57 6.57 0 0 1 4.062-.833q1.03.12 1.831.581.703.406.897.882a.92.92 0 0 1-.097.91l1.006-.581 1.516.875-5.905 3.409a4.5 4.5 0 0 1-1.782.581 5.3 5.3 0 0 1-1.916-.126 6.8 6.8 0 0 1-1.891-.756m3.467-2.03q.692.4 1.613.343.933-.062 1.855-.581.618-.343.849-.7.254-.357.133-.693-.097-.336-.57-.609-.715-.412-1.649-.336-.909.078-1.794.588-.885.511-1.019 1.05-.108.54.582.938m3.133 3.573 6.474-3.738 1.552.896-6.474 3.738zm7.311-4.249 1.382-.798 1.612.931-1.382.798zm-1.863 7.394q-.97-.56-.982-1.085 0-.517.958-1.071l6.135-3.542 1.551.896-5.989 3.458q-.449.259-.436.476.024.21.436.448l.909.525-1.2.693zm2.376-4.718 1.201-.693 4.279 2.471-1.2.693zm1.842 7.322q-1.018-.588-1.176-1.211-.145-.63.692-1.113a3.4 3.4 0 0 1 1.83-.455q.994.027 2.268.525l2.57.994q.691-.399.715-.777.036-.385-.582-.742a2.6 2.6 0 0 0-1.152-.357 3 3 0 0 0-1.176.175l-1.503-.952a5.4 5.4 0 0 1 2.522-.364 6 6 0 0 1 2.51.805q1.382.798 1.382 1.61.024.811-1.273 1.561l-2.352 1.358q-.255.147-.267.252 0 .111.182.217l.206.119-1.128.651a2 2 0 0 1-.279-.119 6 6 0 0 1-.339-.182q-.4-.231-.594-.483a.49.49 0 0 1-.037-.539q.159-.288.716-.609l.036.133a3.6 3.6 0 0 1-1.188.196 5 5 0 0 1-1.309-.168 5.2 5.2 0 0 1-1.274-.525m1.443-.469q.522.3 1.104.399.582.097 1.151.007.57-.091 1.067-.378l.364-.21-2.013-.77q-.63-.239-1.079-.245a1.44 1.44 0 0 0-.763.189q-.376.216-.34.476.048.265.509.532m5.29 4.188q-.703-.406-.764-.861-.06-.455.74-.917l7.081-4.088 1.552.896-6.923 3.997q-.243.14-.243.28.012.147.243.28l.472.273-1.2.693zm6.647 4.005q-1.018-.587-1.176-1.211-.146-.63.691-1.113a3.4 3.4 0 0 1 1.831-.455q.993.028 2.267.525l2.57.994q.691-.399.716-.777.036-.385-.582-.742a2.6 2.6 0 0 0-1.152-.357 3 3 0 0 0-1.176.175l-1.504-.952a5.44 5.44 0 0 1 2.522-.364q1.31.112 2.51.805 1.382.798 1.382 1.61.024.813-1.273 1.561l-2.352 1.358q-.255.147-.267.252 0 .112.182.217l.206.119-1.127.651a1.7 1.7 0 0 1-.279-.119 6 6 0 0 1-.34-.182q-.399-.231-.594-.483a.49.49 0 0 1-.036-.539q.157-.287.715-.609l.037.133a3.6 3.6 0 0 1-1.189.196 5 5 0 0 1-1.309-.168 5 5 0 0 1-1.273-.525m1.443-.469a3.3 3.3 0 0 0 1.103.399q.582.099 1.152.007.57-.09 1.067-.378l.363-.21-2.012-.77q-.63-.237-1.079-.245a1.46 1.46 0 0 0-.764.189q-.376.218-.34.476.05.267.51.532m6.247 4.909q-.958-.552-1.334-1.092-.363-.531-.218-1.022.146-.489.727-.882l1.662.875q-.425.343-.364.7.06.357.727.742.546.315 1.019.392.497.078.873-.14.218-.126.254-.273t-.157-.385q-.195-.237-.679-.644-.825-.672-1.152-1.141-.315-.476-.182-.833.145-.35.703-.672.91-.525 2.158-.448 1.274.078 2.619.854.873.505 1.176 1.015.315.504.146.98-.146.477-.691.889l-1.637-.861q.267-.224.352-.455a.49.49 0 0 0-.061-.455q-.134-.231-.497-.441-.546-.315-1.043-.35t-.861.175q-.254.147-.303.315-.036.175.146.406.193.225.594.553.861.68 1.188 1.162.351.483.206.847-.121.365-.655.672a3.16 3.16 0 0 1-1.406.406 4.9 4.9 0 0 1-1.637-.175 7.2 7.2 0 0 1-1.673-.714m6.619 3.821q-.958-.552-1.334-1.092-.364-.531-.218-1.022.145-.489.727-.882l1.661.875q-.424.343-.364.7.061.357.728.742.546.315 1.018.392.498.078.873-.14.219-.126.255-.273t-.158-.385q-.193-.237-.679-.644-.824-.672-1.151-1.141-.316-.476-.182-.833.145-.35.703-.672.909-.525 2.158-.448 1.273.077 2.619.854.873.505 1.176 1.015.315.504.145.98-.145.477-.691.889l-1.636-.861q.266-.224.351-.455a.49.49 0 0 0-.06-.455q-.133-.231-.498-.441-.545-.314-1.042-.35-.498-.035-.861.175-.255.147-.303.315-.036.175.145.406.195.225.594.553.86.68 1.189 1.162.351.483.206.847-.121.364-.655.672a3.16 3.16 0 0 1-1.406.406 4.9 4.9 0 0 1-1.637-.175 7 7 0 0 1-1.673-.714m6.788 3.92q-.97-.56-1.273-1.211-.291-.658.085-1.323.375-.665 1.394-1.253a6.7 6.7 0 0 1 2.158-.798 6.9 6.9 0 0 1 2.28-.056 5.8 5.8 0 0 1 2.085.714q.921.531 1.2 1.169.291.643-.109 1.309t-1.491 1.295l-.352.203-4.595-2.653q-.8.517-.824 1.008 0 .49.691.889.52.3 1.091.364.594.063 1.152-.105l1.491.973a6.1 6.1 0 0 1-2.546.252 6 6 0 0 1-2.437-.777m2.425-3.206 2.995 1.729q.74-.483.715-.931-.012-.456-.631-.812-.618-.358-1.43-.364-.8 0-1.649.378m4.334 6.94q-.97-.56-.982-1.085 0-.517.958-1.071l6.135-3.542 1.552.896-5.989 3.458q-.45.26-.437.476.024.21.437.448l.909.525-1.2.693zm2.377-4.718 1.2-.693 4.28 2.471-1.2.693zm5.736 9.57q-.97-.56-1.273-1.211-.291-.658.072-1.33.377-.665 1.395-1.253a6.7 6.7 0 0 1 2.158-.798 7.1 7.1 0 0 1 2.303-.042q1.14.168 2.11.728.825.476 1.176 1.015t.206 1.085q-.121.546-.8 1.05l-1.685-.875q.521-.413.448-.819-.048-.406-.606-.728-.752-.434-1.734-.343-.97.084-1.964.658-1.007.581-1.152 1.141t.607.994q.569.328 1.273.357.715.035 1.491-.315l1.528.966a6 6 0 0 1-1.843.49 6.5 6.5 0 0 1-1.928-.091 6 6 0 0 1-1.782-.679m6.235 3.6q-.982-.567-.921-1.274.084-.707 1.237-1.372l4.17-2.408 1.552.896-3.783 2.184q-.811.47-.933.847-.097.378.461.7.63.364 1.382.322.775-.042 1.576-.504l3.722-2.149 1.552.896-6.474 3.738-1.419-.819 1.746-1.05.133.147q-1.067.448-2.085.406a4.1 4.1 0 0 1-1.916-.56m7.613 4.395q-.958-.552-1.333-1.092-.365-.531-.219-1.022.146-.489.728-.882l1.661.875q-.424.343-.364.7.061.357.728.742.545.315 1.018.392.497.078.873-.14.218-.126.255-.273.036-.147-.158-.385-.194-.237-.679-.644-.824-.672-1.152-1.141-.315-.476-.182-.833.146-.35.704-.672.909-.525 2.158-.448 1.272.077 2.619.854.873.505 1.176 1.015.315.504.145.98-.145.477-.691.889l-1.637-.861q.267-.224.352-.455a.49.49 0 0 0-.061-.455q-.133-.231-.497-.441-.546-.315-1.043-.35t-.86.175q-.255.147-.303.315-.037.175.145.406.194.225.594.553.861.68 1.188 1.162.352.483.206.847-.12.364-.654.672a3.16 3.16 0 0 1-1.407.406 4.9 4.9 0 0 1-1.636-.175 7.2 7.2 0 0 1-1.674-.714m6.503 3.587q-.97-.56-.982-1.085 0-.518.958-1.071l6.135-3.542 1.552.896-5.99 3.458q-.448.259-.436.476.024.21.436.448l.91.525-1.201.693zm2.377-4.718 1.2-.693 4.28 2.471-1.201.693zm2.704 7.819q-.958-.552-1.273-1.211-.29-.657.073-1.33.376-.665 1.394-1.253a6.8 6.8 0 0 1 2.171-.805 6.9 6.9 0 0 1 2.291-.035q1.152.176 2.11.728.958.554 1.249 1.211.303.651-.073 1.316-.352.666-1.382 1.26a6.7 6.7 0 0 1-2.183.798 6.9 6.9 0 0 1-2.291.049 6 6 0 0 1-2.086-.728m1.261-.728q.752.435 1.71.343.97-.084 1.976-.665.995-.573 1.14-1.134.17-.56-.582-.994-.751-.433-1.734-.343-.97.085-1.964.658-1.006.582-1.152 1.141-.145.56.606.994m5.417 4.584q-.825-.476-1.018-1.064-.183-.58.254-1.211.436-.63 1.467-1.225a7.7 7.7 0 0 1 2.122-.847 6.3 6.3 0 0 1 2.11-.14 4.6 4.6 0 0 1 1.83.581q.68.392.91.847a.92.92 0 0 1 0 .91l3.055-1.764 1.552.896-8.608 4.97-1.479-.854.921-.574q-.788.147-1.612.007a4.5 4.5 0 0 1-1.504-.532m1.734-.455q.485.28 1.055.329.582.056 1.224-.119a5.5 5.5 0 0 0 1.346-.567q.691-.399.982-.777.303-.37.206-.707-.084-.328-.57-.609-.702-.406-1.697-.322-.97.084-1.964.658-.97.56-1.14 1.134-.146.574.558.98m2.162 4.636 1.2-.693.825.476q.315.183.557.21.255.035.57-.049l.631-.154-.449-.259 3.904-4.928 1.613.931-3.14 3.689 6.316-1.855 1.613.931-9.687 2.667q-.825.225-1.492.147-.654-.07-1.358-.476z"/></g><rect width="183.5" height="33.5" y="-.75" stroke="#fff" stroke-width="1.5" rx="16.75" transform="matrix(.86603 .5 -.86603 .5 80.907 123.875)"/><g clip-path="url(#i)"><path fill="#3258c2" stroke="#3258c2" stroke-width="3" d="M211.924 89.945c1.128-.651 2.571-.88 3.882-.77.14.012.358.052.502.079.186.034.419.078.661.125.493.095 1.021.198 1.349.256l34.439 6.163h.001c.316.056.643.153.932.249l.71.249.31.104.237.225c.062.058.135.123.241.218.099.087.221.196.343.314.233.224.553.558.785.983l.034.06.027.064 7.713 17.832c.163.378.288.621.517 1.14.091.204.187.429.259.635.036.102.076.228.107.359.017.077.055.253.052.473l.001 25.479c0 1.421-.934 2.391-1.774 2.875l-13.427 7.749c-15.588 8.998-39.216 11.175-58.754 5.535-.862-.249-1.705-.689-2.293-1.368-4.103-4.734-5.981-9.977-5.588-15.217v-23.035c-.653-8.684 4.923-17.033 15.314-23.03z"/><path fill="url(#j)" d="M227.845 118.497h35.851v25.642q.017.138 0 .276v.085h-.013c-.086.45-.43.882-1.013 1.219l-13.455 7.768c-15.217 8.786-38.465 10.963-57.711 5.405-.683-.197-1.237-.517-1.579-.911-3.912-4.516-5.613-9.413-5.232-14.225v-25.259h25.258l2.784-1.608c1.11-.64 2.818-.781 4.194-.346z"/><path fill="url(#k)" fill-rule="evenodd" d="M253.48 97.247c.59.187 1.075.468 1.399.808l8.39 19.406c.754.794.51 1.78-.599 2.42l-13.455 7.769c-15.217 8.785-38.465 10.962-57.712 5.405-.683-.198-1.236-.517-1.578-.912-9.63-11.114-5.859-24.539 9.361-33.327l13.449-7.764c1.109-.64 2.818-.782 4.194-.346z" clip-rule="evenodd"/><path fill="#fff" fill-rule="evenodd" d="M226.53 100.298c-.705-.406-1.846-.406-2.55 0l-3.825 2.209c-.704.406-.704 1.065 0 1.472l7.65 4.416-3.825 2.209-5.1-2.945c-.372-.215-.889-.325-1.414-.302l-8.287.369a3 3 0 0 0-.329.032l-1.445-.835c-.704-.406-1.846-.406-2.55 0l-5.1 2.945c-.704.406-.704 1.065 0 1.472l5.1 2.944c.704.407 1.846.407 2.55 0l5.1-2.944c.704-.407.704-1.066 0-1.472l-.324-.188 4.735-.21 4.514 2.606-2.55 1.472-1.275-.736c-.704-.406-1.846-.406-2.55 0l-5.1 2.945c-.704.406-.704 1.065 0 1.472l5.1 2.944c.704.407 1.846.407 2.55 0l5.1-2.944c.704-.407.704-1.066 0-1.472l-1.275-.737 2.55-1.472 4.498 2.598-.355 2.739-.318-.184c-.705-.407-1.846-.407-2.55 0l-5.1 2.944c-.704.407-.704 1.066 0 1.473l5.1 2.944c.704.407 1.845.407 2.55 0l5.1-2.944c.704-.407.704-1.066 0-1.473l-1.446-.834a.6.6 0 0 0 .056-.192l.621-4.794c.039-.303-.152-.6-.523-.814l-5.083-2.935 3.825-2.208 7.649 4.416c.705.407 1.846.407 2.55 0l3.825-2.208c.705-.407.705-1.066 0-1.472zm-10.2 14.722 2.55 1.473-2.55 1.472-2.55-1.472zm22.949-2.944 1.275-.736-15.299-8.833-1.275.736zm-35.699-1.472 2.55-1.472 2.55 1.472-2.55 1.472zm20.4 11.778 2.55-1.473 2.55 1.473-2.55 1.472z" clip-rule="evenodd"/><path fill="#fff" d="m240.554 111.34-1.275.736-15.299-8.833 1.275-.736zm-34.424-2.208-2.55 1.472 2.55 1.472 2.55-1.472zm10.2 8.833 2.55-1.472-2.55-1.473-2.55 1.473zm10.2 2.944-2.55 1.473 2.55 1.472 2.55-1.472z"/></g><defs><linearGradient id="a" x1="352.163" x2="273.763" y1="113.239" y2="113.239" gradientUnits="userSpaceOnUse"><stop stop-color="#9cb6ff"/><stop offset=".268" stop-color="#91adff"/><stop offset=".44" stop-color="#618aff"/><stop offset="1" stop-color="#3564e6"/></linearGradient><linearGradient id="b" x1="274.404" x2="311.002" y1="83.722" y2="149.111" gradientUnits="userSpaceOnUse"><stop stop-color="#5983f8"/><stop offset="1" stop-color="#3258c2"/></linearGradient><linearGradient id="c" x1="352.163" x2="273.763" y1="93.439" y2="93.439" gradientUnits="userSpaceOnUse"><stop stop-color="#9cb6ff"/><stop offset=".268" stop-color="#91adff"/><stop offset=".44" stop-color="#618aff"/><stop offset="1" stop-color="#3564e6"/></linearGradient><linearGradient id="d" x1="274.404" x2="277.197" y1="63.922" y2="111.223" gradientUnits="userSpaceOnUse"><stop stop-color="#88a7ff"/><stop offset="1" stop-color="#a3bbff"/></linearGradient><linearGradient id="f" x1="183.759" x2="221.352" y1="16.488" y2="98.442" gradientUnits="userSpaceOnUse"><stop stop-color="#6f93f8"/><stop offset=".148" stop-color="#8facff"/><stop offset=".229" stop-color="#aec4ff"/><stop offset=".557" stop-color="#bed0ff"/><stop offset=".624" stop-color="#a0b9ff"/><stop offset="1" stop-color="#6e92f9"/></linearGradient><linearGradient id="g" x1="188.672" x2="180.415" y1="85.366" y2="11.415" gradientUnits="userSpaceOnUse"><stop stop-color="#618aff"/><stop offset="1" stop-color="#3261e4"/></linearGradient><linearGradient id="j" x1="263.704" x2="184.91" y1="139.208" y2="139.208" gradientUnits="userSpaceOnUse"><stop stop-color="#97b2ff"/><stop offset=".224" stop-color="#7a9cfa"/><stop offset=".859" stop-color="#3c69ea"/><stop offset="1" stop-color="#618bff"/></linearGradient><linearGradient id="k" x1="227.775" x2="201.77" y1="82.334" y2="141.012" gradientUnits="userSpaceOnUse"><stop stop-color="#88a7ff"/><stop offset="1" stop-color="#a3bbff"/></linearGradient><clipPath id="e"><path fill="#fff" d="M160 0h106v106H160z"/></clipPath><clipPath id="h"><rect width="182" height="32" fill="#fff" rx="16" transform="matrix(.86603 .5 -.86603 .5 81.557 124.25)"/></clipPath><clipPath id="i"><path fill="#fff" d="M171 65h106v106H171z"/></clipPath></defs></svg>