<svg xmlns="http://www.w3.org/2000/svg" width="451" height="291" fill="none" viewBox="0 0 451 291"><path fill="#e9eaeb" d="M1 136.409 223.501 8.049a4 4 0 0 1 3.998 0L450 136.41v21.56c0 1.429-.763 2.75-2.001 3.465L225.5 289.792 3.001 161.434A4 4 0 0 1 1 157.969z"/><path stroke="#a4a7ae" stroke-width="2" d="m1 136.409 224.5 129.513M1 136.409 223.501 8.049a4 4 0 0 1 3.998 0L450 136.41m-449 0v21.56c0 1.429.763 2.75 2.001 3.465L225.5 289.792m0-23.87L450 136.409M225.5 265.922v23.87M450 136.409v21.56c0 1.429-.763 2.75-2.001 3.465L225.5 289.792"/><path fill="#474c59" stroke="#717680" stroke-width="2" d="M311.302 64.71a3 3 0 0 1 3 0l41.301 23.847.169.105a3 3 0 0 1 1.331 2.492v50.692a3 3 0 0 1-1.331 2.492l-.169.105-41.301 23.846a3 3 0 0 1-3 0L270 144.443a3 3 0 0 1-1.5-2.597V91.154a3 3 0 0 1 1.5-2.597z"/><path fill="url(#a)" d="m269.5 118 43.301 25v25L269.5 143z"/><path fill="url(#b)" d="m312.803 143 43.301-25v25l-43.301 25z"/><path fill="url(#c)" d="m312.803 93 43.301 25-43.301 25-43.302-25z"/><path fill="#7587ba" d="M290.5 143c0-1.105.776-1.553 1.732-1l14.722 8.5c.957.552 1.732 1.895 1.733 3 0 1.104-.776 1.552-1.733 1l-14.722-8.5c-.956-.553-1.732-1.896-1.732-3m-10.5-6.5c0-1.657 1.163-2.328 2.598-1.5s2.598 2.843 2.598 4.5c0 1.656-1.163 2.328-2.598 1.5-1.435-.829-2.598-2.844-2.598-4.5m-7-4c0-1.657 1.163-2.328 2.598-1.5s2.598 2.843 2.598 4.5c0 1.656-1.163 2.328-2.598 1.5-1.435-.829-2.598-2.844-2.598-4.5"/><path fill="url(#d)" d="m269.5 90 43.301 25v25L269.5 115z"/><path fill="url(#e)" d="m312.803 115 43.301-25v25l-43.301 25z"/><path fill="url(#f)" d="m312.803 65 43.301 25-43.301 25-43.302-25z"/><path fill="#7587ba" d="M290.5 115.5c0-1.105.776-1.553 1.732-1l14.722 8.5c.957.552 1.732 1.895 1.733 3 0 1.104-.776 1.552-1.733 1l-14.722-8.5c-.956-.553-1.732-1.896-1.732-3m-10.5-6c0-1.657 1.163-2.328 2.598-1.5s2.598 2.843 2.598 4.5c0 1.656-1.163 2.328-2.598 1.5-1.435-.829-2.598-2.844-2.598-4.5m-7-4c0-1.657 1.163-2.328 2.598-1.5s2.598 2.843 2.598 4.5c0 1.656-1.163 2.328-2.598 1.5-1.435-.829-2.598-2.844-2.598-4.5"/><path fill="#474c59" stroke="#717680" stroke-width="2" d="M202 7.893c7.935 0 14.317 3.717 26.481 10.74 6.099 3.522 10.759 6.21 13.882 8.574 3.086 2.335 4.989 4.58 4.99 7.293v50c0 2.713-1.904 4.959-4.99 7.294-3.123 2.364-7.783 5.051-13.882 8.572-12.164 7.024-18.546 10.74-26.481 10.74s-14.316-3.717-26.48-10.74c-6.099-3.52-10.759-6.208-13.882-8.572-3.086-2.335-4.99-4.581-4.99-7.294v-50c.001-2.713 1.904-4.958 4.99-7.293 3.123-2.364 7.783-5.052 13.882-8.573 12.164-7.024 18.545-10.74 26.48-10.74Z"/><path fill="url(#g)" d="M246.344 61.5h-88.719v23h.023c0 4.393 6.124 7.929 18.371 15S194.39 110.107 202 110.107s13.733-3.536 25.981-10.607c12.247-7.071 18.371-10.607 18.371-15q0-.14-.008-.277z"/><path fill="url(#h)" d="M176.02 46.5c12.247-7.071 18.371-10.607 25.98-10.607s13.734 3.536 25.981 10.607 18.371 10.607 18.371 15-6.123 7.929-18.371 15S209.61 87.107 202 87.107c-7.609 0-13.733-3.536-25.98-10.607s-18.372-10.607-18.372-15 6.124-7.929 18.372-15"/><path fill="#7587ba" d="M178.992 82.5c0-.552.388-.776.866-.5l1.299.75c.478.276.866.948.866 1.5v14c0 .552-.387.776-.866.5l-1.299-.75c-.478-.276-.866-.948-.866-1.5zm-5-2.625c0-.552.388-.776.866-.5l1.299.75c.478.276.866.948.866 1.5v14c0 .552-.387.776-.866.5l-1.299-.75c-.478-.276-.866-.948-.866-1.5zm-5-2.875c0-.552.388-.776.866-.5l1.299.75c.478.276.866.948.866 1.5v14c0 .552-.387.776-.866.5l-1.299-.75c-.478-.276-.866-.948-.866-1.5zm-5-3.25c0-.552.388-.776.866-.5l1.299.75c.478.276.866.948.866 1.5v14c0 .552-.387.776-.866.5l-1.299-.75c-.478-.276-.866-.948-.866-1.5z"/><path fill="url(#i)" d="M246.344 34.5h-88.719V58h.023c0 4.393 6.124 7.929 18.371 15S194.39 83.607 202 83.607 215.733 80.07 227.981 73c12.247-7.071 18.371-10.607 18.371-15q0-.14-.008-.277z"/><path fill="url(#j)" d="M176.02 19.5C188.267 12.429 194.391 8.893 202 8.893s13.734 3.536 25.981 10.607 18.371 10.607 18.371 15-6.123 7.929-18.371 15S209.61 60.107 202 60.107c-7.609 0-13.733-3.536-25.98-10.607s-18.372-10.607-18.372-15 6.124-7.929 18.372-15"/><path fill="#7587ba" d="M199.402 52.25c1.435-.828 3.761-.828 5.196 0s1.435 2.171 0 3c-1.435.828-3.761.828-5.196 0-1.435-.829-1.435-2.172 0-3M164.424 33c1.435-.828 3.76-.828 5.195 0s1.435 2.171 0 3c-1.435.828-3.76.828-5.195 0-1.435-.829-1.435-2.172 0-3m71.25 0c1.435-.828 3.76-.828 5.195 0s1.435 2.171 0 3c-1.435.828-3.76.828-5.195 0-1.435-.829-1.435-2.172 0-3m-36.272-20.5c1.435-.828 3.761-.828 5.196 0s1.435 2.171 0 3c-1.435.828-3.761.828-5.196 0-1.435-.829-1.435-2.172 0-3"/><g clip-path="url(#k)"><rect width="72" height="32" fill="#dee4f9" rx="16" transform="matrix(.86603 .5 -.86603 .5 85.713 137.896)"/><path fill="#535862" d="m85.969 159.043 8.608-4.97 2.122 1.225-4.292 5.222 9.045-2.478 2.121 1.225-8.608 4.97-1.576-.91 5.94-3.43-8.098 2.17-1.504-.868 3.759-4.676-5.941 3.43zm10.75 6.207 8.609-4.97 3.334 1.925q1.516.876 1.637 1.785.121.91-1.164 1.652-.86.498-1.879.637a6 6 0 0 1-2.049-.091 7 7 0 0 1-2.049-.805l-1.758-1.015-3.104 1.792zm6.051-1.673 1.685.973q.8.462 1.576.504a2.57 2.57 0 0 0 1.479-.35q.68-.392.582-.84-.072-.448-.873-.91l-1.685-.973zm5.182 8.382q-1.177-.679-1.54-1.505-.352-.833.133-1.701.497-.875 1.904-1.687a9.3 9.3 0 0 1 2.885-1.092 8.8 8.8 0 0 1 2.959-.098q1.455.196 2.667.896 1.649.952 1.734 1.953.096.994-1.091 2.002l-1.734-.903q.691-.581.655-1.162-.037-.581-.934-1.099a4 4 0 0 0-1.649-.504 5.9 5.9 0 0 0-1.916.154 7.3 7.3 0 0 0-1.952.791q-.97.56-1.382 1.134-.387.574-.23 1.099t.861.931a3.94 3.94 0 0 0 2 .553q1.067 0 2.134-.448l1.564 1.001a9.2 9.2 0 0 1-2.4.63 7.9 7.9 0 0 1-2.413-.091 7.3 7.3 0 0 1-2.255-.854"/></g><rect width="73.5" height="33.5" y="-.75" stroke="#fff" stroke-width="1.5" rx="16.75" transform="matrix(.86603 .5 -.86603 .5 85.063 137.521)"/><g clip-path="url(#l)"><rect width="72" height="32" fill="#dee4f9" rx="16" transform="matrix(.86603 .5 -.86603 .5 153.713 175.896)"/><path fill="#535862" d="m153.987 197.054 8.608-4.97 1.576.91-4.11 2.373-.206-.721 5.068 2.926-1.237-.112 4.11-2.373 1.576.91-8.608 4.97-1.576-.91 4.159-2.401.206.707-5.068-2.926 1.236.126-4.158 2.401zm11.58 6.909q-1.066-.615-1.467-1.281-.4-.664-.182-1.309.243-.643 1.067-1.204l1.697.868q-.484.365-.63.728a.83.83 0 0 0 .073.728q.23.358.824.7.51.294.982.427.498.134.922.098.448-.035.812-.245.328-.189.424-.427.11-.245-.133-.623-.231-.385-.909-1.015-.825-.756-1.164-1.302-.328-.552-.158-.987.181-.44.885-.847a4.4 4.4 0 0 1 1.698-.546 5.9 5.9 0 0 1 1.964.098q1.018.21 1.988.77 1.03.595 1.37 1.225.352.624.121 1.232-.23.61-.97 1.148l-1.661-.875q.413-.308.534-.644a.72.72 0 0 0-.061-.665q-.17-.336-.715-.651a3.2 3.2 0 0 0-1.394-.441q-.691-.048-1.201.245-.352.204-.424.427-.061.231.194.574.267.336.849.882.909.805 1.212 1.414.303.61.097 1.064-.206.456-.849.826a4.4 4.4 0 0 1-1.77.56 6.2 6.2 0 0 1-2.012-.14 7.5 7.5 0 0 1-2.013-.812m4.854 2.579 8.608-4.97 2.122 1.225-4.292 5.222 9.045-2.478 2.121 1.225-8.608 4.97-1.576-.91 5.941-3.43-8.099 2.17-1.504-.868 3.759-4.676-5.941 3.43z"/></g><rect width="73.5" height="33.5" y="-.75" stroke="#fff" stroke-width="1.5" rx="16.75" transform="matrix(.86603 .5 -.86603 .5 153.063 175.521)"/><path fill="#474c59" stroke="#717680" stroke-width="2" d="M209 93.893c7.935 0 14.317 3.717 26.481 10.741 6.099 3.521 10.759 6.209 13.882 8.573 3.086 2.335 4.989 4.58 4.99 7.293v25c0 2.713-1.904 4.959-4.99 7.294-3.123 2.364-7.783 5.051-13.882 8.572-12.164 7.024-18.546 10.74-26.481 10.74s-14.316-3.717-26.48-10.74c-6.099-3.521-10.759-6.208-13.882-8.572-3.086-2.335-4.99-4.581-4.99-7.294v-25c.001-2.713 1.904-4.958 4.99-7.293 3.123-2.364 7.783-5.052 13.882-8.573 12.164-7.024 18.545-10.74 26.48-10.74Z"/><path fill="url(#m)" d="M253.344 120.5h-88.719v25h.023c0 4.393 6.124 7.929 18.371 15S201.39 171.107 209 171.107s13.733-3.536 25.981-10.607c12.247-7.071 18.371-10.607 18.371-15q0-.14-.008-.277z"/><path fill="url(#n)" d="M183.02 105.5c12.247-7.071 18.371-10.607 25.98-10.607s13.734 3.536 25.981 10.607 18.371 10.607 18.371 15-6.123 7.929-18.371 15S216.61 146.107 209 146.107c-7.609 0-13.733-3.536-25.98-10.607s-18.372-10.607-18.372-15 6.124-7.929 18.372-15"/><path fill="#6e7ca5" fill-rule="evenodd" d="M212.204 105.385c3.615 1.124 7.865 3.006 11.95 5.365 4.086 2.359 7.346 4.812 9.292 6.899.967 1.037 1.668 2.044 1.932 2.942.254.861.178 1.91-1.12 2.659s-3.114.793-4.605.647a18 18 0 0 1-.989-.127q.081.175.144.345c.338.923.355 2.077-1.045 2.885-1.298.749-3.115.793-4.606.647a18 18 0 0 1-.988-.126q.081.174.144.344c.338.923.354 2.077-1.046 2.885-1.297.749-3.114.793-4.605.647a18 18 0 0 1-.988-.126q.081.174.143.344c.339.923.355 2.077-1.045 2.885-1.297.749-3.114.793-4.605.647-1.555-.153-3.3-.557-5.095-1.115-3.615-1.124-7.865-3.006-11.95-5.365-4.086-2.359-7.346-4.813-9.292-6.9-.967-1.036-1.668-2.043-1.932-2.941-.254-.861-.178-1.91 1.12-2.659 1.4-.808 3.398-.799 4.997-.604q.294.036.597.083a4 4 0 0 1-.219-.57c-.254-.861-.178-1.91 1.12-2.659 1.4-.808 3.398-.799 4.997-.604q.294.036.597.083a4 4 0 0 1-.219-.57c-.253-.861-.177-1.91 1.12-2.659 1.4-.808 3.399-.799 4.997-.604q.295.036.597.083a4 4 0 0 1-.218-.57c-.254-.861-.178-1.91 1.12-2.659 1.297-.75 3.114-.793 4.605-.647 1.555.153 3.3.557 5.095 1.115m-17.826 11.987-.038-.037a21 21 0 0 1-.421-.435c-.861-.924-1.341-1.676-1.501-2.219-.11-.373-.044-.538-.01-.592.101-.021.442-.069 1.256.03 1.007.123 2.346.432 3.946.947 1.984 1.9 4.927 4.037 8.502 6.101s7.276 3.763 10.567 4.908c.891.924 1.427 1.697 1.64 2.278.172.471.089.667.052.726-.094.02-.379.058-1.024-.006-.942-.092-2.244-.369-3.845-.867a31 31 0 0 1-.752-.243l-.065-.022c-3.021-1.016-6.623-2.636-10.182-4.691-3.558-2.055-6.364-4.134-8.125-5.878m-3.263 1.444c-1.6-.515-2.939-.824-3.946-.947-.814-.099-1.155-.051-1.256-.03-.035.054-.1.219.009.592.161.543.641 1.295 1.502 2.219 1.711 1.834 4.699 4.107 8.584 6.35 3.886 2.244 7.823 3.969 10.999 4.956 1.6.498 2.902.775 3.844.867.646.064.931.026 1.025.006.037-.059.12-.255-.052-.726-.214-.581-.749-1.354-1.64-2.278-3.291-1.145-6.992-2.844-10.567-4.908s-6.518-4.201-8.502-6.101m28.065 5.375.065.022q.382.129.753.243c1.6.498 2.902.775 3.844.867.645.064.93.026 1.024.006.037-.059.12-.255-.052-.726-.213-.581-.749-1.354-1.64-2.278-3.291-1.145-6.991-2.844-10.567-4.908-3.575-2.064-6.517-4.201-8.501-6.101-1.6-.515-2.939-.824-3.946-.947-.815-.099-1.156-.051-1.257-.03-.034.054-.1.219.01.592.16.543.64 1.295 1.502 2.219a17 17 0 0 0 .458.472c1.761 1.744 4.567 3.823 8.126 5.878s7.16 3.675 10.181 4.691" clip-rule="evenodd"/><defs><linearGradient id="a" x1="293.454" x2="300.149" y1="157.04" y2="133.848" gradientUnits="userSpaceOnUse"><stop stop-color="#cad1e7"/><stop offset="1" stop-color="#b4bdd8"/></linearGradient><linearGradient id="b" x1="334.453" x2="341.115" y1="130.75" y2="153.827" gradientUnits="userSpaceOnUse"><stop stop-color="#cfd8ef"/><stop offset="1" stop-color="#d5dae9"/></linearGradient><linearGradient id="c" x1="312.751" x2="312.751" y1="93" y2="142.911" gradientUnits="userSpaceOnUse"><stop stop-color="#9da4b9"/><stop offset="1" stop-color="#808bab"/></linearGradient><linearGradient id="d" x1="293.454" x2="300.149" y1="129.04" y2="105.848" gradientUnits="userSpaceOnUse"><stop stop-color="#cad1e7"/><stop offset="1" stop-color="#b4bdd8"/></linearGradient><linearGradient id="e" x1="334.453" x2="341.115" y1="102.75" y2="125.827" gradientUnits="userSpaceOnUse"><stop stop-color="#cfd8ef"/><stop offset="1" stop-color="#d5dae9"/></linearGradient><linearGradient id="f" x1="312.751" x2="293.578" y1="65" y2="106.043" gradientUnits="userSpaceOnUse"><stop stop-color="#edf1fd"/><stop offset="1" stop-color="#e1e5f1"/></linearGradient><linearGradient id="g" x1="246.352" x2="157.625" y1="89.787" y2="89.787" gradientUnits="userSpaceOnUse"><stop stop-color="#d1d8ef"/><stop offset=".399" stop-color="#d8e1fb"/><stop offset=".607" stop-color="#b5bed9"/><stop offset="1" stop-color="#b4bdd8"/></linearGradient><linearGradient id="h" x1="157.596" x2="201.869" y1="35.924" y2="112.607" gradientUnits="userSpaceOnUse"><stop stop-color="#9da4b9"/><stop offset="1" stop-color="#808bab"/></linearGradient><linearGradient id="i" x1="246.352" x2="157.625" y1="63.078" y2="63.078" gradientUnits="userSpaceOnUse"><stop stop-color="#d1d8ef"/><stop offset=".399" stop-color="#d8e1fb"/><stop offset=".607" stop-color="#b5bed9"/><stop offset="1" stop-color="#b4bdd8"/></linearGradient><linearGradient id="j" x1="157.596" x2="161.032" y1="8.924" y2="65.33" gradientUnits="userSpaceOnUse"><stop stop-color="#edf1fd"/><stop offset="1" stop-color="#e1e5f1"/></linearGradient><linearGradient id="m" x1="253.352" x2="164.625" y1="149.951" y2="149.951" gradientUnits="userSpaceOnUse"><stop stop-color="#d1d8ef"/><stop offset=".399" stop-color="#d8e1fb"/><stop offset=".607" stop-color="#b5bed9"/><stop offset="1" stop-color="#b4bdd8"/></linearGradient><linearGradient id="n" x1="164.596" x2="168.032" y1="94.924" y2="151.33" gradientUnits="userSpaceOnUse"><stop stop-color="#edf1fd"/><stop offset="1" stop-color="#e1e5f1"/></linearGradient><clipPath id="k"><rect width="72" height="32" fill="#fff" rx="16" transform="matrix(.86603 .5 -.86603 .5 85.713 137.896)"/></clipPath><clipPath id="l"><rect width="72" height="32" fill="#fff" rx="16" transform="matrix(.86603 .5 -.86603 .5 153.713 175.896)"/></clipPath></defs></svg>