<svg width="451" height="291" viewBox="0 0 451 291" fill="none" xmlns="http://www.w3.org/2000/svg">
<path d="M1 136.409L223.501 8.04904C224.738 7.33542 226.262 7.33543 227.499 8.04905L450 136.409V157.969C450 159.398 449.237 160.719 447.999 161.434L225.5 289.792L3.00118 161.434C1.76291 160.719 1 159.398 1 157.969V136.409Z" fill="#E9EAEB"/>
<path d="M1 136.409L225.5 265.922M1 136.409L223.501 8.04904C224.738 7.33542 226.262 7.33543 227.499 8.04905L450 136.409M1 136.409V157.969C1 159.398 1.76291 160.719 3.00118 161.434L225.5 289.792M225.5 265.922L450 136.409M225.5 265.922V289.792M450 136.409V157.969C450 159.398 449.237 160.719 447.999 161.434L225.5 289.792" stroke="#A4A7AE" stroke-width="2"/>
<path d="M311.302 64.7109C312.23 64.1753 313.374 64.1751 314.302 64.7109L355.603 88.5566L355.772 88.6621C356.6 89.2163 357.102 90.1496 357.103 91.1543V141.846C357.102 142.85 356.6 143.784 355.772 144.338L355.603 144.443L314.302 168.289C313.374 168.825 312.23 168.825 311.302 168.289L270 144.443C269.072 143.908 268.5 142.917 268.5 141.846V91.1543C268.5 90.0827 269.072 89.0925 270 88.5566L311.302 64.7109Z" fill="#474C59" stroke="#717680" stroke-width="2"/>
<path d="M269.5 118L312.801 143L312.801 168L269.5 143L269.5 118Z" fill="url(#paint0_linear_328_114802)"/>
<path d="M312.803 143L356.104 118L356.104 143L312.803 168L312.803 143Z" fill="url(#paint1_linear_328_114802)"/>
<path d="M312.803 93L356.104 118L312.803 143L269.501 118L312.803 93Z" fill="url(#paint2_linear_328_114802)"/>
<path d="M290.5 143C290.5 141.895 291.276 141.447 292.232 142L306.954 150.5C307.911 151.052 308.686 152.395 308.687 153.5C308.687 154.604 307.911 155.052 306.954 154.5L292.232 146C291.276 145.447 290.5 144.104 290.5 143ZM280 136.5C280 134.843 281.163 134.172 282.598 135C284.032 135.828 285.196 137.843 285.196 139.5C285.196 141.156 284.033 141.828 282.598 141C281.163 140.171 280 138.156 280 136.5ZM273 132.5C273 130.843 274.163 130.172 275.598 131C277.032 131.828 278.196 133.843 278.196 135.5C278.196 137.156 277.033 137.828 275.598 137C274.163 136.171 273 134.156 273 132.5Z" fill="#7587BA"/>
<path d="M269.5 90L312.801 115L312.801 140L269.5 115L269.5 90Z" fill="url(#paint3_linear_328_114802)"/>
<path d="M312.803 115L356.104 90L356.104 115L312.803 140L312.803 115Z" fill="url(#paint4_linear_328_114802)"/>
<path d="M312.803 65L356.104 90L312.803 115L269.501 90L312.803 65Z" fill="url(#paint5_linear_328_114802)"/>
<path d="M290.5 115.5C290.5 114.395 291.276 113.947 292.232 114.5L306.954 123C307.911 123.552 308.686 124.895 308.687 126C308.687 127.104 307.911 127.552 306.954 127L292.232 118.5C291.276 117.947 290.5 116.604 290.5 115.5ZM280 109.5C280 107.843 281.163 107.172 282.598 108C284.032 108.828 285.196 110.843 285.196 112.5C285.196 114.156 284.033 114.828 282.598 114C281.163 113.171 280 111.156 280 109.5ZM273 105.5C273 103.843 274.163 103.172 275.598 104C277.032 104.828 278.196 106.843 278.196 108.5C278.196 110.156 277.033 110.828 275.598 110C274.163 109.171 273 107.156 273 105.5Z" fill="#7587BA"/>
<path d="M202 7.89343C209.935 7.89343 216.317 11.6102 228.481 18.6337C234.58 22.1546 239.24 24.8431 242.363 27.2069C245.449 29.5418 247.352 31.7871 247.353 34.4999V84.4999C247.353 87.2128 245.449 89.4588 242.363 91.7938C239.24 94.1576 234.58 96.8452 228.481 100.366C216.317 107.39 209.935 111.106 202 111.106C194.065 111.106 187.684 107.389 175.52 100.366C169.421 96.8452 164.761 94.1576 161.638 91.7938C158.552 89.4588 156.648 87.2128 156.648 84.4999V34.4999C156.649 31.7871 158.552 29.5418 161.638 27.2069C164.761 24.8431 169.421 22.1546 175.52 18.6337C187.684 11.6104 194.065 7.89355 202 7.89343Z" fill="#474C59" stroke="#717680" stroke-width="2"/>
<path d="M246.344 61.5H157.625V84.5L157.648 84.5C157.648 88.8934 163.772 92.429 176.019 99.5C188.267 106.571 194.39 110.107 202 110.107C209.61 110.107 215.733 106.571 227.981 99.5C240.228 92.429 246.352 88.8934 246.352 84.5C246.352 84.4073 246.349 84.3149 246.344 84.2229V61.5Z" fill="url(#paint6_linear_328_114802)"/>
<path d="M176.02 46.5C188.267 39.429 194.391 35.8934 202 35.8934C209.61 35.8934 215.734 39.429 227.981 46.5C240.229 53.5711 246.352 57.1066 246.352 61.5C246.352 65.8934 240.229 69.429 227.981 76.5C215.734 83.5711 209.61 87.1066 202 87.1066C194.391 87.1066 188.267 83.5711 176.02 76.5C163.772 69.429 157.648 65.8934 157.648 61.5C157.648 57.1066 163.772 53.5711 176.02 46.5Z" fill="url(#paint7_linear_328_114802)"/>
<path d="M178.992 82.4999C178.992 81.9477 179.38 81.7238 179.858 81.9999L181.157 82.7499C181.635 83.026 182.023 83.6976 182.023 84.2499V98.2499C182.023 98.8021 181.636 99.026 181.157 98.7499L179.858 97.9999C179.38 97.7237 178.992 97.0521 178.992 96.4999V82.4999ZM173.992 79.8749C173.992 79.3227 174.38 79.0988 174.858 79.3749L176.157 80.1249C176.635 80.401 177.023 81.0726 177.023 81.6249V95.6249C177.023 96.1771 176.636 96.401 176.157 96.1249L174.858 95.3749C174.38 95.0987 173.992 94.4271 173.992 93.8749V79.8749ZM168.992 76.9999C168.992 76.4477 169.38 76.2237 169.858 76.4999L171.157 77.2499C171.635 77.526 172.023 78.1976 172.023 78.7499V92.7499C172.023 93.3021 171.636 93.526 171.157 93.2499L169.858 92.4999C169.38 92.2237 168.992 91.5521 168.992 90.9999V76.9999ZM163.992 73.7499C163.992 73.1977 164.38 72.9737 164.858 73.2499L166.157 73.9999C166.635 74.276 167.023 74.9476 167.023 75.4999V89.4999C167.023 90.0521 166.636 90.276 166.157 89.9999L164.858 89.2499C164.38 88.9737 163.992 88.3021 163.992 87.7499V73.7499Z" fill="#7587BA"/>
<path d="M246.344 34.5H157.625V58L157.648 58C157.648 62.3934 163.772 65.9289 176.019 73C188.267 80.0711 194.39 83.6066 202 83.6066C209.61 83.6066 215.733 80.0711 227.981 73C240.228 65.9289 246.352 62.3934 246.352 58C246.352 57.9073 246.349 57.8149 246.344 57.7229V34.5Z" fill="url(#paint8_linear_328_114802)"/>
<path d="M176.02 19.5C188.267 12.4289 194.391 8.89339 202 8.89339C209.61 8.89339 215.734 12.4289 227.981 19.5C240.229 26.5711 246.352 30.1066 246.352 34.5C246.352 38.8934 240.229 42.4289 227.981 49.5C215.734 56.5711 209.61 60.1066 202 60.1066C194.391 60.1066 188.267 56.5711 176.02 49.5C163.772 42.4289 157.648 38.8934 157.648 34.5C157.648 30.1066 163.772 26.5711 176.02 19.5Z" fill="url(#paint9_linear_328_114802)"/>
<path d="M199.402 52.2498C200.837 51.4217 203.163 51.4217 204.598 52.2498C206.033 53.0782 206.033 54.4213 204.598 55.2498C203.163 56.078 200.837 56.078 199.402 55.2498C197.967 54.4213 197.967 53.0782 199.402 52.2498ZM164.424 32.9998C165.859 32.1717 168.184 32.1717 169.619 32.9998C171.054 33.8282 171.054 35.1713 169.619 35.9998C168.184 36.828 165.859 36.828 164.424 35.9998C162.989 35.1713 162.989 33.8282 164.424 32.9998ZM235.674 32.9998C237.109 32.1717 239.434 32.1717 240.869 32.9998C242.304 33.8282 242.304 35.1713 240.869 35.9998C239.434 36.828 237.109 36.828 235.674 35.9998C234.239 35.1713 234.239 33.8282 235.674 32.9998ZM199.402 12.4998C200.837 11.6717 203.163 11.6717 204.598 12.4998C206.033 13.3282 206.033 14.6713 204.598 15.4998C203.163 16.328 200.837 16.328 199.402 15.4998C197.967 14.6713 197.967 13.3282 199.402 12.4998Z" fill="#7587BA"/>
<g clip-path="url(#clip0_328_114802)">
<rect width="72" height="32" rx="16" transform="matrix(0.866025 0.5 -0.866025 0.5 85.7129 137.896)" fill="#DEE4F9"/>
<path d="M85.9688 159.043L94.5771 154.073L96.6989 155.298L92.4069 160.52L101.452 158.042L103.573 159.267L94.9651 164.237L93.3889 163.327L99.3299 159.897L91.2308 162.067L89.7274 161.199L93.4859 156.523L87.545 159.953L85.9688 159.043ZM96.7197 165.25L105.328 160.28L108.662 162.205C109.673 162.789 110.218 163.384 110.299 163.99C110.38 164.597 109.992 165.148 109.135 165.642C108.561 165.974 107.935 166.186 107.256 166.279C106.585 166.368 105.902 166.338 105.207 166.188C104.512 166.039 103.829 165.771 103.158 165.383L101.4 164.368L98.2959 166.16L96.7197 165.25ZM102.77 163.577L104.455 164.55C104.989 164.858 105.514 165.026 106.031 165.054C106.557 165.087 107.05 164.97 107.51 164.704C107.963 164.443 108.157 164.163 108.092 163.864C108.044 163.566 107.753 163.262 107.219 162.954L105.534 161.981L102.77 163.577ZM107.952 171.959C107.168 171.506 106.654 171.005 106.412 170.454C106.177 169.899 106.222 169.332 106.545 168.753C106.877 168.17 107.511 167.607 108.449 167.066C109.37 166.534 110.332 166.17 111.334 165.974C112.345 165.773 113.331 165.741 114.293 165.876C115.263 166.007 116.152 166.305 116.96 166.772C118.059 167.407 118.637 168.058 118.694 168.725C118.758 169.388 118.395 170.055 117.603 170.727L115.869 169.824C116.33 169.437 116.548 169.049 116.524 168.662C116.499 168.275 116.188 167.908 115.59 167.563C115.105 167.283 114.555 167.115 113.941 167.059C113.327 167.003 112.688 167.054 112.025 167.213C111.363 167.372 110.712 167.635 110.073 168.004C109.427 168.377 108.966 168.755 108.691 169.138C108.433 169.521 108.356 169.887 108.461 170.237C108.566 170.587 108.853 170.897 109.322 171.168C109.96 171.537 110.627 171.721 111.322 171.721C112.033 171.721 112.745 171.572 113.456 171.273L115.02 172.274C114.236 172.596 113.436 172.806 112.62 172.904C111.811 172.997 111.007 172.967 110.207 172.813C109.423 172.659 108.671 172.374 107.952 171.959Z" fill="#535862"/>
</g>
<rect x="4.47035e-08" y="-0.75" width="73.5" height="33.5" rx="16.75" transform="matrix(0.866025 0.5 -0.866025 0.5 85.0634 137.521)" stroke="white" stroke-width="1.5"/>
<g clip-path="url(#clip1_328_114802)">
<rect width="72" height="32" rx="16" transform="matrix(0.866025 0.5 -0.866025 0.5 153.713 175.896)" fill="#DEE4F9"/>
<path d="M153.987 197.054L162.595 192.084L164.171 192.994L160.061 195.367L159.855 194.646L164.923 197.572L163.686 197.46L167.796 195.087L169.372 195.997L160.764 200.967L159.188 200.057L163.347 197.656L163.553 198.363L158.485 195.437L159.721 195.563L155.563 197.964L153.987 197.054ZM165.567 203.963C164.856 203.553 164.367 203.126 164.1 202.682C163.833 202.239 163.772 201.803 163.918 201.373C164.08 200.944 164.435 200.543 164.985 200.169L166.682 201.037C166.359 201.28 166.149 201.523 166.052 201.765C165.963 202.013 165.987 202.255 166.125 202.493C166.278 202.731 166.553 202.965 166.949 203.193C167.289 203.389 167.616 203.532 167.931 203.62C168.263 203.709 168.57 203.742 168.853 203.718C169.152 203.695 169.422 203.613 169.665 203.473C169.883 203.347 170.025 203.205 170.089 203.046C170.162 202.883 170.118 202.675 169.956 202.423C169.802 202.167 169.499 201.828 169.047 201.408C168.497 200.904 168.109 200.47 167.883 200.106C167.664 199.738 167.612 199.409 167.725 199.119C167.846 198.825 168.141 198.543 168.61 198.272C169.111 197.983 169.677 197.801 170.308 197.726C170.946 197.647 171.601 197.68 172.272 197.824C172.951 197.964 173.613 198.221 174.26 198.594C174.947 198.991 175.404 199.399 175.63 199.819C175.864 200.235 175.905 200.645 175.751 201.051C175.598 201.457 175.274 201.84 174.781 202.199L173.12 201.324C173.395 201.119 173.573 200.904 173.654 200.68C173.743 200.461 173.723 200.239 173.593 200.015C173.48 199.791 173.242 199.574 172.878 199.364C172.425 199.103 171.96 198.956 171.484 198.923C171.023 198.891 170.623 198.972 170.283 199.168C170.049 199.304 169.907 199.446 169.859 199.595C169.818 199.749 169.883 199.941 170.053 200.169C170.231 200.393 170.514 200.687 170.902 201.051C171.508 201.588 171.912 202.059 172.114 202.465C172.316 202.871 172.348 203.226 172.211 203.529C172.074 203.833 171.791 204.108 171.362 204.355C170.837 204.659 170.247 204.845 169.592 204.915C168.946 204.981 168.275 204.934 167.58 204.775C166.892 204.612 166.222 204.341 165.567 203.963ZM170.421 206.542L179.029 201.572L181.151 202.797L176.859 208.019L185.904 205.541L188.025 206.766L179.417 211.736L177.841 210.826L183.782 207.396L175.683 209.566L174.179 208.698L177.938 204.022L171.997 207.452L170.421 206.542Z" fill="#535862"/>
</g>
<rect x="4.47035e-08" y="-0.75" width="73.5" height="33.5" rx="16.75" transform="matrix(0.866025 0.5 -0.866025 0.5 153.063 175.521)" stroke="white" stroke-width="1.5"/>
<path d="M209 93.8934C216.935 93.8934 223.317 97.6102 235.481 104.634C241.58 108.155 246.24 110.843 249.363 113.207C252.449 115.542 254.352 117.787 254.353 120.5V145.5C254.353 148.213 252.449 150.459 249.363 152.794C246.24 155.158 241.58 157.845 235.481 161.366C223.317 168.39 216.935 172.106 209 172.106C201.065 172.106 194.684 168.389 182.52 161.366C176.421 157.845 171.761 155.158 168.638 152.794C165.552 150.459 163.648 148.213 163.648 145.5V120.5C163.649 117.787 165.552 115.542 168.638 113.207C171.761 110.843 176.421 108.155 182.52 104.634C194.684 97.6104 201.065 93.8936 209 93.8934Z" fill="#474C59" stroke="#717680" stroke-width="2"/>
<path d="M253.344 120.5H164.625V145.5L164.648 145.5C164.648 149.893 170.772 153.429 183.019 160.5C195.267 167.571 201.39 171.107 209 171.107C216.61 171.107 222.733 167.571 234.981 160.5C247.228 153.429 253.352 149.893 253.352 145.5C253.352 145.407 253.349 145.315 253.344 145.223V120.5Z" fill="url(#paint10_linear_328_114802)"/>
<path d="M183.02 105.5C195.267 98.4289 201.391 94.8934 209 94.8934C216.61 94.8934 222.734 98.4289 234.981 105.5C247.229 112.571 253.352 116.107 253.352 120.5C253.352 124.893 247.229 128.429 234.981 135.5C222.734 142.571 216.61 146.107 209 146.107C201.391 146.107 195.267 142.571 183.02 135.5C170.772 128.429 164.648 124.893 164.648 120.5C164.648 116.107 170.772 112.571 183.02 105.5Z" fill="url(#paint11_linear_328_114802)"/>
<path fill-rule="evenodd" clip-rule="evenodd" d="M212.204 105.385C215.819 106.509 220.069 108.391 224.154 110.75C228.24 113.109 231.5 115.562 233.446 117.649C234.413 118.686 235.114 119.693 235.378 120.591C235.632 121.452 235.556 122.501 234.258 123.25C232.96 123.999 231.144 124.043 229.653 123.897C229.331 123.865 229.001 123.823 228.664 123.77C228.718 123.887 228.766 124.002 228.808 124.115C229.146 125.038 229.163 126.192 227.763 127C226.465 127.749 224.648 127.793 223.157 127.647C222.835 127.615 222.506 127.573 222.169 127.521C222.223 127.637 222.271 127.752 222.313 127.865C222.651 128.788 222.667 129.942 221.267 130.75C219.97 131.499 218.153 131.543 216.662 131.397C216.34 131.365 216.01 131.323 215.674 131.271C215.728 131.387 215.776 131.502 215.817 131.615C216.156 132.538 216.172 133.692 214.772 134.5C213.475 135.249 211.658 135.293 210.167 135.147C208.612 134.994 206.867 134.59 205.072 134.032C201.457 132.908 197.207 131.026 193.122 128.667C189.036 126.308 185.776 123.854 183.83 121.767C182.863 120.731 182.162 119.724 181.898 118.826C181.644 117.965 181.72 116.916 183.018 116.167C184.418 115.359 186.416 115.368 188.015 115.563C188.211 115.587 188.41 115.615 188.612 115.646C188.521 115.452 188.448 115.262 188.393 115.076C188.139 114.215 188.215 113.166 189.513 112.417C190.913 111.609 192.911 111.618 194.51 111.813C194.706 111.837 194.905 111.865 195.107 111.896C195.016 111.702 194.943 111.512 194.888 111.326C194.635 110.465 194.711 109.416 196.008 108.667C197.408 107.859 199.407 107.868 201.005 108.063C201.201 108.087 201.401 108.115 201.602 108.146C201.512 107.952 201.438 107.761 201.384 107.576C201.13 106.715 201.206 105.666 202.504 104.917C203.801 104.167 205.618 104.124 207.109 104.27C208.664 104.423 210.409 104.827 212.204 105.385ZM194.378 117.372C194.366 117.359 194.353 117.347 194.34 117.335C194.193 117.187 194.052 117.042 193.919 116.9C193.058 115.976 192.578 115.224 192.418 114.681C192.308 114.308 192.374 114.143 192.408 114.089C192.509 114.068 192.85 114.02 193.664 114.119C194.671 114.242 196.01 114.551 197.61 115.066C199.594 116.966 202.537 119.103 206.112 121.167C209.687 123.231 213.388 124.93 216.679 126.075C217.57 126.999 218.106 127.772 218.319 128.353C218.491 128.824 218.408 129.02 218.371 129.079C218.277 129.099 217.992 129.137 217.347 129.073C216.405 128.981 215.103 128.704 213.502 128.206C213.256 128.13 213.005 128.049 212.75 127.963C212.728 127.956 212.707 127.948 212.685 127.941C209.664 126.925 206.062 125.305 202.503 123.25C198.945 121.195 196.139 119.116 194.378 117.372ZM191.115 118.816C189.515 118.301 188.176 117.992 187.169 117.869C186.355 117.77 186.014 117.818 185.913 117.839C185.878 117.893 185.813 118.058 185.922 118.431C186.083 118.974 186.563 119.726 187.424 120.65C189.135 122.484 192.123 124.757 196.008 127C199.894 129.244 203.831 130.969 207.007 131.956C208.607 132.454 209.909 132.731 210.851 132.823C211.497 132.887 211.782 132.849 211.876 132.829C211.913 132.77 211.996 132.574 211.824 132.103C211.61 131.522 211.075 130.749 210.184 129.825C206.893 128.68 203.192 126.981 199.617 124.917C196.041 122.853 193.099 120.716 191.115 118.816ZM219.18 124.191C219.202 124.198 219.223 124.206 219.245 124.213C219.5 124.299 219.751 124.38 219.998 124.456C221.598 124.954 222.9 125.231 223.842 125.323C224.487 125.387 224.772 125.349 224.866 125.329C224.903 125.27 224.986 125.074 224.814 124.603C224.601 124.022 224.065 123.249 223.174 122.325C219.883 121.18 216.183 119.481 212.607 117.417C209.032 115.353 206.09 113.216 204.106 111.316C202.506 110.801 201.167 110.492 200.16 110.369C199.345 110.27 199.004 110.318 198.903 110.339C198.869 110.393 198.803 110.558 198.913 110.931C199.073 111.474 199.553 112.226 200.415 113.15C200.547 113.292 200.688 113.437 200.836 113.585C200.849 113.597 200.861 113.609 200.873 113.622C202.634 115.366 205.44 117.445 208.999 119.5C212.558 121.555 216.159 123.175 219.18 124.191Z" fill="#6E7CA5"/>
<defs>
<linearGradient id="paint0_linear_328_114802" x1="293.454" y1="157.04" x2="300.149" y2="133.848" gradientUnits="userSpaceOnUse">
<stop stop-color="#CAD1E7"/>
<stop offset="1" stop-color="#B4BDD8"/>
</linearGradient>
<linearGradient id="paint1_linear_328_114802" x1="334.453" y1="130.75" x2="341.115" y2="153.827" gradientUnits="userSpaceOnUse">
<stop stop-color="#CFD8EF"/>
<stop offset="1" stop-color="#D5DAE9"/>
</linearGradient>
<linearGradient id="paint2_linear_328_114802" x1="312.751" y1="93" x2="312.751" y2="142.911" gradientUnits="userSpaceOnUse">
<stop stop-color="#9DA4B9"/>
<stop offset="1" stop-color="#808BAB"/>
</linearGradient>
<linearGradient id="paint3_linear_328_114802" x1="293.454" y1="129.04" x2="300.149" y2="105.848" gradientUnits="userSpaceOnUse">
<stop stop-color="#CAD1E7"/>
<stop offset="1" stop-color="#B4BDD8"/>
</linearGradient>
<linearGradient id="paint4_linear_328_114802" x1="334.453" y1="102.75" x2="341.115" y2="125.827" gradientUnits="userSpaceOnUse">
<stop stop-color="#CFD8EF"/>
<stop offset="1" stop-color="#D5DAE9"/>
</linearGradient>
<linearGradient id="paint5_linear_328_114802" x1="312.751" y1="65" x2="293.578" y2="106.043" gradientUnits="userSpaceOnUse">
<stop stop-color="#EDF1FD"/>
<stop offset="1" stop-color="#E1E5F1"/>
</linearGradient>
<linearGradient id="paint6_linear_328_114802" x1="246.352" y1="89.7871" x2="157.625" y2="89.7871" gradientUnits="userSpaceOnUse">
<stop stop-color="#D1D8EF"/>
<stop offset="0.398949" stop-color="#D8E1FB"/>
<stop offset="0.607454" stop-color="#B5BED9"/>
<stop offset="1" stop-color="#B4BDD8"/>
</linearGradient>
<linearGradient id="paint7_linear_328_114802" x1="157.596" y1="35.9237" x2="201.869" y2="112.607" gradientUnits="userSpaceOnUse">
<stop stop-color="#9DA4B9"/>
<stop offset="1" stop-color="#808BAB"/>
</linearGradient>
<linearGradient id="paint8_linear_328_114802" x1="246.352" y1="63.0781" x2="157.625" y2="63.0781" gradientUnits="userSpaceOnUse">
<stop stop-color="#D1D8EF"/>
<stop offset="0.398949" stop-color="#D8E1FB"/>
<stop offset="0.607454" stop-color="#B5BED9"/>
<stop offset="1" stop-color="#B4BDD8"/>
</linearGradient>
<linearGradient id="paint9_linear_328_114802" x1="157.596" y1="8.92371" x2="161.032" y2="65.3304" gradientUnits="userSpaceOnUse">
<stop stop-color="#EDF1FD"/>
<stop offset="1" stop-color="#E1E5F1"/>
</linearGradient>
<linearGradient id="paint10_linear_328_114802" x1="253.352" y1="149.951" x2="164.625" y2="149.951" gradientUnits="userSpaceOnUse">
<stop stop-color="#D1D8EF"/>
<stop offset="0.398949" stop-color="#D8E1FB"/>
<stop offset="0.607454" stop-color="#B5BED9"/>
<stop offset="1" stop-color="#B4BDD8"/>
</linearGradient>
<linearGradient id="paint11_linear_328_114802" x1="164.596" y1="94.9237" x2="168.032" y2="151.33" gradientUnits="userSpaceOnUse">
<stop stop-color="#EDF1FD"/>
<stop offset="1" stop-color="#E1E5F1"/>
</linearGradient>
<clipPath id="clip0_328_114802">
<rect width="72" height="32" rx="16" transform="matrix(0.866025 0.5 -0.866025 0.5 85.7129 137.896)" fill="white"/>
</clipPath>
<clipPath id="clip1_328_114802">
<rect width="72" height="32" rx="16" transform="matrix(0.866025 0.5 -0.866025 0.5 153.713 175.896)" fill="white"/>
</clipPath>
</defs>
</svg>
