<svg xmlns="http://www.w3.org/2000/svg" width="400" height="300" fill="none" viewBox="0 0 400 300"><defs><linearGradient id="a" x1="130" x2="270" y1="80" y2="220" gradientUnits="userSpaceOnUse"><stop offset="0" stop-color="#e8f1fd"/><stop offset="1" stop-color="#d4e4fa"/></linearGradient><filter id="b" width="112" height="40" x="-4" y="-2" color-interpolation-filters="sRGB" filterUnits="userSpaceOnUse"><feFlood flood-opacity="0" result="bg"/><feColorMatrix in="SourceAlpha" values="0 0 0 0 0 0 0 0 0 0 0 0 0 0 0 0 0 0 0.08 0"/><feOffset dy="2"/><feGaussianBlur stdDeviation="3"/><feBlend in2="bg"/><feBlend in="SourceGraphic"/></filter></defs><rect width="140" height="140" x="130" y="80" fill="url(#a)" stroke="#c7dcf4" stroke-width="1.5" rx="20"/><rect width="104" height="60" x="148" y="120" fill="#fff" fill-opacity=".6" stroke="#c7dcf4" rx="12"/><path stroke="#3b82f6" stroke-linecap="round" stroke-linejoin="round" stroke-width="2" d="m185 143 15-10 15 10"/><path stroke="#3b82f6" stroke-linecap="round" stroke-width="2" d="M200 133v25"/><path stroke="#93b4f0" stroke-linecap="round" stroke-linejoin="round" stroke-width="2" d="m185 158 15 10 15-10"/><path stroke="#93b4f0" stroke-dasharray="3 3" stroke-linecap="round" stroke-width="2" d="M200 168v-25"/><text x="200" y="200" fill="#3b6cb5" font-family="system-ui,sans-serif" font-size="11" font-weight="600" text-anchor="middle">GATEWAY</text><rect width="100" height="56" x="10" y="40" fill="#fff" stroke="#dce7f5" stroke-width="1.2" rx="12"/><rect width="24" height="24" x="22" y="52" fill="#eef4fd" rx="6"/><rect width="16" height="3" x="26" y="56" fill="#93b4f0" rx="1.5"/><rect width="10" height="3" x="26" y="62" fill="#b8d0f8" rx="1.5"/><rect width="13" height="3" x="26" y="68" fill="#93b4f0" rx="1.5"/><text x="56" y="64" fill="#334155" font-family="system-ui,sans-serif" font-size="9" font-weight="600">Merchant</text><text x="56" y="76" fill="#94a3b8" font-family="system-ui,sans-serif" font-size="8">checkout</text><rect width="108" height="56" x="280" y="30" fill="#fff" stroke="#dce7f5" stroke-width="1.2" rx="12"/><circle cx="300" cy="58" r="12" fill="#eef4fd"/><circle cx="300" cy="54" r="4" fill="#93b4f0"/><path fill="#93b4f0" d="M292 66c0-4 16-4 16 0"/><text x="318" y="54" fill="#334155" font-family="system-ui,sans-serif" font-size="9" font-weight="600">Customer</text><text x="318" y="66" fill="#94a3b8" font-family="system-ui,sans-serif" font-size="8">pays crypto</text><rect width="114" height="68" x="280" y="185" fill="#fff" stroke="#dce7f5" stroke-width="1.2" rx="12"/><g transform="translate(292 197)"><rect width="16" height="16" y="4" fill="#eef4fd" stroke="#3b82f6" stroke-width=".8" rx="3"/><rect width="8" height="2" x="4" y="8" fill="#93b4f0" rx="1"/><rect width="5" height="2" x="4" y="12" fill="#b8d0f8" rx="1"/><path stroke="#3b82f6" stroke-dasharray="2 1" d="M16 12h6"/><rect width="16" height="16" x="22" fill="#eef4fd" stroke="#3b82f6" stroke-width=".8" rx="3"/><rect width="8" height="2" x="26" y="4" fill="#93b4f0" rx="1"/><rect width="5" height="2" x="26" y="8" fill="#b8d0f8" rx="1"/><path stroke="#3b82f6" stroke-dasharray="2 1" d="m38 8 6 4"/><rect width="16" height="16" x="22" y="20" fill="#eef4fd" stroke="#3b82f6" stroke-width=".8" rx="3"/><rect width="8" height="2" x="26" y="24" fill="#93b4f0" rx="1"/><rect width="5" height="2" x="26" y="28" fill="#b8d0f8" rx="1"/><path stroke="#3b82f6" stroke-dasharray="2 1" d="m16 20 6 8"/><circle cx="41" cy="3" r="5" fill="#dcfce7" stroke="#22c55e" stroke-width=".8"/><path stroke="#22c55e" stroke-linecap="round" stroke-linejoin="round" stroke-width="1.2" d="M38.5 3 40 4.5 43.5 1"/></g><text x="340" y="210" fill="#334155" font-family="system-ui,sans-serif" font-size="9" font-weight="600">On-chain</text><text x="340" y="222" fill="#94a3b8" font-family="system-ui,sans-serif" font-size="8">settlement</text><rect width="92" height="12" x="292" y="237" fill="#f0f6ff" rx="3"/><text x="338" y="246" fill="#6b8cc7" font-family="monospace" font-size="7" text-anchor="middle">tx: 0xa3f...8c2</text><rect width="108" height="56" x="10" y="200" fill="#fff" stroke="#dce7f5" stroke-width="1.2" rx="12"/><rect width="24" height="24" x="22" y="212" fill="#dcfce7" rx="6"/><path stroke="#22c55e" stroke-linecap="round" stroke-linejoin="round" stroke-width="2" d="m30 224 4 4 8-8"/><text x="54" y="224" fill="#334155" font-family="system-ui,sans-serif" font-size="9" font-weight="600">Webhook</text><text x="54" y="236" fill="#22c55e" font-family="system-ui,sans-serif" font-size="8">confirmed</text><rect width="104" height="32" x="148" y="42" fill="#fff" stroke="#c7e0ff" stroke-width="1.2" filter="url(#b)" rx="16"/><circle cx="168" cy="58" r="10" fill="#2775ca"/><text x="168" y="62" fill="#fff" font-family="system-ui,sans-serif" font-size="10" font-weight="700" text-anchor="middle">$</text><text x="186" y="55" fill="#94a3b8" font-family="system-ui,sans-serif" font-size="8">Amount</text><text x="186" y="66" fill="#1e293b" font-family="system-ui,sans-serif" font-size="11" font-weight="700">500 USDC</text><rect width="120" height="24" x="140" y="232" fill="#fff" stroke="#c7e0ff" rx="12"/><text x="200" y="248" fill="#64748b" font-family="system-ui,sans-serif" font-size="9" text-anchor="middle">ETH • SOL • TRON • Base</text></svg>