<svg width="400" height="300" viewBox="0 0 400 300" fill="none" xmlns="http://www.w3.org/2000/svg">
  <defs>
    <linearGradient id="gateway-grad" x1="130" y1="80" x2="270" y2="220" gradientUnits="userSpaceOnUse">
      <stop offset="0" stop-color="#e8f1fd"/>
      <stop offset="1" stop-color="#d4e4fa"/>
    </linearGradient>
    <filter id="badge-shadow" x="-4" y="-2" width="112" height="40" filterUnits="userSpaceOnUse" color-interpolation-filters="sRGB">
      <feFlood flood-opacity="0" result="bg"/>
      <feColorMatrix in="SourceAlpha" values="0 0 0 0 0 0 0 0 0 0 0 0 0 0 0 0 0 0 0.08 0"/>
      <feOffset dy="2"/>
      <feGaussianBlur stdDeviation="3"/>
      <feBlend in2="bg"/>
      <feBlend in="SourceGraphic"/>
    </filter>
  </defs>

  <!-- Central Gateway Box -->
  <rect x="130" y="80" width="140" height="140" rx="20" fill="url(#gateway-grad)" stroke="#c7dcf4" stroke-width="1.5"/>
  <rect x="148" y="120" width="104" height="60" rx="12" fill="white" fill-opacity="0.6" stroke="#c7dcf4" stroke-width="1"/>
  <!-- Gateway icon - arrows in/out -->
  <path d="M185 143 L200 133 L215 143" stroke="#3b82f6" stroke-width="2" stroke-linecap="round" stroke-linejoin="round"/>
  <line x1="200" y1="133" x2="200" y2="158" stroke="#3b82f6" stroke-width="2" stroke-linecap="round"/>
  <path d="M185 158 L200 168 L215 158" stroke="#93b4f0" stroke-width="2" stroke-linecap="round" stroke-linejoin="round"/>
  <line x1="200" y1="168" x2="200" y2="143" stroke="#93b4f0" stroke-width="2" stroke-linecap="round" stroke-dasharray="3 3"/>
  <!-- Gateway label -->
  <text x="200" y="200" text-anchor="middle" font-family="system-ui,sans-serif" font-size="11" font-weight="600" fill="#3b6cb5">GATEWAY</text>

  <!-- Merchant card (left) -->
  <rect x="10" y="40" width="100" height="56" rx="12" fill="white" stroke="#dce7f5" stroke-width="1.2"/>
  <rect x="22" y="52" width="24" height="24" rx="6" fill="#eef4fd"/>
  <rect x="26" y="56" width="16" height="3" rx="1.5" fill="#93b4f0"/>
  <rect x="26" y="62" width="10" height="3" rx="1.5" fill="#b8d0f8"/>
  <rect x="26" y="68" width="13" height="3" rx="1.5" fill="#93b4f0"/>
  <text x="56" y="64" font-family="system-ui,sans-serif" font-size="9" font-weight="600" fill="#334155">Merchant</text>
  <text x="56" y="76" font-family="system-ui,sans-serif" font-size="8" fill="#94a3b8">checkout</text>

  <!-- Customer card (top right) -->
  <rect x="280" y="30" width="108" height="56" rx="12" fill="white" stroke="#dce7f5" stroke-width="1.2"/>
  <circle cx="300" cy="58" r="12" fill="#eef4fd"/>
  <circle cx="300" cy="54" r="4" fill="#93b4f0"/>
  <path d="M292 66 C292 62 308 62 308 66" fill="#93b4f0"/>
  <text x="318" y="54" font-family="system-ui,sans-serif" font-size="9" font-weight="600" fill="#334155">Customer</text>
  <text x="318" y="66" font-family="system-ui,sans-serif" font-size="8" fill="#94a3b8">pays crypto</text>

  <!-- On-chain settlement card (bottom right) -->
  <rect x="280" y="185" width="114" height="68" rx="12" fill="white" stroke="#dce7f5" stroke-width="1.2"/>
  <!-- Block chain visualization -->
  <g transform="translate(292, 197)">
    <!-- Block 1 -->
    <rect x="0" y="4" width="16" height="16" rx="3" fill="#eef4fd" stroke="#3b82f6" stroke-width="0.8"/>
    <rect x="4" y="8" width="8" height="2" rx="1" fill="#93b4f0"/>
    <rect x="4" y="12" width="5" height="2" rx="1" fill="#b8d0f8"/>
    <!-- Chain link 1 -->
    <line x1="16" y1="12" x2="22" y2="12" stroke="#3b82f6" stroke-width="1" stroke-dasharray="2 1"/>
    <!-- Block 2 -->
    <rect x="22" y="0" width="16" height="16" rx="3" fill="#eef4fd" stroke="#3b82f6" stroke-width="0.8"/>
    <rect x="26" y="4" width="8" height="2" rx="1" fill="#93b4f0"/>
    <rect x="26" y="8" width="5" height="2" rx="1" fill="#b8d0f8"/>
    <!-- Chain link 2 -->
    <line x1="38" y1="8" x2="44" y2="12" stroke="#3b82f6" stroke-width="1" stroke-dasharray="2 1"/>
    <!-- Block 3 -->
    <rect x="22" y="20" width="16" height="16" rx="3" fill="#eef4fd" stroke="#3b82f6" stroke-width="0.8"/>
    <rect x="26" y="24" width="8" height="2" rx="1" fill="#93b4f0"/>
    <rect x="26" y="28" width="5" height="2" rx="1" fill="#b8d0f8"/>
    <!-- Chain link 3 -->
    <line x1="16" y1="20" x2="22" y2="28" stroke="#3b82f6" stroke-width="1" stroke-dasharray="2 1"/>
    <!-- Green checkmark on block 2 -->
    <circle cx="41" cy="3" r="5" fill="#dcfce7" stroke="#22c55e" stroke-width="0.8"/>
    <path d="M38.5 3 L40 4.5 L43.5 1" stroke="#22c55e" stroke-width="1.2" stroke-linecap="round" stroke-linejoin="round"/>
  </g>
  <text x="340" y="210" font-family="system-ui,sans-serif" font-size="9" font-weight="600" fill="#334155">On-chain</text>
  <text x="340" y="222" font-family="system-ui,sans-serif" font-size="8" fill="#94a3b8">settlement</text>
  <!-- Tx hash -->
  <rect x="292" y="237" width="92" height="12" rx="3" fill="#f0f6ff"/>
  <text x="338" y="246" text-anchor="middle" font-family="monospace" font-size="7" fill="#6b8cc7">tx: 0xa3f...8c2</text>

  <!-- Webhook card (bottom left) -->
  <rect x="10" y="200" width="108" height="56" rx="12" fill="white" stroke="#dce7f5" stroke-width="1.2"/>
  <rect x="22" y="212" width="24" height="24" rx="6" fill="#dcfce7"/>
  <path d="M30 224 L34 228 L42 220" stroke="#22c55e" stroke-width="2" stroke-linecap="round" stroke-linejoin="round"/>
  <text x="54" y="224" font-family="system-ui,sans-serif" font-size="9" font-weight="600" fill="#334155">Webhook</text>
  <text x="54" y="236" font-family="system-ui,sans-serif" font-size="8" fill="#22c55e">confirmed</text>

  <!-- Amount badge with USDC icon -->
  <rect x="148" y="42" width="104" height="32" rx="16" fill="white" stroke="#c7e0ff" stroke-width="1.2" filter="url(#badge-shadow)"/>
  <!-- USDC circle icon -->
  <circle cx="168" cy="58" r="10" fill="#2775ca"/>
  <text x="168" y="62" text-anchor="middle" font-family="system-ui,sans-serif" font-size="10" font-weight="700" fill="white">$</text>
  <!-- Amount text -->
  <text x="186" y="55" font-family="system-ui,sans-serif" font-size="8" fill="#94a3b8">Amount</text>
  <text x="186" y="66" font-family="system-ui,sans-serif" font-size="11" font-weight="700" fill="#1e293b">500 USDC</text>

  <!-- Multi-chain badge -->
  <rect x="140" y="232" width="120" height="24" rx="12" fill="white" stroke="#c7e0ff" stroke-width="1"/>
  <text x="200" y="248" text-anchor="middle" font-family="system-ui,sans-serif" font-size="9" fill="#64748b">ETH • SOL • TRON • Base</text>
</svg>