<svg width="347" height="259" viewBox="0 0 347 259" fill="none" xmlns="http://www.w3.org/2000/svg">
<g clip-path="url(#clip0_262_68299)">
<rect x="0.486185" y="0.383277" width="486.469" height="63" rx="7.5" transform="matrix(0.97237 -0.233445 0 1 0.0134333 90.9109)" fill="#FDFDFD"/>
<rect x="0.486185" y="0.383277" width="486.469" height="63" rx="7.5" transform="matrix(0.97237 -0.233445 0 1 0.0134333 90.9109)" stroke="#E9EAEB"/>
<path d="M32.7384 115.771C32.7384 119.938 29.9023 122.702 26.5314 124.72C26.3549 124.824 26.1632 124.867 25.9885 124.842C22.6095 124.453 19.7734 123.051 19.7734 118.884V113.051C19.7734 112.829 19.8588 112.597 20.0108 112.404C20.1627 112.212 20.3688 112.074 20.5837 112.023C22.2044 111.634 24.2301 110.147 25.6401 108.542C25.8117 108.35 26.0301 108.215 26.2559 108.16C26.4817 108.106 26.7001 108.137 26.8717 108.246C28.2898 109.181 30.3074 109.688 31.9281 109.299C32.143 109.248 32.3491 109.286 32.501 109.406C32.653 109.525 32.7384 109.717 32.7384 109.938V115.771Z" stroke="#4389FA" stroke-width="1.66667" stroke-linecap="round" stroke-linejoin="round"/>
<path d="M44.9285 108.011V98.0709L46.3988 97.718V102.464L50.4691 96.7408L52.2524 96.3126L48.5497 101.542L52.4975 106.194L50.7686 106.609L47.5695 102.841L46.3988 104.466V107.658L44.9285 108.011ZM53.7293 105.898V95.9581L60.0185 94.4481V95.8341L55.1995 96.9911V99.8891L59.8552 98.7714V100.115L55.1995 101.233V104.159L60.1274 102.976V104.362L53.7293 105.898ZM62.0248 103.906V93.9665L63.495 93.6135V98.3595L67.5653 92.6363L69.3487 92.2082L65.6459 97.4371L69.5937 102.089L67.8648 102.504L64.6657 98.7364L63.495 100.362V103.554L62.0248 103.906ZM75.5755 102.193C74.3231 100.534 73.6969 98.6776 73.6969 96.6242C73.6969 94.5616 74.3231 92.4046 75.5755 90.1532L76.8552 89.846C75.7207 92.1344 75.1535 94.2772 75.1535 96.2745C75.1535 97.2732 75.2942 98.2428 75.5755 99.1832C75.8659 100.112 76.2925 101.013 76.8552 101.886L75.5755 102.193ZM78.217 100.019V90.0791L79.6872 89.7261V94.4721L83.7576 88.7489L85.5409 88.3208L81.8381 93.5497L85.7859 98.2019L84.0571 98.617L80.858 94.849L79.6872 96.4741V99.6661L78.217 100.019ZM89.3175 97.5221C88.6096 97.692 87.997 97.6804 87.4797 97.4873C86.9715 97.292 86.5767 96.9341 86.2954 96.4136C86.0231 95.891 85.887 95.2377 85.887 94.4537C85.887 93.6697 86.0231 92.9557 86.2954 92.3116C86.5767 91.6561 86.9715 91.1086 87.4797 90.6693C87.988 90.2206 88.5869 89.9135 89.2767 89.7479C89.9301 89.591 90.5064 89.6113 91.0055 89.8088C91.5047 89.997 91.8904 90.3524 92.1627 90.875C92.444 91.3955 92.5847 92.071 92.5847 92.9017V93.2797L87.3844 94.5282C87.4207 95.2475 87.6068 95.7488 87.9426 96.0322C88.2874 96.3134 88.7503 96.3843 89.3311 96.2448C89.7577 96.1424 90.1116 95.9548 90.3929 95.6819C90.6743 95.409 90.8694 95.0868 90.9783 94.7154L92.4758 94.4538C92.2852 95.1903 91.9085 95.8407 91.3459 96.4051C90.7923 96.958 90.1161 97.3303 89.3175 97.5221ZM87.3844 93.4082L91.06 92.5257C91.0146 91.874 90.8286 91.4286 90.5019 91.1897C90.1842 90.9487 89.7758 90.888 89.2767 91.0079C88.7594 91.1321 88.3328 91.4025 87.997 91.8191C87.6703 92.2242 87.4661 92.7539 87.3844 93.4082ZM94.2292 98.2749V97.0569L95.1141 96.8444C95.3591 96.7856 95.5406 96.7047 95.6586 96.6017C95.7766 96.4987 95.8673 96.3509 95.9309 96.1584L96.1623 95.4868L95.713 95.5946L93.0993 88.9981L94.624 88.6321L96.6115 94.0069L98.5037 87.7007L100.042 87.3313L97.156 96.3402C97.0108 96.8044 96.793 97.1694 96.5026 97.4351C96.2213 97.6986 95.8265 97.8914 95.3183 98.0134L94.2292 98.2749ZM104.805 93.6358V83.6958L111.095 82.1859V83.5719L106.275 84.7288V87.6268L110.931 86.5091V87.8531L106.275 88.9708V91.8968L111.203 90.7137V92.0997L104.805 93.6358ZM112.951 91.6802V84.2322L114.272 83.9151L114.326 85.8901L114.149 85.8346C114.231 85.3296 114.385 84.9006 114.612 84.5474C114.839 84.1943 115.116 83.9085 115.442 83.6901C115.769 83.4623 116.123 83.3027 116.504 83.2112C117.049 83.0804 117.498 83.0986 117.852 83.2656C118.215 83.4211 118.487 83.6918 118.669 84.0775C118.859 84.4518 118.954 84.9095 118.954 85.4509V90.2389L117.511 90.5853V86.2453C117.511 85.8066 117.466 85.4489 117.375 85.172C117.285 84.8951 117.135 84.7024 116.926 84.5938C116.717 84.4853 116.445 84.4713 116.109 84.5519C115.601 84.6739 115.188 84.9458 114.871 85.3673C114.553 85.7889 114.394 86.3311 114.394 86.9937V91.3337L112.951 91.6802ZM123.816 89.2398C123.126 89.4054 122.522 89.3916 122.005 89.1985C121.488 89.0053 121.089 88.6485 120.807 88.1281C120.526 87.6076 120.385 86.9554 120.385 86.1714C120.385 85.3874 120.526 84.6723 120.807 84.0261C121.089 83.3705 121.488 82.822 122.005 82.3805C122.522 81.9296 123.126 81.6214 123.816 81.4558C124.406 81.3142 124.927 81.2962 125.381 81.4019C125.844 81.4961 126.216 81.7102 126.498 82.0439C126.788 82.3756 126.974 82.8209 127.056 83.3799L125.545 83.8267C125.472 83.3588 125.281 83.0359 124.973 82.858C124.664 82.6707 124.279 82.6327 123.816 82.7438C123.208 82.8898 122.731 83.2375 122.386 83.7869C122.051 84.3249 121.883 84.9999 121.883 85.8119C121.883 86.6239 122.051 87.2229 122.386 87.6089C122.731 87.9835 123.208 88.0978 123.816 87.9518C124.279 87.8407 124.664 87.6174 124.973 87.282C125.281 86.9372 125.472 86.4855 125.545 85.9267L127.056 85.6479C126.974 86.2369 126.788 86.7762 126.498 87.2659C126.216 87.7535 125.844 88.1695 125.381 88.5139C124.927 88.8562 124.406 89.0982 123.816 89.2398ZM128.372 87.9779V80.5299L129.693 80.2128L129.747 82.1738L129.625 82.1612C129.724 81.4652 129.924 80.9273 130.224 80.5474C130.532 80.1653 130.945 79.9122 131.462 79.788L132.157 79.6213V80.9513L131.462 81.118C131.099 81.2051 130.795 81.3388 130.55 81.519C130.305 81.6991 130.119 81.9304 129.992 82.2129C129.874 82.4933 129.815 82.8341 129.815 83.2354V87.6314L128.372 87.9779ZM133.806 88.7734V87.5554L134.691 87.3429C134.936 87.2841 135.117 87.2032 135.235 87.1002C135.353 86.9972 135.444 86.8494 135.507 86.6569L135.739 85.9853L135.29 86.0931L132.676 79.4966L134.201 79.1306L136.188 84.5054L138.08 78.1992L139.619 77.8298L136.733 86.8387C136.587 87.3029 136.37 87.6679 136.079 87.9336C135.798 88.1971 135.403 88.3899 134.895 88.5119L133.806 88.7734ZM140.603 87.1416V77.5936L141.964 77.2667L142.005 78.8529L141.842 78.8082C142.023 78.2139 142.323 77.7267 142.74 77.3465C143.158 76.9569 143.639 76.6967 144.183 76.566C144.891 76.3961 145.472 76.4386 145.926 76.6937C146.388 76.9372 146.729 77.3269 146.947 77.8626C147.173 78.3961 147.287 79.0129 147.287 79.7129C147.287 80.4129 147.173 81.0841 146.947 81.7266C146.729 82.3669 146.388 82.9246 145.926 83.3997C145.472 83.8633 144.891 84.1801 144.183 84.35C143.82 84.4372 143.48 84.4535 143.162 84.3991C142.844 84.3447 142.572 84.2281 142.345 84.0492C142.127 83.8589 141.973 83.6112 141.882 83.3063L142.046 83.0991V86.7951L140.603 87.1416ZM143.924 83.1241C144.505 82.9847 144.959 82.6471 145.286 82.1113C145.622 81.5733 145.789 80.8937 145.789 80.0724C145.789 79.251 145.622 78.652 145.286 78.2753C144.959 77.8964 144.505 77.7767 143.924 77.9161C143.543 78.0076 143.212 78.1852 142.931 78.4487C142.649 78.7029 142.432 79.0445 142.277 79.4736C142.123 79.9026 142.046 80.4018 142.046 80.9711C142.046 81.5405 142.118 82.0037 142.264 82.3608C142.418 82.7158 142.636 82.9575 142.917 83.086C143.207 83.2029 143.543 83.2156 143.924 83.1241ZM151.263 82.4822C150.574 82.6478 150.065 82.6065 149.739 82.3582C149.412 82.11 149.249 81.6406 149.249 80.9499V73.7679L150.692 73.4215V80.4915C150.692 80.8368 150.764 81.0574 150.909 81.1532C151.055 81.249 151.277 81.2609 151.576 81.189L152.611 80.9406V82.1586L151.263 82.4822ZM148.146 77.0006V75.7826L152.611 74.7106V75.9286L148.146 77.0006ZM153.99 81.8276V74.3796L155.433 74.0332V81.4812L153.99 81.8276ZM153.963 73.3081V71.8241L155.46 71.4646V72.9486L153.963 73.3081ZM160.321 80.4756C159.632 80.6411 159.028 80.6274 158.511 80.4342C157.994 80.2411 157.594 79.8843 157.313 79.3638C157.032 78.8434 156.891 78.1911 156.891 77.4071C156.891 76.6138 157.032 75.894 157.313 75.2478C157.594 74.6016 157.994 74.0578 158.511 73.6162C159.028 73.1654 159.632 72.8571 160.321 72.6916C161.011 72.526 161.615 72.5444 162.132 72.7469C162.649 72.94 163.049 73.2921 163.33 73.8033C163.611 74.3144 163.752 74.9666 163.752 75.76C163.752 76.544 163.611 77.2637 163.33 77.9193C163.049 78.5748 162.649 79.1233 162.132 79.5649C161.615 80.0064 161.011 80.31 160.321 80.4756ZM160.321 79.1876C160.939 79.0394 161.415 78.6963 161.751 78.1584C162.087 77.6111 162.254 76.9315 162.254 76.1195C162.254 75.3075 162.087 74.7131 161.751 74.3364C161.415 73.9503 160.939 73.8314 160.321 73.9796C159.713 74.1255 159.237 74.4733 158.892 75.0227C158.556 75.5607 158.388 76.2356 158.388 77.0476C158.388 77.8596 158.556 78.4587 158.892 78.8447C159.237 79.2193 159.713 79.3335 160.321 79.1876ZM165.21 79.1338V71.6858L166.531 71.3688L166.585 73.3438L166.408 73.2882C166.49 72.7833 166.644 72.3543 166.871 72.0011C167.098 71.648 167.375 71.3622 167.701 71.1438C168.028 70.916 168.382 70.7563 168.763 70.6648C169.308 70.5341 169.757 70.5523 170.111 70.7193C170.474 70.8748 170.746 71.1454 170.928 71.5312C171.118 71.9054 171.214 72.3632 171.214 72.9046V77.6926L169.771 78.039V73.699C169.771 73.2603 169.725 72.9025 169.635 72.6257C169.544 72.3488 169.394 72.1561 169.185 72.0475C168.977 71.939 168.704 71.925 168.368 72.0056C167.86 72.1276 167.447 72.3994 167.13 72.821C166.812 73.2426 166.653 73.7847 166.653 74.4474V78.7874L165.21 79.1338ZM176.713 76.3722V66.4322L178.183 66.0793V70.8253L182.254 65.1021L184.037 64.6739L180.334 69.9029L184.282 74.5551L182.553 74.9702L179.354 71.2022L178.183 72.8273V76.0193L176.713 76.3722ZM187.814 73.8752C187.106 74.0452 186.493 74.0336 185.976 73.8405C185.468 73.6451 185.073 73.2873 184.792 72.7668C184.519 72.2442 184.383 71.5908 184.383 70.8068C184.383 70.0228 184.519 69.3088 184.792 68.6648C185.073 68.0093 185.468 67.4618 185.976 67.0225C186.484 66.5738 187.083 66.2666 187.773 66.1011C188.426 65.9442 189.003 65.9645 189.502 66.162C190.001 66.3502 190.387 66.7056 190.659 67.2282C190.94 67.7486 191.081 68.4242 191.081 69.2549V69.6329L185.881 70.8813C185.917 71.6006 186.103 72.102 186.439 72.3853C186.784 72.6665 187.246 72.7374 187.827 72.598C188.254 72.4956 188.608 72.3079 188.889 72.0351C189.17 71.7622 189.366 71.44 189.474 71.0685L190.972 70.807C190.781 71.5434 190.405 72.1939 189.842 72.7583C189.288 73.3112 188.612 73.6835 187.814 73.8752ZM185.881 69.7613L189.556 68.8789C189.511 68.2271 189.325 67.7818 188.998 67.5429C188.68 67.3018 188.272 67.2412 187.773 67.3611C187.255 67.4852 186.829 67.7556 186.493 68.1723C186.166 68.5774 185.962 69.1071 185.881 69.7613ZM192.725 74.6281V73.4101L193.61 73.1976C193.855 73.1388 194.037 73.0579 194.155 72.9549C194.273 72.8519 194.363 72.7041 194.427 72.5115L194.658 71.84L194.209 71.9478L191.595 65.3513L193.12 64.9853L195.108 70.3601L197 64.0538L198.538 63.6845L195.652 72.6934C195.507 73.1576 195.289 73.5225 194.999 73.7883C194.717 74.0518 194.323 74.2446 193.814 74.3666L192.725 74.6281ZM200.291 72.2518L199.011 72.559C199.574 71.4159 199.996 70.3113 200.277 69.2451C200.567 68.1673 200.713 67.1291 200.713 66.1305C200.713 64.1331 200.145 62.2626 199.011 60.519L200.291 60.2118C201.543 61.8618 202.169 63.7181 202.169 65.7808C202.169 67.8341 201.543 69.9911 200.291 72.2518Z" fill="#0A0A0A"/>
<path d="M44.0379 126.225L46.4649 117.122L48.0518 116.741L50.4788 124.678L49.207 124.984L47.2583 118.24L45.3097 125.919L44.0379 126.225ZM45.3914 123.68L45.7648 122.426L48.7519 121.709L49.1253 122.783L45.3914 123.68ZM51.9678 124.321L51.081 116.014L52.3062 115.72L52.9947 123.042L52.8546 123.076L53.7181 116.341L54.7916 116.083L55.6551 122.404L55.515 122.437L56.2035 114.784L57.4287 114.49L56.5419 123.223L54.9433 123.607L54.1148 117.565L54.3949 117.498L53.5664 123.937L51.9678 124.321ZM61.3564 122.259C60.7574 122.403 60.2323 122.405 59.7811 122.265C59.3377 122.124 58.9838 121.865 58.7193 121.488C58.4548 121.104 58.2992 120.621 58.2526 120.04L59.5128 119.654C59.5672 120.048 59.6761 120.366 59.8395 120.607C60.0028 120.848 60.2168 121.009 60.4812 121.089C60.7457 121.162 61.053 121.156 61.403 121.072C61.7453 120.99 62.0331 120.876 62.2665 120.732C62.4999 120.58 62.6788 120.401 62.8033 120.196C62.9277 119.99 62.99 119.763 62.99 119.515C62.99 119.259 62.9316 119.049 62.8149 118.885C62.6982 118.721 62.4882 118.595 62.1848 118.508C61.8815 118.421 61.4381 118.363 60.8546 118.335C60.2868 118.312 59.8239 118.243 59.4661 118.129C59.1083 118.015 58.8477 117.829 58.6843 117.572C58.5209 117.316 58.4393 116.967 58.4393 116.527C58.4393 116.039 58.5482 115.585 58.766 115.165C58.9916 114.735 59.3105 114.366 59.7228 114.059C60.1429 113.75 60.6446 113.526 61.228 113.386C61.8037 113.248 62.2937 113.246 62.6982 113.381C63.1105 113.514 63.4334 113.76 63.6667 114.12C63.9079 114.47 64.0557 114.915 64.1101 115.454L62.8499 115.828C62.811 115.51 62.7216 115.243 62.5816 115.029C62.4493 114.813 62.2665 114.664 62.0331 114.584C61.7998 114.497 61.5197 114.492 61.193 114.57C60.7341 114.68 60.3684 114.884 60.0962 115.181C59.8317 115.469 59.6995 115.797 59.6995 116.165C59.6995 116.413 59.7539 116.604 59.8628 116.738C59.9717 116.871 60.1623 116.97 60.4346 117.032C60.7068 117.095 61.088 117.135 61.5781 117.154C62.2393 117.179 62.7644 117.265 63.1533 117.412C63.5423 117.558 63.8223 117.779 63.9934 118.074C64.1646 118.369 64.2501 118.748 64.2501 119.212C64.2501 119.676 64.1296 120.117 63.8884 120.535C63.6473 120.945 63.3089 121.302 62.8733 121.607C62.4454 121.901 61.9398 122.119 61.3564 122.259ZM73.5058 116.582V114.794L76.7263 109.857L78.2081 109.501L73.5058 116.582ZM72.3973 119.416V110.896L73.6225 110.602V119.122L72.3973 119.416ZM76.8663 118.343L74.2292 114.776L75.0693 113.711L78.3015 117.999L76.8663 118.343ZM81.7741 116.133L80.3506 110.379L80.4789 110.336V117.476L79.3004 117.759V109.239L80.934 108.847L82.4742 114.945L82.0075 115.057L83.5477 108.219L85.1813 107.827V116.347L84.0028 116.63V109.49L84.1312 109.471L82.7076 115.909L81.7741 116.133ZM89.3424 115.54C88.7434 115.684 88.2183 115.686 87.7672 115.546C87.3238 115.405 86.9698 115.146 86.7053 114.769C86.4408 114.385 86.2853 113.902 86.2386 113.321L87.4988 112.935C87.5532 113.33 87.6621 113.647 87.8255 113.888C87.9889 114.129 88.2028 114.29 88.4673 114.37C88.7317 114.443 89.039 114.437 89.3891 114.353C89.7313 114.271 90.0192 114.158 90.2525 114.014C90.4859 113.862 90.6648 113.683 90.7893 113.477C90.9137 113.271 90.976 113.044 90.976 112.796C90.976 112.54 90.9176 112.33 90.8009 112.166C90.6843 112.002 90.4742 111.876 90.1709 111.789C89.8675 111.702 89.4241 111.644 88.8406 111.617C88.2728 111.593 87.8099 111.524 87.4521 111.41C87.0943 111.296 86.8337 111.11 86.6703 110.854C86.507 110.597 86.4253 110.248 86.4253 109.808C86.4253 109.32 86.5342 108.866 86.752 108.446C86.9776 108.016 87.2965 107.647 87.7088 107.34C88.1289 107.031 88.6306 106.807 89.214 106.667C89.7897 106.529 90.2798 106.527 90.6843 106.662C91.0965 106.795 91.4194 107.041 91.6527 107.401C91.8939 107.752 92.0417 108.196 92.0961 108.735L90.836 109.11C90.7971 108.791 90.7076 108.524 90.5676 108.31C90.4353 108.094 90.2525 107.946 90.0192 107.866C89.7858 107.778 89.5058 107.773 89.179 107.851C88.7201 107.962 88.3545 108.165 88.0822 108.463C87.8177 108.75 87.6855 109.078 87.6855 109.446C87.6855 109.694 87.7399 109.885 87.8488 110.019C87.9577 110.153 88.1483 110.251 88.4206 110.313C88.6928 110.376 89.074 110.417 89.5641 110.435C90.2253 110.46 90.7504 110.546 91.1393 110.693C91.5283 110.839 91.8083 111.06 91.9795 111.355C92.1506 111.65 92.2362 112.029 92.2362 112.493C92.2362 112.957 92.1156 113.398 91.8744 113.816C91.6333 114.226 91.2949 114.583 90.8593 114.888C90.4314 115.183 89.9258 115.4 89.3424 115.54ZM100.908 113.891L104.432 102.725L105.552 102.456L102.029 113.622L100.908 113.891ZM114.003 109.428L116.43 100.325L118.017 99.944L120.444 107.881L119.172 108.187L117.223 101.442L115.275 109.122L114.003 109.428ZM115.356 106.883L115.73 105.629L118.717 104.912L119.09 105.986L115.356 106.883ZM121.63 107.597V106.457L125.387 101.331L121.746 102.205V101.185L126.717 99.9913V101.131L122.948 106.26L126.81 105.333V106.353L121.63 107.597ZM130.68 105.568C130.081 105.712 129.602 105.619 129.244 105.288C128.887 104.95 128.708 104.401 128.708 103.641V99.5133L129.886 99.2304V103.046C129.886 103.622 129.983 104.019 130.178 104.236C130.372 104.454 130.668 104.515 131.065 104.419C131.493 104.317 131.835 104.087 132.092 103.729C132.356 103.369 132.488 102.918 132.488 102.374V98.6057L133.667 98.3228V104.707L132.558 104.973L132.547 103.308L132.71 103.34C132.601 103.919 132.372 104.402 132.022 104.79C131.671 105.178 131.224 105.437 130.68 105.568ZM137.268 103.842V97.4582L138.201 97.2341L138.306 98.8409L138.201 98.8541C138.279 98.2835 138.446 97.8353 138.703 97.5097C138.96 97.184 139.314 96.9671 139.765 96.8587L141.083 96.5422V97.5982L139.811 97.9035C139.516 97.9745 139.267 98.0943 139.065 98.2628C138.862 98.4234 138.707 98.6327 138.598 98.8909C138.497 99.1392 138.446 99.4313 138.446 99.7673V103.559L137.268 103.842ZM135.693 104.22V103.2L140.383 102.074V103.094L135.693 104.22ZM135.693 98.8564V97.8364L137.933 97.2986V98.3186L135.693 98.8564ZM145.291 102.06C144.708 102.2 144.198 102.186 143.763 102.019C143.335 101.85 143 101.542 142.759 101.096C142.526 100.648 142.409 100.088 142.409 99.4159C142.409 98.7439 142.526 98.1319 142.759 97.5799C143 97.026 143.331 96.5586 143.751 96.1778C144.179 95.7951 144.68 95.5346 145.256 95.3964C145.808 95.2638 146.295 95.2831 146.715 95.4542C147.135 95.6174 147.461 95.923 147.695 96.3709C147.936 96.809 148.057 97.3801 148.057 98.0841V98.4201L143.646 99.479C143.685 100.078 143.848 100.502 144.136 100.753C144.432 100.994 144.82 101.057 145.303 100.941C145.668 100.853 145.972 100.693 146.213 100.459C146.454 100.217 146.621 99.9407 146.715 99.6302L147.952 99.4173C147.773 100.068 147.45 100.634 146.983 101.114C146.524 101.584 145.96 101.899 145.291 102.06ZM143.646 98.507L146.785 97.7534C146.738 97.2206 146.575 96.8559 146.295 96.6591C146.022 96.4605 145.676 96.4116 145.256 96.5124C144.82 96.617 144.463 96.8389 144.183 97.1781C143.903 97.5174 143.724 97.9603 143.646 98.507ZM157.464 96.4256V94.6376L160.684 89.7004L162.166 89.3446L157.464 96.4256ZM156.355 99.2597V90.7397L157.581 90.4456V98.9656L156.355 99.2597ZM160.824 98.1868L158.187 94.6199L159.027 93.5542L162.26 97.8422L160.824 98.1868ZM166.281 97.0209C165.697 97.1609 165.188 97.1473 164.752 96.9798C164.324 96.8106 163.99 96.5029 163.749 96.0568C163.515 95.6088 163.399 95.0488 163.399 94.3768C163.399 93.7048 163.515 93.0928 163.749 92.5408C163.99 91.9869 164.32 91.5195 164.74 91.1386C165.168 90.7559 165.67 90.4955 166.246 90.3573C166.798 90.2247 167.284 90.244 167.704 90.4151C168.124 90.5783 168.451 90.8838 168.684 91.3318C168.925 91.7699 169.046 92.341 169.046 93.045V93.381L164.635 94.4399C164.674 95.0385 164.838 95.4633 165.125 95.7142C165.421 95.9552 165.81 96.0179 166.292 95.9021C166.658 95.8143 166.961 95.6535 167.202 95.4196C167.444 95.1777 167.611 94.9015 167.704 94.5911L168.941 94.3782C168.762 95.0291 168.439 95.5946 167.973 96.0747C167.514 96.5449 166.95 96.8603 166.281 97.0209ZM164.635 93.4679L167.774 92.7143C167.728 92.1815 167.564 91.8167 167.284 91.62C167.012 91.4213 166.666 91.3724 166.246 91.4733C165.81 91.5779 165.452 91.7998 165.172 92.139C164.892 92.4782 164.713 92.9212 164.635 93.4679ZM171.212 97.493V96.473L171.97 96.2909C172.188 96.2386 172.348 96.1643 172.449 96.0681C172.558 95.9779 172.639 95.8503 172.694 95.6852L172.904 95.0708L172.507 95.166L170.243 89.5415L171.515 89.2362L173.277 93.8412L174.922 88.4182L176.183 88.1156L173.709 95.8135C173.584 96.2274 173.39 96.5501 173.125 96.7816C172.869 97.0112 172.523 97.1783 172.087 97.2829L171.212 97.493ZM186.465 92.031L184.003 84.1021L185.298 83.7912L187.375 90.7925L187.002 90.8822L189.079 82.8835L190.374 82.5726L187.912 91.6837L186.465 92.031ZM193.345 90.5233C192.956 90.6167 192.606 90.6287 192.295 90.5594C191.984 90.4902 191.735 90.3459 191.548 90.1267C191.369 89.9057 191.28 89.6192 191.28 89.2672C191.28 88.7232 191.439 88.2609 191.758 87.8803C192.085 87.4979 192.575 87.1642 193.228 86.8793L195.235 85.9655C195.235 85.4695 195.13 85.1227 194.92 84.9251C194.71 84.7276 194.395 84.6792 193.975 84.7801C193.586 84.8734 193.283 85.0383 193.065 85.2746C192.847 85.5109 192.699 85.8023 192.621 86.149L191.385 86.362C191.501 85.7259 191.785 85.1658 192.236 84.6815C192.688 84.1971 193.267 83.87 193.975 83.7001C194.768 83.5096 195.371 83.5968 195.784 83.9618C196.204 84.325 196.414 84.9146 196.414 85.7306V88.2506C196.414 88.3946 196.445 88.4911 196.507 88.5402C196.569 88.5812 196.659 88.5877 196.775 88.5597L197.125 88.4757V89.4717C197.079 89.4909 197.001 89.5176 196.892 89.5517C196.791 89.584 196.69 89.6123 196.589 89.6366C196.309 89.7038 196.071 89.7127 195.877 89.6634C195.682 89.6141 195.535 89.5016 195.433 89.3259C195.34 89.1403 195.286 88.8934 195.27 88.5851L195.457 88.5403C195.41 88.8315 195.29 89.1124 195.095 89.3831C194.901 89.6538 194.652 89.8896 194.348 90.0904C194.045 90.2912 193.71 90.4356 193.345 90.5233ZM193.52 89.4853C193.893 89.3957 194.208 89.252 194.465 89.0544C194.722 88.8568 194.912 88.619 195.037 88.3411C195.169 88.0614 195.235 87.7535 195.235 87.4175V86.9255L193.508 87.7001C193.135 87.8618 192.874 88.0363 192.726 88.2238C192.579 88.4113 192.505 88.629 192.505 88.877C192.505 89.141 192.594 89.3275 192.773 89.4366C192.952 89.5456 193.201 89.5619 193.52 89.4853ZM200.645 88.7708C200.046 88.9146 199.567 88.8214 199.209 88.4913C198.852 88.1533 198.673 87.6042 198.673 86.8442V82.7162L199.851 82.4333V86.2493C199.851 86.8253 199.948 87.2219 200.143 87.4392C200.337 87.6565 200.633 87.7176 201.03 87.6223C201.458 87.5196 201.8 87.2894 202.057 86.9318C202.321 86.5723 202.453 86.1206 202.453 85.5766V81.8086L203.632 81.5256V87.9096L202.523 88.1758L202.512 86.5106L202.675 86.5433C202.566 87.1215 202.337 87.6046 201.987 87.9926C201.637 88.3807 201.189 88.6401 200.645 88.7708ZM207.758 86.9191V80.2111C207.758 79.9631 207.688 79.7879 207.548 79.6855C207.416 79.5732 207.229 79.546 206.988 79.6039L205.564 79.9457V78.9257L207.116 78.5531C207.715 78.4093 208.166 78.461 208.47 78.7082C208.781 78.9455 208.936 79.3721 208.936 79.9881V86.6361L207.758 86.9191ZM205.331 87.5017V86.4817L211.025 85.1147V86.1347L205.331 87.5017ZM216.061 84.9256C215.431 85.0769 214.961 85.0419 214.649 84.8206C214.346 84.5894 214.194 84.1618 214.194 83.5378V77.4898L215.373 77.2069V83.1949C215.373 83.4909 215.439 83.695 215.571 83.8072C215.711 83.9176 215.917 83.9401 216.19 83.8748L217.788 83.491V84.511L216.061 84.9256ZM212.234 80.4804V79.4604L217.788 78.127V79.147L212.234 80.4804Z" fill="#717680"/>
<rect x="0.486185" y="0.383277" width="426.821" height="63" rx="7.5" transform="matrix(0.97237 -0.233445 0 1 14.0134 144.977)" fill="#FDFDFD"/>
<rect x="0.486185" y="0.383277" width="426.821" height="63" rx="7.5" transform="matrix(0.97237 -0.233445 0 1 14.0134 144.977)" stroke="#E9EAEB"/>
<path d="M40.2557 167.227C44.2834 166.26 47.5484 164.357 47.5484 162.976C47.5484 161.595 44.2834 161.26 40.2557 162.227C36.228 163.194 32.9629 165.097 32.9629 166.478C32.9629 167.858 36.228 168.194 40.2557 167.227Z" stroke="#4389FA" stroke-width="1.66667" stroke-linecap="round" stroke-linejoin="round"/>
<path d="M32.9629 166.478V178.144C32.9629 178.807 33.7312 179.259 35.0989 179.399C36.4666 179.54 38.3215 179.358 40.2557 178.893C42.1898 178.429 44.0448 177.72 45.4124 176.923C46.7801 176.126 47.5484 175.306 47.5484 174.643V162.976" stroke="#4389FA" stroke-width="1.66667" stroke-linecap="round" stroke-linejoin="round"/>
<path d="M32.9629 172.311C32.9629 172.974 33.7312 173.425 35.0989 173.566C36.4666 173.706 38.3215 173.524 40.2557 173.06C42.1898 172.595 44.0448 171.887 45.4124 171.089C46.7801 170.292 47.5484 169.472 47.5484 168.809" stroke="#4389FA" stroke-width="1.66667" stroke-linecap="round" stroke-linejoin="round"/>
<path d="M58.9285 162.077V152.137L65.2178 150.627V152.013L60.3988 153.17V156.068L65.0545 154.95V156.294L60.3988 157.412V160.338L65.3267 159.155V160.541L58.9285 162.077ZM67.0743 160.121V152.673L68.3948 152.356L68.4493 154.331L68.2723 154.276C68.354 153.771 68.5083 153.342 68.7351 152.988C68.962 152.635 69.2388 152.35 69.5655 152.131C69.8923 151.903 70.2462 151.744 70.6274 151.652C71.1719 151.521 71.6211 151.54 71.9751 151.707C72.3381 151.862 72.6104 152.133 72.7919 152.519C72.9825 152.893 73.0777 153.351 73.0777 153.892V158.68L71.6347 159.026V154.686C71.6347 154.248 71.5894 153.89 71.4986 153.613C71.4079 153.336 71.2581 153.143 71.0494 153.035C70.8406 152.926 70.5684 152.912 70.2326 152.993C69.7244 153.115 69.3114 153.387 68.9938 153.808C68.6761 154.23 68.5173 154.772 68.5173 155.435V159.775L67.0743 160.121ZM77.939 157.681C77.2493 157.846 76.6458 157.833 76.1285 157.64C75.6112 157.446 75.2119 157.09 74.9305 156.569C74.6492 156.049 74.5085 155.396 74.5085 154.612C74.5085 153.828 74.6492 153.113 74.9305 152.467C75.2119 151.812 75.6112 151.263 76.1285 150.822C76.6458 150.371 77.2493 150.062 77.939 149.897C78.5289 149.755 79.0508 149.737 79.5045 149.843C79.9674 149.937 80.3395 150.151 80.6208 150.485C80.9112 150.817 81.0973 151.262 81.179 151.821L79.6679 152.268C79.5953 151.8 79.4047 151.477 79.0962 151.299C78.7876 151.112 78.4019 151.074 77.939 151.185C77.331 151.331 76.8545 151.679 76.5096 152.228C76.1739 152.766 76.006 153.441 76.006 154.253C76.006 155.065 76.1739 155.664 76.5096 156.05C76.8545 156.425 77.331 156.539 77.939 156.393C78.4019 156.282 78.7876 156.058 79.0962 155.723C79.4047 155.378 79.5953 154.927 79.6679 154.368L81.179 154.089C81.0973 154.678 80.9112 155.217 80.6208 155.707C80.3395 156.195 79.9674 156.611 79.5045 156.955C79.0508 157.297 78.5289 157.539 77.939 157.681ZM82.4955 156.419V148.971L83.816 148.654L83.8704 150.615L83.7479 150.602C83.8478 149.906 84.0474 149.368 84.3469 148.988C84.6555 148.606 85.0684 148.353 85.5857 148.229L86.28 148.062V149.392L85.5857 149.559C85.2227 149.646 84.9187 149.78 84.6736 149.96C84.4286 150.14 84.2425 150.371 84.1155 150.654C83.9975 150.934 83.9385 151.275 83.9385 151.676V156.072L82.4955 156.419ZM87.9291 157.214V155.996L88.8139 155.784C89.059 155.725 89.2405 155.644 89.3585 155.541C89.4764 155.438 89.5672 155.29 89.6307 155.098L89.8622 154.426L89.4129 154.534L86.7992 147.938L88.3239 147.572L90.3114 152.946L92.2036 146.64L93.7419 146.271L90.8559 155.28C90.7107 155.744 90.4929 156.109 90.2025 156.375C89.9211 156.638 89.5264 156.831 89.0181 156.953L87.9291 157.214ZM94.7261 155.583V146.035L96.0874 145.708L96.1283 147.294L95.9649 147.249C96.1464 146.655 96.4459 146.168 96.8634 145.787C97.2808 145.398 97.7618 145.138 98.3064 145.007C99.0143 144.837 99.5951 144.88 100.049 145.135C100.512 145.378 100.852 145.768 101.07 146.304C101.297 146.837 101.41 147.454 101.41 148.154C101.41 148.854 101.297 149.525 101.07 150.168C100.852 150.808 100.512 151.366 100.049 151.841C99.5951 152.304 99.0143 152.621 98.3064 152.791C97.9433 152.878 97.603 152.895 97.2854 152.84C96.9677 152.786 96.6955 152.669 96.4686 152.49C96.2508 152.3 96.0965 152.052 96.0057 151.747L96.1691 151.54V155.236L94.7261 155.583ZM98.0477 151.565C98.6285 151.426 99.0823 151.088 99.409 150.552C99.7448 150.014 99.9127 149.335 99.9127 148.513C99.9127 147.692 99.7448 147.093 99.409 146.716C99.0823 146.337 98.6285 146.218 98.0477 146.357C97.6665 146.449 97.3353 146.626 97.054 146.89C96.7726 147.144 96.5548 147.486 96.4005 147.915C96.2462 148.344 96.1691 148.843 96.1691 149.412C96.1691 149.982 96.2417 150.445 96.3869 150.802C96.5412 151.157 96.759 151.399 97.0403 151.527C97.3308 151.644 97.6665 151.657 98.0477 151.565ZM105.387 150.923C104.697 151.089 104.189 151.048 103.862 150.799C103.535 150.551 103.372 150.082 103.372 149.391V142.209L104.815 141.863V148.933C104.815 149.278 104.887 149.498 105.033 149.594C105.178 149.69 105.4 149.702 105.7 149.63L106.734 149.382V150.6L105.387 150.923ZM102.269 145.442V144.224L106.734 143.152V144.37L102.269 145.442ZM110.975 149.75C110.267 149.92 109.654 149.908 109.137 149.715C108.629 149.52 108.234 149.162 107.953 148.641C107.681 148.119 107.544 147.465 107.544 146.681C107.544 145.897 107.681 145.183 107.953 144.539C108.234 143.884 108.629 143.336 109.137 142.897C109.645 142.448 110.244 142.141 110.934 141.975C111.588 141.819 112.164 141.839 112.663 142.036C113.162 142.225 113.548 142.58 113.82 143.103C114.101 143.623 114.242 144.299 114.242 145.129V145.507L109.042 146.756C109.078 147.475 109.264 147.976 109.6 148.26C109.945 148.541 110.408 148.612 110.989 148.472C111.415 148.37 111.769 148.182 112.05 147.909C112.332 147.637 112.527 147.314 112.636 146.943L114.133 146.681C113.943 147.418 113.566 148.068 113.003 148.633C112.45 149.186 111.774 149.558 110.975 149.75ZM109.042 145.636L112.717 144.753C112.672 144.102 112.486 143.656 112.159 143.417C111.842 143.176 111.433 143.116 110.934 143.235C110.417 143.36 109.99 143.63 109.654 144.047C109.328 144.452 109.124 144.981 109.042 145.636ZM118.277 147.997C117.66 148.145 117.12 148.116 116.657 147.909C116.203 147.701 115.854 147.337 115.609 146.817C115.373 146.286 115.255 145.623 115.255 144.83C115.255 144.037 115.378 143.321 115.623 142.684C115.868 142.037 116.217 141.5 116.671 141.074C117.125 140.648 117.66 140.361 118.277 140.213C118.776 140.093 119.221 140.093 119.611 140.214C120.001 140.335 120.296 140.563 120.496 140.898V137.356L121.939 137.009V146.949L120.591 147.273L120.551 146.163C120.351 146.612 120.047 147.002 119.638 147.334C119.239 147.654 118.785 147.874 118.277 147.997ZM118.658 146.617C119.049 146.523 119.38 146.341 119.652 146.07C119.924 145.8 120.133 145.451 120.278 145.024C120.423 144.597 120.496 144.113 120.496 143.572C120.496 143.012 120.423 142.558 120.278 142.21C120.133 141.853 119.924 141.609 119.652 141.478C119.38 141.338 119.049 141.315 118.658 141.409C118.077 141.548 117.615 141.893 117.27 142.442C116.925 142.982 116.752 143.659 116.752 144.471C116.752 145.273 116.925 145.866 117.27 146.25C117.615 146.634 118.077 146.756 118.658 146.617ZM127.446 145.627V135.687L130.55 134.942C132.066 134.578 133.232 134.732 134.049 135.404C134.866 136.067 135.274 137.196 135.274 138.792C135.274 140.379 134.87 141.698 134.062 142.751C133.264 143.801 132.12 144.505 130.632 144.862L127.446 145.627ZM128.917 143.888L130.55 143.496C131.621 143.239 132.42 142.753 132.946 142.039C133.482 141.313 133.749 140.353 133.749 139.158C133.749 137.945 133.482 137.108 132.946 136.649C132.42 136.178 131.621 136.071 130.55 136.328L128.917 136.72V143.888ZM139.03 143.014C138.277 143.195 137.673 143.163 137.219 142.917C136.775 142.669 136.552 142.223 136.552 141.579C136.552 140.935 136.738 140.391 137.11 139.947C137.491 139.492 138.077 139.09 138.866 138.741L141.358 137.653C141.358 137.075 141.226 136.677 140.963 136.46C140.7 136.234 140.309 136.183 139.792 136.307C139.329 136.418 138.966 136.613 138.703 136.891C138.44 137.159 138.258 137.511 138.159 137.945L136.675 138.204C136.811 137.424 137.147 136.756 137.682 136.198C138.227 135.638 138.93 135.254 139.792 135.047C140.772 134.812 141.516 134.904 142.025 135.323C142.542 135.731 142.801 136.42 142.801 137.391V140.289C142.801 140.466 142.828 140.586 142.882 140.647C142.946 140.697 143.046 140.706 143.182 140.673L143.44 140.611V141.787C143.395 141.808 143.322 141.834 143.223 141.868C143.123 141.901 143.018 141.931 142.91 141.957C142.601 142.031 142.333 142.044 142.106 141.996C141.889 141.945 141.725 141.816 141.616 141.609C141.507 141.393 141.453 141.084 141.453 140.682L141.603 140.717C141.53 141.061 141.371 141.388 141.126 141.699C140.89 142.008 140.586 142.281 140.214 142.52C139.851 142.747 139.456 142.912 139.03 143.014ZM139.261 141.783C139.697 141.678 140.069 141.505 140.377 141.263C140.686 141.011 140.927 140.711 141.099 140.361C141.271 140.012 141.358 139.641 141.358 139.249V138.773L139.234 139.703C138.798 139.892 138.49 140.101 138.308 140.331C138.136 140.55 138.05 140.8 138.05 141.08C138.05 141.397 138.154 141.619 138.363 141.746C138.581 141.862 138.88 141.874 139.261 141.783ZM147.064 140.917C146.374 141.083 145.866 141.042 145.539 140.794C145.212 140.545 145.049 140.076 145.049 139.385V132.203L146.492 131.857V138.927C146.492 139.272 146.565 139.493 146.71 139.588C146.855 139.684 147.077 139.696 147.377 139.624L148.411 139.376V140.594L147.064 140.917ZM143.946 135.436V134.218L148.411 133.146V134.364L143.946 135.436ZM151.779 139.953C151.026 140.134 150.422 140.102 149.968 139.856C149.524 139.608 149.301 139.162 149.301 138.518C149.301 137.874 149.487 137.33 149.859 136.886C150.241 136.431 150.826 136.029 151.615 135.681L154.107 134.593C154.107 134.014 153.975 133.616 153.712 133.399C153.449 133.173 153.058 133.122 152.541 133.246C152.078 133.358 151.715 133.552 151.452 133.83C151.189 134.098 151.007 134.45 150.908 134.885L149.424 135.143C149.56 134.364 149.896 133.695 150.431 133.137C150.976 132.577 151.679 132.193 152.541 131.986C153.521 131.751 154.266 131.843 154.774 132.262C155.291 132.67 155.55 133.359 155.55 134.33V137.228C155.55 137.405 155.577 137.525 155.631 137.587C155.695 137.637 155.795 137.645 155.931 137.613L156.189 137.551V138.727C156.144 138.747 156.072 138.774 155.972 138.807C155.872 138.84 155.767 138.87 155.659 138.896C155.35 138.97 155.082 138.983 154.855 138.935C154.638 138.884 154.474 138.756 154.365 138.548C154.256 138.332 154.202 138.023 154.202 137.622L154.352 137.656C154.279 138 154.12 138.327 153.875 138.638C153.639 138.947 153.335 139.22 152.963 139.459C152.6 139.686 152.205 139.851 151.779 139.953ZM152.01 138.722C152.446 138.617 152.818 138.444 153.127 138.202C153.435 137.95 153.676 137.65 153.848 137.301C154.02 136.951 154.107 136.581 154.107 136.189V135.713L151.983 136.642C151.547 136.831 151.239 137.04 151.057 137.271C150.885 137.489 150.799 137.739 150.799 138.019C150.799 138.336 150.903 138.558 151.112 138.686C151.33 138.801 151.629 138.813 152.01 138.722Z" fill="#0A0A0A"/>
<path d="M58.7613 180.117V171.597L61.3284 170.981C61.904 170.842 62.4057 170.83 62.8336 170.943C63.2692 171.055 63.6037 171.282 63.8371 171.626C64.0782 171.961 64.1988 172.4 64.1988 172.944C64.1988 173.488 64.0782 173.989 63.8371 174.446C63.6037 174.894 63.2692 175.279 62.8336 175.599C62.4057 175.91 61.904 176.134 61.3284 176.273L59.9865 176.595V179.823L58.7613 180.117ZM59.9865 175.407L61.2 175.116C61.7912 174.974 62.2268 174.745 62.5069 174.43C62.7869 174.115 62.9269 173.721 62.9269 173.249C62.9269 172.769 62.7869 172.439 62.5069 172.258C62.2268 172.077 61.7912 172.058 61.2 172.2L59.9865 172.491V175.407ZM67.3097 178.065V171.681L68.2432 171.457L68.3482 173.063L68.2432 173.077C68.321 172.506 68.4882 172.058 68.7449 171.732C69.0016 171.407 69.3556 171.19 69.8068 171.081L71.1253 170.765V171.821L69.8534 172.126C69.5578 172.197 69.3089 172.317 69.1066 172.485C68.9044 172.646 68.7488 172.855 68.6399 173.113C68.5388 173.362 68.4882 173.654 68.4882 173.99V177.782L67.3097 178.065ZM65.7345 178.443V177.423L70.4252 176.297V177.317L65.7345 178.443ZM65.7345 173.079V172.059L67.9748 171.521V172.541L65.7345 173.079ZM75.0647 176.203V169.819L76.2548 169.533V175.917L75.0647 176.203ZM72.6376 176.786V175.766L78.3318 174.399V175.419L72.6376 176.786ZM72.7543 171.394V170.374L76.1498 169.558V170.578L72.7543 171.394ZM74.9946 168.912V167.652L76.2082 167.36V168.62L74.9946 168.912ZM81.5127 174.655L79.2724 168.809L80.5443 168.503L82.2479 173.194L83.9515 167.685L85.2233 167.38L82.983 174.302L81.5127 174.655ZM88.4042 173.144C88.0153 173.238 87.6652 173.25 87.3541 173.18C87.0429 173.111 86.794 172.967 86.6073 172.748C86.4284 172.527 86.3389 172.24 86.3389 171.888C86.3389 171.344 86.4984 170.882 86.8173 170.501C87.144 170.119 87.6341 169.785 88.2876 169.5L90.2945 168.587C90.2945 168.091 90.1895 167.744 89.9795 167.546C89.7694 167.349 89.4544 167.3 89.0343 167.401C88.6454 167.494 88.342 167.659 88.1242 167.896C87.9064 168.132 87.7586 168.423 87.6808 168.77L86.4439 168.983C86.5606 168.347 86.8446 167.787 87.2957 167.302C87.7469 166.818 88.3264 166.491 89.0343 166.321C89.8278 166.131 90.4307 166.218 90.8429 166.583C91.263 166.946 91.473 167.536 91.473 168.352V170.872C91.473 171.016 91.5042 171.112 91.5664 171.161C91.6286 171.202 91.7181 171.209 91.8348 171.181L92.1848 171.097V172.093C92.1381 172.112 92.0603 172.139 91.9514 172.173C91.8503 172.205 91.7492 172.233 91.6481 172.258C91.368 172.325 91.1308 172.334 90.9363 172.284C90.7418 172.235 90.594 172.123 90.4929 171.947C90.3995 171.761 90.3451 171.514 90.3295 171.206L90.5162 171.161C90.4696 171.453 90.349 171.733 90.1545 172.004C89.96 172.275 89.7111 172.511 89.4077 172.711C89.1043 172.912 88.7698 173.057 88.4042 173.144ZM88.5793 172.106C88.9527 172.017 89.2677 171.873 89.5244 171.675C89.7811 171.478 89.9717 171.24 90.0962 170.962C90.2284 170.682 90.2945 170.375 90.2945 170.039V169.547L88.5676 170.321C88.1942 170.483 87.9336 170.657 87.7858 170.845C87.638 171.032 87.5641 171.25 87.5641 171.498C87.5641 171.762 87.6536 171.949 87.8325 172.058C88.0114 172.167 88.2603 172.183 88.5793 172.106ZM97.1277 170.906C96.4976 171.057 96.0269 171.022 95.7158 170.801C95.4124 170.57 95.2607 170.142 95.2607 169.518V163.47L96.4392 163.187V169.175C96.4392 169.471 96.5054 169.675 96.6376 169.788C96.7776 169.898 96.9838 169.921 97.256 169.855L98.8546 169.471V170.491L97.1277 170.906ZM93.3004 166.461V165.441L98.8546 164.107V165.127L93.3004 166.461ZM103.319 169.564C102.736 169.704 102.226 169.69 101.79 169.523C101.363 169.353 101.028 169.046 100.787 168.6C100.554 168.152 100.437 167.592 100.437 166.92C100.437 166.248 100.554 165.636 100.787 165.084C101.028 164.53 101.359 164.062 101.779 163.681C102.207 163.299 102.708 163.038 103.284 162.9C103.836 162.767 104.323 162.787 104.743 162.958C105.163 163.121 105.489 163.427 105.723 163.875C105.964 164.313 106.084 164.884 106.084 165.588V165.924L101.674 166.983C101.713 167.581 101.876 168.006 102.164 168.257C102.459 168.498 102.848 168.561 103.331 168.445C103.696 168.357 104 168.196 104.241 167.962C104.482 167.72 104.649 167.444 104.743 167.134L105.979 166.921C105.801 167.572 105.478 168.137 105.011 168.617C104.552 169.088 103.988 169.403 103.319 169.564ZM101.674 166.011L104.813 165.257C104.766 164.724 104.603 164.359 104.323 164.163C104.05 163.964 103.704 163.915 103.284 164.016C102.848 164.121 102.491 164.343 102.211 164.682C101.931 165.021 101.752 165.464 101.674 166.011ZM114.663 166.696V158.176L115.842 157.893V163.245L118.642 159.357L120.147 158.995L117.72 162.29L120.253 165.354L118.864 165.688L116.939 163.294L115.842 164.745V166.413L114.663 166.696ZM124.309 164.524C123.725 164.665 123.216 164.651 122.78 164.483C122.352 164.314 122.018 164.006 121.777 163.56C121.543 163.112 121.426 162.552 121.426 161.88C121.426 161.208 121.543 160.596 121.777 160.044C122.018 159.49 122.348 159.023 122.768 158.642C123.196 158.26 123.698 157.999 124.274 157.861C124.826 157.728 125.312 157.748 125.732 157.919C126.152 158.082 126.479 158.387 126.712 158.835C126.953 159.274 127.074 159.845 127.074 160.549V160.885L122.663 161.943C122.702 162.542 122.866 162.967 123.153 163.218C123.449 163.459 123.838 163.521 124.32 163.406C124.686 163.318 124.989 163.157 125.23 162.923C125.472 162.681 125.639 162.405 125.732 162.095L126.969 161.882C126.79 162.533 126.467 163.098 126 163.578C125.542 164.048 124.978 164.364 124.309 164.524ZM122.663 160.971L125.802 160.218C125.755 159.685 125.592 159.32 125.312 159.124C125.04 158.925 124.694 158.876 124.274 158.977C123.838 159.081 123.48 159.303 123.2 159.643C122.92 159.982 122.741 160.425 122.663 160.971ZM129.24 164.997V163.977L129.998 163.795C130.216 163.742 130.375 163.668 130.477 163.572C130.586 163.482 130.667 163.354 130.722 163.189L130.932 162.574L130.535 162.67L128.271 157.045L129.543 156.74L131.305 161.345L132.95 155.922L134.211 155.619L131.737 163.317C131.612 163.731 131.418 164.054 131.153 164.285C130.897 164.515 130.551 164.682 130.115 164.787L129.24 164.997ZM138.313 161.162C137.761 161.295 137.286 161.313 136.89 161.216C136.493 161.119 136.186 160.937 135.968 160.669C135.75 160.394 135.626 160.06 135.595 159.667L136.796 159.306C136.859 159.635 137.014 159.874 137.263 160.022C137.512 160.163 137.866 160.178 138.325 160.067C138.753 159.965 139.079 159.826 139.305 159.652C139.531 159.478 139.643 159.263 139.643 159.007C139.643 158.847 139.605 158.724 139.527 158.639C139.449 158.546 139.301 158.489 139.083 158.469C138.873 158.44 138.562 158.434 138.15 158.453C137.535 158.481 137.053 158.457 136.703 158.381C136.361 158.295 136.116 158.146 135.968 157.933C135.82 157.713 135.746 157.423 135.746 157.063C135.746 156.695 135.836 156.341 136.015 156.002C136.201 155.661 136.474 155.364 136.831 155.11C137.189 154.848 137.633 154.654 138.162 154.527C138.714 154.394 139.169 154.385 139.527 154.499C139.885 154.605 140.165 154.79 140.367 155.053C140.569 155.317 140.698 155.626 140.752 155.981L139.55 156.341C139.503 156.145 139.422 155.984 139.305 155.86C139.188 155.728 139.033 155.642 138.838 155.6C138.644 155.551 138.418 155.557 138.162 155.619C137.749 155.718 137.446 155.874 137.251 156.089C137.057 156.304 136.96 156.531 136.96 156.771C136.96 156.963 137.006 157.108 137.1 157.206C137.193 157.295 137.349 157.354 137.566 157.382C137.784 157.401 138.08 157.402 138.453 157.385C139.083 157.337 139.57 157.357 139.912 157.442C140.254 157.52 140.495 157.662 140.635 157.869C140.775 158.075 140.845 158.354 140.845 158.706C140.845 159.09 140.736 159.449 140.519 159.781C140.309 160.103 140.013 160.386 139.632 160.63C139.258 160.863 138.819 161.041 138.313 161.162ZM144.563 161.39L145.123 159.383L144.446 159.546V157.962L145.987 157.592V159.008L145.24 161.227L144.563 161.39ZM157.121 156.503L155.919 150.408L157.156 150.111L157.891 154.866L158.708 150.638L159.711 150.397L160.528 154.233L161.263 149.124L162.5 148.828L161.31 155.497L159.98 155.817L159.209 152.27L158.439 156.186L157.121 156.503ZM165.366 154.668C164.977 154.761 164.627 154.773 164.316 154.704C164.004 154.634 163.756 154.49 163.569 154.271C163.39 154.05 163.3 153.763 163.3 153.411C163.3 152.867 163.46 152.405 163.779 152.025C164.106 151.642 164.596 151.308 165.249 151.024L167.256 150.11C167.256 149.614 167.151 149.267 166.941 149.069C166.731 148.872 166.416 148.823 165.996 148.924C165.607 149.018 165.304 149.182 165.086 149.419C164.868 149.655 164.72 149.947 164.642 150.293L163.405 150.506C163.522 149.87 163.806 149.31 164.257 148.826C164.708 148.341 165.288 148.014 165.996 147.844C166.789 147.654 167.392 147.741 167.805 148.106C168.225 148.469 168.435 149.059 168.435 149.875V152.395C168.435 152.539 168.466 152.635 168.528 152.684C168.59 152.725 168.68 152.732 168.796 152.704L169.146 152.62V153.616C169.1 153.635 169.022 153.662 168.913 153.696C168.812 153.728 168.711 153.756 168.61 153.781C168.33 153.848 168.092 153.857 167.898 153.808C167.703 153.758 167.556 153.646 167.454 153.47C167.361 153.284 167.307 153.038 167.291 152.729L167.478 152.684C167.431 152.976 167.311 153.257 167.116 153.527C166.922 153.798 166.673 154.034 166.369 154.235C166.066 154.435 165.731 154.58 165.366 154.668ZM165.541 153.629C165.914 153.54 166.229 153.396 166.486 153.199C166.743 153.001 166.933 152.763 167.058 152.485C167.19 152.206 167.256 151.898 167.256 151.562V151.07L165.529 151.844C165.156 152.006 164.895 152.181 164.747 152.368C164.6 152.555 164.526 152.773 164.526 153.021C164.526 153.285 164.615 153.472 164.794 153.581C164.973 153.69 165.222 153.706 165.541 153.629ZM172.782 152.743V146.035C172.782 145.787 172.712 145.612 172.572 145.509C172.44 145.397 172.253 145.37 172.012 145.428L170.589 145.77V144.75L172.141 144.377C172.74 144.233 173.191 144.285 173.494 144.532C173.805 144.769 173.961 145.196 173.961 145.812V152.46L172.782 152.743ZM170.355 153.326V152.306L176.05 150.939V151.959L170.355 153.326ZM179.779 151.063V144.355C179.779 144.107 179.709 143.932 179.569 143.83C179.437 143.717 179.25 143.69 179.009 143.748L177.585 144.09V143.07L179.137 142.697C179.736 142.554 180.187 142.605 180.491 142.852C180.802 143.09 180.957 143.516 180.957 144.132V150.78L179.779 151.063ZM177.352 151.646V150.626L183.046 149.259V150.279L177.352 151.646ZM187.277 149.407C186.694 149.547 186.184 149.533 185.749 149.366C185.321 149.197 184.986 148.889 184.745 148.443C184.512 147.995 184.395 147.435 184.395 146.763C184.395 146.091 184.512 145.479 184.745 144.927C184.986 144.373 185.317 143.906 185.737 143.525C186.165 143.142 186.666 142.882 187.242 142.743C187.794 142.611 188.281 142.63 188.701 142.801C189.121 142.964 189.447 143.27 189.681 143.718C189.922 144.156 190.043 144.727 190.043 145.431V145.767L185.632 146.826C185.671 147.425 185.834 147.85 186.122 148.1C186.418 148.341 186.806 148.404 187.289 148.288C187.654 148.2 187.958 148.04 188.199 147.806C188.44 147.564 188.607 147.288 188.701 146.977L189.938 146.764C189.759 147.415 189.436 147.981 188.969 148.461C188.51 148.931 187.946 149.246 187.277 149.407ZM185.632 145.854L188.771 145.101C188.724 144.568 188.561 144.203 188.281 144.006C188.008 143.808 187.662 143.759 187.242 143.859C186.806 143.964 186.449 144.186 186.169 144.525C185.889 144.864 185.71 145.307 185.632 145.854ZM195.079 147.39C194.449 147.541 193.978 147.506 193.667 147.285C193.363 147.054 193.212 146.626 193.212 146.002V139.954L194.39 139.671V145.659C194.39 145.955 194.456 146.159 194.589 146.272C194.729 146.382 194.935 146.405 195.207 146.339L196.806 145.955V146.975L195.079 147.39ZM191.251 142.945V141.925L196.806 140.591V141.611L191.251 142.945ZM207.695 144.505C207.166 144.632 206.707 144.61 206.318 144.44C205.929 144.261 205.63 143.949 205.42 143.503C205.21 143.05 205.104 142.479 205.104 141.791C205.104 141.103 205.21 140.486 205.42 139.939C205.63 139.385 205.929 138.929 206.318 138.572C206.707 138.206 207.166 137.96 207.695 137.833C208.131 137.729 208.512 137.741 208.838 137.871C209.165 138 209.402 138.187 209.55 138.432V135.396L210.729 135.113V143.633L209.632 143.896L209.597 142.921C209.426 143.306 209.177 143.641 208.85 143.928C208.523 144.206 208.138 144.399 207.695 144.505ZM207.893 143.342C208.236 143.259 208.527 143.101 208.768 142.867C209.017 142.624 209.208 142.322 209.34 141.962C209.48 141.593 209.55 141.18 209.55 140.724C209.55 140.252 209.48 139.869 209.34 139.574C209.208 139.278 209.017 139.072 208.768 138.955C208.519 138.839 208.22 138.823 207.87 138.907C207.395 139.021 207.022 139.307 206.75 139.764C206.477 140.221 206.341 140.798 206.341 141.494C206.341 142.182 206.477 142.693 206.75 143.028C207.022 143.355 207.403 143.459 207.893 143.342ZM214.341 142.91C213.952 143.003 213.602 143.015 213.291 142.946C212.98 142.876 212.731 142.732 212.544 142.513C212.365 142.292 212.276 142.005 212.276 141.653C212.276 141.109 212.435 140.647 212.754 140.267C213.081 139.884 213.571 139.55 214.225 139.266L216.232 138.352C216.232 137.856 216.127 137.509 215.917 137.311C215.707 137.114 215.391 137.065 214.971 137.166C214.582 137.26 214.279 137.424 214.061 137.661C213.843 137.897 213.696 138.189 213.618 138.535L212.381 138.748C212.498 138.112 212.782 137.552 213.233 137.068C213.684 136.583 214.264 136.256 214.971 136.086C215.765 135.896 216.368 135.983 216.78 136.348C217.2 136.711 217.41 137.301 217.41 138.117V140.637C217.41 140.781 217.441 140.877 217.503 140.926C217.566 140.967 217.655 140.974 217.772 140.946L218.122 140.862V141.858C218.075 141.877 217.997 141.904 217.889 141.938C217.787 141.97 217.686 141.998 217.585 142.023C217.305 142.09 217.068 142.099 216.873 142.05C216.679 142 216.531 141.888 216.43 141.712C216.337 141.527 216.282 141.28 216.267 140.971L216.453 140.926C216.407 141.218 216.286 141.499 216.092 141.769C215.897 142.04 215.648 142.276 215.345 142.477C215.041 142.677 214.707 142.822 214.341 142.91ZM214.516 141.872C214.89 141.782 215.205 141.638 215.462 141.441C215.718 141.243 215.909 141.005 216.033 140.727C216.166 140.448 216.232 140.14 216.232 139.804V139.312L214.505 140.086C214.131 140.248 213.871 140.423 213.723 140.61C213.575 140.797 213.501 141.015 213.501 141.263C213.501 141.527 213.591 141.714 213.77 141.823C213.948 141.932 214.197 141.948 214.516 141.872ZM223.065 140.671C222.435 140.822 221.964 140.787 221.653 140.566C221.35 140.335 221.198 139.907 221.198 139.283V133.235L222.376 132.953V138.941C222.376 139.237 222.442 139.441 222.575 139.553C222.715 139.663 222.921 139.686 223.193 139.62L224.792 139.237V140.257L223.065 140.671ZM219.238 136.226V135.206L224.792 133.873V134.893L219.238 136.226ZM228.334 139.55C227.945 139.643 227.595 139.656 227.284 139.586C226.973 139.517 226.724 139.373 226.537 139.154C226.358 138.932 226.269 138.646 226.269 138.294C226.269 137.75 226.429 137.288 226.747 136.907C227.074 136.525 227.564 136.191 228.218 135.906L230.225 134.992C230.225 134.496 230.12 134.15 229.91 133.952C229.7 133.754 229.385 133.706 228.964 133.807C228.575 133.9 228.272 134.065 228.054 134.301C227.836 134.538 227.689 134.829 227.611 135.176L226.374 135.389C226.491 134.753 226.775 134.193 227.226 133.708C227.677 133.224 228.257 132.897 228.964 132.727C229.758 132.536 230.361 132.624 230.773 132.989C231.193 133.352 231.403 133.941 231.403 134.757V137.277C231.403 137.421 231.434 137.518 231.496 137.567C231.559 137.608 231.648 137.615 231.765 137.587L232.115 137.502V138.498C232.068 138.518 231.99 138.544 231.882 138.578C231.78 138.611 231.679 138.639 231.578 138.663C231.298 138.731 231.061 138.74 230.866 138.69C230.672 138.641 230.524 138.528 230.423 138.353C230.33 138.167 230.275 137.92 230.26 137.612L230.446 137.567C230.4 137.858 230.279 138.139 230.085 138.41C229.89 138.681 229.641 138.916 229.338 139.117C229.034 139.318 228.7 139.462 228.334 139.55ZM228.509 138.512C228.883 138.422 229.198 138.279 229.455 138.081C229.711 137.884 229.902 137.646 230.026 137.368C230.159 137.088 230.225 136.78 230.225 136.444V135.952L228.498 136.727C228.124 136.889 227.864 137.063 227.716 137.251C227.568 137.438 227.494 137.656 227.494 137.904C227.494 138.168 227.584 138.354 227.763 138.463C227.942 138.572 228.19 138.589 228.509 138.512ZM235.518 139.554L236.078 137.547L235.401 137.71V136.126L236.941 135.756V137.172L236.194 139.391L235.518 139.554ZM250.257 134.287C249.705 134.419 249.231 134.437 248.834 134.341C248.437 134.244 248.13 134.062 247.912 133.794C247.694 133.518 247.57 133.184 247.539 132.792L248.74 132.431C248.803 132.76 248.958 132.999 249.207 133.147C249.456 133.287 249.81 133.302 250.269 133.192C250.697 133.089 251.024 132.951 251.249 132.777C251.475 132.603 251.588 132.388 251.588 132.132C251.588 131.972 251.549 131.849 251.471 131.764C251.393 131.67 251.245 131.614 251.027 131.594C250.817 131.564 250.506 131.559 250.094 131.578C249.479 131.606 248.997 131.581 248.647 131.505C248.305 131.42 248.06 131.27 247.912 131.058C247.764 130.837 247.69 130.547 247.69 130.187C247.69 129.819 247.78 129.466 247.959 129.127C248.145 128.786 248.418 128.489 248.775 128.235C249.133 127.973 249.577 127.778 250.106 127.651C250.658 127.519 251.113 127.509 251.471 127.624C251.829 127.73 252.109 127.914 252.311 128.178C252.513 128.441 252.642 128.75 252.696 129.105L251.494 129.466C251.448 129.269 251.366 129.109 251.249 128.985C251.132 128.853 250.977 128.766 250.782 128.725C250.588 128.675 250.362 128.682 250.106 128.743C249.693 128.842 249.39 128.999 249.196 129.214C249.001 129.428 248.904 129.656 248.904 129.896C248.904 130.088 248.95 130.233 249.044 130.33C249.137 130.42 249.293 130.478 249.511 130.506C249.728 130.526 250.024 130.527 250.397 130.509C251.027 130.462 251.514 130.481 251.856 130.567C252.198 130.645 252.439 130.787 252.579 130.993C252.719 131.2 252.789 131.479 252.789 131.831C252.789 132.215 252.68 132.573 252.463 132.905C252.253 133.228 251.957 133.511 251.576 133.754C251.202 133.988 250.763 134.165 250.257 134.287ZM257.242 132.61C256.659 132.75 256.149 132.736 255.714 132.569C255.286 132.4 254.951 132.092 254.71 131.646C254.477 131.198 254.36 130.638 254.36 129.966C254.36 129.294 254.477 128.682 254.71 128.13C254.951 127.576 255.282 127.109 255.702 126.728C256.13 126.345 256.632 126.085 257.207 125.946C257.759 125.814 258.246 125.833 258.666 126.004C259.086 126.167 259.413 126.473 259.646 126.921C259.887 127.359 260.008 127.93 260.008 128.634V128.97L255.597 130.029C255.636 130.628 255.799 131.052 256.087 131.303C256.383 131.544 256.772 131.607 257.254 131.491C257.619 131.403 257.923 131.243 258.164 131.009C258.405 130.767 258.572 130.491 258.666 130.18L259.903 129.967C259.724 130.618 259.401 131.184 258.934 131.664C258.475 132.134 257.911 132.449 257.242 132.61ZM255.597 129.057L258.736 128.303C258.689 127.771 258.526 127.406 258.246 127.209C257.973 127.01 257.627 126.962 257.207 127.062C256.772 127.167 256.414 127.389 256.134 127.728C255.854 128.067 255.675 128.51 255.597 129.057ZM261.59 131.422V125.038L262.675 124.778L262.71 126.437L262.582 126.372C262.66 125.961 262.796 125.609 262.99 125.314C263.192 125.009 263.437 124.763 263.725 124.573C264.013 124.376 264.32 124.239 264.647 124.16C265.114 124.048 265.499 124.064 265.802 124.207C266.106 124.342 266.335 124.575 266.491 124.906C266.646 125.228 266.724 125.618 266.724 126.074V130.19L265.546 130.472V126.668C265.546 126.116 265.441 125.726 265.23 125.496C265.028 125.265 264.721 125.198 264.309 125.297C264.021 125.367 263.76 125.493 263.527 125.677C263.301 125.859 263.119 126.095 262.978 126.385C262.838 126.666 262.768 126.991 262.768 127.359V131.139L261.59 131.422ZM271.247 129.248C270.695 129.38 270.22 129.398 269.823 129.301C269.427 129.205 269.119 129.023 268.901 128.755C268.684 128.479 268.559 128.145 268.528 127.752L269.73 127.392C269.792 127.721 269.948 127.96 270.197 128.108C270.446 128.248 270.8 128.263 271.259 128.153C271.686 128.05 272.013 127.912 272.239 127.738C272.464 127.563 272.577 127.348 272.577 127.092C272.577 126.932 272.538 126.81 272.46 126.724C272.383 126.631 272.235 126.575 272.017 126.555C271.807 126.525 271.496 126.52 271.083 126.539C270.469 126.566 269.987 126.542 269.637 126.466C269.294 126.38 269.049 126.231 268.901 126.019C268.754 125.798 268.68 125.508 268.68 125.148C268.68 124.78 268.769 124.427 268.948 124.088C269.135 123.747 269.407 123.449 269.765 123.195C270.123 122.934 270.566 122.739 271.095 122.612C271.647 122.48 272.103 122.47 272.46 122.584C272.818 122.69 273.098 122.875 273.3 123.139C273.503 123.402 273.631 123.711 273.686 124.066L272.484 124.427C272.437 124.23 272.355 124.07 272.239 123.946C272.122 123.814 271.966 123.727 271.772 123.686C271.577 123.636 271.352 123.643 271.095 123.704C270.683 123.803 270.379 123.96 270.185 124.175C269.991 124.389 269.893 124.617 269.893 124.857C269.893 125.049 269.94 125.193 270.033 125.291C270.127 125.381 270.282 125.439 270.5 125.467C270.718 125.487 271.013 125.488 271.387 125.47C272.017 125.423 272.503 125.442 272.845 125.528C273.188 125.606 273.429 125.748 273.569 125.954C273.709 126.161 273.779 126.44 273.779 126.792C273.779 127.176 273.67 127.534 273.452 127.866C273.242 128.189 272.947 128.472 272.565 128.715C272.192 128.949 271.752 129.126 271.247 129.248ZM277.963 127.491V121.107L279.153 120.822V127.206L277.963 127.491ZM275.536 128.074V127.054L281.23 125.687V126.707L275.536 128.074ZM275.653 122.682V121.662L279.048 120.847V121.867L275.653 122.682ZM277.893 120.2V118.94L279.107 118.649V119.909L277.893 120.2ZM286.033 125.554C285.403 125.705 284.933 125.67 284.621 125.449C284.318 125.218 284.166 124.79 284.166 124.166V118.118L285.345 117.835V123.823C285.345 124.119 285.411 124.323 285.543 124.435C285.683 124.546 285.889 124.568 286.162 124.503L287.76 124.119V125.139L286.033 125.554ZM282.206 121.109V120.089L287.76 118.755V119.775L282.206 121.109ZM291.956 124.132V117.748L293.147 117.462V123.846L291.956 124.132ZM289.529 124.715V123.695L295.223 122.327V123.347L289.529 124.715ZM289.646 119.322V118.302L293.041 117.487V118.507L289.646 119.322ZM291.886 116.841V115.581L293.1 115.289V116.549L291.886 116.841ZM298.404 122.584L296.164 116.738L297.436 116.432L299.14 121.123L300.843 115.614L302.115 115.309L299.875 122.231L298.404 122.584ZM306.218 120.852C305.634 120.992 305.125 120.978 304.689 120.811C304.261 120.642 303.927 120.334 303.686 119.888C303.452 119.44 303.336 118.88 303.336 118.208C303.336 117.536 303.452 116.924 303.686 116.372C303.927 115.818 304.257 115.351 304.677 114.97C305.105 114.587 305.607 114.327 306.183 114.188C306.735 114.056 307.221 114.075 307.641 114.246C308.061 114.409 308.388 114.715 308.621 115.163C308.863 115.601 308.983 116.172 308.983 116.876V117.212L304.572 118.271C304.611 118.87 304.775 119.294 305.063 119.545C305.358 119.786 305.747 119.849 306.229 119.733C306.595 119.645 306.898 119.485 307.14 119.251C307.381 119.009 307.548 118.733 307.641 118.422L308.878 118.209C308.699 118.86 308.376 119.426 307.91 119.906C307.451 120.376 306.887 120.691 306.218 120.852ZM304.572 117.299L307.711 116.545C307.665 116.013 307.501 115.648 307.221 115.451C306.949 115.252 306.603 115.204 306.183 115.304C305.747 115.409 305.389 115.631 305.109 115.97C304.829 116.309 304.65 116.752 304.572 117.299ZM319.942 117.413V111.029L321.133 110.743V117.127L319.942 117.413ZM317.515 117.996V116.976L323.21 115.609V116.629L317.515 117.996ZM317.632 112.604V111.584L321.028 110.768V111.788L317.632 112.604ZM319.872 110.122V108.862L321.086 108.57V109.83L319.872 110.122ZM324.558 116.305V109.921L325.644 109.66L325.679 111.32L325.55 111.255C325.628 110.844 325.764 110.491 325.959 110.197C326.161 109.892 326.406 109.645 326.694 109.456C326.982 109.259 327.289 109.121 327.616 109.043C328.082 108.931 328.467 108.946 328.771 109.089C329.074 109.225 329.304 109.458 329.459 109.788C329.615 110.111 329.693 110.5 329.693 110.956V115.072L328.514 115.355V111.551C328.514 110.999 328.409 110.608 328.199 110.379C327.997 110.147 327.69 110.081 327.277 110.18C326.989 110.249 326.729 110.376 326.495 110.56C326.27 110.742 326.087 110.978 325.947 111.267C325.807 111.549 325.737 111.874 325.737 112.242V116.022L324.558 116.305ZM333.049 114.266V107.546C333.049 106.954 333.192 106.472 333.48 106.099C333.768 105.726 334.215 105.466 334.822 105.321L336.829 104.839V105.859L334.939 106.313C334.705 106.369 334.527 106.484 334.402 106.657C334.285 106.822 334.227 107.028 334.227 107.276V113.984L333.049 114.266ZM331.415 109.295V108.275L336.736 106.997V108.017L331.415 109.295ZM341.119 112.473C340.543 112.611 340.037 112.597 339.602 112.429C339.174 112.26 338.839 111.952 338.598 111.506C338.365 111.058 338.248 110.498 338.248 109.826C338.248 109.146 338.365 108.53 338.598 107.978C338.839 107.416 339.174 106.948 339.602 106.573C340.037 106.197 340.543 105.939 341.119 105.801C341.694 105.663 342.196 105.678 342.624 105.848C343.059 106.015 343.394 106.323 343.627 106.771C343.868 107.209 343.989 107.768 343.989 108.448C343.989 109.12 343.868 109.737 343.627 110.299C343.394 110.859 343.059 111.327 342.624 111.704C342.196 112.078 341.694 112.335 341.119 112.473ZM341.119 111.357C341.64 111.232 342.04 110.94 342.32 110.48C342.608 110.019 342.752 109.441 342.752 108.745C342.752 108.049 342.608 107.539 342.32 107.216C342.04 106.892 341.64 106.792 341.119 106.917C340.597 107.042 340.193 107.335 339.905 107.796C339.625 108.256 339.485 108.833 339.485 109.529C339.485 110.225 339.625 110.736 339.905 111.06C340.193 111.383 340.597 111.482 341.119 111.357Z" fill="#717680"/>
<rect x="0.486185" y="0.383277" width="373.343" height="63" rx="7.5" transform="matrix(0.97237 -0.233445 0 1 33.0134 195.493)" fill="#FDFDFD"/>
<rect x="0.486185" y="0.383277" width="373.343" height="63" rx="7.5" transform="matrix(0.97237 -0.233445 0 1 33.0134 195.493)" stroke="#E9EAEB"/>
<path d="M62.0898 216.646L63.9536 218.115C64.105 218.231 64.3087 218.268 64.5208 218.217C64.7329 218.166 64.9365 218.032 65.088 217.843L66.7896 215.684C66.9381 215.493 67.0213 215.263 67.0213 215.045C67.0213 214.827 66.9381 214.637 66.7896 214.517L64.9259 213.048" stroke="#4389FA" stroke-width="1.66667" stroke-linecap="round" stroke-linejoin="round"/>
<path d="M66.5485 210.992L58.7695 220.859" stroke="#4389FA" stroke-width="1.66667" stroke-linecap="round" stroke-linejoin="round"/>
<path d="M55.6071 229.452C58.0685 228.861 60.0638 226.33 60.0638 223.798C60.0638 221.267 58.0685 219.694 55.6071 220.285C53.1457 220.876 51.1504 223.407 51.1504 225.938C51.1504 228.47 53.1457 230.043 55.6071 229.452Z" stroke="#4389FA" stroke-width="1.66667" stroke-linecap="round" stroke-linejoin="round"/>
<path d="M77.9285 212.593V202.653L81.0324 201.908C82.548 201.544 83.7141 201.698 84.5309 202.37C85.3477 203.032 85.7561 204.162 85.7561 205.758C85.7561 207.344 85.3523 208.664 84.5446 209.717C83.7459 210.767 82.6024 211.471 81.114 211.828L77.9285 212.593ZM79.3988 210.854L81.0324 210.462C82.1033 210.205 82.9019 209.719 83.4283 209.005C83.9637 208.279 84.2314 207.318 84.2314 206.124C84.2314 204.91 83.9637 204.074 83.4283 203.615C82.9019 203.144 82.1033 203.037 81.0324 203.294L79.3988 203.686V210.854ZM87.3275 210.336V200.396L93.6168 198.887V200.273L88.7977 201.429V204.327L93.4534 203.21V204.554L88.7977 205.671V208.597L93.7257 207.414V208.8L87.3275 210.336ZM95.623 208.345V198.405L97.0932 198.052V202.798L101.164 197.075L102.947 196.647L99.2441 201.876L103.192 206.528L101.463 206.943L98.264 203.175L97.0932 204.8V207.992L95.623 208.345ZM109.174 206.632C107.921 204.972 107.295 203.116 107.295 201.063C107.295 199 107.921 196.843 109.174 194.592L110.453 194.284C109.319 196.573 108.752 198.716 108.752 200.713C108.752 201.712 108.892 202.681 109.174 203.622C109.464 204.551 109.891 205.452 110.453 206.324L109.174 206.632ZM111.815 204.457V194.517L114.919 193.772C116.435 193.408 117.601 193.562 118.418 194.234C119.234 194.897 119.643 196.026 119.643 197.622C119.643 199.209 119.239 200.529 118.431 201.581C117.633 202.632 116.489 203.335 115.001 203.693L111.815 204.457ZM113.285 202.719L114.919 202.326C115.99 202.069 116.789 201.583 117.315 200.869C117.85 200.143 118.118 199.183 118.118 197.988C118.118 196.775 117.85 195.939 117.315 195.479C116.789 195.008 115.99 194.901 114.919 195.158L113.285 195.551V202.719ZM123.399 201.845C122.645 202.025 122.042 201.993 121.588 201.747C121.143 201.499 120.921 201.053 120.921 200.409C120.921 199.765 121.107 199.221 121.479 198.777C121.86 198.322 122.446 197.92 123.235 197.572L125.726 196.484C125.726 195.905 125.595 195.507 125.332 195.29C125.068 195.064 124.678 195.013 124.161 195.138C123.698 195.249 123.335 195.443 123.072 195.721C122.809 195.99 122.627 196.341 122.527 196.776L121.044 197.034C121.18 196.255 121.515 195.586 122.051 195.028C122.595 194.468 123.299 194.085 124.161 193.878C125.141 193.642 125.885 193.734 126.393 194.154C126.911 194.561 127.169 195.251 127.169 196.221V199.119C127.169 199.297 127.197 199.416 127.251 199.478C127.315 199.528 127.414 199.536 127.551 199.504L127.809 199.442V200.618C127.764 200.638 127.691 200.665 127.591 200.698C127.492 200.731 127.387 200.761 127.278 200.787C126.97 200.861 126.702 200.874 126.475 200.826C126.257 200.776 126.094 200.647 125.985 200.44C125.876 200.223 125.822 199.914 125.822 199.513L125.971 199.547C125.899 199.891 125.74 200.218 125.495 200.529C125.259 200.838 124.955 201.112 124.583 201.35C124.22 201.577 123.825 201.742 123.399 201.845ZM123.63 200.613C124.066 200.508 124.438 200.335 124.746 200.093C125.055 199.842 125.295 199.541 125.468 199.192C125.64 198.842 125.726 198.472 125.726 198.08V197.604L123.603 198.534C123.167 198.722 122.859 198.932 122.677 199.162C122.505 199.381 122.418 199.63 122.418 199.91C122.418 200.227 122.523 200.449 122.732 200.577C122.949 200.692 123.249 200.705 123.63 200.613ZM131.432 199.748C130.743 199.913 130.235 199.872 129.908 199.624C129.581 199.376 129.418 198.906 129.418 198.215V191.033L130.861 190.687V197.757C130.861 198.102 130.933 198.323 131.079 198.419C131.224 198.515 131.446 198.527 131.746 198.455L132.78 198.206V199.424L131.432 199.748ZM128.315 194.266V193.048L132.78 191.976V193.194L128.315 194.266ZM136.148 198.784C135.394 198.965 134.791 198.932 134.337 198.686C133.892 198.439 133.67 197.993 133.67 197.349C133.67 196.705 133.856 196.161 134.228 195.717C134.609 195.261 135.195 194.859 135.984 194.511L138.475 193.423C138.475 192.844 138.344 192.447 138.081 192.23C137.818 192.004 137.427 191.953 136.91 192.077C136.447 192.188 136.084 192.382 135.821 192.66C135.558 192.929 135.376 193.28 135.276 193.715L133.793 193.973C133.929 193.194 134.264 192.525 134.8 191.967C135.344 191.407 136.048 191.024 136.91 190.817C137.89 190.581 138.634 190.673 139.143 191.093C139.66 191.501 139.918 192.19 139.918 193.16V196.058C139.918 196.236 139.946 196.355 140 196.417C140.064 196.467 140.164 196.476 140.3 196.443L140.558 196.381V197.557C140.513 197.577 140.44 197.604 140.341 197.637C140.241 197.67 140.136 197.7 140.027 197.726C139.719 197.8 139.451 197.813 139.224 197.765C139.006 197.715 138.843 197.586 138.734 197.379C138.625 197.162 138.571 196.853 138.571 196.452L138.721 196.486C138.648 196.83 138.489 197.158 138.244 197.468C138.008 197.777 137.704 198.051 137.332 198.289C136.969 198.517 136.574 198.681 136.148 198.784ZM136.379 197.552C136.815 197.448 137.187 197.274 137.495 197.032C137.804 196.781 138.044 196.48 138.217 196.131C138.389 195.782 138.475 195.411 138.475 195.019V194.543L136.352 195.473C135.916 195.661 135.608 195.871 135.426 196.101C135.254 196.32 135.167 196.569 135.167 196.849C135.167 197.166 135.272 197.389 135.481 197.516C135.698 197.632 135.998 197.644 136.379 197.552ZM145.277 196.424V186.484L151.566 184.974V186.36L146.747 187.517V190.415L151.402 189.297V190.641L146.747 191.759V194.685L151.675 193.502V194.888L145.277 196.424ZM153.422 194.468V187.02L154.743 186.703L154.797 188.678L154.62 188.623C154.702 188.118 154.856 187.689 155.083 187.336C155.31 186.983 155.587 186.697 155.914 186.478C156.24 186.251 156.594 186.091 156.975 185.999C157.52 185.869 157.969 185.887 158.323 186.054C158.686 186.209 158.958 186.48 159.14 186.866C159.33 187.24 159.426 187.698 159.426 188.239V193.027L157.983 193.374V189.034C157.983 188.595 157.937 188.237 157.847 187.96C157.756 187.683 157.606 187.491 157.397 187.382C157.189 187.274 156.916 187.26 156.581 187.34C156.072 187.462 155.659 187.734 155.342 188.156C155.024 188.577 154.865 189.119 154.865 189.782V194.122L153.422 194.468ZM164.287 192.028C163.597 192.194 162.994 192.18 162.476 191.987C161.959 191.794 161.56 191.437 161.279 190.916C160.997 190.396 160.857 189.744 160.857 188.96C160.857 188.176 160.997 187.461 161.279 186.814C161.56 186.159 161.959 185.61 162.476 185.169C162.994 184.718 163.597 184.41 164.287 184.244C164.877 184.102 165.399 184.085 165.853 184.19C166.315 184.284 166.687 184.498 166.969 184.832C167.259 185.164 167.445 185.609 167.527 186.168L166.016 186.615C165.943 186.147 165.753 185.824 165.444 185.646C165.136 185.459 164.75 185.421 164.287 185.532C163.679 185.678 163.203 186.026 162.858 186.575C162.522 187.113 162.354 187.788 162.354 188.6C162.354 189.412 162.522 190.011 162.858 190.397C163.203 190.772 163.679 190.886 164.287 190.74C164.75 190.629 165.136 190.406 165.444 190.07C165.753 189.726 165.943 189.274 166.016 188.715L167.527 188.436C167.445 189.025 167.259 189.565 166.969 190.054C166.687 190.542 166.315 190.958 165.853 191.302C165.399 191.645 164.877 191.886 164.287 192.028ZM168.844 190.766V183.318L170.164 183.001L170.218 184.962L170.096 184.95C170.196 184.254 170.395 183.716 170.695 183.336C171.003 182.954 171.416 182.701 171.934 182.576L172.628 182.41V183.74L171.934 183.906C171.571 183.993 171.267 184.127 171.022 184.307C170.777 184.487 170.591 184.719 170.463 185.001C170.346 185.282 170.287 185.622 170.287 186.024V190.42L168.844 190.766ZM174.277 191.562V190.344L175.162 190.131C175.407 190.072 175.588 189.992 175.706 189.889C175.824 189.786 175.915 189.638 175.979 189.445L176.21 188.774L175.761 188.881L173.147 182.285L174.672 181.919L176.659 187.294L178.552 180.987L180.09 180.618L177.204 189.627C177.059 190.091 176.841 190.456 176.55 190.722C176.269 190.985 175.874 191.178 175.366 191.3L174.277 191.562ZM181.074 189.93V180.382L182.435 180.055L182.476 181.641L182.313 181.596C182.494 181.002 182.794 180.515 183.211 180.135C183.629 179.745 184.11 179.485 184.654 179.354C185.362 179.184 185.943 179.227 186.397 179.482C186.86 179.726 187.2 180.115 187.418 180.651C187.645 181.184 187.758 181.801 187.758 182.501C187.758 183.201 187.645 183.872 187.418 184.515C187.2 185.155 186.86 185.713 186.397 186.188C185.943 186.652 185.362 186.968 184.654 187.138C184.291 187.226 183.951 187.242 183.633 187.187C183.316 187.133 183.043 187.016 182.817 186.838C182.599 186.647 182.445 186.4 182.354 186.095L182.517 185.887V189.583L181.074 189.93ZM184.396 185.912C184.977 185.773 185.43 185.435 185.757 184.9C186.093 184.362 186.261 183.682 186.261 182.861C186.261 182.039 186.093 181.44 185.757 181.064C185.43 180.685 184.977 180.565 184.396 180.704C184.015 180.796 183.683 180.973 183.402 181.237C183.121 181.491 182.903 181.833 182.749 182.262C182.594 182.691 182.517 183.19 182.517 183.759C182.517 184.329 182.59 184.792 182.735 185.149C182.889 185.504 183.107 185.746 183.388 185.874C183.679 185.991 184.015 186.004 184.396 185.912ZM191.735 185.271C191.045 185.436 190.537 185.395 190.21 185.147C189.883 184.898 189.72 184.429 189.72 183.738V176.556L191.163 176.21V183.28C191.163 183.625 191.235 183.846 191.381 183.942C191.526 184.037 191.748 184.049 192.048 183.977L193.082 183.729V184.947L191.735 185.271ZM188.617 179.789V178.571L193.082 177.499V178.717L188.617 179.789ZM194.461 184.616V177.168L195.904 176.821V184.269L194.461 184.616ZM194.434 176.096V174.612L195.932 174.253V175.737L194.434 176.096ZM200.793 183.264C200.103 183.429 199.499 183.416 198.982 183.223C198.465 183.029 198.066 182.673 197.784 182.152C197.503 181.632 197.362 180.979 197.362 180.195C197.362 179.402 197.503 178.682 197.784 178.036C198.066 177.39 198.465 176.846 198.982 176.405C199.499 175.954 200.103 175.645 200.793 175.48C201.482 175.314 202.086 175.333 202.603 175.535C203.121 175.728 203.52 176.08 203.801 176.592C204.083 177.103 204.223 177.755 204.223 178.548C204.223 179.332 204.083 180.052 203.801 180.708C203.52 181.363 203.121 181.912 202.603 182.353C202.086 182.795 201.482 183.098 200.793 183.264ZM200.793 181.976C201.41 181.828 201.886 181.485 202.222 180.947C202.558 180.399 202.726 179.72 202.726 178.908C202.726 178.096 202.558 177.501 202.222 177.125C201.886 176.739 201.41 176.62 200.793 176.768C200.185 176.914 199.708 177.262 199.363 177.811C199.028 178.349 198.86 179.024 198.86 179.836C198.86 180.648 199.028 181.247 199.363 181.633C199.708 182.008 200.185 182.122 200.793 181.976ZM205.682 181.922V174.474L207.002 174.157L207.056 176.132L206.879 176.077C206.961 175.572 207.115 175.143 207.342 174.789C207.569 174.436 207.846 174.151 208.173 173.932C208.499 173.704 208.853 173.545 209.235 173.453C209.779 173.322 210.228 173.341 210.582 173.508C210.945 173.663 211.218 173.934 211.399 174.32C211.59 174.694 211.685 175.152 211.685 175.693V180.481L210.242 180.827V176.487C210.242 176.049 210.197 175.691 210.106 175.414C210.015 175.137 209.865 174.944 209.657 174.836C209.448 174.727 209.176 174.713 208.84 174.794C208.332 174.916 207.919 175.188 207.601 175.609C207.283 176.031 207.125 176.573 207.125 177.236V181.576L205.682 181.922ZM217.184 179.161V169.221L218.655 168.868V173.614L222.725 167.89L224.508 167.462L220.806 172.691L224.753 177.343L223.025 177.758L219.825 173.991L218.655 175.616V178.808L217.184 179.161ZM228.285 176.664C227.577 176.834 226.964 176.822 226.447 176.629C225.939 176.433 225.544 176.076 225.263 175.555C224.991 175.032 224.854 174.379 224.854 173.595C224.854 172.811 224.991 172.097 225.263 171.453C225.544 170.798 225.939 170.25 226.447 169.811C226.955 169.362 227.554 169.055 228.244 168.889C228.898 168.733 229.474 168.753 229.973 168.95C230.472 169.138 230.858 169.494 231.13 170.017C231.411 170.537 231.552 171.213 231.552 172.043V172.421L226.352 173.67C226.388 174.389 226.574 174.89 226.91 175.174C227.255 175.455 227.718 175.526 228.299 175.386C228.725 175.284 229.079 175.096 229.36 174.823C229.642 174.551 229.837 174.228 229.946 173.857L231.443 173.595C231.253 174.332 230.876 174.982 230.313 175.547C229.76 176.1 229.084 176.472 228.285 176.664ZM226.352 172.55L230.027 171.667C229.982 171.015 229.796 170.57 229.469 170.331C229.152 170.09 228.743 170.03 228.244 170.149C227.727 170.274 227.3 170.544 226.964 170.961C226.638 171.366 226.434 171.895 226.352 172.55ZM233.197 177.416V176.198L234.081 175.986C234.327 175.927 234.508 175.846 234.626 175.743C234.744 175.64 234.835 175.492 234.898 175.3L235.13 174.628L234.68 174.736L232.067 168.14L233.591 167.774L235.579 173.148L237.471 166.842L239.009 166.473L236.123 175.482C235.978 175.946 235.76 176.311 235.47 176.577C235.189 176.84 234.794 177.033 234.286 177.155L233.197 177.416ZM240.762 175.04L239.482 175.347C240.045 174.204 240.467 173.1 240.748 172.033C241.039 170.956 241.184 169.917 241.184 168.919C241.184 166.921 240.617 165.051 239.482 163.307L240.762 163C242.014 164.65 242.641 166.506 242.641 168.569C242.641 170.622 242.014 172.779 240.762 175.04Z" fill="#0A0A0A"/>
<path d="M77.0379 230.807L79.4649 221.704L81.0518 221.323L83.4788 229.26L82.207 229.566L80.2583 222.822L78.3097 230.501L77.0379 230.807ZM78.3914 228.262L78.7648 227.008L81.7519 226.291L82.1253 227.365L78.3914 228.262ZM84.7811 228.948V220.428L89.8686 219.206V220.394L86.0063 221.322V223.806L89.7286 222.912V224.064L86.0063 224.958V227.466L89.9619 226.516V227.704L84.7811 228.948ZM94.3564 226.841C93.7574 226.985 93.2323 226.987 92.7811 226.847C92.3377 226.706 91.9838 226.447 91.7193 226.07C91.4548 225.686 91.2992 225.203 91.2526 224.622L92.5128 224.236C92.5672 224.631 92.6761 224.948 92.8395 225.189C93.0028 225.43 93.2168 225.591 93.4812 225.671C93.7457 225.744 94.053 225.738 94.403 225.654C94.7453 225.572 95.0331 225.459 95.2665 225.314C95.4999 225.162 95.6788 224.983 95.8033 224.778C95.9277 224.572 95.99 224.345 95.99 224.097C95.99 223.841 95.9316 223.631 95.8149 223.467C95.6982 223.303 95.4882 223.177 95.1848 223.09C94.8815 223.003 94.4381 222.945 93.8546 222.917C93.2868 222.894 92.8239 222.825 92.4661 222.711C92.1083 222.597 91.8477 222.411 91.6843 222.154C91.5209 221.898 91.4393 221.549 91.4393 221.109C91.4393 220.621 91.5482 220.167 91.766 219.747C91.9916 219.317 92.3105 218.948 92.7228 218.641C93.1429 218.332 93.6446 218.108 94.228 217.968C94.8037 217.83 95.2937 217.828 95.6982 217.963C96.1105 218.096 96.4334 218.342 96.6667 218.702C96.9079 219.052 97.0557 219.497 97.1101 220.036L95.8499 220.41C95.811 220.092 95.7216 219.825 95.5816 219.611C95.4493 219.395 95.2665 219.246 95.0331 219.167C94.7998 219.079 94.5197 219.074 94.193 219.152C93.7341 219.262 93.3684 219.466 93.0962 219.764C92.8317 220.051 92.6995 220.379 92.6995 220.747C92.6995 220.995 92.7539 221.186 92.8628 221.32C92.9717 221.453 93.1623 221.552 93.4346 221.614C93.7068 221.677 94.088 221.717 94.5781 221.736C95.2393 221.761 95.7644 221.847 96.1533 221.994C96.5423 222.14 96.8223 222.361 96.9934 222.656C97.1646 222.951 97.2501 223.33 97.2501 223.794C97.2501 224.258 97.1296 224.699 96.8884 225.117C96.6473 225.527 96.3089 225.884 95.8733 226.189C95.4454 226.484 94.9398 226.701 94.3564 226.841ZM99.3576 222.508V221.392L103.138 220.485V221.601L99.3576 222.508ZM105.304 224.021C105.304 223.389 105.393 222.803 105.572 222.264C105.751 221.725 106.066 221.186 106.517 220.645C106.976 220.095 107.61 219.503 108.419 218.869C108.769 218.601 109.053 218.357 109.271 218.136C109.489 217.916 109.648 217.698 109.75 217.481C109.851 217.265 109.901 217.021 109.901 216.749C109.901 216.469 109.847 216.242 109.738 216.068C109.629 215.894 109.466 215.778 109.248 215.718C109.03 215.65 108.758 215.656 108.431 215.734C107.902 215.861 107.486 216.105 107.183 216.466C106.887 216.825 106.7 217.281 106.622 217.836L105.351 218.058C105.436 217.197 105.743 216.455 106.272 215.832C106.801 215.201 107.521 214.776 108.431 214.558C109.022 214.416 109.52 214.4 109.925 214.511C110.337 214.62 110.648 214.838 110.858 215.163C111.068 215.489 111.173 215.9 111.173 216.396C111.173 216.836 111.103 217.232 110.963 217.586C110.823 217.94 110.59 218.292 110.263 218.642C109.936 218.993 109.489 219.392 108.921 219.84C108.447 220.218 108.05 220.573 107.731 220.906C107.42 221.229 107.183 221.526 107.019 221.797C106.864 222.058 106.778 222.287 106.762 222.483L111.185 221.421V222.609L105.304 224.021ZM115.218 221.833C114.665 221.965 114.183 221.981 113.771 221.88C113.366 221.769 113.043 221.563 112.802 221.261C112.569 220.949 112.433 220.561 112.394 220.099L113.666 219.709C113.72 220.136 113.883 220.429 114.156 220.588C114.428 220.738 114.782 220.761 115.218 220.657C115.708 220.539 116.097 220.294 116.384 219.921C116.672 219.539 116.816 219.065 116.816 218.497C116.816 218.129 116.75 217.825 116.618 217.584C116.493 217.342 116.314 217.181 116.081 217.101C115.848 217.013 115.568 217.009 115.241 217.087C114.937 217.16 114.65 217.309 114.377 217.534C114.113 217.75 113.926 218.007 113.817 218.305L112.522 218.592L113.059 213.639L117.621 212.544V213.732L114.121 214.572L113.782 217.593L113.537 217.472C113.662 217.202 113.821 216.964 114.016 216.757C114.218 216.549 114.44 216.375 114.681 216.238C114.93 216.09 115.179 215.986 115.428 215.926C115.964 215.797 116.431 215.809 116.828 215.962C117.232 216.113 117.543 216.382 117.761 216.77C117.979 217.158 118.088 217.636 118.088 218.204C118.088 218.772 117.967 219.308 117.726 219.814C117.485 220.32 117.147 220.75 116.711 221.102C116.283 221.453 115.785 221.696 115.218 221.833ZM122.261 220.142C121.623 220.295 121.078 220.278 120.627 220.09C120.184 219.9 119.845 219.55 119.612 219.038C119.386 218.516 119.274 217.851 119.274 217.043C119.274 216.339 119.332 215.665 119.449 215.021C119.565 214.377 119.752 213.792 120.009 213.266C120.265 212.741 120.604 212.296 121.024 211.931C121.444 211.566 121.961 211.31 122.576 211.162C123.089 211.039 123.517 211.024 123.859 211.118C124.209 211.202 124.489 211.375 124.699 211.636C124.917 211.896 125.081 212.213 125.189 212.587L123.929 212.997C123.852 212.72 123.708 212.518 123.498 212.393C123.295 212.257 122.988 212.239 122.576 212.338C122.156 212.439 121.794 212.65 121.491 212.971C121.195 213.29 120.962 213.722 120.79 214.267C120.619 214.812 120.526 215.478 120.51 216.266L120.207 216.291C120.293 215.99 120.437 215.696 120.639 215.407C120.849 215.117 121.109 214.862 121.421 214.643C121.732 214.417 122.09 214.255 122.494 214.158C123.046 214.025 123.521 214.031 123.918 214.176C124.322 214.311 124.637 214.571 124.863 214.957C125.088 215.335 125.201 215.812 125.201 216.388C125.201 217.02 125.077 217.594 124.828 218.109C124.579 218.617 124.237 219.047 123.801 219.4C123.365 219.753 122.852 220 122.261 220.142ZM122.261 218.954C122.774 218.83 123.179 218.573 123.474 218.182C123.778 217.79 123.929 217.301 123.929 216.717C123.929 216.173 123.789 215.779 123.509 215.534C123.229 215.281 122.844 215.214 122.354 215.331C122.004 215.415 121.693 215.562 121.421 215.771C121.156 215.979 120.946 216.233 120.79 216.535C120.643 216.834 120.569 217.164 120.569 217.524C120.569 217.876 120.635 218.176 120.767 218.424C120.907 218.671 121.106 218.843 121.362 218.941C121.619 219.032 121.918 219.036 122.261 218.954ZM127.344 215.789V214.673L131.124 213.766V214.882L127.344 215.789ZM136.219 216.791C135.62 216.935 135.091 216.894 134.632 216.668C134.173 216.442 133.811 216.033 133.547 215.44C133.282 214.84 133.15 214.055 133.15 213.087C133.15 212.167 133.274 211.346 133.523 210.622C133.772 209.898 134.126 209.301 134.585 208.831C135.052 208.351 135.608 208.033 136.254 207.878C136.775 207.753 137.234 207.759 137.631 207.896C138.027 208.033 138.358 208.281 138.622 208.642C138.895 209 139.089 209.45 139.206 209.99L137.934 210.379C137.817 209.887 137.619 209.519 137.339 209.274C137.067 209.027 136.709 208.957 136.265 209.064C135.876 209.157 135.542 209.365 135.262 209.688C134.99 210.002 134.78 210.42 134.632 210.944C134.492 211.465 134.422 212.078 134.422 212.782C134.422 213.478 134.496 214.052 134.643 214.505C134.791 214.949 135.005 215.266 135.285 215.455C135.573 215.634 135.919 215.675 136.324 215.578C136.682 215.492 136.989 215.326 137.246 215.08C137.502 214.827 137.701 214.515 137.841 214.145C137.988 213.766 138.07 213.35 138.086 212.899L136.265 213.336V212.244L139.218 211.535V215.879L138.226 216.117L138.167 214.175L138.482 214.087C138.397 214.516 138.257 214.917 138.062 215.292C137.876 215.665 137.631 215.984 137.327 216.249C137.024 216.505 136.654 216.686 136.219 216.791ZM143.262 215.1C142.593 215.26 142.025 215.217 141.558 214.969C141.099 214.719 140.749 214.291 140.508 213.685C140.267 213.079 140.146 212.32 140.146 211.408C140.146 210.488 140.267 209.667 140.508 208.945C140.749 208.223 141.099 207.627 141.558 207.157C142.025 206.677 142.593 206.356 143.262 206.196C144.016 206.015 144.65 206.118 145.164 206.507C145.685 206.894 146.027 207.528 146.191 208.409L144.907 208.789C144.79 208.225 144.584 207.826 144.289 207.593C144.001 207.35 143.659 207.277 143.262 207.372C142.857 207.469 142.519 207.678 142.247 208C141.974 208.321 141.768 208.742 141.628 209.264C141.488 209.786 141.418 210.398 141.418 211.102C141.418 211.798 141.488 212.374 141.628 212.828C141.768 213.274 141.974 213.593 142.247 213.784C142.519 213.974 142.857 214.021 143.262 213.924C143.69 213.821 144.055 213.565 144.359 213.156C144.662 212.748 144.864 212.207 144.965 211.535L146.237 211.289C146.097 212.299 145.767 213.138 145.246 213.808C144.724 214.477 144.063 214.907 143.262 215.1ZM149.757 212.317L148.333 206.562L148.461 206.519V213.659L147.283 213.942V205.422L148.917 205.03L150.457 211.128L149.99 211.241L151.53 204.403L153.164 204.011V212.531L151.985 212.813V205.673L152.114 205.655L150.69 212.092L149.757 212.317Z" fill="#717680"/>
<rect width="347" height="259" fill="url(#paint0_linear_262_68299)"/>
<rect width="347" height="259" fill="url(#paint1_linear_262_68299)"/>
<path d="M2.05016 78.5467V70.0267L7.09093 68.8165V69.8245L3.05365 70.7938V73.5418L6.9509 72.6061V73.5901L3.05365 74.5258V77.2978L7.18427 76.3061V77.3141L2.05016 78.5467ZM8.8133 76.923V68.403L10.2368 68.0613L13.1773 74.6993V67.3553L14.1808 67.1144V75.6344L12.7572 75.9762L9.81678 69.3381V76.6821L8.8133 76.923ZM18.5169 74.7854C17.8557 74.9441 17.2956 74.8986 16.8366 74.6488C16.3777 74.399 16.0276 73.971 15.7865 73.3649C15.5531 72.7569 15.4364 71.997 15.4364 71.085C15.4364 70.165 15.5531 69.3449 15.7865 68.6249C16.0276 67.903 16.3777 67.307 16.8366 66.8368C17.2956 66.3586 17.8557 66.0401 18.5169 65.8814C19.2481 65.7058 19.8704 65.8044 20.3838 66.1772C20.8972 66.5419 21.2395 67.1437 21.4107 67.9827L20.3372 68.3124C20.2049 67.7281 19.9754 67.3192 19.6487 67.0857C19.3298 66.8502 18.9525 66.7848 18.5169 66.8894C18.0735 66.9958 17.7001 67.2215 17.3967 67.5663C17.1011 67.9013 16.8755 68.3475 16.7199 68.9048C16.5644 69.4542 16.4866 70.0968 16.4866 70.8328C16.4866 71.5608 16.5644 72.1622 16.7199 72.6368C16.8755 73.1115 17.1011 73.4493 17.3967 73.6503C17.7001 73.8415 18.0735 73.8838 18.5169 73.7774C18.9992 73.6616 19.4076 73.3916 19.7421 72.9673C20.0766 72.543 20.3022 71.9768 20.4188 71.2688L21.4807 71.0739C21.3329 72.0453 20.9984 72.8616 20.4772 73.5228C19.956 74.1759 19.3026 74.5968 18.5169 74.7854ZM22.8063 73.5636V65.0436L25.3267 64.4385C26.1979 64.2293 26.8864 64.2921 27.392 64.6267C27.8976 64.9533 28.1505 65.5126 28.1505 66.3046C28.1505 66.7046 28.061 67.0821 27.8821 67.437C27.7032 67.784 27.4737 68.0791 27.1936 68.3223C26.9136 68.5655 26.6258 68.7346 26.3302 68.8296L26.2835 68.6968C26.8358 68.5962 27.2481 68.6332 27.5204 68.8079C27.8004 68.9806 27.9638 69.3334 28.0104 69.8662L28.2205 72.2638L27.217 72.5047L27.0186 70.2363C26.9953 69.9779 26.933 69.7809 26.8319 69.6451C26.7386 69.4995 26.5869 69.416 26.3768 69.3944C26.1746 69.3629 25.8946 69.3902 25.5367 69.4761L23.8098 69.8907V73.3227L22.8063 73.5636ZM23.8098 68.8827L25.3267 68.5185C25.9023 68.3803 26.3418 68.1428 26.6452 67.806C26.9486 67.4611 27.1003 67.0447 27.1003 66.5567C27.1003 66.0607 26.9486 65.7171 26.6452 65.526C26.3418 65.3348 25.9023 65.3083 25.3267 65.4465L23.8098 65.8107V68.8827ZM31.9965 71.3572V67.8772L29.4528 63.4479L30.5963 63.1734L32.4866 66.7036L34.3768 62.2658L35.5203 61.9912L33 67.6363V71.1163L31.9965 71.3572ZM37.0327 70.1481V61.6281L39.5531 61.0231C40.1287 60.8849 40.6305 60.8684 41.0583 60.9737C41.4861 61.079 41.8167 61.2996 42.0501 61.6356C42.2835 61.9635 42.4002 62.3995 42.4002 62.9435C42.4002 63.4875 42.2835 63.9835 42.0501 64.4316C41.8167 64.8716 41.4861 65.247 41.0583 65.5577C40.6305 65.8684 40.1287 66.0929 39.5531 66.2311L38.0362 66.5952V69.9072L37.0327 70.1481ZM38.0362 65.5872L39.4364 65.2511C40.0898 65.0942 40.5721 64.8424 40.8833 64.4957C41.1944 64.141 41.35 63.7076 41.35 63.1956C41.35 62.6756 41.1944 62.317 40.8833 62.1197C40.5721 61.9224 40.0898 61.9022 39.4364 62.0591L38.0362 62.3952V65.5872ZM45.9778 68.0006V60.4886L43.4458 61.0965V60.0885L49.5134 58.6318V59.6398L46.9813 60.2477V67.7597L45.9778 68.0006ZM50.909 66.8167V65.8087L52.9743 65.3129V58.8089L50.909 59.3047V58.2967L56.0431 57.0641V58.0721L53.9778 58.568V65.072L56.0431 64.5761V65.5841L50.909 66.8167ZM60.4726 64.7127C59.8191 64.8696 59.2629 64.8311 58.804 64.5973C58.3528 64.3616 58.0066 63.9407 57.7655 63.3346C57.5321 62.7267 57.4154 61.9507 57.4154 61.0067C57.4154 60.0467 57.5321 59.2067 57.7655 58.4866C58.0066 57.7647 58.3528 57.1776 58.804 56.7253C59.2629 56.2711 59.8191 55.9656 60.4726 55.8087C61.126 55.6519 61.6783 55.6913 62.1295 55.9269C62.5885 56.1607 62.9346 56.5816 63.168 57.1896C63.4091 57.7957 63.5297 58.5788 63.5297 59.5388C63.5297 60.4828 63.4091 61.3157 63.168 62.0376C62.9346 62.7576 62.5885 63.3447 62.1295 63.7989C61.6783 64.2513 61.126 64.5559 60.4726 64.7127ZM60.4726 63.7047C60.9004 63.602 61.2621 63.3872 61.5577 63.0602C61.8611 62.7234 62.0906 62.2803 62.2462 61.7309C62.4018 61.1816 62.4795 60.5349 62.4795 59.7909C62.4795 59.0469 62.4018 58.4376 62.2462 57.9629C62.0906 57.4803 61.8611 57.1434 61.5577 56.9522C61.2621 56.7592 60.9004 56.714 60.4726 56.8167C60.0447 56.9194 59.6791 57.1392 59.3757 57.4761C59.0801 57.811 58.8546 58.2572 58.699 58.8145C58.5434 59.3639 58.4656 60.0106 58.4656 60.7546C58.4656 61.4986 58.5434 62.1079 58.699 62.5825C58.8546 63.0572 59.0801 63.391 59.3757 63.5841C59.6791 63.7672 60.0447 63.8074 60.4726 63.7047ZM64.7853 63.4853V54.9653L66.2089 54.6236L69.1493 61.2616V53.9176L70.1528 53.6767V62.1967L68.7293 62.5385L65.7888 55.9004V63.2444L64.7853 63.4853Z" fill="#2F5FAD"/>
</g>
<defs>
<linearGradient id="paint0_linear_262_68299" x1="0" y1="129.5" x2="347" y2="129.5" gradientUnits="userSpaceOnUse">
<stop offset="0.6" stop-color="white" stop-opacity="0"/>
<stop offset="1" stop-color="white"/>
</linearGradient>
<linearGradient id="paint1_linear_262_68299" x1="173.5" y1="0" x2="173.5" y2="259" gradientUnits="userSpaceOnUse">
<stop stop-color="white"/>
<stop offset="0.3" stop-color="white" stop-opacity="0"/>
</linearGradient>
<clipPath id="clip0_262_68299">
<rect width="347" height="259" fill="white"/>
</clipPath>
</defs>
</svg>
