<svg xmlns="http://www.w3.org/2000/svg" width="125" height="154" fill="none" viewBox="0 0 125 154"><path fill="#3b82f6" d="M125 38.642c0-10.249-4.116-20.078-11.441-27.324S96.298 0 85.938 0H39.063C28.703 0 18.767 4.071 11.44 11.318S0 28.393 0 38.642v107.631c0 1.455.415 2.879 1.198 4.11a7.8 7.8 0 0 0 3.223 2.851 7.9 7.9 0 0 0 4.263.718 7.86 7.86 0 0 0 3.996-1.635l28.78-22.644a31.47 31.47 0 0 1 19.454-6.724h25.024c10.36 0 20.295-4.071 27.621-11.317S125 94.556 125 84.308z" style="mix-blend-mode:color-burn"/></svg>