<svg xmlns="http://www.w3.org/2000/svg" width="8" height="11" fill="none" viewBox="0 0 8 11"><path fill="#414651" d="M7.991.547q-.71.902-1.401 1.79-.684.89-1.354 1.785A83 83 0 0 1 6.72 7.314l-.199.165.014.143q-.06.062-.137.116a1 1 0 0 1-.157.09l.075.225a.7.7 0 0 1-.191.225.7.7 0 0 1-.253.11q-.143-.007-.615-.67-.465-.67-1.237-1.962-.732 1.005-1.422 2.071-.684 1.067-1.327 2.201a1.5 1.5 0 0 1-.71.164H.479a1.7 1.7 0 0 1-.322-.396Q.041 9.59.041 9.468q0-.069.02-.164.021-.096.062-.24L0 8.84q.246-.622 1.04-1.75a57 57 0 0 1 2.166-2.83 88 88 0 0 1-.554-1.511Q2.38 1.962 2.044.957q.09-.191.191-.308.103-.116.185-.116.054 0 .11.034.053.028.116.096A.3.3 0 0 1 2.74.602a.3.3 0 0 1 .116-.028h.055A.64.64 0 0 1 3.138.37h.013q.199 0 .752 1.176.335.71.56 1.162.404-.465 1.04-1.224Q6.72.034 6.843.034q.075 0 .191.069.123.06.287.19L7.63 0q.11.116.198.253.096.137.164.294"/></svg>