<svg width="10" height="11" viewBox="0 0 10 11" fill="none" xmlns="http://www.w3.org/2000/svg">
<path d="M3.48047 10.377C3.05664 9.61133 2.73079 9.0485 2.50293 8.68848L2.14062 8.12109L1.86719 7.7041C1.27018 6.77441 0.648112 6.00651 0.000976562 5.40039C0.370117 5.09505 0.714193 4.94238 1.0332 4.94238C1.42513 4.94238 1.77376 5.08594 2.0791 5.37305C2.38444 5.66016 2.76953 6.20703 3.23438 7.01367C3.76302 5.29557 4.43522 3.66634 5.25098 2.12598C5.70215 1.28743 6.10319 0.724609 6.4541 0.4375C6.80957 0.145833 7.27897 0 7.8623 0C8.1722 0 8.55501 0.0478516 9.01074 0.143555C7.83952 1.08691 6.90299 2.20801 6.20117 3.50684C5.49935 4.80566 4.59245 7.0957 3.48047 10.377Z" fill="white"/>
</svg>
