<svg xmlns="http://www.w3.org/2000/svg" width="140" height="32" fill="none" viewBox="0 0 140 32"><path fill="#fff" fill-rule="evenodd" d="M46.753 14.76c0-2.28-1.946-3.76-4.449-3.76-2.96 0-4.489 1.7-4.568 3.74h2.86c.02-.72.417-1.4 1.51-1.4.893 0 1.39.42 1.39 1.02 0 .48-.278.84-.795.84h-1.43c-2.105 0-3.535 1.2-3.535 3.18 0 1.68 1.33 3.02 3.198 3.02 1.29 0 2.304-.56 2.562-1.4v1.24h3.257zm-3.257 2.44v.08c0 .94-.596 1.82-1.649 1.82-.576 0-1.013-.36-1.013-.88 0-.6.417-1.02.993-1.02zm4.14 8.12V11.16h3.277v.86c.576-.64 1.43-1.02 2.661-1.02 2.335 0 4.022 1.501 4.42 4.015C58.4 12.976 59.891 11 62.9 11c3.793 0 5.045 2.88 5.045 5 0 .46-.02.74-.04.98h-6.892c.199 1.12.894 1.76 2.085 1.76.894 0 1.51-.32 1.689-1h3.158l-.008.04h2.371c.1.72.715 1.2 1.55 1.2.695 0 1.171-.28 1.171-.72 0-.632-.769-.768-1.714-.935-1.51-.268-3.47-.615-3.47-3.185 0-1.82 1.59-3.14 3.595-3.14 2.503 0 4.191 1.34 4.27 3.38h-2.78c-.1-.68-.675-1.16-1.35-1.16-.616 0-1.033.26-1.033.78 0 .686.788.784 1.757.904 1.29.16 2.901.36 3.395 2.043a6 6 0 0 1-.046-.747c0-3.04 2.205-5.2 5.283-5.2 2.8 0 4.906 1.72 5.045 4.1h-3.297a1.65 1.65 0 0 0-1.629-1.3c-1.211 0-2.006.94-2.006 2.4s.815 2.4 2.046 2.4c.814 0 1.49-.56 1.629-1.32h3.356c-.258 2.3-2.522 4.12-5.144 4.12-2.572 0-4.534-1.508-5.11-3.776q.023.232.023.496c0 1.98-1.569 3.28-3.992 3.28-2.159 0-3.726-1.057-4.18-2.76-.716 1.714-2.464 2.76-4.579 2.76-3.038 0-4.672-2.015-5.105-4.076-.418 2.55-2.277 4.076-4.718 4.076-1.033 0-1.867-.24-2.363-.76v4.68zm5.183-6.72c1.232 0 2.066-.96 2.066-2.4s-.834-2.4-2.066-2.4c-1.25 0-2.085.96-2.085 2.4s.834 2.4 2.085 2.4m8.195-3.58c.218-1.22.834-1.68 1.887-1.68 1.132 0 1.748.82 1.807 1.68zm38.321 2.72c-.179.68-.794 1-1.688 1-1.192 0-1.887-.64-2.086-1.76h6.788c.316 2.175 1.959 4.42 5.166 4.42 2.463 0 4.429-1.42 4.846-3.66h-3.157c-.179.68-.795 1-1.689 1-1.191 0-1.886-.64-2.085-1.76h6.892c.02-.24.039-.52.039-.98 0-2.12-1.251-5-5.044-5-3.014 0-4.506 1.982-4.91 4.024-.338-1.93-1.725-4.024-4.959-4.024-2.29 0-3.701 1.144-4.424 2.59v-2.43H91.97c-1.112 0-1.847.32-2.423 1.52v-1.52H86.27v10.08h3.277v-5.1c0-1.42.636-2.26 1.728-2.26h1.614a6 6 0 0 0-.467 2.32c0 2.38 1.629 5.2 5.224 5.2 2.463 0 4.429-1.42 4.846-3.66zm-3.773-2.72c.218-1.22.834-1.68 1.886-1.68 1.132 0 1.748.82 1.808 1.68zm11.755-1.68c-1.053 0-1.669.46-1.887 1.68h3.694c-.059-.86-.675-1.68-1.807-1.68m8.617-2.18h-3.277v10.08h3.277v-5.56c0-1 .695-1.76 1.688-1.76s1.688.76 1.688 1.76v5.56h3.277V14.9c0-2.24-1.469-3.9-3.714-3.9-1.31 0-2.363.54-2.939 1.32zm12.172 7.58c.893 0 1.509-.32 1.688-1h3.158c-.417 2.24-2.384 3.66-4.846 3.66-3.595 0-5.224-2.82-5.224-5.2s1.43-5.2 5.025-5.2c3.794 0 5.045 2.88 5.045 5 0 .46-.02.74-.04.98h-6.892c.199 1.12.894 1.76 2.086 1.76m-.199-5.4c-1.053 0-1.668.46-1.887 1.68h3.694c-.059-.86-.675-1.68-1.807-1.68m12.093.54h-1.748c-1.092 0-1.728.84-1.728 2.26v5.1h-3.277V11.16h3.277v1.52c.576-1.2 1.311-1.52 2.423-1.52H140z" clip-rule="evenodd"/><path fill="url(#a)" fill-rule="evenodd" d="M31.774 18.304v-4.68q-.003-2.985.001-5.97a7.6 7.6 0 0 0-.569-2.973 7.6 7.6 0 0 0-1.33-2.13c-.554-.626-1.18-1.165-1.918-1.554a8.3 8.3 0 0 0-1.394-.604c-.54-.167-1.102-.308-1.662-.351-.632-.049-1.27-.044-1.906-.04q-.287.003-.575.004h-1.043Q15.116 0 8.852.005l-.465.001c-.69-.005-1.38-.01-2.07.105Q5.21.29 4.209.77c-.687.327-1.3.776-1.86 1.3A7.4 7.4 0 0 0 .867 4.026C.574 4.576.33 5.153.23 5.776q-.036.216-.076.433C.077 6.635 0 7.062 0 7.489c0 .47.078.94.156 1.408q.036.215.068.428c.086.564.314 1.083.556 1.592a6.5 6.5 0 0 0 1.118 1.657c.33.352.68.692 1.056.992a6.2 6.2 0 0 0 2.049 1.1c.528.16 1.069.301 1.615.374.488.065.993.055 1.487.024a6.5 6.5 0 0 0 1.328-.208c.479-.134.943-.332 1.399-.536a5.5 5.5 0 0 0 1.607-1.08c.533-.517 1.059-1.043 1.585-1.57.474-.473.947-.947 1.427-1.415q.258-.256.506-.521c.471-.497.943-.995 1.555-1.334.456-.252.935-.444 1.45-.499.633-.067 1.273-.105 1.884.133l.04.015c.384.15.774.301 1.121.518.675.42 1.172 1.01 1.532 1.734a4.5 4.5 0 0 1 .458 1.801c.025.486-.05.964-.2 1.434-.194.612-.475 1.177-.916 1.633-.676.7-1.364 1.387-2.053 2.074q-.452.45-.902.902l-.356.352c-.288.282-.576.564-.843.866a7.7 7.7 0 0 0-1.403 2.271 7.4 7.4 0 0 0-.493 1.946c-.1.978-.047 1.949.232 2.905.168.576.376 1.131.665 1.652a7.5 7.5 0 0 0 2.017 2.329c.65.499 1.356.899 2.145 1.128.416.12.84.234 1.269.295.475.068.96.12 1.438.093.537-.03 1.071-.135 1.6-.247.797-.168 1.523-.522 2.2-.968a7.5 7.5 0 0 0 1.573-1.393 7.45 7.45 0 0 0 1.477-2.68 7.6 7.6 0 0 0 .33-2.282q-.006-3.054-.003-6.108M7.447 32a7.46 7.46 0 0 0 7.534-7.548c.055-4.104-3.27-7.562-7.49-7.544-4.132.017-7.455 3.235-7.49 7.485C-.033 28.635 3.255 31.96 7.447 32" clip-rule="evenodd"/><defs><linearGradient id="a" x1="1.633" x2="27.333" y1="33.459" y2="3.818" gradientUnits="userSpaceOnUse"><stop stop-color="#ff0080"/><stop offset=".495" stop-color="#ff8c00"/><stop offset="1" stop-color="#8fff00"/></linearGradient></defs></svg>