<svg xmlns="http://www.w3.org/2000/svg" width="351" height="208" fill="none" viewBox="0 0 351 208"><rect width="47" height="47" y=".5" fill="#f9fafb" rx="7.5" transform="matrix(.86604 .49997 -.86604 .49997 201.22 89.332)"/><rect width="47" height="47" y=".5" stroke="#e9eaeb" rx="7.5" transform="matrix(.86604 .49997 -.86604 .49997 201.22 89.332)"/><path stroke="#3b82f6" stroke-linecap="round" stroke-linejoin="round" stroke-width="1.667" d="M206.562 112.665v1.916c.003.155.11.302.299.411s.444.171.711.173h3.031c.268-.002.523-.064.712-.173s.296-.256.299-.411v-1.916m2.885-.001h-13.857m-9.598 2.293c2.193 1.265 5.747 1.265 7.939 0 2.192-1.266 2.192-3.318 0-4.583s-5.746-1.266-7.939 0c-2.192 1.265-2.192 3.317 0 4.583"/><path fill="#f9fafb" d="m.217 141.062 48.068-27.73a.86.86 0 0 1 .864 0l48.068 27.73v4.658a.86.86 0 0 1-.433.748l-48.067 27.73-48.068-27.73a.86.86 0 0 1-.432-.748z"/><path stroke="#d5d7da" stroke-width=".432" d="m.217 141.062 48.5 27.979m-48.5-27.979 48.068-27.73a.86.86 0 0 1 .864 0l48.068 27.73m-97 0v4.658c0 .308.165.594.432.748l48.068 27.73m0-5.157 48.5-27.979m-48.5 27.979v5.157m48.5-33.136v4.658a.86.86 0 0 1-.433.748l-48.067 27.73"/><path fill="#2563eb" d="m43.723 146.655-11.795-14.489 4.13-2.384 25.099 6.809-3.534 2.04-5.898-1.635-7.3 4.215 2.832 3.405zm-1.195-7.679 5.326-3.075-10.444-2.97z"/><path fill="#3b82f6" d="m55.648 156.77-7.379-4.26 1.268-.732 8.98 2.16-6.36-3.672.893-.516 7.379 4.26-1.268.732-8.98-2.16 6.36 3.672zm8.747-4.905a4.6 4.6 0 0 1-1.684.564q-.915.12-1.87-.072a6.1 6.1 0 0 1-1.84-.702q-.883-.51-1.216-1.062t-.125-1.08q.218-.534.977-.972a4.5 4.5 0 0 1 1.673-.558 5.6 5.6 0 0 1 1.881.066 6 6 0 0 1 1.84.702q.873.504 1.216 1.062.333.552.114 1.086-.207.528-.966.966m-.832-.48q.759-.438.634-.99-.124-.564-1.08-1.116t-1.923-.618q-.968-.078-1.725.36-.76.438-.634 1.002.124.552 1.08 1.104t1.923.63q.967.066 1.725-.372m6.72-2.92a4.1 4.1 0 0 1-1.61.522 5.5 5.5 0 0 1-1.82-.102 6.5 6.5 0 0 1-1.808-.72q-.883-.51-1.247-1.044-.352-.54-.177-1.05.177-.51.905-.93a3.4 3.4 0 0 1 1.299-.425 4.4 4.4 0 0 1 1.247-.012l-2.64-1.524.873-.504 7.379 4.259-.79.456-.863-.462q.219.39.032.798-.198.402-.78.738m-.78-.51q.5-.288.603-.636.115-.354-.155-.726-.27-.384-.894-.744a4.7 4.7 0 0 0-1.3-.522 3.5 3.5 0 0 0-1.246-.084 2.8 2.8 0 0 0-1.123.36q-.675.39-.53.942.145.54 1.102 1.092.945.546 1.891.636.957.084 1.653-.318m7.448-3.339q-.78.45-1.704.576-.915.12-1.871-.072a6.3 6.3 0 0 1-1.83-.708q-.871-.504-1.215-1.05-.333-.552-.135-1.074.198-.534.956-.972a4.3 4.3 0 0 1 1.61-.534 5.4 5.4 0 0 1 1.84.066q.957.192 1.881.726l.26.15-4.011 2.316q.935.48 1.798.498a3.04 3.04 0 0 0 1.59-.402q.54-.312.634-.654.093-.354-.187-.672l1.008-.498q.519.552.384 1.182-.135.618-1.008 1.122m-4.988-1.02 3.055-1.764q-.862-.426-1.642-.408a2.9 2.9 0 0 0-1.393.372q-.633.366-.654.834-.021.456.634.966"/><rect width="14" height="14" fill="#4389fa" rx="3.309" transform="matrix(.86604 -.49997 .86604 .49997 36.217 122.082)"/><path stroke="#fff" stroke-linecap="round" stroke-linejoin="round" stroke-width=".804" d="M47.992 120.473h1.602a.7.7 0 0 0 .344-.084c.09-.052.142-.123.144-.198v-.844c-.002-.075-.053-.146-.144-.198a.7.7 0 0 0-.344-.084h-1.602m.002-.803v3.86m1.916 2.673c1.058-.61 1.058-1.601 0-2.211-1.058-.611-2.773-.611-3.83 0-1.058.61-1.058 1.601 0 2.211 1.057.611 2.772.611 3.83 0"/><path fill="#f9fafb" d="M193.217 28.062 241.285.332a.87.87 0 0 1 .864 0l48.068 27.73v4.658a.86.86 0 0 1-.433.748l-48.067 27.73-48.068-27.73a.87.87 0 0 1-.432-.748z"/><path stroke="#d5d7da" stroke-width=".432" d="m193.217 28.062 48.5 27.98m-48.5-27.98L241.285.332a.87.87 0 0 1 .864 0l48.068 27.73m-97 0v4.658c0 .309.165.594.432.748l48.068 27.73m0-5.157 48.5-27.98m-48.5 27.98v5.157m48.5-33.136v4.658a.86.86 0 0 1-.433.748l-48.067 27.73"/><path fill="#68c9f2" d="m238.741 32.49-18.446-10.649 6.911-3.99q3.377-1.95 6.313-2.264 2.962-.33 5.56 1.17 1.17.675 1.559 1.47.39.765-.052 1.59-.415.81-1.663 1.59l-.078-.016q2.443-1.32 4.937-1.35 2.468-.045 4.469 1.11 2.546 1.47 2.052 3.225-.493 1.725-3.715 3.585zm.52-3.6 4.313-2.49q1.585-.914 1.845-1.814.285-.915-.988-1.65t-2.858-.6q-1.584.135-3.195 1.065l-4.313 2.49zm-7.846-4.529 3.429-1.98q1.663-.96 1.975-1.86t-.884-1.59q-1.247-.72-2.754-.54t-3.221 1.17l-3.43 1.98zm17.233 19.409-7.379-4.26 1.268-.732 8.98 2.16-6.361-3.672.894-.515 7.379 4.26-1.268.731-8.979-2.16 6.36 3.672zm8.747-4.905a4.6 4.6 0 0 1-1.684.564 5.7 5.7 0 0 1-1.871-.072 6.1 6.1 0 0 1-1.839-.702q-.883-.51-1.216-1.062t-.125-1.08q.218-.534.977-.972a4.5 4.5 0 0 1 1.673-.558 5.6 5.6 0 0 1 1.881.066 6 6 0 0 1 1.84.702q.873.504 1.216 1.062.333.552.114 1.086-.208.528-.966.966m-.832-.48q.759-.438.634-.99-.124-.564-1.081-1.116-.956-.552-1.922-.618-.968-.078-1.725.36-.76.438-.634 1.002.124.552 1.08 1.104t1.923.63q.966.066 1.725-.372m6.72-2.92a4.1 4.1 0 0 1-1.611.522 5.5 5.5 0 0 1-1.818-.102 6.5 6.5 0 0 1-1.809-.72q-.883-.51-1.247-1.044-.353-.54-.176-1.05.176-.51.904-.93a3.4 3.4 0 0 1 1.299-.425 4.4 4.4 0 0 1 1.247-.013l-2.64-1.523.873-.504 7.379 4.26-.79.455-.863-.462q.219.39.032.798-.198.402-.78.738m-.779-.51q.498-.288.602-.636.115-.354-.155-.726-.27-.384-.894-.744a4.7 4.7 0 0 0-1.299-.521 3.5 3.5 0 0 0-1.247-.085 2.8 2.8 0 0 0-1.123.36q-.675.39-.53.942.145.54 1.102 1.092.945.546 1.891.636.956.084 1.653-.318m7.447-3.34q-.78.45-1.704.577-.915.12-1.871-.072a6.3 6.3 0 0 1-1.829-.708q-.873-.504-1.216-1.05-.333-.552-.135-1.074.197-.534.956-.972a4.3 4.3 0 0 1 1.611-.534 5.4 5.4 0 0 1 1.839.066 6.2 6.2 0 0 1 1.881.726l.26.15-4.011 2.316q.935.48 1.798.498a3.04 3.04 0 0 0 1.59-.402q.54-.312.634-.654.093-.354-.187-.672l1.008-.498q.519.552.384 1.182-.135.618-1.008 1.122m-4.988-1.02 3.055-1.763q-.862-.426-1.642-.408t-1.393.372q-.633.366-.654.834-.021.456.634.966"/><rect width="14" height="14" fill="#68c9f2" rx="2.971" transform="matrix(.86604 -.49997 .86604 .49997 230.217 9.082)"/><path stroke="#fff" stroke-linecap="round" stroke-linejoin="round" stroke-width=".722" d="M242.03 7.637h1.439a.64.64 0 0 0 .308-.075c.082-.047.128-.111.13-.178v-.758c-.002-.067-.048-.131-.13-.178a.64.64 0 0 0-.308-.075h-1.439m0-.722v3.466m1.72 2.401c.95-.548.95-1.437 0-1.986s-2.49-.548-3.44 0c-.95.549-.95 1.438 0 1.986.95.549 2.49.549 3.44 0"/><path fill="#f9fafb" d="m253.217 174.062 48.068-27.73a.86.86 0 0 1 .864 0l48.068 27.73v4.658a.86.86 0 0 1-.433.748l-48.067 27.73-48.068-27.73a.87.87 0 0 1-.432-.748z"/><path stroke="#d5d7da" stroke-width=".432" d="m253.217 174.062 48.5 27.979m-48.5-27.979 48.068-27.73a.86.86 0 0 1 .864 0l48.068 27.73m-97 0v4.658c0 .308.165.594.432.748l48.068 27.73m0-5.157 48.5-27.979m-48.5 27.979v5.157m48.5-33.136v4.658a.86.86 0 0 1-.433.748l-48.067 27.73"/><path fill="#8c68f2" d="m279.203 172.771-7.379-4.26 1.268-.732 8.979 2.16-6.36-3.672.894-.516 7.378 4.26-1.267.732-8.98-2.16 6.361 3.672zm8.746-4.905a4.6 4.6 0 0 1-1.683.564q-.915.12-1.871-.072a6.1 6.1 0 0 1-1.839-.702q-.884-.51-1.216-1.062-.333-.552-.125-1.08.218-.534.977-.972a4.5 4.5 0 0 1 1.673-.558 5.6 5.6 0 0 1 1.881.066 6 6 0 0 1 1.84.702q.873.504 1.215 1.062.333.552.115 1.086-.208.528-.967.966m-.831-.48q.759-.438.634-.99-.125-.564-1.081-1.116t-1.923-.618q-.966-.078-1.725.36t-.634 1.002q.125.552 1.081 1.104t1.923.63q.966.066 1.725-.372m6.72-2.92a4.1 4.1 0 0 1-1.611.522 5.5 5.5 0 0 1-1.819-.102 6.5 6.5 0 0 1-1.808-.72q-.884-.51-1.247-1.044-.354-.54-.177-1.05t.904-.93a3.4 3.4 0 0 1 1.299-.426 4.4 4.4 0 0 1 1.248-.012l-2.64-1.523.873-.504 7.378 4.259-.789.456-.863-.462q.219.39.031.798-.197.402-.779.738m-.78-.51q.5-.288.603-.636.114-.354-.156-.726-.27-.384-.894-.744a4.7 4.7 0 0 0-1.299-.522 3.5 3.5 0 0 0-1.247-.084 2.8 2.8 0 0 0-1.122.36q-.675.39-.53.942.145.54 1.102 1.092.945.546 1.891.636.956.084 1.652-.318m7.448-3.339q-.78.45-1.705.576a5.7 5.7 0 0 1-1.87-.072 6.2 6.2 0 0 1-1.829-.708q-.874-.504-1.216-1.05-.333-.552-.135-1.074.197-.534.956-.972a4.3 4.3 0 0 1 1.611-.534 5.4 5.4 0 0 1 1.839.066 6.2 6.2 0 0 1 1.881.726l.26.15-4.012 2.316q.936.48 1.798.498a3.04 3.04 0 0 0 1.59-.402q.541-.312.634-.654.094-.354-.187-.672l1.008-.498q.52.552.385 1.182-.135.618-1.008 1.122m-4.989-1.02 3.056-1.764q-.863-.426-1.642-.408-.78.018-1.393.372-.634.366-.655.834-.02.456.634.966m22.918 22.003q-2.52 1.455-5.586 1.905-3.092.435-6.313-.165-3.248-.615-6.262-2.355-2.961-1.71-4.053-3.569-1.117-1.875-.364-3.66.728-1.8 3.326-3.3 3.534-2.04 7.249-2.145 3.689-.12 7.43 1.35l-3.351 2.145q-2.156-.855-4.313-.81a8.4 8.4 0 0 0-4.079 1.155q-1.559.9-1.871 2.04t.572 2.37 2.936 2.414q2.077 1.2 4.209 1.71 2.13.48 4.079.285t3.455-1.065q2.053-1.184 2.053-2.474 0-1.32-1.663-2.64l3.715-1.935q1.793 1.455 2.339 2.97.519 1.5-.338 2.984-.857 1.455-3.17 2.79"/><rect width="14" height="14" fill="#8c68f2" rx="2.817" transform="matrix(.86604 -.49997 .86604 .49997 322.217 174.082)"/><path stroke="#fff" stroke-linecap="round" stroke-linejoin="round" stroke-width=".685" d="M334.044 172.712h1.363a.6.6 0 0 0 .293-.071c.077-.045.121-.105.123-.169v-.719c-.002-.063-.046-.124-.123-.168a.6.6 0 0 0-.293-.071h-1.363m0-.685v3.286m1.631 2.277c.901-.52.901-1.363 0-1.883-.9-.52-2.36-.52-3.261 0s-.901 1.363 0 1.883 2.361.52 3.261 0"/><path stroke="#e5e7eb" stroke-linecap="round" stroke-linejoin="round" d="m72.404 125.893 145.298-83.88"/><path stroke="#3b82f6" stroke-dasharray="24.71 98.82" stroke-linecap="round" stroke-linejoin="round" stroke-width=".988" d="m72.404 125.893 145.298-83.88"/><g clip-path="url(#a)"><path fill="#d3dafd" d="M66.824 124.238c-2.3 1.328-2.3 3.48 0 4.808s6.029 1.328 8.33 0l.125-.072c2.3-1.328 2.3-3.481 0-4.809s-6.03-1.328-8.33 0z"/><path fill="#3b82f6" d="M73.525 125.105c-1.401-.809-3.672-.809-5.073 0s-1.401 2.12 0 2.929c1.4.808 3.672.808 5.073 0 1.4-.809 1.4-2.12 0-2.929"/></g><g fill="#68c9f2" clip-path="url(#b)"><path fill-opacity=".35" d="M213.851 39.36c-2.3 1.327-2.3 3.48 0 4.808s6.029 1.328 8.329 0l.126-.073c2.3-1.328 2.3-3.48 0-4.808s-6.029-1.328-8.33 0z"/><path d="M220.552 40.226c-1.401-.808-3.672-.808-5.073 0-1.401.81-1.401 2.12 0 2.93 1.401.808 3.672.808 5.073 0 1.401-.81 1.401-2.12 0-2.93"/></g><path stroke="#e5e7eb" stroke-linecap="round" stroke-linejoin="round" d="m75.135 154.698 183.843 17.043"/><path stroke="#3b82f6" stroke-dasharray="24.71 98.82" stroke-linecap="round" stroke-linejoin="round" stroke-width=".988" d="m75.135 154.698 183.843 17.043"/><g clip-path="url(#c)"><path fill="#d3dafd" d="M74.384 151.135c-3.212-.298-6.233.964-6.749 2.818s1.67 3.599 4.882 3.897l.175.016c3.212.298 6.234-.964 6.75-2.818.515-1.854-1.67-3.599-4.882-3.897z"/><path fill="#3b82f6" d="M77.094 154.778c.314-1.129-1.017-2.192-2.973-2.373s-3.797.587-4.11 1.716c-.315 1.13 1.016 2.192 2.972 2.373 1.957.182 3.797-.587 4.111-1.716"/></g><g fill="#8c68f2" clip-path="url(#d)"><path fill-opacity=".35" d="M260.416 168.381c-3.212-.298-6.234.964-6.75 2.818-.515 1.854 1.67 3.599 4.882 3.896l.175.017c3.212.297 6.234-.964 6.749-2.819.516-1.854-1.669-3.598-4.881-3.896z"/><path d="M263.125 172.024c.315-1.13-1.017-2.192-2.973-2.374s-3.796.588-4.111 1.717 1.017 2.192 2.974 2.373c1.956.181 3.796-.587 4.11-1.716"/></g><path stroke="#e5e7eb" stroke-linecap="round" stroke-linejoin="round" d="m266.857 43.112 30.811 105.197"/><path stroke="#3b82f6" stroke-dasharray="24.71 98.82" stroke-linecap="round" stroke-linejoin="round" stroke-width=".988" d="m266.857 43.112 30.811 105.197"/><g fill="#68c9f2" clip-path="url(#e)"><path fill-opacity=".35" d="M260.683 42.675c-.544-1.855 1.616-3.595 4.823-3.886s6.247.978 6.791 2.834l.029.101c.544 1.856-1.616 3.596-4.823 3.886s-6.247-.978-6.791-2.833z"/><path d="M267.015 44.253c-1.953.177-3.805-.595-4.136-1.725s.984-2.19 2.938-2.367c1.953-.177 3.805.596 4.136 1.726s-.984 2.19-2.938 2.366"/></g><g fill="#8c68f2" clip-path="url(#f)"><path fill-opacity=".35" d="M291.86 149.125c-.543-1.855 1.616-3.595 4.823-3.886s6.248.978 6.791 2.834l.03.101c.543 1.855-1.616 3.595-4.823 3.886s-6.247-.978-6.791-2.834z"/><path d="M298.193 150.703c-1.953.177-3.805-.596-4.136-1.726s.984-2.189 2.937-2.366c1.954-.177 3.806.595 4.137 1.725s-.985 2.19-2.938 2.367"/></g><defs><clipPath id="a"><path fill="#fff" d="m70.936 132.268-9.527-5.5 9.527-5.5 9.526 5.5z"/></clipPath><clipPath id="b"><path fill="#fff" d="m217.963 47.39-9.526-5.5 9.526-5.5 9.526 5.5z"/></clipPath><clipPath id="c"><path fill="#fff" d="m65.523 157.765 2.136-7.68 13.303 1.234-2.137 7.68z"/></clipPath><clipPath id="d"><path fill="#fff" d="m251.555 175.011 2.136-7.68 13.302 1.234-2.136 7.68z"/></clipPath><clipPath id="e"><path fill="#fff" d="m272.09 37.585-13.283 1.203 2.251 7.685 13.283-1.204z"/></clipPath><clipPath id="f"><path fill="#fff" d="m303.268 144.034-13.283 1.204 2.251 7.685 13.283-1.204z"/></clipPath></defs></svg>