<svg width="351" height="208" viewBox="0 0 351 208" fill="none" xmlns="http://www.w3.org/2000/svg">
<rect x="-5.96046e-08" y="0.499967" width="47" height="47" rx="7.5" transform="matrix(0.866044 0.499967 -0.866044 0.499967 201.22 89.3325)" fill="#F9FAFB"/>
<rect x="-5.96046e-08" y="0.499967" width="47" height="47" rx="7.5" transform="matrix(0.866044 0.499967 -0.866044 0.499967 201.22 89.3325)" stroke="#E9EAEB"/>
<path d="M206.562 112.665L206.562 114.581C206.565 114.736 206.672 114.883 206.861 114.992C207.05 115.101 207.305 115.163 207.572 115.165L210.603 115.165C210.871 115.163 211.126 115.101 211.315 114.992C211.504 114.883 211.611 114.736 211.614 114.581L211.614 112.665" stroke="#3B82F6" stroke-width="1.66667" stroke-linecap="round" stroke-linejoin="round"/>
<path d="M214.499 112.664L200.642 112.664" stroke="#3B82F6" stroke-width="1.66667" stroke-linecap="round" stroke-linejoin="round"/>
<path d="M191.044 114.957C193.237 116.222 196.791 116.222 198.983 114.957C201.175 113.691 201.175 111.639 198.983 110.374C196.791 109.108 193.237 109.108 191.044 110.374C188.852 111.639 188.852 113.691 191.044 114.957Z" stroke="#3B82F6" stroke-width="1.66667" stroke-linecap="round" stroke-linejoin="round"/>
<path d="M0.216797 141.062L48.285 113.332C48.5522 113.177 48.8814 113.177 49.1486 113.332L97.2168 141.062V145.72C97.2168 146.028 97.052 146.314 96.7845 146.468L48.7168 174.198L0.649124 146.468C0.381613 146.314 0.216797 146.028 0.216797 145.72V141.062Z" fill="#F9FAFB"/>
<path d="M0.216797 141.062L48.7168 169.041M0.216797 141.062L48.285 113.332C48.5522 113.177 48.8814 113.177 49.1486 113.332L97.2168 141.062M0.216797 141.062V145.72C0.216797 146.028 0.381613 146.314 0.649124 146.468L48.7168 174.198M48.7168 169.041L97.2168 141.062M48.7168 169.041V174.198M97.2168 141.062V145.72C97.2168 146.028 97.052 146.314 96.7845 146.468L48.7168 174.198" stroke="#D5D7DA" stroke-width="0.432071"/>
<path d="M43.723 146.655L31.9275 132.166L36.0585 129.782L61.1565 136.591L57.623 138.631L51.7253 136.996L44.4245 141.211L47.2565 144.616L43.723 146.655ZM42.5279 138.976L47.8541 135.901L37.4096 132.931L42.5279 138.976Z" fill="#2563EB"/>
<path d="M55.6482 156.77L48.2695 152.51L49.5374 151.778L58.5165 153.938L52.1563 150.266L53.05 149.75L60.4287 154.01L59.1608 154.742L50.1817 152.582L56.5419 156.254L55.6482 156.77ZM64.3946 151.865C63.8888 152.157 63.3276 152.345 62.711 152.429C62.1013 152.509 61.4778 152.485 60.8404 152.357C60.196 152.225 59.5829 151.991 59.0009 151.655C58.412 151.315 58.0067 150.961 57.785 150.593C57.5633 150.225 57.5217 149.865 57.6603 149.513C57.8057 149.157 58.1314 148.833 58.6372 148.541C59.1429 148.249 59.7007 148.063 60.3103 147.983C60.927 147.899 61.554 147.921 62.1914 148.049C62.8288 148.177 63.442 148.411 64.0309 148.751C64.6129 149.087 65.0182 149.441 65.2468 149.813C65.4685 150.181 65.5066 150.543 65.3611 150.899C65.2226 151.251 64.9004 151.573 64.3946 151.865ZM63.5632 151.385C64.069 151.093 64.2803 150.763 64.1972 150.395C64.114 150.019 63.7537 149.647 63.1163 149.279C62.4789 148.911 61.8381 148.705 61.1937 148.661C60.5494 148.609 59.9743 148.729 59.4686 149.021C58.9628 149.313 58.7515 149.647 58.8346 150.023C58.9177 150.391 59.278 150.759 59.9154 151.127C60.5528 151.495 61.1937 151.705 61.8381 151.757C62.4824 151.801 63.0574 151.677 63.5632 151.385ZM70.2831 148.465C69.7981 148.745 69.2612 148.919 68.6723 148.987C68.0834 149.055 67.4771 149.021 66.8536 148.885C66.237 148.745 65.6342 148.505 65.0453 148.165C64.4564 147.825 64.0407 147.477 63.7982 147.121C63.5626 146.761 63.5037 146.411 63.6215 146.071C63.7393 145.731 64.0407 145.421 64.5257 145.141C64.9136 144.917 65.3467 144.776 65.8247 144.716C66.2959 144.652 66.7116 144.648 67.0718 144.704L64.4321 143.18L65.3051 142.676L72.6838 146.935L71.894 147.391L71.0314 146.929C71.1769 147.189 71.1873 147.455 71.0626 147.727C70.9309 147.995 70.6711 148.241 70.2831 148.465ZM69.5037 147.955C69.8362 147.763 70.0372 147.551 70.1064 147.319C70.1827 147.083 70.1307 146.841 69.9506 146.593C69.7704 146.337 69.4725 146.089 69.0568 145.849C68.6272 145.601 68.1942 145.427 67.7577 145.327C67.3282 145.223 66.9125 145.195 66.5106 145.243C66.1019 145.287 65.7277 145.407 65.3882 145.603C64.9379 145.863 64.7612 146.177 64.8582 146.545C64.9552 146.905 65.3224 147.269 65.9598 147.637C66.5903 148.001 67.2208 148.213 67.8513 148.273C68.4887 148.329 69.0395 148.223 69.5037 147.955ZM76.9511 144.616C76.4314 144.916 75.8633 145.108 75.2467 145.192C74.637 145.272 74.0134 145.248 73.376 145.12C72.7386 144.984 72.1289 144.748 71.5469 144.412C70.965 144.076 70.5597 143.726 70.331 143.362C70.1093 142.994 70.0643 142.636 70.1959 142.288C70.3276 141.932 70.6463 141.608 71.152 141.316C71.6301 141.04 72.167 140.862 72.7629 140.782C73.3518 140.698 73.9649 140.72 74.6024 140.848C75.2398 140.976 75.8668 141.218 76.4834 141.574L76.7432 141.724L72.7317 144.04C73.3552 144.36 73.9546 144.526 74.5296 144.538C75.1116 144.546 75.6416 144.412 76.1197 144.136C76.4799 143.928 76.6913 143.71 76.7536 143.482C76.816 143.246 76.7536 143.022 76.5665 142.81L77.5746 142.312C77.921 142.68 78.0492 143.074 77.9591 143.494C77.8691 143.906 77.533 144.28 76.9511 144.616ZM71.9627 143.596L75.0181 141.832C74.443 141.548 73.8957 141.412 73.376 141.424C72.8564 141.436 72.3922 141.56 71.9834 141.796C71.5608 142.04 71.3426 142.318 71.3287 142.63C71.3148 142.934 71.5262 143.256 71.9627 143.596Z" fill="#3B82F6"/>
<rect width="14" height="14" rx="3.30885" transform="matrix(0.866044 -0.499967 0.866044 0.499967 36.2168 122.082)" fill="#4389FA"/>
<path d="M47.9923 120.473L49.5943 120.473C49.7232 120.472 49.8464 120.442 49.9376 120.389C50.0288 120.337 50.0805 120.266 50.0818 120.191L50.0818 119.347C50.0805 119.272 50.0288 119.201 49.9376 119.149C49.8464 119.096 49.7232 119.066 49.5943 119.065L47.9923 119.065" stroke="white" stroke-width="0.804235" stroke-linecap="round" stroke-linejoin="round"/>
<path d="M47.9936 118.262V122.122" stroke="white" stroke-width="0.804235" stroke-linecap="round" stroke-linejoin="round"/>
<path d="M49.9102 124.795C50.968 124.185 50.968 123.194 49.9102 122.584C48.8524 121.973 47.1373 121.973 46.0794 122.584C45.0216 123.194 45.0216 124.185 46.0794 124.795C47.1373 125.406 48.8524 125.406 49.9102 124.795Z" stroke="white" stroke-width="0.804235" stroke-linecap="round" stroke-linejoin="round"/>
<path d="M193.217 28.0619L241.285 0.331632C241.552 0.177464 241.881 0.177465 242.149 0.331632L290.217 28.0619V32.7196C290.217 33.0285 290.052 33.3138 289.784 33.4681L241.717 61.1981L193.649 33.4681C193.382 33.3138 193.217 33.0285 193.217 32.7196V28.0619Z" fill="#F9FAFB"/>
<path d="M193.217 28.0619L241.717 56.0413M193.217 28.0619L241.285 0.331632C241.552 0.177464 241.881 0.177465 242.149 0.331632L290.217 28.0619M193.217 28.0619V32.7196C193.217 33.0285 193.382 33.3138 193.649 33.4681L241.717 61.1981M241.717 56.0413L290.217 28.0619M241.717 56.0413V61.1981M290.217 28.0619V32.7196C290.217 33.0285 290.052 33.3138 289.784 33.4681L241.717 61.1981" stroke="#D5D7DA" stroke-width="0.432071"/>
<path d="M238.741 32.4905L220.295 21.8412L227.206 17.8515C229.457 16.5515 231.562 15.7966 233.519 15.5866C235.494 15.3666 237.347 15.7566 239.079 16.7565C239.859 17.2065 240.378 17.6965 240.638 18.2264C240.898 18.7364 240.881 19.2664 240.586 19.8163C240.309 20.3563 239.755 20.8863 238.923 21.4062L238.845 21.3912C240.474 20.5113 242.119 20.0613 243.782 20.0413C245.427 20.0113 246.917 20.3813 248.251 21.1512C249.948 22.1312 250.632 23.2061 250.303 24.376C249.974 25.526 248.736 26.7209 246.588 27.9608L238.741 32.4905ZM239.261 28.8907L243.574 26.4009C244.631 25.7909 245.245 25.186 245.419 24.586C245.609 23.9761 245.28 23.4261 244.431 22.9361C243.583 22.4462 242.63 22.2462 241.573 22.3362C240.517 22.4262 239.452 22.7811 238.378 23.4011L234.065 25.8909L239.261 28.8907ZM231.415 24.361L234.844 22.3812C235.953 21.7412 236.611 21.1212 236.819 20.5213C237.027 19.9213 236.732 19.3914 235.935 18.9314C235.104 18.4514 234.186 18.2714 233.181 18.3914C232.177 18.5114 231.103 18.9014 229.96 19.5613L226.53 21.5412L231.415 24.361Z" fill="#68C9F2"/>
<path d="M248.648 43.77L241.269 39.5103L242.537 38.7784L251.517 40.9382L245.156 37.2665L246.05 36.7505L253.429 41.0102L252.161 41.7422L243.182 39.5823L249.542 43.2541L248.648 43.77ZM257.395 38.8647C256.889 39.1567 256.328 39.3447 255.711 39.4287C255.101 39.5087 254.478 39.4847 253.84 39.3567C253.196 39.2247 252.583 38.9907 252.001 38.6547C251.412 38.3147 251.007 37.9608 250.785 37.5928C250.563 37.2248 250.522 36.8648 250.66 36.5129C250.806 36.1569 251.131 35.8329 251.637 35.5409C252.143 35.2489 252.701 35.0629 253.31 34.9829C253.927 34.899 254.554 34.921 255.191 35.0489C255.829 35.1769 256.442 35.4109 257.031 35.7509C257.613 36.0869 258.018 36.4409 258.247 36.8128C258.469 37.1808 258.507 37.5428 258.361 37.8988C258.223 38.2507 257.9 38.5727 257.395 38.8647ZM256.563 38.3847C257.069 38.0927 257.28 37.7628 257.197 37.3948C257.114 37.0188 256.754 36.6468 256.116 36.2789C255.479 35.9109 254.838 35.7049 254.194 35.6609C253.549 35.6089 252.974 35.7289 252.469 36.0209C251.963 36.3129 251.751 36.6468 251.835 37.0228C251.918 37.3908 252.278 37.7588 252.915 38.1267C253.553 38.4947 254.194 38.7047 254.838 38.7567C255.482 38.8007 256.057 38.6767 256.563 38.3847ZM263.283 35.4653C262.798 35.7452 262.261 35.9192 261.672 35.9872C261.083 36.0552 260.477 36.0212 259.854 35.8852C259.237 35.7452 258.634 35.5053 258.045 35.1653C257.456 34.8253 257.041 34.4773 256.798 34.1213C256.563 33.7614 256.504 33.4114 256.622 33.0714C256.739 32.7314 257.041 32.4215 257.526 32.1415C257.914 31.9175 258.347 31.7755 258.825 31.7155C259.296 31.6515 259.712 31.6475 260.072 31.7035L257.432 30.1796L258.305 29.6756L265.684 33.9354L264.894 34.3913L264.031 33.9294C264.177 34.1893 264.187 34.4553 264.063 34.7273C263.931 34.9953 263.671 35.2413 263.283 35.4653ZM262.504 34.9553C262.836 34.7633 263.037 34.5513 263.106 34.3193C263.183 34.0834 263.131 33.8414 262.951 33.5934C262.77 33.3374 262.473 33.0894 262.057 32.8494C261.627 32.6014 261.194 32.4275 260.758 32.3275C260.328 32.2235 259.912 32.1955 259.511 32.2435C259.102 32.2875 258.728 32.4075 258.388 32.6034C257.938 32.8634 257.761 33.1774 257.858 33.5454C257.955 33.9054 258.322 34.2693 258.96 34.6373C259.59 35.0013 260.221 35.2133 260.851 35.2733C261.489 35.3293 262.039 35.2233 262.504 34.9553ZM269.951 31.6159C269.431 31.9158 268.863 32.1078 268.247 32.1918C267.637 32.2718 267.013 32.2478 266.376 32.1198C265.739 31.9838 265.129 31.7478 264.547 31.4119C263.965 31.0759 263.56 30.7259 263.331 30.3619C263.109 29.994 263.064 29.636 263.196 29.288C263.328 28.932 263.646 28.6081 264.152 28.3161C264.63 28.0401 265.167 27.8621 265.763 27.7821C266.352 27.6981 266.965 27.7201 267.602 27.8481C268.24 27.9761 268.867 28.2181 269.483 28.5741L269.743 28.724L265.732 31.0399C266.355 31.3599 266.955 31.5259 267.53 31.5379C268.112 31.5459 268.642 31.4119 269.12 31.1359C269.48 30.9279 269.691 30.7099 269.754 30.4819C269.816 30.2459 269.754 30.022 269.567 29.81L270.575 29.312C270.921 29.68 271.049 30.074 270.959 30.4939C270.869 30.9059 270.533 31.2799 269.951 31.6159ZM264.963 30.5959L268.018 28.832C267.443 28.5481 266.896 28.4121 266.376 28.4241C265.856 28.4361 265.392 28.5601 264.983 28.796C264.561 29.04 264.343 29.318 264.329 29.63C264.315 29.934 264.526 30.2559 264.963 30.5959Z" fill="#68C9F2"/>
<rect width="14" height="14" rx="2.97138" transform="matrix(0.866044 -0.499967 0.866044 0.499967 230.217 9.08203)" fill="#68C9F2"/>
<path d="M242.03 7.63678L243.469 7.63678C243.584 7.63611 243.695 7.60926 243.777 7.56201C243.859 7.51475 243.905 7.45085 243.907 7.38402L243.907 6.62575C243.905 6.55892 243.859 6.49502 243.777 6.44776C243.695 6.4005 243.584 6.37366 243.469 6.37299L242.03 6.37299" stroke="white" stroke-width="0.722211" stroke-linecap="round" stroke-linejoin="round"/>
<path d="M242.03 5.65109V9.11747" stroke="white" stroke-width="0.722211" stroke-linecap="round" stroke-linejoin="round"/>
<path d="M243.75 11.5184C244.7 10.97 244.7 10.0808 243.75 9.53242C242.8 8.98401 241.26 8.98401 240.31 9.53242C239.36 10.0808 239.36 10.97 240.31 11.5184C241.26 12.0668 242.8 12.0668 243.75 11.5184Z" stroke="white" stroke-width="0.722211" stroke-linecap="round" stroke-linejoin="round"/>
<path d="M253.217 174.062L301.285 146.332C301.552 146.177 301.881 146.177 302.149 146.332L350.217 174.062V178.72C350.217 179.028 350.052 179.314 349.784 179.468L301.717 207.198L253.649 179.468C253.382 179.314 253.217 179.028 253.217 178.72V174.062Z" fill="#F9FAFB"/>
<path d="M253.217 174.062L301.717 202.041M253.217 174.062L301.285 146.332C301.552 146.177 301.881 146.177 302.149 146.332L350.217 174.062M253.217 174.062V178.72C253.217 179.028 253.382 179.314 253.649 179.468L301.717 207.198M301.717 202.041L350.217 174.062M301.717 202.041V207.198M350.217 174.062V178.72C350.217 179.028 350.052 179.314 349.784 179.468L301.717 207.198" stroke="#D5D7DA" stroke-width="0.432071"/>
<path d="M279.203 172.771L271.824 168.511L273.092 167.779L282.071 169.939L275.711 166.267L276.605 165.751L283.983 170.011L282.716 170.743L273.736 168.583L280.097 172.255L279.203 172.771ZM287.949 167.866C287.444 168.158 286.882 168.346 286.266 168.43C285.656 168.51 285.032 168.486 284.395 168.358C283.751 168.226 283.138 167.992 282.556 167.656C281.967 167.316 281.561 166.962 281.34 166.594C281.118 166.226 281.076 165.866 281.215 165.514C281.36 165.158 281.686 164.834 282.192 164.542C282.698 164.25 283.255 164.064 283.865 163.984C284.482 163.9 285.109 163.922 285.746 164.05C286.383 164.178 286.997 164.412 287.586 164.752C288.168 165.088 288.573 165.442 288.801 165.814C289.023 166.182 289.061 166.544 288.916 166.9C288.777 167.252 288.455 167.574 287.949 167.866ZM287.118 167.386C287.624 167.094 287.835 166.764 287.752 166.396C287.669 166.02 287.308 165.648 286.671 165.28C286.034 164.912 285.393 164.706 284.748 164.662C284.104 164.61 283.529 164.73 283.023 165.022C282.517 165.314 282.306 165.648 282.389 166.024C282.472 166.392 282.833 166.76 283.47 167.128C284.108 167.496 284.748 167.706 285.393 167.758C286.037 167.802 286.612 167.678 287.118 167.386ZM293.838 164.466C293.353 164.746 292.816 164.92 292.227 164.988C291.638 165.056 291.032 165.022 290.408 164.886C289.792 164.746 289.189 164.506 288.6 164.166C288.011 163.826 287.595 163.478 287.353 163.122C287.117 162.762 287.058 162.412 287.176 162.072C287.294 161.732 287.595 161.422 288.08 161.142C288.468 160.918 288.901 160.776 289.379 160.716C289.851 160.652 290.266 160.648 290.627 160.704L287.987 159.181L288.86 158.677L296.238 162.936L295.449 163.392L294.586 162.93C294.732 163.19 294.742 163.456 294.617 163.728C294.486 163.996 294.226 164.242 293.838 164.466ZM293.058 163.956C293.391 163.764 293.592 163.552 293.661 163.32C293.737 163.084 293.685 162.842 293.505 162.594C293.325 162.338 293.027 162.09 292.611 161.85C292.182 161.602 291.749 161.428 291.312 161.328C290.883 161.224 290.467 161.196 290.065 161.244C289.657 161.288 289.282 161.408 288.943 161.604C288.493 161.864 288.316 162.178 288.413 162.546C288.51 162.906 288.877 163.27 289.515 163.638C290.145 164.002 290.775 164.214 291.406 164.274C292.043 164.33 292.594 164.224 293.058 163.956ZM300.506 160.617C299.986 160.917 299.418 161.109 298.801 161.193C298.192 161.273 297.568 161.249 296.931 161.121C296.293 160.985 295.684 160.749 295.102 160.413C294.52 160.077 294.114 159.727 293.886 159.363C293.664 158.995 293.619 158.637 293.751 158.289C293.882 157.933 294.201 157.609 294.707 157.317C295.185 157.041 295.722 156.863 296.318 156.783C296.906 156.699 297.52 156.721 298.157 156.849C298.794 156.977 299.421 157.219 300.038 157.575L300.298 157.725L296.286 160.041C296.91 160.361 297.509 160.527 298.084 160.539C298.666 160.547 299.196 160.413 299.674 160.137C300.035 159.929 300.246 159.711 300.308 159.483C300.371 159.247 300.308 159.023 300.121 158.811L301.129 158.313C301.476 158.681 301.604 159.075 301.514 159.495C301.424 159.907 301.088 160.281 300.506 160.617ZM295.517 159.597L298.573 157.833C297.998 157.549 297.45 157.413 296.931 157.425C296.411 157.437 295.947 157.561 295.538 157.797C295.115 158.041 294.897 158.319 294.883 158.631C294.87 158.935 295.081 159.257 295.517 159.597Z" fill="#8C68F2"/>
<path d="M318.435 181.6C316.755 182.57 314.893 183.205 312.849 183.505C310.788 183.795 308.683 183.74 306.536 183.34C304.371 182.93 302.283 182.145 300.274 180.985C298.3 179.845 296.949 178.655 296.221 177.416C295.476 176.166 295.355 174.946 295.857 173.756C296.342 172.556 297.451 171.456 299.183 170.456C301.539 169.096 303.955 168.381 306.432 168.311C308.891 168.231 311.368 168.681 313.862 169.661L310.511 171.806C309.073 171.236 307.636 170.966 306.198 170.996C304.76 171.026 303.401 171.411 302.119 172.151C301.08 172.751 300.456 173.431 300.248 174.191C300.04 174.951 300.231 175.741 300.82 176.561C301.409 177.381 302.387 178.186 303.756 178.975C305.141 179.775 306.544 180.345 307.965 180.685C309.385 181.005 310.745 181.1 312.044 180.97C313.343 180.84 314.495 180.485 315.499 179.905C316.868 179.115 317.552 178.291 317.552 177.431C317.552 176.551 316.997 175.671 315.889 174.791L319.604 172.856C320.799 173.826 321.579 174.816 321.943 175.826C322.289 176.826 322.176 177.821 321.605 178.81C321.033 179.78 319.977 180.71 318.435 181.6Z" fill="#8C68F2"/>
<rect width="14" height="14" rx="2.81709" transform="matrix(0.866044 -0.499967 0.866044 0.499967 322.217 174.082)" fill="#8C68F2"/>
<path d="M334.044 172.712L335.407 172.712C335.517 172.711 335.622 172.686 335.7 172.641C335.777 172.596 335.821 172.536 335.823 172.472L335.823 171.753C335.821 171.69 335.777 171.629 335.7 171.585C335.622 171.54 335.517 171.514 335.407 171.514L334.044 171.514" stroke="white" stroke-width="0.68471" stroke-linecap="round" stroke-linejoin="round"/>
<path d="M334.044 170.829V174.115" stroke="white" stroke-width="0.68471" stroke-linecap="round" stroke-linejoin="round"/>
<path d="M335.675 176.392C336.576 175.872 336.576 175.029 335.675 174.509C334.775 173.989 333.315 173.989 332.414 174.509C331.513 175.029 331.513 175.872 332.414 176.392C333.315 176.912 334.775 176.912 335.675 176.392Z" stroke="white" stroke-width="0.68471" stroke-linecap="round" stroke-linejoin="round"/>
<path d="M72.4043 125.893L217.702 42.013" stroke="#E5E7EB" stroke-linecap="round" stroke-linejoin="round"/>
<path d="M72.4043 125.893L217.702 42.013" stroke="#3B82F6" stroke-width="0.988235" stroke-linecap="round" stroke-linejoin="round" stroke-dasharray="24.71 98.82"/>
<g clip-path="url(#clip0_340_92474)">
<path d="M66.8235 124.238C64.5233 125.566 64.5233 127.718 66.8235 129.046C69.1236 130.374 72.8529 130.374 75.1531 129.046L75.2787 128.974C77.5788 127.646 77.5788 125.493 75.2787 124.165C72.9785 122.837 69.2492 122.837 66.949 124.165L66.8235 124.238Z" fill="#D3DAFD"/>
<path d="M73.5249 125.105C72.124 124.296 69.8526 124.296 68.4516 125.105C67.0507 125.914 67.0507 127.225 68.4516 128.034C69.8526 128.842 72.124 128.842 73.5249 128.034C74.9259 127.225 74.9259 125.914 73.5249 125.105Z" fill="#3B82F6"/>
</g>
<g clip-path="url(#clip1_340_92474)">
<path d="M213.851 39.3592C211.551 40.6871 211.551 42.84 213.851 44.1679C216.151 45.4958 219.88 45.4958 222.18 44.1679L222.306 44.0954C224.606 42.7675 224.606 40.6146 222.306 39.2867C220.006 37.9589 216.277 37.9589 213.976 39.2867L213.851 39.3592Z" fill="#68C9F2" fill-opacity="0.35"/>
<path d="M220.552 40.2264C219.151 39.4176 216.88 39.4176 215.479 40.2264C214.078 41.0352 214.078 42.3465 215.479 43.1552C216.88 43.964 219.151 43.964 220.552 43.1552C221.953 42.3465 221.953 41.0352 220.552 40.2264Z" fill="#68C9F2"/>
</g>
<path d="M75.1348 154.698L258.978 171.741" stroke="#E5E7EB" stroke-linecap="round" stroke-linejoin="round"/>
<path d="M75.1348 154.698L258.978 171.741" stroke="#3B82F6" stroke-width="0.988235" stroke-linecap="round" stroke-linejoin="round" stroke-dasharray="24.71 98.82"/>
<g clip-path="url(#clip2_340_92474)">
<path d="M74.3843 151.135C71.1725 150.837 68.1508 152.099 67.635 153.953C67.1193 155.807 69.3048 157.552 72.5166 157.85L72.6919 157.866C75.9037 158.164 78.9255 156.902 79.4412 155.048C79.9569 153.194 77.7714 151.449 74.5596 151.151L74.3843 151.135Z" fill="#D3DAFD"/>
<path d="M77.0941 154.778C77.4083 153.649 76.0771 152.586 74.1209 152.405C72.1647 152.223 70.3243 152.992 70.0102 154.121C69.6961 155.251 71.0272 156.313 72.9834 156.494C74.9396 156.676 76.78 155.907 77.0941 154.778Z" fill="#3B82F6"/>
</g>
<g clip-path="url(#clip3_340_92474)">
<path d="M260.416 168.381C257.204 168.083 254.182 169.345 253.666 171.199C253.151 173.053 255.336 174.798 258.548 175.095L258.723 175.112C261.935 175.409 264.957 174.148 265.472 172.293C265.988 170.439 263.803 168.695 260.591 168.397L260.416 168.381Z" fill="#8C68F2" fill-opacity="0.35"/>
<path d="M263.125 172.024C263.44 170.894 262.108 169.832 260.152 169.65C258.196 169.469 256.356 170.238 256.041 171.367C255.727 172.496 257.058 173.559 259.015 173.74C260.971 173.921 262.811 173.153 263.125 172.024Z" fill="#8C68F2"/>
</g>
<path d="M266.857 43.1118L297.668 148.309" stroke="#E5E7EB" stroke-linecap="round" stroke-linejoin="round"/>
<path d="M266.857 43.1118L297.668 148.309" stroke="#3B82F6" stroke-width="0.988235" stroke-linecap="round" stroke-linejoin="round" stroke-dasharray="24.71 98.82"/>
<g clip-path="url(#clip4_340_92474)">
<path d="M260.683 42.6754C260.139 40.8199 262.299 39.0801 265.506 38.7894C268.713 38.4988 271.753 39.7674 272.297 41.6229L272.326 41.7242C272.87 43.5797 270.71 45.3195 267.503 45.6101C264.296 45.9008 261.256 44.6322 260.712 42.7767L260.683 42.6754Z" fill="#68C9F2" fill-opacity="0.35"/>
<path d="M267.015 44.2534C265.062 44.4304 263.21 43.6578 262.879 42.5277C262.548 41.3975 263.863 40.3379 265.817 40.1609C267.77 39.9838 269.622 40.7565 269.953 41.8866C270.284 43.0167 268.969 44.0764 267.015 44.2534Z" fill="#68C9F2"/>
</g>
<g clip-path="url(#clip5_340_92474)">
<path d="M291.86 149.125C291.317 147.27 293.476 145.53 296.683 145.239C299.89 144.949 302.931 146.217 303.474 148.073L303.504 148.174C304.047 150.029 301.888 151.769 298.681 152.06C295.474 152.35 292.434 151.082 291.89 149.226L291.86 149.125Z" fill="#8C68F2" fill-opacity="0.35"/>
<path d="M298.193 150.703C296.24 150.88 294.388 150.107 294.057 148.977C293.726 147.847 295.041 146.788 296.994 146.611C298.948 146.434 300.8 147.206 301.131 148.336C301.462 149.466 300.146 150.526 298.193 150.703Z" fill="#8C68F2"/>
</g>
<defs>
<clipPath id="clip0_340_92474">
<rect width="11" height="11" fill="white" transform="matrix(-0.866044 -0.499967 0.866044 -0.499967 70.9355 132.268)"/>
</clipPath>
<clipPath id="clip1_340_92474">
<rect width="11" height="11" fill="white" transform="matrix(-0.866044 -0.499967 0.866044 -0.499967 217.963 47.3896)"/>
</clipPath>
<clipPath id="clip2_340_92474">
<rect width="11" height="11" fill="white" transform="matrix(0.194185 -0.698117 1.20928 0.112103 65.5234 157.765)"/>
</clipPath>
<clipPath id="clip3_340_92474">
<rect width="11" height="11" fill="white" transform="matrix(0.194185 -0.698117 1.20928 0.112103 251.555 175.011)"/>
</clipPath>
<clipPath id="clip4_340_92474">
<rect width="11" height="11" fill="white" transform="matrix(-1.20751 0.109432 0.204618 0.698625 272.09 37.5845)"/>
</clipPath>
<clipPath id="clip5_340_92474">
<rect width="11" height="11" fill="white" transform="matrix(-1.20751 0.109432 0.204618 0.698625 303.268 144.034)"/>
</clipPath>
</defs>
</svg>
