<svg xmlns="http://www.w3.org/2000/svg" width="47" height="53" fill="none" viewBox="0 0 47 53"><g clip-path="url(#a)"><path fill="#231f20" d="M28.895 48.722H9c-1.286 0-2.592.07-3.873-.008-1.906-.115-3.512-1.663-3.771-3.574-.082-.601-.037-1.248-.041-1.853-.016-2.651-.028-5.299-.045-7.95-.016-3.258-.032-6.515-.032-9.776V10.526l-.178.436 8.767-8.63 1.265-1.248-.43.181h23.46c.937 0 1.873-.012 2.81 0a3.43 3.43 0 0 1 3.337 2.895c.061.379.037.778.037 1.161v12.558c0 3.817-.053 7.638 0 11.455v.198c0 .794 1.217.794 1.217 0V5.308c0-.816-.033-1.61-.35-2.38-.717-1.762-2.404-2.866-4.265-2.89-.45-.005-.9 0-1.355 0h-23.56c-.43 0-.88-.042-1.31 0-.524.049-.99.712-1.339 1.058L3.197 7.144.699 9.602c-.35.346-.67.58-.682 1.112-.032 2.12.004 4.253.004 6.378 0 4.286-.02 8.572 0 12.855.025 4.842.037 9.684.077 14.522.017 1.676.694 3.26 2.004 4.31 1.03.828 2.246 1.174 3.544 1.174h23.245c.782 0 .782-1.235 0-1.235z"/><path fill="#4389fa" fill-opacity=".25" d="M10.836.404v8.61a1.69 1.69 0 0 1-1.678 1.704H.398c-.357 0-.535-.44-.28-.696L10.16.115c.252-.25.677-.066.677.289"/><path fill="url(#b)" d="M44.43 35.493c-.073-3.093-1.955-5.818-4.81-6.918-2.81-1.082-6.192-.193-8.118 2.154a7.7 7.7 0 0 0-1.76 4.694 3.49 3.49 0 0 0-2.867 3.458v10.603c0 1.943 1.553 3.52 3.467 3.52h13.196c1.914 0 3.467-1.577 3.467-3.52V38.88a3.5 3.5 0 0 0-2.57-3.384zm-7.344-5.205c2.798 0 5.045 2.281 5.19 5.069H31.892c.15-2.784 2.393-5.073 5.191-5.069zm.767 18.821v1.392a.78.78 0 0 1-.763.774c-.414.02-.762-.37-.762-.774v-1.392a3.31 3.31 0 0 1-2.51-3.228c0-1.836 1.464-3.323 3.272-3.323 1.809 0 3.273 1.487 3.273 3.323a3.31 3.31 0 0 1-2.51 3.228"/><path fill="#231f20" d="M21.494 6.16v5.884c0 .358-.288.65-.64.65a.647.647 0 0 1-.641-.65V6.16c0-.358.288-.65.64-.65s.641.292.641.65m6.354 6.674c-.567 0-1.058-.148-1.464-.44q-.608-.44-.936-1.273-.33-.835-.329-2.009c0-.782.114-1.45.329-2.001q.328-.828.936-1.26.608-.434 1.46-.436.851-.001 1.464.436c.406.292.722.712.937 1.264s.328 1.219.328 2.001-.11 1.458-.328 2.014q-.328.833-.937 1.272c-.405.292-.896.44-1.464.44zm0-1.1q.662 0 1.05-.666c.256-.445.386-1.095.386-1.96 0-.572-.061-1.05-.174-1.437-.118-.387-.284-.684-.5-.881a1.08 1.08 0 0 0-.762-.297q-.657 0-1.042.667c-.255.445-.385 1.091-.385 1.948 0 .572.053 1.054.17 1.445s.28.684.495.881q.323.297.762.297zm7.644-5.574v5.884c0 .358-.287.65-.64.65a.647.647 0 0 1-.641-.65V6.16c0-.358.288-.65.64-.65.354 0 .641.292.641.65"/><path fill="#4389fa" fill-opacity=".25" d="M6.44 23.729q-.853-.001-1.464-.44-.608-.44-.937-1.273-.328-.835-.328-2.01c0-.782.113-1.449.328-2q.33-.828.937-1.26.609-.435 1.46-.437.85-.001 1.464.436c.406.293.722.713.937 1.265s.328 1.218.328 2c0 .783-.11 1.458-.328 2.014q-.329.834-.937 1.272-.61.44-1.464.441zm0-1.1q.661 0 1.05-.667.385-.664.386-1.96-.002-.858-.175-1.436-.176-.584-.499-.882a1.08 1.08 0 0 0-.762-.296q-.658 0-1.042.667c-.256.445-.385 1.091-.385 1.947 0 .573.052 1.055.17 1.446.118.39.28.683.495.88q.323.297.762.297zm7.644-5.57v5.884c0 .358-.288.65-.64.65a.647.647 0 0 1-.641-.65v-5.884c0-.358.288-.65.64-.65s.641.292.641.65m6.356 6.67q-.854-.001-1.464-.44-.608-.44-.937-1.273-.328-.835-.328-2.01c0-.782.114-1.449.328-2q.33-.828.937-1.26.608-.435 1.46-.437.85-.001 1.464.436c.406.293.722.713.937 1.265s.328 1.218.328 2c0 .783-.11 1.458-.328 2.014q-.33.834-.937 1.272c-.405.293-.896.441-1.464.441zm0-1.1q.661 0 1.05-.667.385-.664.386-1.96-.002-.858-.175-1.436-.176-.584-.498-.882a1.08 1.08 0 0 0-.763-.296q-.658 0-1.042.667c-.256.445-.385 1.091-.385 1.947 0 .573.052 1.055.17 1.446.118.39.28.683.495.88q.323.297.762.297zm7.638-5.57v5.884c0 .358-.288.65-.64.65a.647.647 0 0 1-.641-.65v-5.884c0-.358.288-.65.64-.65s.641.292.641.65m6.36 6.67q-.853-.001-1.464-.44-.608-.44-.936-1.273-.33-.835-.329-2.01c0-.782.114-1.449.329-2q.327-.828.936-1.26.608-.435 1.46-.437.85-.001 1.464.436c.405.293.722.713.937 1.265s.328 1.218.328 2c0 .783-.11 1.458-.328 2.014q-.33.834-.937 1.272-.61.44-1.464.441zm0-1.1q.662 0 1.05-.667.385-.664.386-1.96-.002-.858-.175-1.436-.175-.584-.498-.882a1.08 1.08 0 0 0-.763-.296q-.658 0-1.042.667c-.255.445-.385 1.091-.385 1.947 0 .573.052 1.055.17 1.446.118.39.28.683.495.88q.323.297.762.297zM6.44 43.74q-.853-.001-1.464-.44-.608-.44-.937-1.273-.328-.835-.328-2.01c0-.782.113-1.449.328-2q.33-.828.937-1.26c.406-.288.892-.437 1.46-.437q.85-.001 1.464.437c.406.292.722.712.937 1.264s.328 1.219.328 2c0 .783-.11 1.459-.328 2.014q-.329.834-.937 1.273-.61.439-1.464.44zm0-1.095q.661 0 1.05-.667.385-.666.386-1.96-.002-.857-.175-1.437c-.117-.387-.284-.684-.499-.881a1.08 1.08 0 0 0-.762-.297q-.658 0-1.042.667c-.256.445-.385 1.091-.385 1.948 0 .572.052 1.054.17 1.445s.28.684.495.881q.323.297.762.297zm7.644-5.575v5.883c0 .359-.288.65-.64.65a.647.647 0 0 1-.641-.65V37.07c0-.358.288-.65.64-.65s.641.292.641.65m6.356 6.67q-.854-.001-1.464-.44-.608-.44-.937-1.273-.328-.835-.328-2.01c0-.782.114-1.449.328-2q.33-.828.937-1.26c.406-.288.892-.437 1.46-.437q.85-.001 1.464.437c.406.292.722.712.937 1.264s.328 1.219.328 2c0 .783-.11 1.459-.328 2.014q-.33.834-.937 1.273c-.405.292-.896.44-1.464.44zm0-1.095q.661 0 1.05-.667.385-.666.386-1.96-.002-.857-.175-1.437c-.117-.387-.284-.684-.498-.881a1.08 1.08 0 0 0-.763-.297q-.658 0-1.042.667c-.256.445-.385 1.091-.385 1.948 0 .572.052 1.054.17 1.445s.28.684.495.881q.323.297.762.297z"/><path fill="#231f20" d="M6.664 26.966v5.883c0 .359-.288.65-.64.65a.647.647 0 0 1-.641-.65v-5.883c0-.359.288-.651.64-.651s.641.292.641.65m6.354 6.671q-.854-.002-1.464-.441-.608-.439-.937-1.272-.328-.835-.328-2.01c0-.782.114-1.449.329-2q.327-.83.936-1.26.608-.435 1.46-.437.851-.001 1.464.436c.406.293.722.713.937 1.264.215.552.328 1.22.328 2.001 0 .783-.11 1.458-.328 2.014q-.329.834-.937 1.272c-.405.292-.896.44-1.464.44zm0-1.1q.662 0 1.05-.667c.256-.445.386-1.095.386-1.96q-.002-.857-.175-1.437-.176-.582-.498-.88a1.08 1.08 0 0 0-.763-.297q-.658 0-1.042.667c-.255.444-.385 1.09-.385 1.947 0 .573.053 1.054.17 1.445.118.392.28.684.495.882q.323.296.762.296zm7.644-5.57v5.883c0 .359-.288.65-.64.65a.647.647 0 0 1-.641-.65v-5.883c0-.359.288-.651.64-.651s.641.292.641.65m6.354 6.671c-.567 0-1.058-.149-1.464-.441q-.608-.439-.936-1.272-.33-.835-.329-2.01c0-.782.114-1.449.329-2q.328-.83.936-1.26.61-.435 1.46-.437.851-.001 1.464.436c.406.293.722.713.937 1.264.215.552.328 1.22.328 2.001 0 .783-.11 1.458-.328 2.014q-.329.834-.937 1.272c-.405.292-.896.44-1.464.44zm0-1.1q.662 0 1.05-.667c.256-.445.386-1.095.386-1.96q-.002-.857-.175-1.437-.175-.582-.498-.88a1.08 1.08 0 0 0-.763-.297q-.657 0-1.042.667c-.255.444-.385 1.09-.385 1.947 0 .573.053 1.054.17 1.445.118.392.28.684.495.882q.323.296.762.296z"/></g><defs><linearGradient id="b" x1="36.94" x2="36.94" y1="28.118" y2="53.004" gradientUnits="userSpaceOnUse"><stop stop-color="#3b82f6"/><stop offset="1" stop-color="#9dc1fb"/></linearGradient><clipPath id="a"><path fill="#fff" d="M0 0h47v53H0z"/></clipPath></defs></svg>