<svg xmlns="http://www.w3.org/2000/svg" width="58" height="55" fill="none" viewBox="0 0 58 55"><g clip-path="url(#a)"><path fill="#252b37" d="M23.374 4.308h13.147c.84 0 1.66-.06 2.424.382.824.482 1.48 1.418 2.105 2.118.936 1.044 1.872 2.083 2.808 3.127.845.94 1.639 1.8 1.885 3.105.19 1.01.077 2.135.077 3.153v23.293c0 3.586.009 7.177 0 10.764 0 1.103-.367 2.203-1.268 2.903-.587.456-1.25.554-1.958.554H21.338c-3.437 0-6.88.065-10.313 0-1.764-.034-2.85-1.675-2.872-3.307-.005-.378 0-.756 0-1.134V26.681c0-.828-1.294-.828-1.294 0v20.377c0 1.392-.16 2.917.09 4.3.363 1.984 2.002 3.6 4.068 3.642.28.004.556 0 .837 0h29.312c1.583 0 3.08.12 4.387-1.005 1.492-1.284 1.565-3.088 1.565-4.87V14.302c0-.829-.069-1.65-.358-2.435-.435-1.177-1.25-2.023-2.07-2.934L41.84 5.76c-.716-.799-1.419-1.752-2.39-2.255-.905-.472-1.833-.481-2.816-.481h-13.26c-.832 0-.832 1.288 0 1.288z"/><path fill="#252b37" d="M27.89 23.546h13.5c.185 0 .367.28.358.606s-.155.606-.358.606h-13.5c-.186 0-.367-.28-.358-.606.008-.326.155-.606.358-.606m0 5.859h13.5c.185 0 .367.279.358.605-.009.327-.155.606-.358.606h-13.5c-.186 0-.367-.28-.358-.606.008-.326.155-.605.358-.605m-3.188-5.859h1.911c.026 0 .052.28.052.606s-.022.606-.052.606h-1.911c-.026 0-.052-.28-.052-.606s.022-.606.052-.606m0 5.859h1.911c.026 0 .052.279.052.605 0 .327-.022.606-.052.606h-1.911c-.026 0-.052-.28-.052-.606s.022-.605.052-.605M57.914 9.56a2.936 2.936 0 0 0-2.808-2.885c-.729-.03-1.462-.005-2.19 0-1.334.008-2.563.859-2.886 2.177-.177.717-.091 1.534-.091 2.264v2.345c0 .348.298.644.647.644h6.681c.35 0 .647-.296.647-.644zc0-.83-1.294-.83-1.294 0v3.9l.647-.644h-6.681l.647.644c0-1.271-.004-2.539 0-3.81 0-.833.548-1.585 1.419-1.684.681-.073 1.398-.008 2.079-.008.375 0 .729.013 1.065.202.514.287.807.811.82 1.396.017.829 1.311.829 1.294 0zm-.647 5.482h-6.68a.656.656 0 0 0-.648.644v30.062c0 .439-.03.894 0 1.332.043.597.462.876 1.022.893.561.017 1.156 0 1.73 0 1.393 0 2.795.052 4.184 0 .88-.034.988-.666.988-1.344l.026-15.716c.008-5.24.017-9.978.021-14.965v-.262c0-.829-1.294-.829-1.294 0-.008 4.115-.013 8.234-.022 12.349l-.025 17.31c0 .524-.078 1.112 0 1.632.004.03-.013.081 0 .112.069.188.59-.34.414-.409-.04-.013-.104.005-.143 0-.573-.068-1.203 0-1.781 0h-2.42c-.526 0-1.199-.111-1.712 0-.375.082.483-.064.306.409.013-.035-.004-.09 0-.125.026-.202 0-.43 0-.631V15.686l-.647.645h6.681c.833 0 .833-1.289 0-1.289"/><path fill="#252b37" d="m54.852 52.603 2.1-3.543.506-.855c.09-.154.207-.313.258-.485.177-.58-.306-.971-.837-.98-.245-.004-.491 0-.737 0-1.626 0-3.257-.004-4.883-.008-.155 0-.319-.009-.474 0-.6.03-.953.644-.643 1.168.294.494.66.954.988 1.426l1.682 2.427.513.739.082.12c.328.447.945.554 1.342.12.56-.614-.354-1.525-.915-.91l.009-.013.328-.086h.026l.284.167c.112.108 0 .018-.038-.047l-.242-.348-.78-1.13-1.77-2.55-.288-.422c-.047-.068-.142-.283-.073-.073v.344l.013-.056-.169.284.04-.043-.285.167c-.177.052-.06.009.047.009h5.275q.285.005.57.004h.159c.095 0 .034.03-.039 0l-.388-.296.034.064-.064-.498c.004-.026.082-.112.034-.052-.021.03-.039.065-.056.095l-.207.352-.66 1.112-1.505 2.543-.358.602c-.423.717.694 1.365 1.117.648z"/><path fill="#4389fa" fill-opacity=".25" d="M58 11.563h-8.152v6.073H58z"/><path fill="#252b37" d="M36.897 3.664v6.567c0 .58.078 1.143.375 1.658.505.876 1.44 1.383 2.441 1.405 1.001.021 2.05 0 3.072 0h3.528c.832 0 .832-1.289 0-1.289h-6.354c-.479 0-.914-.064-1.285-.404-.371-.339-.487-.82-.487-1.314V3.668c0-.829-1.294-.829-1.294 0z"/><path fill="url(#b)" d="M28.17 46.852h-.54c-.159 0-.223-.06-.228-.22v-.734c0-.06-.017-.086-.078-.098a4.3 4.3 0 0 1-2.173-1.298c-.035-.038-.074-.077-.108-.116-.104-.128-.1-.214.017-.33.151-.15.31-.297.466-.447l.479-.451c.18-.172.271-.172.461-.013.237.198.466.404.733.563.423.253.872.373 1.363.275.397-.078.617-.327.621-.709a.47.47 0 0 0-.15-.352c-.203-.198-.453-.314-.712-.404-.526-.185-1.053-.37-1.544-.64-.44-.245-.837-.541-1.113-.97-.716-1.13-.306-2.54.906-3.127q.34-.168.716-.245c.099-.018.12-.06.116-.15-.009-.207 0-.417 0-.623 0-.18.082-.258.263-.262h.988c.198 0 .302.103.302.3v.576c0 .081.022.111.103.129a3.73 3.73 0 0 1 1.825.923c.267.245.267.365.017.627q-.387.412-.78.825c-.152.159-.26.167-.432.03-.198-.163-.392-.327-.617-.451a1.5 1.5 0 0 0-1.147-.159.9.9 0 0 0-.263.116.483.483 0 0 0-.065.739c.138.141.31.227.492.292.401.146.81.279 1.212.43.448.163.889.352 1.272.648a2 2 0 0 1 .82 1.55c.069 1.212-.647 2.084-1.583 2.5a3.3 3.3 0 0 1-.76.24c-.072.014-.103.04-.103.121.005.223 0 .442 0 .666 0 .193-.069.258-.259.258h-.53z"/><path fill="#252b37" d="M35.744 41.9c-.03 3.187-2.032 6.146-5.077 7.233s-6.552.146-8.64-2.363c-2.052-2.474-2.29-6.095-.638-8.835 1.648-2.727 4.939-4.218 8.088-3.595a7.8 7.8 0 0 1 6.267 7.56c.008.828 1.302.828 1.294 0-.035-3.763-2.403-7.152-5.957-8.45-3.52-1.288-7.639-.162-10.01 2.724-2.373 2.886-2.748 7.104-.795 10.343 1.959 3.247 5.823 4.918 9.546 4.188 4.175-.825 7.177-4.605 7.216-8.801.008-.83-1.286-.83-1.294 0zM19.436 25.393h-7.354c-2.553 0-5.116.039-7.669 0-1.82-.03-3.097-1.477-3.101-3.243V4.385c.017-1.052.53-2.044 1.432-2.611s1.984-.481 3.023-.481H19.2c1.794 0 3.3 1.224 3.33 3.084.012.696 0 1.396 0 2.096v14.496c0 .868.095 1.817-.28 2.624-.514 1.104-1.61 1.774-2.817 1.796-.833.017-.833 1.306 0 1.288a4.444 4.444 0 0 0 4.39-4.41c.014-.886 0-1.775 0-2.664V4.953c0-1.538-.379-2.986-1.656-3.99C21.028.06 19.751 0 18.38 0h-4.701c-3.039 0-6.07-.004-9.106 0C2.476.009.535 1.357.113 3.47c-.168.847-.095 1.766-.095 2.62v14.965c0 1.125-.043 2.203.487 3.252.846 1.666 2.54 2.37 4.326 2.37h14.61c.832 0 .832-1.288 0-1.288z"/><path fill="#252b37" d="M20.462 6.095H3.295l.647.644V3.363l-.647.644h17.167l-.647-.644v3.376c0 .829 1.294.829 1.294 0V3.363a.656.656 0 0 0-.647-.644H3.295a.656.656 0 0 0-.647.644v3.376c0 .348.298.644.647.644h17.167c.832 0 .832-1.288 0-1.288M6.26 11.606H3.245l.647.644V9.248l-.647.644H6.26l-.647-.644v3.002c0 .335.297.662.647.644.349-.017.647-.283.647-.644V9.248a.656.656 0 0 0-.647-.644H3.245a.656.656 0 0 0-.647.644v3.002c0 .348.297.644.647.644H6.26c.336 0 .664-.296.647-.644s-.285-.644-.647-.644m7.16 0h-3.015l.647.644V9.248l-.647.644h3.015l-.647-.644v3.002c0 .335.297.662.647.644.35-.017.647-.283.647-.644V9.248a.656.656 0 0 0-.647-.644h-3.015a.656.656 0 0 0-.647.644v3.002c0 .348.297.644.647.644h3.015c.336 0 .664-.296.647-.644s-.285-.644-.647-.644m7.16 0h-3.015l.647.644V9.248l-.647.644h3.015l-.647-.644v3.002c0 .335.297.662.647.644.35-.017.647-.283.647-.644V9.248a.656.656 0 0 0-.647-.644h-3.015a.656.656 0 0 0-.647.644v3.002c0 .348.298.644.647.644h3.015c.336 0 .664-.296.647-.644s-.285-.644-.647-.644M6.26 16.902H3.245l.647.644v-3.002l-.647.644H6.26l-.647-.644v3.002c0 .335.297.662.647.644.349-.017.647-.283.647-.644v-3.002a.656.656 0 0 0-.647-.645H3.245a.656.656 0 0 0-.647.645v3.002c0 .348.297.644.647.644H6.26c.336 0 .664-.296.647-.644s-.285-.644-.647-.644m7.16 0h-3.015l.647.644v-3.002l-.647.644h3.015l-.647-.644v3.002c0 .335.297.662.647.644.35-.017.647-.283.647-.644v-3.002a.656.656 0 0 0-.647-.645h-3.015a.656.656 0 0 0-.647.645v3.002c0 .348.297.644.647.644h3.015c.336 0 .664-.296.647-.644s-.285-.644-.647-.644m7.16 0h-3.015l.647.644v-3.002l-.647.644h3.015l-.647-.644v3.002c0 .335.297.662.647.644.35-.017.647-.283.647-.644v-3.002a.656.656 0 0 0-.647-.645h-3.015a.656.656 0 0 0-.647.645v3.002c0 .348.298.644.647.644h3.015c.336 0 .664-.296.647-.644s-.285-.644-.647-.644M6.26 22.198H3.245l.647.644V19.84l-.647.644H6.26l-.647-.644v3.002c0 .335.297.661.647.644.349-.017.647-.283.647-.644V19.84a.656.656 0 0 0-.647-.645H3.245a.656.656 0 0 0-.647.645v3.002c0 .348.297.644.647.644H6.26c.336 0 .664-.296.647-.644s-.285-.644-.647-.644m7.16 0h-3.015l.647.644V19.84l-.647.644h3.015l-.647-.644v3.002c0 .335.297.661.647.644s.647-.283.647-.644V19.84a.656.656 0 0 0-.647-.645h-3.015a.656.656 0 0 0-.647.645v3.002c0 .348.297.644.647.644h3.015c.336 0 .664-.296.647-.644s-.285-.644-.647-.644m7.16 0h-3.015l.647.644V19.84l-.647.644h3.015l-.647-.644v3.002c0 .335.297.661.647.644s.647-.283.647-.644V19.84a.656.656 0 0 0-.647-.645h-3.015a.656.656 0 0 0-.647.645v3.002c0 .348.298.644.647.644h3.015c.336 0 .664-.296.647-.644s-.285-.644-.647-.644"/></g><defs><linearGradient id="b" x1="28.183" x2="28.183" y1="36.501" y2="46.861" gradientUnits="userSpaceOnUse"><stop stop-color="#3b82f6"/><stop offset="1" stop-color="#9dc1fb"/></linearGradient><clipPath id="a"><path fill="#fff" d="M0 0h58v55H0z"/></clipPath></defs></svg>