<svg width="58" height="55" viewBox="0 0 58 55" fill="none" xmlns="http://www.w3.org/2000/svg">
<g clip-path="url(#clip0_328_103819)">
<path d="M23.3741 4.30819C27.7563 4.30819 32.1386 4.30819 36.5208 4.30819C37.3619 4.30819 38.1814 4.24806 38.9449 4.69046C39.7687 5.17152 40.4243 6.10788 41.0497 6.80799C41.9857 7.85173 42.9217 8.89116 43.8576 9.9349C44.703 10.8755 45.4967 11.7346 45.7425 13.0403C45.9323 14.0497 45.8202 15.175 45.8202 16.193V22.4425C45.8202 28.1251 45.8202 33.8076 45.8202 39.4859C45.8202 43.0723 45.8288 46.6631 45.8202 50.2496C45.8202 51.3535 45.4535 52.453 44.5521 53.1532C43.9655 53.6085 43.3012 53.7072 42.5939 53.7072C41.0583 53.7072 39.5228 53.7072 37.9873 53.7072C32.4362 53.7072 26.8894 53.7072 21.3383 53.7072C17.9006 53.7072 14.4587 53.7717 11.0253 53.7072C9.26122 53.6729 8.17428 52.0321 8.15272 50.3999C8.1484 50.022 8.15272 49.644 8.15272 49.266V42.6471C8.15272 37.6432 8.15272 32.635 8.15272 27.6311C8.15272 27.3133 8.15272 26.9997 8.15272 26.6819C8.15272 25.8529 6.85875 25.8529 6.85875 26.6819C6.85875 30.7451 6.85875 34.8041 6.85875 38.8673C6.85875 41.5991 6.85875 44.3265 6.85875 47.0583C6.85875 48.4499 6.69916 49.9747 6.94933 51.3578C7.31164 53.3422 8.95067 54.9572 11.0167 55.0001C11.2971 55.0044 11.5731 55.0001 11.8535 55.0001H17.4262C23.1541 55.0001 28.8864 55.0001 34.6144 55.0001C36.7969 55.0001 38.9837 55.0001 41.1662 55.0001C42.7491 55.0001 44.2458 55.1204 45.5527 53.995C47.0451 52.7108 47.1184 50.9068 47.1184 49.1243V43.5019C47.1184 37.7549 47.1184 32.0079 47.1184 26.2566C47.1184 22.2707 47.1184 18.2891 47.1184 14.3031C47.1184 13.4741 47.0494 12.6538 46.7604 11.8677C46.3248 10.6909 45.5096 9.8447 44.6901 8.93412L41.839 5.75997C41.123 4.96106 40.42 4.00753 39.4495 3.50499C38.5437 3.03252 37.6164 3.02393 36.633 3.02393H33.1824C30.4349 3.02393 27.6916 3.02393 24.9441 3.02393C24.4222 3.02393 23.896 3.02393 23.3741 3.02393C22.5417 3.02393 22.5417 4.31248 23.3741 4.31248V4.30819Z" fill="#252B37"/>
<path d="M27.8895 23.5464H28.2519C28.5797 23.5464 28.9032 23.5464 29.231 23.5464H30.6888C31.2754 23.5464 31.8663 23.5464 32.4529 23.5464C33.1042 23.5464 33.7512 23.5464 34.4025 23.5464C35.0538 23.5464 35.7051 23.5464 36.3564 23.5464C36.9689 23.5464 37.5771 23.5464 38.1895 23.5464C38.7028 23.5464 39.2161 23.5464 39.7294 23.5464H40.8422C41.019 23.5464 41.1915 23.5464 41.3684 23.5464C41.377 23.5464 41.3856 23.5464 41.39 23.5464C41.5754 23.5464 41.7566 23.8256 41.748 24.152C41.7393 24.4784 41.5927 24.7576 41.39 24.7576H41.0276C40.6998 24.7576 40.3763 24.7576 40.0485 24.7576H38.5907C38.0041 24.7576 37.4132 24.7576 36.8266 24.7576C36.1753 24.7576 35.5283 24.7576 34.877 24.7576C34.2257 24.7576 33.5744 24.7576 32.9231 24.7576C32.3106 24.7576 31.7024 24.7576 31.09 24.7576C30.5767 24.7576 30.0634 24.7576 29.5501 24.7576C29.1792 24.7576 28.8083 24.7576 28.4373 24.7576C28.2605 24.7576 28.088 24.7576 27.9111 24.7576C27.9025 24.7576 27.8939 24.7576 27.8895 24.7576C27.7041 24.7576 27.5229 24.4784 27.5315 24.152C27.5402 23.8256 27.6868 23.5464 27.8895 23.5464Z" fill="#252B37"/>
<path d="M27.8895 29.4048H28.2519C28.5797 29.4048 28.9032 29.4048 29.231 29.4048C29.7184 29.4048 30.2014 29.4048 30.6888 29.4048H32.4529C33.1042 29.4048 33.7512 29.4048 34.4025 29.4048H36.3564C36.9689 29.4048 37.5771 29.4048 38.1895 29.4048C38.7028 29.4048 39.2161 29.4048 39.7294 29.4048H40.8422C41.019 29.4048 41.1915 29.4048 41.3684 29.4048C41.377 29.4048 41.3856 29.4048 41.39 29.4048C41.5754 29.4048 41.7566 29.684 41.748 30.0104C41.7393 30.3368 41.5927 30.616 41.39 30.616H41.0276C40.6998 30.616 40.3763 30.616 40.0485 30.616H38.5907C38.0041 30.616 37.4132 30.616 36.8266 30.616C36.1753 30.616 35.5283 30.616 34.877 30.616C34.2257 30.616 33.5744 30.616 32.9231 30.616C32.3106 30.616 31.7024 30.616 31.09 30.616H29.5501C29.1792 30.616 28.8083 30.616 28.4373 30.616C28.2605 30.616 28.088 30.616 27.9111 30.616C27.9025 30.616 27.8939 30.616 27.8895 30.616C27.7041 30.616 27.5229 30.3368 27.5315 30.0104C27.5402 29.684 27.6868 29.4048 27.8895 29.4048Z" fill="#252B37"/>
<path d="M24.7021 23.5464H24.7539C24.8014 23.5464 24.8445 23.5464 24.8919 23.5464H25.099C25.1809 23.5464 25.2672 23.5464 25.3491 23.5464H25.6252C25.7158 23.5464 25.8106 23.5464 25.9012 23.5464H26.16C26.2333 23.5464 26.3067 23.5464 26.38 23.5464H26.5396C26.5655 23.5464 26.5913 23.5464 26.6129 23.5464C26.6388 23.5464 26.6647 23.8256 26.6647 24.152C26.6647 24.4784 26.6431 24.7576 26.6129 24.7576H26.5612C26.5137 24.7576 26.4706 24.7576 26.4231 24.7576H26.2161C26.1341 24.7576 26.0479 24.7576 25.9659 24.7576H25.6899C25.5993 24.7576 25.5044 24.7576 25.4138 24.7576H25.155C25.0817 24.7576 25.0084 24.7576 24.9351 24.7576H24.7755C24.7496 24.7576 24.7237 24.7576 24.7021 24.7576C24.6763 24.7576 24.6504 24.4784 24.6504 24.152C24.6504 23.8256 24.672 23.5464 24.7021 23.5464Z" fill="#252B37"/>
<path d="M24.7021 29.4048H24.7539C24.8014 29.4048 24.8445 29.4048 24.8919 29.4048H25.099C25.1809 29.4048 25.2672 29.4048 25.3491 29.4048H25.6252C25.7158 29.4048 25.8106 29.4048 25.9012 29.4048H26.16C26.2333 29.4048 26.3067 29.4048 26.38 29.4048H26.5396C26.5655 29.4048 26.5913 29.4048 26.6129 29.4048C26.6388 29.4048 26.6647 29.684 26.6647 30.0104C26.6647 30.3368 26.6431 30.616 26.6129 30.616H26.5612C26.5137 30.616 26.4706 30.616 26.4231 30.616H26.2161C26.1341 30.616 26.0479 30.616 25.9659 30.616H25.6899C25.5993 30.616 25.5044 30.616 25.4138 30.616H25.155C25.0817 30.616 25.0084 30.616 24.9351 30.616H24.7755C24.7496 30.616 24.7237 30.616 24.7021 30.616C24.6763 30.616 24.6504 30.3368 24.6504 30.0104C24.6504 29.684 24.672 29.4048 24.7021 29.4048Z" fill="#252B37"/>
<path d="M57.9142 9.5609C57.884 8.01463 56.672 6.74325 55.1063 6.67453C54.3773 6.64446 53.6441 6.67023 52.9151 6.67453C51.5823 6.68312 50.3531 7.53357 50.0296 8.85219C49.8527 9.56949 49.939 10.3856 49.939 11.1158V13.4609C49.939 13.8088 50.2366 14.1052 50.586 14.1052H57.2672C57.6166 14.1052 57.9142 13.8088 57.9142 13.4609V9.5609C57.9142 8.73193 56.6202 8.73193 56.6202 9.5609V13.4609L57.2672 12.8167H50.586L51.233 13.4609C51.233 12.1896 51.2287 10.9225 51.233 9.6511C51.233 8.81783 51.7808 8.06617 52.652 7.96738C53.3335 7.89436 54.0495 7.95879 54.731 7.95879C55.1063 7.95879 55.4599 7.97168 55.7964 8.16066C56.3096 8.44844 56.6029 8.97246 56.6159 9.5566C56.6331 10.3856 57.9271 10.3856 57.9099 9.5566L57.9142 9.5609Z" fill="#252B37"/>
<path d="M57.2674 15.042H50.5862C50.2368 15.042 49.9392 15.3384 49.9392 15.6863V45.7484C49.9392 46.1865 49.909 46.6418 49.9392 47.0799C49.9823 47.6769 50.4007 47.9561 50.9614 47.9733C51.5222 47.9904 52.1174 47.9733 52.691 47.9733C54.0842 47.9733 55.486 48.0248 56.8749 47.9733C57.7548 47.9389 57.8626 47.3075 57.8626 46.6289C57.8712 41.3887 57.8799 36.1529 57.8885 30.9127C57.8971 25.6726 57.9057 20.935 57.91 15.9483V15.6863C57.91 14.8573 56.6161 14.8573 56.6161 15.6863C56.6075 19.8011 56.6031 23.9202 56.5945 28.035L56.5686 45.3446C56.5686 45.8686 56.491 46.4571 56.5686 46.9768C56.5729 47.0069 56.5557 47.0584 56.5686 47.0885C56.6376 47.2774 57.1595 46.7491 56.9827 46.6804C56.9439 46.6675 56.8792 46.6847 56.8404 46.6804C56.2667 46.6117 55.637 46.6804 55.059 46.6804H52.6393C52.1131 46.6804 51.4402 46.5687 50.9269 46.6804C50.5517 46.762 51.41 46.616 51.2332 47.0885C51.2461 47.0541 51.2289 46.9983 51.2332 46.9639C51.259 46.762 51.2332 46.5344 51.2332 46.3325V15.6863L50.5862 16.3306H57.2674C58.0998 16.3306 58.0998 15.042 57.2674 15.042Z" fill="#252B37"/>
<path d="M54.8523 52.6034C55.5511 51.4222 56.2498 50.241 56.9529 49.0598L57.4575 48.2051C57.5481 48.0505 57.6646 47.8915 57.7163 47.7197C57.8932 47.1399 57.4101 46.749 56.8795 46.7404C56.6337 46.7361 56.3878 46.7404 56.142 46.7404C54.5159 46.7404 52.8855 46.7361 51.2594 46.7318C51.1041 46.7318 50.9402 46.7233 50.7849 46.7318C50.1854 46.7619 49.8317 47.3761 50.1423 47.9001C50.4356 48.3941 50.8022 48.8537 51.13 49.3261L52.8122 51.7529L53.3254 52.4917C53.3513 52.5304 53.3815 52.5733 53.4074 52.612C53.7352 53.0587 54.352 53.166 54.7488 52.7322C55.3095 52.118 54.3951 51.2074 53.8344 51.8217L53.843 51.8088L54.1708 51.7229H54.1967C54.2916 51.7787 54.3865 51.8345 54.4814 51.8904C54.5935 51.9978 54.4814 51.9076 54.4426 51.8431L54.201 51.4952L53.4203 50.3656L51.6519 47.8142L51.3629 47.3933C51.3155 47.3246 51.2206 47.1098 51.2896 47.3203V47.6639L51.3025 47.6081L51.1343 47.8915L51.1731 47.8486L50.8885 48.0161C50.7116 48.0677 50.8281 48.0247 50.9359 48.0247H51.3931C51.8891 48.0247 52.3852 48.0247 52.8812 48.0247H56.211C56.4008 48.029 56.5906 48.029 56.7803 48.029C56.8321 48.029 56.8882 48.029 56.9399 48.029C57.0348 48.029 56.9744 48.0591 56.9011 48.029L56.5129 47.7326L56.5474 47.7971L56.4827 47.2988C56.487 47.273 56.5647 47.1871 56.5172 47.2473C56.4957 47.2773 56.4784 47.3117 56.4612 47.3418L56.2541 47.694L55.5942 48.8064L54.0889 51.3492C53.9681 51.5511 53.8517 51.7486 53.7309 51.9505C53.3082 52.6678 54.4253 53.3164 54.848 52.5991L54.8523 52.6034Z" fill="#252B37"/>
<path d="M57.9997 11.5625H49.8477V17.6359H57.9997V11.5625Z" fill="#4389FA" fill-opacity="0.25"/>
<path d="M36.8969 3.66382V10.2312C36.8969 10.811 36.9745 11.3737 37.2721 11.8891C37.7768 12.7653 38.7128 13.2722 39.7134 13.2937C40.7141 13.3151 41.7622 13.2937 42.7845 13.2937H46.3127C47.1451 13.2937 47.1451 12.0051 46.3127 12.0051H39.9593C39.4805 12.0051 39.0449 11.9407 38.6739 11.6013C38.303 11.262 38.1865 10.781 38.1865 10.287V3.66812C38.1865 2.83914 36.8926 2.83914 36.8926 3.66812L36.8969 3.66382Z" fill="#252B37"/>
<path d="M28.1699 46.8519C27.9887 46.8519 27.8119 46.8519 27.6307 46.8519C27.4712 46.8519 27.4065 46.7918 27.4021 46.6329C27.4021 46.388 27.4021 46.1432 27.4021 45.8984C27.4021 45.8382 27.3849 45.8125 27.3245 45.7996C26.4705 45.5848 25.7416 45.1553 25.1506 44.5024C25.1161 44.4638 25.0773 44.4251 25.0428 44.3865C24.9393 44.2576 24.9436 44.1717 25.0601 44.0557C25.211 43.9054 25.3706 43.7594 25.5259 43.609C25.6855 43.4587 25.8451 43.3084 26.0047 43.158C26.1858 42.9862 26.2764 42.9862 26.4662 43.1452C26.7034 43.3427 26.932 43.5489 27.1994 43.7078C27.6221 43.9612 28.0707 44.0815 28.5624 43.9827C28.9592 43.9054 29.1792 43.6563 29.1835 43.274C29.1835 43.1323 29.1318 43.0163 29.0325 42.9218C28.8298 42.7242 28.5797 42.6083 28.3209 42.5181C27.7947 42.3334 27.2684 42.1487 26.7767 41.8781C26.3368 41.6332 25.94 41.3369 25.6639 40.9074C24.9479 39.7777 25.3577 38.3689 26.5697 37.7805C26.7983 37.6688 27.0355 37.5872 27.2857 37.5356C27.3849 37.5184 27.4065 37.4755 27.4021 37.3853C27.3935 37.1791 27.4021 36.9687 27.4021 36.7625C27.4021 36.5821 27.4841 36.5048 27.6653 36.5005C27.9931 36.5005 28.3252 36.5005 28.653 36.5005C28.8514 36.5005 28.9549 36.6036 28.9549 36.8012C28.9549 36.9944 28.9549 37.1834 28.9549 37.3767C28.9549 37.4583 28.9765 37.4884 29.0584 37.5056C29.7529 37.643 30.361 37.9523 30.8829 38.429C31.1503 38.6739 31.1503 38.7941 30.9002 39.0561C30.6414 39.331 30.3826 39.6059 30.1195 39.8808C29.9685 40.0397 29.8607 40.0483 29.6882 39.9109C29.4898 39.7477 29.2957 39.5844 29.0714 39.4599C28.7091 39.258 28.3295 39.1979 27.924 39.301C27.8292 39.3267 27.7429 39.3611 27.6609 39.4169C27.4151 39.593 27.3806 39.9366 27.5962 40.1557C27.7343 40.2974 27.9068 40.3833 28.088 40.4478C28.4891 40.5938 28.8988 40.727 29.3 40.8773C29.7485 41.0405 30.1885 41.2295 30.5724 41.5259C31.0856 41.921 31.3574 42.4322 31.3919 43.0764C31.4609 44.2877 30.7449 45.1596 29.8089 45.5762C29.5674 45.6836 29.3129 45.7695 29.0498 45.8168C28.9765 45.8297 28.9463 45.8554 28.9463 45.937C28.9506 46.1604 28.9463 46.3794 28.9463 46.6028C28.9463 46.7961 28.8773 46.8605 28.6875 46.8605C28.5107 46.8605 28.3338 46.8605 28.157 46.8605L28.1699 46.8519Z" fill="url(#paint0_linear_328_103819)"/>
<path d="M35.7437 41.8995C35.7135 45.0866 33.7122 48.046 30.6671 49.1327C27.6219 50.2193 24.1153 49.2787 22.0277 46.7703C19.9746 44.2963 19.7373 40.6754 21.3893 37.9351C23.037 35.2076 26.3279 33.7172 29.4766 34.34C33.0954 35.0573 35.7092 38.2357 35.7437 41.8995C35.7524 42.7285 37.0463 42.7285 37.0377 41.8995C37.0032 38.137 34.6352 34.748 31.0811 33.4509C27.5615 32.1623 23.4424 33.2877 21.0701 36.1741C18.6978 39.0604 18.3226 43.2783 20.2765 46.5169C22.2347 49.7641 26.0993 51.4349 29.8217 50.7047C33.9969 49.88 36.9989 46.1003 37.0377 41.9038C37.0463 41.0749 35.7524 41.0749 35.7437 41.9038V41.8995Z" fill="#252B37"/>
<path d="M19.436 25.3932H12.082C9.52853 25.3932 6.96647 25.4318 4.41304 25.3932C2.59286 25.3631 1.31614 23.9156 1.31183 22.1503C1.31183 21.1796 1.31183 20.2132 1.31183 19.2424V5.0597C1.31183 4.83635 1.31183 4.6087 1.31183 4.38535C1.32908 3.33303 1.84236 2.34084 2.74382 1.77387C3.64529 1.20691 4.72791 1.29281 5.76739 1.29281H19.1988C20.9931 1.29281 22.4984 2.51694 22.5286 4.37676C22.5415 5.07258 22.5286 5.7727 22.5286 6.47282V20.9691C22.5286 21.8367 22.6235 22.786 22.2482 23.5935C21.735 24.6973 20.6394 25.3674 19.4317 25.3889C18.5993 25.406 18.5993 26.6946 19.4317 26.6774C21.8773 26.6302 23.7924 24.693 23.8226 22.2663C23.8355 21.3814 23.8226 20.4923 23.8226 19.6032V4.95232C23.8226 3.41464 23.443 1.96716 22.1663 0.96208C21.0276 0.0600886 19.7509 -4.41484e-05 18.3793 -4.41484e-05H13.6779C10.6413 -4.41484e-05 7.60914 -0.00433935 4.57263 -4.41484e-05C2.4764 0.00854625 0.535447 1.35724 0.11275 3.47047C-0.0554657 4.31663 0.0178592 5.2358 0.0178592 6.09055V21.055C0.0178592 22.1804 -0.0252731 23.2584 0.505254 24.3065C1.35065 25.973 3.04575 26.6774 4.83142 26.6774H19.4403C20.2728 26.6774 20.2728 25.3889 19.4403 25.3889L19.436 25.3932Z" fill="#252B37"/>
<path d="M20.4621 6.09477H3.29542L3.94241 6.73905V3.36303L3.29542 4.00731H20.4621L19.8151 3.36303V6.73905C19.8151 7.56803 21.1091 7.56803 21.1091 6.73905V3.36303C21.1091 3.01512 20.8114 2.71875 20.4621 2.71875H3.29542C2.94605 2.71875 2.64844 3.01512 2.64844 3.36303V6.73905C2.64844 7.08697 2.94605 7.38333 3.29542 7.38333H20.4621C21.2945 7.38333 21.2945 6.09477 20.4621 6.09477Z" fill="#252B37"/>
<path d="M6.25959 11.6059H3.24464L3.89163 12.2501V9.2478L3.24464 9.89207H6.25959L5.6126 9.2478V12.2501C5.6126 12.5852 5.91022 12.9116 6.25959 12.8944C6.60896 12.8772 6.90657 12.6109 6.90657 12.2501V9.2478C6.90657 8.89988 6.60896 8.60352 6.25959 8.60352H3.24464C2.89527 8.60352 2.59766 8.89988 2.59766 9.2478V12.2501C2.59766 12.598 2.89527 12.8944 3.24464 12.8944H6.25959C6.59602 12.8944 6.92383 12.598 6.90657 12.2501C6.88932 11.9022 6.6219 11.6059 6.25959 11.6059Z" fill="#252B37"/>
<path d="M13.4197 11.6059H10.4048L11.0518 12.2501V9.2478L10.4048 9.89207H13.4197L12.7728 9.2478V12.2501C12.7728 12.5852 13.0704 12.9116 13.4197 12.8944C13.7691 12.8772 14.0667 12.6109 14.0667 12.2501V9.2478C14.0667 8.89988 13.7691 8.60352 13.4197 8.60352H10.4048C10.0554 8.60352 9.75781 8.89988 9.75781 9.2478V12.2501C9.75781 12.598 10.0554 12.8944 10.4048 12.8944H13.4197C13.7562 12.8944 14.084 12.598 14.0667 12.2501C14.0495 11.9022 13.7821 11.6059 13.4197 11.6059Z" fill="#252B37"/>
<path d="M20.5799 11.6059H17.565L18.2119 12.2501V9.2478L17.565 9.89207H20.5799L19.9329 9.2478V12.2501C19.9329 12.5852 20.2305 12.9116 20.5799 12.8944C20.9293 12.8772 21.2269 12.6109 21.2269 12.2501V9.2478C21.2269 8.89988 20.9293 8.60352 20.5799 8.60352H17.565C17.2156 8.60352 16.918 8.89988 16.918 9.2478V12.2501C16.918 12.598 17.2156 12.8944 17.565 12.8944H20.5799C20.9163 12.8944 21.2441 12.598 21.2269 12.2501C21.2096 11.9022 20.9422 11.6059 20.5799 11.6059Z" fill="#252B37"/>
<path d="M6.25959 16.9018H3.24464L3.89163 17.546V14.5437L3.24464 15.188H6.25959L5.6126 14.5437V17.546C5.6126 17.8811 5.91022 18.2075 6.25959 18.1903C6.60896 18.1731 6.90657 17.9068 6.90657 17.546V14.5437C6.90657 14.1958 6.60896 13.8994 6.25959 13.8994H3.24464C2.89527 13.8994 2.59766 14.1958 2.59766 14.5437V17.546C2.59766 17.8939 2.89527 18.1903 3.24464 18.1903H6.25959C6.59602 18.1903 6.92383 17.8939 6.90657 17.546C6.88932 17.1981 6.6219 16.9018 6.25959 16.9018Z" fill="#252B37"/>
<path d="M13.4197 16.9018H10.4048L11.0518 17.546V14.5437L10.4048 15.188H13.4197L12.7728 14.5437V17.546C12.7728 17.8811 13.0704 18.2075 13.4197 18.1903C13.7691 18.1731 14.0667 17.9068 14.0667 17.546V14.5437C14.0667 14.1958 13.7691 13.8994 13.4197 13.8994H10.4048C10.0554 13.8994 9.75781 14.1958 9.75781 14.5437V17.546C9.75781 17.8939 10.0554 18.1903 10.4048 18.1903H13.4197C13.7562 18.1903 14.084 17.8939 14.0667 17.546C14.0495 17.1981 13.7821 16.9018 13.4197 16.9018Z" fill="#252B37"/>
<path d="M20.5799 16.9018H17.565L18.2119 17.546V14.5437L17.565 15.188H20.5799L19.9329 14.5437V17.546C19.9329 17.8811 20.2305 18.2075 20.5799 18.1903C20.9293 18.1731 21.2269 17.9068 21.2269 17.546V14.5437C21.2269 14.1958 20.9293 13.8994 20.5799 13.8994H17.565C17.2156 13.8994 16.918 14.1958 16.918 14.5437V17.546C16.918 17.8939 17.2156 18.1903 17.565 18.1903H20.5799C20.9163 18.1903 21.2441 17.8939 21.2269 17.546C21.2096 17.1981 20.9422 16.9018 20.5799 16.9018Z" fill="#252B37"/>
<path d="M6.25959 22.1977H3.24464L3.89163 22.8419V19.8396L3.24464 20.4839H6.25959L5.6126 19.8396V22.8419C5.6126 23.177 5.91022 23.5034 6.25959 23.4862C6.60896 23.469 6.90657 23.2027 6.90657 22.8419V19.8396C6.90657 19.4917 6.60896 19.1953 6.25959 19.1953H3.24464C2.89527 19.1953 2.59766 19.4917 2.59766 19.8396V22.8419C2.59766 23.1898 2.89527 23.4862 3.24464 23.4862H6.25959C6.59602 23.4862 6.92383 23.1898 6.90657 22.8419C6.88932 22.494 6.6219 22.1977 6.25959 22.1977Z" fill="#252B37"/>
<path d="M13.4197 22.1977H10.4048L11.0518 22.8419V19.8396L10.4048 20.4839H13.4197L12.7728 19.8396V22.8419C12.7728 23.177 13.0704 23.5034 13.4197 23.4862C13.7691 23.469 14.0667 23.2027 14.0667 22.8419V19.8396C14.0667 19.4917 13.7691 19.1953 13.4197 19.1953H10.4048C10.0554 19.1953 9.75781 19.4917 9.75781 19.8396V22.8419C9.75781 23.1898 10.0554 23.4862 10.4048 23.4862H13.4197C13.7562 23.4862 14.084 23.1898 14.0667 22.8419C14.0495 22.494 13.7821 22.1977 13.4197 22.1977Z" fill="#252B37"/>
<path d="M20.5799 22.1977H17.565L18.2119 22.8419V19.8396L17.565 20.4839H20.5799L19.9329 19.8396V22.8419C19.9329 23.177 20.2305 23.5034 20.5799 23.4862C20.9293 23.469 21.2269 23.2027 21.2269 22.8419V19.8396C21.2269 19.4917 20.9293 19.1953 20.5799 19.1953H17.565C17.2156 19.1953 16.918 19.4917 16.918 19.8396V22.8419C16.918 23.1898 17.2156 23.4862 17.565 23.4862H20.5799C20.9163 23.4862 21.2441 23.1898 21.2269 22.8419C21.2096 22.494 20.9422 22.1977 20.5799 22.1977Z" fill="#252B37"/>
</g>
<defs>
<linearGradient id="paint0_linear_328_103819" x1="28.1826" y1="36.5005" x2="28.1826" y2="46.8605" gradientUnits="userSpaceOnUse">
<stop stop-color="#3B82F6"/>
<stop offset="1" stop-color="#9DC1FB"/>
</linearGradient>
<clipPath id="clip0_328_103819">
<rect width="58" height="55" fill="white"/>
</clipPath>
</defs>
</svg>
