<svg xmlns="http://www.w3.org/2000/svg" width="60" height="57" fill="none" viewBox="0 0 60 57"><g clip-path="url(#a)"><path fill="#4389fa" fill-opacity=".25" d="M22.58 35.27c1.853-7.647 5.574-15.489 4.964-23.497-.072-.925.366-1.533.985-1.845a16.3 16.3 0 0 0-12.25-5.506C7.287 4.422 0 11.632 0 20.527S7.287 36.63 16.279 36.63c2.227 0 4.348-.446 6.285-1.245.008-.038.008-.08.02-.117z"/><path fill="#252b37" d="m37.806 46.047-10.97-2.357c-.75-.162-1.473-.308-2.126-.737-1.292-.85-1.924-2.436-1.642-3.927.127-.68.278-1.35.417-2.024.813-3.92 1.62-7.842 2.433-11.76.968-4.678 1.932-9.354 2.9-14.027.472-2.286.914-4.577 1.42-6.855.353-1.603 1.641-2.878 3.312-3.094.61-.08 1.187.029 1.777.146q2.602.524 5.199 1.053c4.083.825 8.166 1.654 12.254 2.478.707.142 1.38.325 1.978.754 1.217.874 1.802 2.403 1.524 3.856-.168.875-.362 1.745-.543 2.616l-2.715 13.076-2.273 10.953c-.042.196-.08.392-.122.587-.164.783 1.052 1.12 1.216.333l1.743-8.395c.99-4.756 1.974-9.508 2.964-14.264l.858-4.135c.097-.467.194-.929.207-1.412.042-1.77-.897-3.46-2.395-4.41-1.192-.758-2.787-.904-4.151-1.179-2.294-.466-4.593-.929-6.887-1.395s-4.53-.916-6.794-1.374c-1.47-.296-3.023-.775-4.517-.43a5.18 5.18 0 0 0-3.713 3.407c-.101.309-.16.62-.224.937L28.2 8.033l-2.78 13.435c-.921 4.456-1.843 8.908-2.761 13.364l-.72 3.477c-.08.38-.156.754-.185 1.137-.13 1.77.758 3.494 2.21 4.51.74.517 1.579.738 2.446.92l2.749.592 6.975 1.5 1.347.287c.791.17 1.133-1.033.337-1.204z"/><path fill="#252b37" d="m46.217 5.91-3.886-.788c-.665-.133-1.309-.245-1.81-.75-.74-.745-.648-1.644-.454-2.577l-.78.437 8.824 1.787 1.255.254-.442-.77c-.118.57-.198 1.157-.581 1.623-.51.625-1.33.925-2.126.783-.796-.141-1.137 1.062-.337 1.204 1.154.204 2.315-.083 3.17-.908.682-.658.905-1.487 1.09-2.374.063-.312-.088-.695-.442-.77l-8.823-1.787-1.255-.254c-.315-.062-.703.088-.778.437-.236 1.133-.341 2.224.34 3.249.577.862 1.436 1.34 2.438 1.54l4.256.863c.791.162 1.132-1.046.337-1.204z"/><path fill="url(#b)" d="M41.4 26.882c3.986 0 7.216-3.196 7.216-7.138s-3.23-7.138-7.215-7.138-7.216 3.196-7.216 7.138 3.231 7.138 7.216 7.138"/><path fill="#fff" d="M38.434 19.098c.388.817.77 1.629 1.158 2.445.147.317.585.37.863.225 1.604-.841 3.212-1.678 4.816-2.52.227-.116.454-.237.682-.354.72-.374.08-1.453-.636-1.078-1.604.841-3.212 1.678-4.816 2.52-.227.116-.454.237-.682.353l.863.225-1.157-2.444c-.144-.304-.59-.384-.863-.225-.316.183-.37.55-.228.853"/><path fill="#252b37" d="M52.234 40.055c-3.473-.421-5.418-3.907-7.081-6.535-.943-1.486-1.957-2.96-3.317-4.106-1.255-1.054-2.812-2.028-4.492-2.178s-2.989.887-3.174 2.528c-.194 1.728.956 3.302 1.688 4.78.834 1.687 1.545 3.453 1.852 5.315.308 1.861-.042 3.627-.425 5.447s-.732 3.877.101 5.693c.421.912 1.128 1.628 1.697 2.44.522.742 1.006 1.754.513 2.624-.4.7.69 1.333 1.09.629.876-1.545.051-3.186-.934-4.448-.539-.691-1.124-1.37-1.398-2.211-.256-.796-.269-1.625-.189-2.449.173-1.733.74-3.398.897-5.13.156-1.733-.164-3.578-.733-5.265-.568-1.686-1.435-3.369-2.273-5.001-.37-.717-.732-1.516-.631-2.34.092-.73.568-1.28 1.321-1.367 1.554-.179 3.23.979 4.332 1.933 1.31 1.136 2.26 2.582 3.174 4.035 1.895 3.015 4.1 6.384 7.986 6.855.804.096.795-1.154 0-1.25zm.891-13.098c.977 1.324 2.34 2.203 3.57 3.269.602.52 1.166 1.091 1.54 1.799.455.845.54 1.82.484 2.757-.122 2.103-.803 4.19-1.363 6.205-.56 2.016-1.124 4.102-1.377 6.218a16.4 16.4 0 0 0-.072 3.436c.055.59.144 1.182.274 1.761.114.5.19 1.112.678 1.383a.655.655 0 0 0 .766-.096c.227-.212.244-.437.202-.729-.042-.291-.358-.425-.61-.458l-.05-.008c-.805-.104-.796 1.15 0 1.249l.05.008-.61-.458.008.075.164-.608-.05.046.766-.096c.109.059-.051-.441-.076-.545q-.09-.37-.152-.746c-.084-.508-.13-1.02-.147-1.536-.038-1.03.03-2.062.177-3.082.303-2.09.9-4.123 1.465-6.155.564-2.033 1.153-3.998 1.229-6.043.067-1.808-.53-3.42-1.81-4.71s-2.9-2.128-3.966-3.565c-.476-.641-1.57-.02-1.09.629"/><path fill="#252b37" d="M48.904 39.213c1.785-.637 3.384-1.745 4.546-3.232.21-.266.261-.624 0-.882-.219-.217-.682-.267-.892 0a9 9 0 0 1-1.343 1.395l-.24.196c-.055.041-.101.074-.198.15-.341.245-.699.47-1.074.666-.189.1-.387.196-.585.287-.122.054-.096.046-.227.096a10 10 0 0 1-.32.12c-.32.113-.535.425-.442.771.084.308.455.55.779.437z"/><path stroke="#252b37" stroke-linecap="round" stroke-linejoin="round" stroke-width="1.333" d="M18.034 19h-6.367a1.667 1.667 0 1 1 0-3.333h6.367m-4.068 10.666h6.367a1.667 1.667 0 1 0 0-3.333h-6.367M10 24.667a2.333 2.333 0 1 0 4.667 0 2.333 2.333 0 0 0-4.667 0m12-7.334a2.333 2.333 0 1 1-4.667 0 2.333 2.333 0 0 1 4.667 0"/></g><defs><linearGradient id="b" x1="41.401" x2="41.401" y1="12.606" y2="26.882" gradientUnits="userSpaceOnUse"><stop stop-color="#3b82f6"/><stop offset="1" stop-color="#9dc1fb"/></linearGradient><clipPath id="a"><path fill="#fff" d="M0 0h60v57H0z"/></clipPath></defs></svg>