<svg xmlns="http://www.w3.org/2000/svg" width="80" height="68" fill="none" viewBox="0 0 80 68"><g clip-path="url(#a)"><path fill="#4389fa" fill-opacity=".25" d="M53.007 60.985H6c0-10.166 8.243-18.41 18.41-18.41-.064.153-1.502 3.852.818 6.798 1.531 1.946 3.729 2.328 4.277 2.406.549-.067 2.728-.39 4.274-2.272 1.534-1.868 1.838-4.552.822-6.935 1.18-.007 7.847.056 13.154 5.441 5.189 5.263 5.263 11.742 5.256 12.968z"/><path fill="#252b37" d="M40.723 27.936c2.428-2.364 2.543-6.2 1.787-9.299-.374-1.538-.993-3.076-1.938-4.355-1.035-1.4-2.417-2.28-4.159-2.568-1.742-.29-3.71-.008-5.393.7l.43.056c-3.235-1.59-6.945-1.212-9.877.849-2.428 1.708-4.01 4.299-4.455 7.242-.337 2.227-.096 4.496.619 6.627.156.463.993.589 1.071 0 .111-.838.4-1.594.797-2.269.79-1.345 2.146-2.042 3.766-1.779 1.367.223 2.498.997 3.784 1.45 1.019.359 2.116.492 3.18.281 1.712-.34 3.024-1.63 3.888-3.087.552-.93 1.004-1.987 1.238-3.047l-1.094-.148c-.078 1.271.36 2.672 1.12 3.68s1.764 1.557 2.935 1.939c.856.278 1.797.823 1.805 1.794 0 .474-.137.885-.382 1.26-.337.515.3.96.76.76.986-.427 2.364-.486 2.683.808.167.678-.178 1.352-.415 1.971-.237.62-.49 1.205-.79 1.783-.34.656-.726 1.342-1.304 1.82-.074.06.026-.015-.07.052q-.068.045-.134.085l-.111.06c-.07.036.089-.03-.04.01-.038.012-.075.019-.112.03-.119.033.096-.007.015 0-.063.004-.122 0-.185 0 .166.007.037 0-.045-.026.037.011.096.063-.007-.011-.145-.1.085.085.003.007a.562.562 0 0 0-.93.245c-1.227 4.277-3.87 9.006-8.573 9.814-.166.03.004 0-.037.008q-.066.006-.133.015a4 4 0 0 1-.208.014c-.07.004-.133 0-.203.004-.364 0-.727.011-1.09-.018-.045-.004-.09-.012-.134-.015-.033-.004.123.022-.037-.008-.122-.022-.24-.04-.363-.067a7 7 0 0 1-.9-.252 8.6 8.6 0 0 1-2.161-1.137c-2.736-1.954-4.248-5.219-5.148-8.358a.562.562 0 0 0-.93-.245c-.086.086.137-.107.03-.022-.171.133.055-.048-.112.048-.119.067.1.011-.03.008h-.092c-.134-.011.077.022 0 0-.045-.011-.227-.067-.164-.045.045.019-.151-.085-.207-.118-.122-.075-.074-.045-.215-.17a4 4 0 0 1-.311-.327 6.5 6.5 0 0 1-.649-.964 14 14 0 0 1-.767-1.571c-.267-.638-.652-1.375-.72-2.068-.058-.62.23-1.22.783-1.52.422-.23.997-.207 1.468-.267.7-.089.707-1.2 0-1.112-.6.075-1.268.067-1.831.32a2.6 2.6 0 0 0-1.327 1.363c-.304.726-.237 1.471.022 2.198.29.812.608 1.616.978 2.39.545 1.13 1.553 3.103 3.092 2.992.3-.023.615-.138.834-.353l-.93-.244c1.296 4.529 4.217 9.777 9.35 10.589 2.22.352 4.452-.338 6.249-1.66 2.91-2.147 4.559-5.53 5.533-8.93l-.93.245c.597.59 1.524.36 2.117-.096.774-.597 1.297-1.508 1.723-2.372.385-.775.708-1.579 1-2.394s.416-1.564.082-2.365a2.54 2.54 0 0 0-1.612-1.457c-.875-.259-1.772 0-2.58.345l.76.76c.749-1.142.73-2.735-.293-3.703-1.023-.967-2.38-.956-3.413-1.76-.738-.575-1.212-1.397-1.45-2.294-.133-.512-.207-.93-.173-1.475.037-.623-.957-.76-1.094-.149-.482 2.176-1.894 4.845-4.31 5.352-1.027.215-2.105-.033-3.054-.437-1.253-.53-2.38-1.175-3.755-1.342-1.79-.215-3.398.534-4.414 2.005-.57.83-.99 1.872-1.123 2.876h1.071c-1.186-3.528-1.049-7.727 1.338-10.748 1.594-2.016 4.11-3.458 6.69-3.576a8.3 8.3 0 0 1 2.898.393c.352.11.686.252 1.023.403.338.152.5.141.808.019 1.346-.523 2.817-.793 4.259-.637 1.441.155 2.78.808 3.702 1.982.816 1.038 1.364 2.29 1.735 3.551.841 2.854.971 6.627-1.327 8.865-.511.5.274 1.287.786.786z"/><path fill="#4389fa" d="M8.68 16.187V8.556l-.556.556h7.632c.715 0 .715-1.112 0-1.112H8.124c-.3 0-.556.256-.556.556v7.631c0 .715 1.112.715 1.112 0m7.076 25.933H8.124l.556.556v-7.632c0-.715-1.112-.715-1.112 0v7.632c0 .3.256.555.556.555h7.632c.715 0 .715-1.111 0-1.111M43.048 9.112h7.631l-.556-.556v7.631c0 .715 1.112.715 1.112 0V8.556c0-.3-.255-.556-.556-.556h-7.63c-.716 0-.716 1.112 0 1.112m7.075 25.937v7.631l.555-.556h-7.63c-.716 0-.716 1.112 0 1.112h7.63c.3 0 .556-.256.556-.556v-7.631c0-.716-1.111-.716-1.111 0"/></g><path fill="#252b37" d="M71.442 60.402H64.19c-.923 0-1.848.009-2.772 0-.976-.01-1.808-.779-1.841-1.774-.004-.142 0-.285 0-.427V38.736c0-.745-.084-1.527.454-2.132.419-.473.973-.626 1.58-.626h9.553c.522 0 1.02.064 1.442.416.458.383.669.927.669 1.514v19.14c0 .504.005 1.01 0 1.514a1.855 1.855 0 0 1-1.829 1.84c-.353.005-.353.557 0 .552 1.171-.019 2.193-.882 2.352-2.061.03-.217.025-.432.025-.651V37.879c-.001-.716-.276-1.41-.829-1.877-.508-.432-1.11-.578-1.76-.578H61.59c-.67 0-1.296.171-1.801.639s-.761 1.137-.763 1.827 0 1.352 0 2.029v17.34c0 .565-.055 1.169.038 1.73.189 1.135 1.212 1.954 2.34 1.966.26.004.521 0 .78 0h9.258c.354 0 .354-.551 0-.551z"/><path fill="#252b37" d="M59.41 38.911h14.136c.354 0 .354-.552 0-.552H59.41c-.353 0-.353.552 0 .552m5.269-1.433h3.265c.353 0 .353-.552 0-.552H64.68c-.353 0-.353.552 0 .552m-.935 14.847h5.094c.353 0 .353-.552 0-.552h-5.094c-.353 0-.353.552 0 .552m.86 1.472h3.501c.353 0 .353-.552 0-.552h-3.501c-.354 0-.354.552 0 .552"/><path fill="url(#b)" d="M74.085 36.854a.83.83 0 0 0 1.014.492c.72-.221 1.337.555.961 1.21a.834.834 0 0 0 .251 1.102c.62.427.4 1.397-.342 1.51a.833.833 0 0 0-.701.884c.055.754-.837 1.185-1.39.671a.83.83 0 0 0-1.125 0c-.553.514-1.444.081-1.39-.671a.83.83 0 0 0-.7-.883c-.743-.114-.963-1.084-.342-1.51a.836.836 0 0 0 .25-1.103c-.375-.655.242-1.433.961-1.21a.83.83 0 0 0 1.014-.492.827.827 0 0 1 1.541 0z"/><path fill="#fff" d="m71.87 39.695.688.929c.112.153.284.178.432.055q.885-.733 1.772-1.464l.256-.212c.115-.094.097-.292 0-.39-.114-.114-.273-.096-.388 0l-1.772 1.465-.256.211.432.055-.688-.929c-.088-.12-.238-.18-.376-.1-.117.069-.186.258-.098.378z"/><path fill="#252b37" d="M59.083 44.519a10.74 10.74 0 0 0 4.803 2.671c2.696.683 5.578.22 7.956-1.216a10.6 10.6 0 0 0 1.903-1.455c.255-.247-.133-.637-.388-.39a10.2 10.2 0 0 1-4.572 2.533c-2.579.648-5.318.182-7.58-1.201a10 10 0 0 1-1.734-1.332c-.254-.247-.642.143-.388.39"/><path fill="#c1d9e5" d="M66.504 50.767c2.507 0 4.539-2.043 4.539-4.563s-2.032-4.562-4.54-4.562c-2.506 0-4.538 2.042-4.538 4.562s2.032 4.563 4.539 4.563"/><path fill="#252b37" d="M67.531 45.895c-.005.434-.27.842-.682.991s-.91.026-1.196-.333a1.07 1.07 0 0 1-.076-1.203c.221-.373.66-.577 1.085-.5.505.092.864.532.871 1.043.006.355.555.355.55 0a1.64 1.64 0 0 0-1.053-1.512 1.585 1.585 0 0 0-1.774.476c-.417.512-.5 1.272-.152 1.858a1.62 1.62 0 0 0 1.688.757c.748-.137 1.281-.828 1.292-1.579.005-.355-.544-.355-.55 0z"/><path fill="#252b37" d="M69.646 49.29c-.478-1.309-1.704-2.216-3.104-2.216s-2.66.933-3.12 2.267c-.118.337.413.48.528.147a2.77 2.77 0 0 1 2.592-1.862c1.162 0 2.18.734 2.573 1.81.12.332.652.188.529-.147zm.635 8.242h-6.435c-.399 0-.803.02-1.202 0-.526-.028-.47-.552-.47-.933v-.655c0-.162-.008-.322.098-.46.145-.188.352-.18.56-.18h5.961c.487 0 .978-.02 1.465 0 .375.014.492.294.492.623 0 .374.02.753 0 1.124-.015.267-.2.468-.47.479-.352.014-.354.566 0 .552.644-.026 1.019-.53 1.019-1.147 0-.386.013-.772 0-1.159a1.04 1.04 0 0 0-1.036-1.024c-.176-.006-.351 0-.527 0H64.3c-.544 0-1.09-.015-1.634 0s-1.01.421-1.042.993c-.02.385 0 .775 0 1.161 0 .22.015.432.121.635.165.314.49.511.838.539.136.01.277.002.412.002h7.286c.354 0 .354-.552 0-.552z"/><defs><linearGradient id="b" x1="73.316" x2="73.316" y1="36.327" y2="42.947" gradientUnits="userSpaceOnUse"><stop stop-color="#3b82f6"/><stop offset="1" stop-color="#9dc1fb"/></linearGradient><clipPath id="a"><path fill="#fff" d="M6 8h47.007v52.985H6z"/></clipPath></defs></svg>