<svg xmlns="http://www.w3.org/2000/svg" width="32" height="32" fill="none" viewBox="0 0 32 32"><g clip-path="url(#a)"><path fill="#3b82f6" fill-opacity=".25" d="m25.007 12.335-4.86-7.788a1.14 1.14 0 0 0-1.6-.36l-12.524 8.19h18.919l.067-.043z"/><path fill="#252b37" d="M27.58 23.182v2.578c0 .259-.001.51-.095.758-.224.59-.782.924-1.385.926H6.217c-.213 0-.419.005-.628-.052-.663-.187-1.046-.802-1.048-1.484V16.65c0-.737-.01-1.476 0-2.214.011-.81.64-1.452 1.432-1.463q.205-.002.414 0h18.366c.464 0 .93-.006 1.394 0 .8.01 1.423.66 1.432 1.476.007.57 0 1.14 0 1.71v1.452c0 .357.541.357.541 0 0-1.059.017-2.12 0-3.176-.016-1.057-.885-1.998-1.966-2.015H7.226c-.438 0-.88-.016-1.32 0-1.058.04-1.888.934-1.904 2.01q-.002.318 0 .637v8.317c0 .854-.004 1.708 0 2.562.003.854.493 1.611 1.274 1.92.291.114.593.13.898.13h18.429c.511 0 1.024.005 1.535 0a2 2 0 0 0 1.885-1.392c.182-.562.095-1.26.095-1.843v-1.584c0-.356-.541-.356-.541 0z"/><path fill="#252b37" d="M28.737 22.704H24.25c-.565 0-1.129.007-1.694 0a1.77 1.77 0 0 1-1.5-.85c-.273-.451-.268-.93-.268-1.438s-.043-.983.167-1.432a1.79 1.79 0 0 1 1.598-1.037c.512-.008 1.025 0 1.536 0 1.544 0 3.097-.046 4.64 0 .454.013.719.37.72.81v2.577c0 .259.04.56-.02.815a.73.73 0 0 1-.692.556c-.349.012-.349.566 0 .555.704-.022 1.238-.579 1.255-1.298.007-.343 0-.687 0-1.03v-1.577c0-.314.034-.66-.033-.97-.13-.603-.672-.987-1.255-.993h-6.03c-.44 0-.862.08-1.25.302-.657.377-1.085 1.07-1.165 1.833-.043.429-.012.876-.012 1.306.002.67.236 1.31.717 1.776a2.32 2.32 0 0 0 1.616.649h6.157c.348 0 .348-.554 0-.554"/><path fill="#252b37" d="M24.101 20.122a.73.73 0 0 1-.144.442c-.045.068.018-.02-.013.016l-.043.048-.036.037c-.002.002-.067.058-.024.024a1 1 0 0 1-.108.072q-.023.014-.045.024l-.007.004-.037.015a1 1 0 0 1-.146.042q-.032.005-.068.006-.068.003-.138-.004c-.048-.005.06.015-.021-.003l-.078-.019-.074-.024c-.007-.002-.047-.022-.007-.002a1 1 0 0 1-.114-.063.7.7 0 0 1-.175-.162c.027.033 0 0-.006-.006a1 1 0 0 1-.082-.142 1 1 0 0 1-.04-.128l-.011-.053q-.008-.05-.002-.008l-.003-.04a1 1 0 0 1 0-.126c0-.004.01-.092.001-.037l.011-.053q.016-.067.038-.13c.025-.076-.023.039.015-.031q.017-.035.037-.07l.035-.056a1 1 0 0 0 .1-.11c-.003.003.06-.053.032-.03l.034-.026a1 1 0 0 1 .135-.078c-.01.006-.043.015.008-.002l.073-.024.051-.013c-.005 0 .081-.014.043-.009s.051-.004.045-.004h.07q.033 0 .068.004c.061.004-.02-.01.034.006q.077.018.152.044c.077.028-.024-.013.02.01a1 1 0 0 1 .079.043l.043.028q.023.015.042.03-.033-.025.005.005.047.047.09.093c.055.057-.023-.039.022.026q.023.031.042.066l.038.07c.027.048-.006-.026.014.032q.025.078.043.155c.002.007.008.054.002.007q.006.056.006.111c.002.15.123.277.27.277a.276.276 0 0 0 .271-.277 1.3 1.3 0 0 0-.828-1.206 1.22 1.22 0 0 0-1.38.377c-.321.402-.399 1.014-.123 1.485a1.26 1.26 0 0 0 1.326.603c.585-.107.998-.664 1.007-1.257a.28.28 0 0 0-.27-.277.28.28 0 0 0-.271.277z"/><path fill="#3b82f6" fill-opacity=".8" d="M22.692 5.94 6.186 12.368h19.823L23.81 6.456a.86.86 0 0 0-1.12-.514z"/></g><defs><clipPath id="a"><path fill="#fff" d="M4 4h26v24H4z"/></clipPath></defs></svg>