<svg xmlns="http://www.w3.org/2000/svg" width="32" height="32" fill="none" viewBox="0 0 32 32"><g clip-path="url(#a)"><path fill="#252b37" d="M22.286 24.918H8.146c-.44 0-.882.03-1.303-.125-.669-.247-1.157-.87-1.287-1.584-.031-.172-.03-.344-.03-.518V7.259c0-.41-.03-.837.087-1.233a2.05 2.05 0 0 1 1.454-1.417c.22-.055.44-.057.662-.057h10.323l-.187-.08L21.58 8.19l.526.527-.077-.192v8.56c0 .349.527.349.527 0V8.902c0-.214.04-.44-.114-.607-.76-.816-1.58-1.58-2.368-2.368l-1.342-1.345-.4-.4c-.088-.087-.151-.161-.285-.174-.2-.022-.412 0-.612 0H7.559a2.55 2.55 0 0 0-2.064 1.065C4.979 5.79 5 6.587 5 7.42v15.354c0 .632.184 1.228.57 1.723.485.62 1.218.956 1.984.963h14.733c.338 0 .338-.543 0-.543z"/><path fill="#252b37" d="M17.787 4.28v4.26c0 .146.121.271.263.271h4.242c.339 0 .339-.543 0-.543H18.05l.264.272V4.28c0-.35-.527-.35-.527 0m7.245 16.905c-.012 1.508-.927 2.907-2.313 3.423s-2.987.076-3.944-1.107-1.056-2.903-.29-4.205c.764-1.303 2.282-1.992 3.727-1.682 1.632.352 2.808 1.855 2.82 3.571.003.35.53.35.526 0-.014-1.752-1.077-3.328-2.67-3.935-1.589-.605-3.455-.076-4.52 1.281s-1.221 3.312-.337 4.818 2.6 2.272 4.263 1.942c1.887-.373 3.25-2.142 3.264-4.107.004-.35-.523-.35-.526 0z"/><path fill="#252b37" d="m24.514 23.782 2.718 3.325c.25.306.35.715.088 1.06-.32.42-.883.353-1.197-.026-.466-.56-.923-1.129-1.383-1.692l-1.405-1.721c-.22-.269-.59.117-.372.384.931 1.14 1.851 2.29 2.795 3.419a1.26 1.26 0 0 0 1.578.315c.64-.35.865-1.238.47-1.864-.131-.21-.31-.397-.467-.587l-.88-1.078q-.784-.961-1.571-1.921c-.22-.268-.59.118-.372.384z"/><path fill="#3b82f6" d="M9.438 16.895h-.63a.446.446 0 0 0-.439.453v3.761c0 .25.197.453.439.453h.63a.446.446 0 0 0 .439-.453v-3.761a.446.446 0 0 0-.44-.453"/><path fill="#252b37" d="M12.962 21.327h-1.507l.263.271v-7.723l-.263.271h1.507l-.263-.271v7.724c0 .35.526.35.526 0v-7.724a.27.27 0 0 0-.263-.272h-1.507a.27.27 0 0 0-.264.272v7.724c0 .146.121.271.264.271h1.507c.339 0 .339-.543 0-.543"/><path fill="#3b82f6" d="M15.61 16.895h-.63a.446.446 0 0 0-.439.453v3.761c0 .25.196.453.439.453h.63a.446.446 0 0 0 .439-.453v-3.761a.446.446 0 0 0-.44-.453"/><path fill="#252b37" d="M17.892 21.599v-9.286l-.264.272h1.508l-.263-.272v5.515c0 .35.526.35.526 0v-5.515a.27.27 0 0 0-.263-.272h-1.508a.27.27 0 0 0-.263.272v9.286c0 .35.527.35.527 0m-9.438-6.672q1.5-1.576 2.999-3.154.212-.225.425-.448h-.372l3.165 2.6c.113.093.262.113.373 0q1.77-1.778 3.543-3.553l.502-.504c.244-.244-.13-.628-.372-.384q-1.771 1.778-3.544 3.553-.25.253-.502.504h.373l-2.764-2.27-.402-.33c-.11-.09-.264-.114-.372 0l-3 3.155-.424.447c-.237.25.135.634.372.384"/><path fill="#3b82f6" d="M11.818 12.054a.78.78 0 0 0 .767-.792.78.78 0 0 0-.767-.792.78.78 0 0 0-.767.792.78.78 0 0 0 .767.792m6.877-1.31a.78.78 0 0 0 .767-.792.78.78 0 0 0-.767-.792.78.78 0 0 0-.767.792.78.78 0 0 0 .767.792M8.454 15.558a.78.78 0 0 0 .767-.792.78.78 0 0 0-.767-.792.78.78 0 0 0-.767.792.78.78 0 0 0 .767.792m6.532-1.028a.78.78 0 0 0 .767-.791.78.78 0 0 0-.767-.792.78.78 0 0 0-.767.792.78.78 0 0 0 .767.792"/><path fill="#252b37" d="M7.219 21.975h10.143c.339 0 .339-.543 0-.543H7.22c-.339 0-.339.543 0 .543"/><path fill="#3b82f6" d="M22.23 19.31q.168.232.222.5c.009.044.04.027.061.027h.506c.124 0 .158.037.158.167v.308c0 .098-.039.136-.136.136h-.512c-.046 0-.065.01-.074.06-.119.594-.488.945-1.035 1.121-.125.04-.253.06-.386.087q.154.172.298.34.506.586.986 1.2.166.212.334.419c.031.04.044.08.02.128a.12.12 0 0 1-.113.071q-.335-.004-.669 0c-.061 0-.096-.034-.13-.076-.131-.161-.258-.324-.391-.484q-.325-.392-.653-.782a26 26 0 0 0-.679-.78.2.2 0 0 1-.053-.137c.004-.134 0-.27 0-.404 0-.102.04-.143.137-.145.213-.004.427.012.64-.015.26-.034.508-.101.698-.31a.8.8 0 0 0 .14-.242c.016-.038.007-.053-.035-.051H20.14c-.128 0-.157-.03-.157-.165v-.308c0-.089.035-.13.121-.136q.05-.002.1 0h1.275c.022 0 .054.013.064-.01.011-.026-.015-.048-.03-.07-.122-.175-.3-.251-.494-.293-.29-.062-.585-.04-.878-.044-.128 0-.158-.03-.158-.164v-.419c0-.098.039-.136.134-.136h2.916c.083 0 .127.036.129.122q.004.181 0 .367c-.002.087-.048.123-.144.123l-.727-.001h-.07z"/></g><defs><clipPath id="a"><path fill="#fff" d="M5 4h23v25H5z"/></clipPath></defs></svg>