<svg xmlns="http://www.w3.org/2000/svg" width="32" height="32" fill="none" viewBox="0 0 32 32"><g clip-path="url(#a)"><path fill="#252b37" d="M7.777 4.298v20.5c0 .943-.039 1.895 0 2.838v.041c0 .167.14.309.305.309H26.16c.835 0 1.676.035 2.51 0h.037c.393 0 .393-.618 0-.618H8.925c-.258 0-.547-.037-.804 0h-.037l.306.309V7.175c0-.942.038-1.895 0-2.837v-.042c0-.397-.611-.397-.611 0z"/><path fill="#252b37" d="M5.295 6.828h2.654c.393 0 .393-.618 0-.618H5.295c-.393 0-.393.618 0 .618m0 4.848h2.654c.393 0 .393-.618 0-.618H5.295c-.393 0-.393.618 0 .618m0 4.846h2.654c.393 0 .393-.618 0-.618H5.295c-.393 0-.393.618 0 .618m0 4.846h2.654c.393 0 .393-.617 0-.617H5.295c-.393 0-.393.617 0 .617m0 4.848h2.654c.393 0 .393-.617 0-.617H5.295c-.393 0-.393.617 0 .617m5.533-10.6v1.597c0 .16.14.317.306.309a.313.313 0 0 0 .305-.309v-1.597c0-.16-.14-.316-.306-.308a.313.313 0 0 0-.305.308m0 9.067v1.597c0 .16.14.317.306.308a.313.313 0 0 0 .305-.308v-1.597c0-.16-.14-.317-.306-.309a.313.313 0 0 0-.305.309m.972-11.984-.41.51-.276.346c-.043.055-.086.119-.138.166l.134-.08h.108l.134.08c-.053-.045-.093-.11-.138-.166l-.277-.346q-.204-.256-.41-.51c-.101-.126-.327-.114-.43 0-.123.133-.109.302 0 .436q.367.46.736.918c.065.08.112.148.222.183.157.049.307-.017.405-.14l.41-.51q.18-.226.362-.451c.1-.126.13-.315 0-.437-.112-.102-.324-.133-.432 0"/><path fill="#252b37" d="M11.466 13.89v-2.572c0-.397-.61-.397-.61 0v2.572c0 .397.61.397.61 0m5.958 6.132h-2.335l.305.309v-7.083l-.305.308h2.335l-.306-.308v7.083c0 .397.611.397.611 0v-7.083a.31.31 0 0 0-.305-.309h-2.335a.31.31 0 0 0-.306.309v7.083c0 .166.14.308.306.308h2.335c.393 0 .393-.617 0-.617"/><path fill="#252b37" d="M15.953 11.45v1.596c0 .16.14.317.306.309a.313.313 0 0 0 .305-.309v-1.597c0-.16-.14-.317-.305-.309a.314.314 0 0 0-.306.31m0 9.064v1.597c0 .16.14.317.306.308a.313.313 0 0 0 .305-.308v-1.597c0-.16-.14-.317-.305-.309a.314.314 0 0 0-.306.309M17.36 7.96q-.367-.461-.736-.919c-.065-.08-.112-.148-.222-.183-.157-.05-.307.017-.405.14l-.41.51q-.18.226-.362.451c-.1.126-.13.315 0 .436.112.103.324.134.432 0l.41-.51.276-.346c.043-.055.085-.119.138-.166l-.134.08h-.108l-.134-.08c.053.045.093.11.138.166l.277.346.41.51c.101.126.327.114.43 0 .123-.133.109-.302 0-.436"/><path fill="#252b37" d="M15.984 7.204v2.572c0 .398.611.398.611 0V7.204c0-.397-.61-.397-.61 0m6.565 14.411h-2.335l.306.308V14.84l-.306.31h2.336l-.306-.31v7.083c0 .398.611.398.611 0V14.84a.31.31 0 0 0-.305-.308h-2.335a.31.31 0 0 0-.306.308v7.083c0 .167.14.309.305.309h2.336c.393 0 .393-.617 0-.617"/><path fill="#252b37" d="M21.08 13.042v1.597c0 .16.14.317.305.309a.313.313 0 0 0 .306-.309v-1.597c0-.16-.14-.317-.306-.309a.313.313 0 0 0-.305.31m0 9.066v1.596c0 .16.14.317.305.31a.314.314 0 0 0 .306-.31V22.11c0-.161-.14-.317-.306-.31a.313.313 0 0 0-.305.31m.976-11.986-.41.51-.276.346c-.043.056-.086.12-.139.167l.135-.08h.108l.134.08c-.053-.045-.094-.111-.138-.167l-.277-.345-.41-.51c-.101-.126-.327-.114-.431 0-.122.133-.108.302 0 .435q.368.461.737.918c.065.08.112.148.222.183.157.05.307-.016.405-.14l.41-.51.361-.45c.1-.126.13-.315 0-.437-.111-.103-.323-.134-.431 0"/><path fill="#252b37" d="M21.722 11.315V8.743c0-.397-.61-.397-.61 0v2.572c0 .398.61.398.61 0m4.487-2.166v1.597c0 .16.14.317.305.308a.313.313 0 0 0 .306-.308V9.149c0-.16-.14-.317-.306-.309a.313.313 0 0 0-.305.309m0 9.066v1.597c0 .16.14.317.305.309a.313.313 0 0 0 .306-.309v-1.597c0-.16-.14-.317-.306-.308a.313.313 0 0 0-.305.308M27.18 6.23l-.408.511-.277.346c-.043.055-.086.12-.139.166l.135-.08h.108l.134.08c-.053-.045-.094-.11-.138-.166l-.277-.346-.41-.51c-.101-.126-.327-.113-.431 0-.122.133-.108.302 0 .436q.368.46.737.918c.065.08.112.148.222.183.157.05.307-.017.405-.14l.41-.51.361-.451c.1-.126.13-.315 0-.436-.111-.103-.323-.134-.431 0"/><path fill="#252b37" d="M26.847 7.422V4.85c0-.397-.61-.397-.61 0v2.572c0 .397.61.397.61 0"/><path fill="#3b82f6" d="M27.178 10.947h-1.337a.5.5 0 0 0-.5.504v6.075c0 .279.224.504.5.504h1.337a.5.5 0 0 0 .499-.504v-6.075a.5.5 0 0 0-.499-.504"/><path fill="#4389fa" d="M11.744 17.415h-1.231a.555.555 0 0 0-.552.558v5.967c0 .308.247.558.552.558h1.231c.305 0 .552-.25.552-.558v-5.968a.555.555 0 0 0-.552-.557"/></g><defs><clipPath id="a"><path fill="#fff" d="M5 4h24v24H5z"/></clipPath></defs></svg>