<svg xmlns="http://www.w3.org/2000/svg" width="32" height="32" fill="none" viewBox="0 0 32 32"><g clip-path="url(#a)"><path fill="#231f20" d="M8.517 27.31c-.79 0-1.635.099-2.36-.298a2.64 2.64 0 0 1-1.159-1.285c-.182-.425-.213-.867-.213-1.323V23.22l-.26.27h3.992l-.26-.27v4.36c0 .348.52.348.52 0v-4.36a.27.27 0 0 0-.26-.27H4.525a.27.27 0 0 0-.26.27c0 .847-.098 1.779.205 2.583.466 1.238 1.613 2.042 2.89 2.048h1.16c.334 0 .334-.541 0-.541zm.26-13.49V6.573c0-.616-.07-1.265.277-1.806a1.6 1.6 0 0 1 1.335-.724h8.161c1.313 0 2.63.03 3.942 0h.064c.334 0 .334-.541 0-.541H10.962c-.539 0-1.055-.02-1.556.245-.648.34-1.07 1.027-1.14 1.774-.016.175-.009.353-.009.528v7.772c0 .348.52.348.52 0z"/><path fill="#231f20" d="M20.699 27.283H8.518l.26.27v-5.746c0-.348-.52-.348-.52 0v5.746c0 .146.12.27.26.27h12.18c.335 0 .335-.54 0-.54m1.599-20.445v6.457c0 .348.52.348.52 0V6.838c0-.348-.52-.348-.52 0"/><path fill="#231f20" d="M25.57 6.564H10.813l.225.408a3.43 3.43 0 0 0 0-3.333l-.226.407h11.651c.529 0 1.123-.083 1.636.081.388.125.73.399.946.757.352.584.265 1.295.265 1.952 0 .348.52.348.52 0 0-.596.068-1.249-.144-1.816-.357-.958-1.216-1.515-2.186-1.516-2.705-.008-5.41 0-8.113 0h-4.574c-.198 0-.325.228-.226.407a2.86 2.86 0 0 1 0 2.788c-.098.177.026.408.226.408H25.57c.335 0 .335-.54 0-.54zM13.345 15.04h4.013c.334 0 .334-.54 0-.54h-4.013c-.335 0-.335.54 0 .54m0 1.936h4.013c.334 0 .334-.54 0-.54h-4.013c-.335 0-.335.54 0 .54m1.773-4.956a.76.76 0 0 1 .156.473q0 .24-.114.422a.77.77 0 0 1-.328.285 1.2 1.2 0 0 1-.507.102h-1.012a.233.233 0 0 1-.229-.238v-2.518c0-.131.102-.238.229-.238h.96q.293 0 .504.1a.73.73 0 0 1 .322.273.74.74 0 0 1 .11.399.7.7 0 0 1-.191.504c-.092.096-.078.255.019.345q.043.04.081.092m-1.455-.713c0 .131.102.238.228.238h.3a.47.47 0 0 0 .317-.098q.112-.096.111-.275a.36.36 0 0 0-.11-.28q-.112-.099-.318-.099h-.3a.233.233 0 0 0-.228.238zm.91 1.406a.37.37 0 0 0 .117-.292.4.4 0 0 0-.123-.303.48.48 0 0 0-.334-.11h-.342a.233.233 0 0 0-.228.238v.332c0 .131.102.238.228.238h.354a.48.48 0 0 0 .327-.103m1.745-2.166v2.518a.233.233 0 0 1-.229.238h-.119a.233.233 0 0 1-.229-.238v-2.518c0-.132.102-.238.229-.238h.12c.126 0 .228.106.228.238m1.373 2.28h.493c.126 0 .228.107.228.238a.233.233 0 0 1-.228.238h-1.07a.233.233 0 0 1-.228-.238v-2.518c0-.132.102-.238.228-.238h.12c.127 0 .229.106.229.238v2.042c0 .132.102.238.229.238m1.892 0h.492c.127 0 .229.107.229.238a.233.233 0 0 1-.229.238h-1.069a.233.233 0 0 1-.229-.238v-2.518c0-.132.103-.238.23-.238h.119c.126 0 .228.106.228.238v2.042c0 .132.103.238.23.238m-7.73 4.984c-.012 1.478-.9 2.854-2.245 3.364-1.347.51-2.932.083-3.866-1.087s-1.03-2.846-.288-4.128 2.215-1.963 3.623-1.666c1.605.34 2.764 1.821 2.776 3.519.004.348.524.348.52 0-.014-1.732-1.062-3.291-2.629-3.884-1.542-.585-3.347-.07-4.389 1.249-1.04 1.32-1.216 3.293-.336 4.786.867 1.467 2.546 2.224 4.168 1.896 1.841-.373 3.17-2.111 3.186-4.047.003-.348-.516-.348-.52 0z"/><path fill="#3b82f6" d="M8.41 20.678h-.292c-.086 0-.121-.034-.123-.124v-.415c0-.034-.01-.048-.043-.055a2.3 2.3 0 0 1-1.177-.734q-.03-.032-.057-.067c-.055-.072-.055-.12.009-.187q.125-.13.253-.253l.258-.254c.097-.095.147-.097.251-.007.129.112.252.229.397.319.229.142.471.213.738.157.215-.045.335-.186.338-.402a.27.27 0 0 0-.083-.2 1 1 0 0 0-.386-.23 5.3 5.3 0 0 1-.837-.361c-.24-.14-.454-.305-.603-.55-.388-.638-.167-1.439.492-1.769q.185-.095.388-.137c.052-.01.064-.032.062-.084a8 8 0 0 1 0-.354c0-.102.045-.146.144-.147h.536c.107 0 .162.06.162.169q.002.161 0 .326c0 .047.01.063.056.074q.564.118.988.523c.143.137.145.207.01.355l-.421.467c-.083.09-.14.096-.234.016-.107-.092-.211-.186-.334-.256a.8.8 0 0 0-.62-.09.4.4 0 0 0-.143.067.28.28 0 0 0-.036.416c.074.08.168.128.267.166.218.083.438.159.656.242.245.093.482.198.69.365q.415.334.444.878c.036.685-.352 1.18-.858 1.415a1.8 1.8 0 0 1-.41.136c-.04.007-.058.021-.056.066.003.126 0 .25 0 .377 0 .108-.037.146-.139.146h-.286zm15.875 6.792c0 1.122-.873 2.03-1.951 2.03s-1.951-.909-1.951-2.03z"/><path fill="#3b82f6" d="M22.158 14.797c.5 0 .905-.422.905-.941 0-.52-.405-.941-.905-.941s-.904.42-.904.94.405.941.904.941" opacity=".25"/><path fill="#231f20" d="M27.358 27.209H17.343c-.14 0-.335.027-.465-.041a.4.4 0 0 1-.203-.302c-.026-.209.151-.394.25-.56q.39-.656.68-1.367c.687-1.68.926-3.54.708-5.35-.092-.755.16-1.577.532-2.22a4 4 0 0 1 1.644-1.568c1.405-.721 3.154-.446 4.303.656.56.537.96 1.233 1.145 2 .185.768.059 1.46.067 2.203.026 2.046.567 4.074 1.591 5.824.092.155.184.303.106.489a.39.39 0 0 1-.345.234c-.333.015-.334.555 0 .54a.92.92 0 0 0 .866-.704c.122-.492-.225-.89-.436-1.294a11.2 11.2 0 0 1-1.1-3.275 11.7 11.7 0 0 1-.144-2.652c.05-.885-.066-1.647-.428-2.417-.739-1.565-2.333-2.572-4.005-2.545s-3.214 1.07-3.917 2.633a4.7 4.7 0 0 0-.37 1.25 4.4 4.4 0 0 0-.003 1.113c.083.858.068 1.73-.062 2.582a10 10 0 0 1-1.108 3.287c-.204.372-.542.738-.492 1.195.044.399.33.736.71.813.169.035.35.02.52.02h9.967c.335 0 .335-.54 0-.54zm-.235-9.921c-.073-.74-.46-1.491-1.017-1.953a2.8 2.8 0 0 0-.972-.522c-.323-.1-.46.423-.139.52.27.084.497.195.736.38.006.003.038.032.007.005l.038.032.065.058a2.5 2.5 0 0 1 .25.27l.029.036-.007-.009q.03.04.057.083a3 3 0 0 1 .23.417l.026.06c.026.058-.015-.04.012.03a3 3 0 0 1 .163.596c.014.089-.005-.057 0-.007.014.146.11.27.26.27.13 0 .274-.124.26-.27z"/><path fill="#231f20" d="M28.008 16.99c-.09-.924-.582-1.864-1.278-2.44-.36-.3-.768-.514-1.212-.65-.322-.098-.459.424-.138.522a2.9 2.9 0 0 1 1.759 1.49q.043.084.08.172l.036.077c.003.007.022.054.01.023-.012-.03.012.033.012.033q.106.276.172.566a4 4 0 0 1 .038.207c.014.146.109.27.26.27.13 0 .273-.124.26-.27z"/></g><defs><clipPath id="a"><path fill="#fff" d="M4.25 3.5h24v26h-24z"/></clipPath></defs></svg>