<svg xmlns="http://www.w3.org/2000/svg" width="32" height="32" fill="none" viewBox="0 0 32 32"><g clip-path="url(#a)"><path fill="#3b82f6" d="M27.64 15.285c2.546-.92 4.361-3.348 4.361-6.193 0-3.64-2.97-6.59-6.632-6.59a6.64 6.64 0 0 0-5.6 3.055A11.9 11.9 0 0 1 25.12 9.3a11.76 11.76 0 0 1 2.522 5.985" opacity=".15"/><path fill="#3b82f6" d="M15.563 24.086h-.745c-.22 0-.312-.083-.316-.306a41 41 0 0 1 0-1.014c0-.085-.026-.117-.11-.138a5.9 5.9 0 0 1-3.006-1.79c-.049-.056-.102-.107-.147-.162-.141-.176-.139-.295.023-.456.212-.21.432-.412.647-.617l.66-.622c.25-.236.376-.24.64-.02.328.272.644.56 1.013.782.585.348 1.205.517 1.888.382.55-.11.852-.455.863-.98a.63.63 0 0 0-.212-.489c-.282-.27-.626-.432-.986-.558-.73-.254-1.459-.511-2.136-.886-.61-.338-1.162-.745-1.54-1.341-.992-1.56-.422-3.51 1.256-4.318a4 4 0 0 1 .989-.335c.134-.026.166-.08.162-.208-.01-.287-.004-.575 0-.864.002-.248.115-.358.365-.358h1.367c.275 0 .419.144.419.411 0 .266.006.53-.003.794-.004.112.028.155.143.178a5.17 5.17 0 0 1 2.524 1.277c.37.336.37.505.028.866-.36.378-.717.76-1.078 1.137-.212.223-.357.234-.596.04-.273-.222-.542-.451-.854-.623a2.1 2.1 0 0 0-1.587-.219 1.1 1.1 0 0 0-.363.162.665.665 0 0 0-.092 1.018c.19.195.432.312.684.403.557.202 1.12.386 1.678.59.624.229 1.232.486 1.764.893.709.543 1.085 1.254 1.134 2.145.092 1.674-.899 2.877-2.193 3.454a4.6 4.6 0 0 1-1.05.331c-.103.02-.146.053-.142.166.009.305.005.61.003.918 0 .265-.095.357-.357.357z"/><path fill="#181d27" d="M27.226 17.042a11.85 11.85 0 0 1-2.186 6.833 11.9 11.9 0 0 1-5.619 4.271c-2.248.813-4.935.947-7.337.272a12 12 0 0 1-5.945-3.864 11.76 11.76 0 0 1-2.676-6.587c-.183-2.4.393-4.925 1.672-7.031a12 12 0 0 1 5.288-4.67 12 12 0 0 1 7.269-.81 11.85 11.85 0 0 1 6.216 3.4 11.85 11.85 0 0 1 3.175 6.365c.096.603.137 1.212.14 1.82 0 .41.642.41.64 0-.009-2.57-.808-5.115-2.315-7.21a12.5 12.5 0 0 0-5.926-4.494c-2.38-.868-5.195-.991-7.71-.285a12.4 12.4 0 0 0-6.25 4.055 12.6 12.6 0 0 0-2.837 6.974 12.45 12.45 0 0 0 7.307 12.303 12.75 12.75 0 0 0 7.696.868 12.34 12.34 0 0 0 6.558-3.599c1.751-1.82 2.934-4.164 3.323-6.657q.152-.971.156-1.954c0-.41-.639-.41-.64 0z"/><path fill="#181d27" d="M14.838 4.586c-1.07 0-2.13-.013-3.194.144a12.5 12.5 0 0 0-4.181 1.413 12.6 12.6 0 0 0-5.634 6.433 12.42 12.42 0 0 0-.038 8.834 12.6 12.6 0 0 0 5.578 6.482 12.5 12.5 0 0 0 4.2 1.453c1.117.172 2.234.155 3.361.155h.395c.412 0 .412-.637 0-.637-.82 0-1.644.026-2.462-.019a11.8 11.8 0 0 1-4.164-.997 12.03 12.03 0 0 1-5.89-5.681c-1.225-2.512-1.507-5.619-.715-8.381a11.7 11.7 0 0 1 4.852-6.588 11.9 11.9 0 0 1 3.833-1.657c1.187-.28 2.377-.318 3.59-.318h.467c.412 0 .412-.636 0-.636z"/></g><defs><clipPath id="a"><path fill="#fff" d="M1 2.5h31v27H1z"/></clipPath></defs></svg>