<svg xmlns="http://www.w3.org/2000/svg" width="32" height="32" fill="none" viewBox="0 0 32 32"><g clip-path="url(#a)"><path fill="#252b37" d="M21.026 13.041c-.003.114-.073.235-.185.344a2 2 0 0 1-.573.362c-.586.27-1.254.401-1.891.48-1.473.179-3.123.138-4.52-.408-.32-.126-.839-.359-.92-.71a.4.4 0 0 1 0-.138.5.5 0 0 1 .086-.176c.119-.16.304-.274.477-.369.55-.296 1.19-.438 1.805-.535a11.2 11.2 0 0 1 2.466-.094c.819.054 1.59.176 2.328.463.243.095.494.215.69.386.136.118.235.258.238.392.009.314.504.314.496 0-.013-.5-.444-.842-.857-1.057-.66-.346-1.416-.504-2.15-.6a11.8 11.8 0 0 0-2.798-.034c-.764.083-1.532.228-2.236.541-.42.188-.925.494-1.027.975s.26.878.647 1.122c.593.374 1.322.548 2.005.66.915.15 1.85.185 2.774.115.925-.07 1.784-.214 2.595-.576.476-.212 1.034-.575 1.047-1.148.008-.315-.487-.315-.495 0z"/><path fill="#252b37" d="M21.026 14.965c-.003.114-.073.235-.185.344a2 2 0 0 1-.552.353c-.59.277-1.266.41-1.912.489-1.473.18-3.123.138-4.52-.408-.243-.094-.494-.215-.69-.386-.136-.118-.235-.258-.238-.392-.008-.314-.504-.314-.495 0 .013.5.444.842.857 1.057.65.34 1.394.499 2.117.597.936.125 1.89.139 2.83.037.765-.083 1.533-.228 2.236-.541.476-.212 1.034-.576 1.047-1.148.009-.315-.487-.315-.495 0zm-8.592 2.009c.018.757.931 1.139 1.544 1.34 1.147.378 2.406.459 3.606.402.317-.015.319-.504 0-.49-1.09.051-2.208-.014-3.258-.317-.358-.103-.715-.235-1.025-.442-.187-.126-.367-.312-.37-.493-.009-.314-.504-.314-.496 0zm0 2.008c.018.73.873 1.109 1.466 1.314 1.083.375 2.279.466 3.418.439.32-.008.32-.498 0-.49-1.03.027-2.085-.052-3.075-.352-.34-.102-.685-.233-.975-.44-.176-.124-.334-.3-.337-.47-.009-.314-.504-.314-.496 0zm0 2.008c.021.84 1.12 1.226 1.787 1.416 1.294.367 2.701.416 4.034.274.314-.032.317-.523 0-.489-1.217.129-2.482.098-3.673-.195-.42-.105-.844-.239-1.214-.467-.211-.13-.434-.331-.439-.538-.008-.315-.504-.315-.495 0"/><path fill="#252b37" d="M12.929 21.028v-7.812c0-.315-.495-.315-.495 0v7.812c0 .315.495.315.495 0m8.101-8.007v3.436c0 .315.495.315.495 0v-3.436c0-.314-.496-.314-.496 0m-4.72-6.809v2.504c0 .315.495.315.495 0V6.212c0-.315-.495-.315-.495 0"/><path fill="#3b82f6" d="M16.535 6.624a.817.817 0 0 0 .823-.812.817.817 0 0 0-.823-.812.817.817 0 0 0-.822.812c0 .449.368.812.822.812" opacity=".25"/><path fill="#252b37" d="M6.227 15.771h2.537c.319 0 .319-.49 0-.49H6.227c-.318 0-.318.49 0 .49"/><path fill="#3b82f6" d="M5.822 16.36a.817.817 0 0 0 .823-.813.817.817 0 0 0-.823-.812.817.817 0 0 0-.822.812c0 .449.368.813.822.813" opacity=".25"/><path fill="#252b37" d="m8.754 9.626 1.633 1.486.233.212c.099.09.252.096.35 0 .092-.091.099-.256 0-.346L9.336 9.493l-.232-.212a.255.255 0 0 0-.35 0c-.093.091-.1.256 0 .345"/><path fill="#3b82f6" d="M8.617 10.01a.817.817 0 0 0 .823-.813.817.817 0 0 0-.823-.812.817.817 0 0 0-.822.812c0 .449.368.812.822.812" opacity=".25"/><path fill="#252b37" d="m8.404 23.375 1.634-1.486.232-.212c.1-.09.093-.254 0-.346a.255.255 0 0 0-.35 0l-1.633 1.486-.233.212c-.099.09-.092.254 0 .346.098.096.251.09.35 0"/><path fill="#3b82f6" d="M7.916 24.27a.817.817 0 0 0 .823-.812.817.817 0 0 0-.823-.812.817.817 0 0 0-.822.812c0 .449.368.812.822.812" opacity=".25"/><path fill="#252b37" d="m22.632 8.02-1.11 1.898-.159.273c-.16.274.268.52.428.246l1.11-1.898q.08-.136.158-.273c.16-.274-.267-.52-.427-.246"/><path fill="#3b82f6" d="M23.067 8.62a.817.817 0 0 0 .822-.812.817.817 0 0 0-.822-.812.817.817 0 0 0-.823.812c0 .449.368.812.823.812" opacity=".25"/><path fill="#252b37" d="M12.406 23.119a7.66 7.66 0 0 1-2.97-3.842 7.58 7.58 0 0 1-.052-4.755c.902-2.822 3.496-4.938 6.479-5.256a7.84 7.84 0 0 1 5.656 1.606c.248.194.6-.15.35-.346a8.34 8.34 0 0 0-5.377-1.792 8.26 8.26 0 0 0-4.525 1.5c-2.721 1.931-4.01 5.37-3.185 8.585.493 1.925 1.717 3.607 3.375 4.722.264.178.512-.246.25-.422m11.797-3.152c-.012 1.357-.872 2.616-2.177 3.08a3.39 3.39 0 0 1-3.71-.996c-.9-1.065-.994-2.613-.274-3.785a3.37 3.37 0 0 1 3.507-1.513 3.326 3.326 0 0 1 2.654 3.214c.003.315.499.315.495 0a3.82 3.82 0 0 0-2.513-3.542c-1.5-.546-3.25-.069-4.252 1.153-1.003 1.221-1.15 2.98-.317 4.336.829 1.348 2.445 2.045 4.01 1.748 1.776-.336 3.06-1.927 3.073-3.697.003-.315-.493-.315-.496 0z"/><path fill="#252b37" d="m23.72 22.304 2.557 2.992c.235.276.329.644.083.954-.3.378-.83.318-1.126-.023-.44-.504-.869-1.016-1.302-1.523l-1.322-1.55c-.207-.24-.555.107-.35.346.876 1.026 1.742 2.062 2.63 3.078.369.422.983.544 1.485.283.603-.314.814-1.113.442-1.678-.123-.189-.292-.357-.439-.528l-.829-.97q-.737-.864-1.478-1.729c-.206-.241-.555.106-.35.346z"/><path fill="#3b82f6" d="M21.442 18.413q.157.209.208.45c.008.039.038.024.058.024h.475c.118 0 .149.033.149.15v.277c0 .088-.036.123-.127.123h-.482c-.043 0-.061.01-.07.053-.112.535-.459.852-.974 1.01-.117.036-.238.054-.363.078q.144.155.28.305.477.53.928 1.081.156.19.314.377c.03.036.041.072.02.116q-.031.063-.107.063-.315-.003-.63 0c-.057 0-.09-.03-.122-.068-.123-.145-.242-.292-.368-.436q-.306-.354-.614-.704a23 23 0 0 0-.64-.701.17.17 0 0 1-.049-.124c.003-.12 0-.243 0-.364 0-.091.038-.129.129-.13.2-.004.401.011.601-.013.246-.031.479-.092.657-.28a.7.7 0 0 0 .132-.218c.015-.034.007-.047-.033-.045h-1.338c-.121 0-.148-.028-.148-.149v-.277c0-.08.033-.117.114-.122q.047-.002.094 0h1.2c.02 0 .05.011.06-.01.01-.023-.015-.043-.028-.062-.115-.158-.282-.227-.466-.264-.272-.056-.55-.036-.825-.04-.12 0-.149-.027-.149-.148v-.377c0-.087.037-.122.126-.122h2.744c.078 0 .12.033.12.11q.006.164 0 .33c0 .079-.044.111-.135.111l-.683-.001h-.066z"/></g><defs><clipPath id="a"><path fill="#fff" d="M5 5h22v22H5z"/></clipPath></defs></svg>