<svg xmlns="http://www.w3.org/2000/svg" width="32" height="32" fill="none" viewBox="0 0 32 32"><g clip-path="url(#a)"><path fill="#3b82f6" d="M11.708 29.65h-.379c-.112 0-.158-.042-.16-.157-.003-.175 0-.348 0-.524 0-.042-.014-.06-.056-.072a3 3 0 0 1-1.53-.923l-.076-.084c-.071-.092-.071-.152.011-.236q.162-.16.33-.319l.337-.321c.127-.121.192-.124.326-.01.167.142.327.29.515.403.299.18.613.268.96.198.282-.056.436-.234.44-.506a.33.33 0 0 0-.107-.251 1.3 1.3 0 0 0-.502-.288c-.37-.13-.742-.263-1.086-.456-.31-.173-.59-.385-.784-.692a1.53 1.53 0 0 1 .637-2.228c.16-.079.328-.14.504-.173.07-.013.085-.043.083-.108-.005-.148-.002-.296 0-.445 0-.128.058-.184.185-.184h.695c.14 0 .212.074.212.213q.002.207 0 .41c0 .058.014.08.074.092.488.096.916.319 1.284.658.188.173.188.26.014.447l-.549.587c-.107.115-.183.121-.303.02-.14-.114-.277-.233-.435-.321a1.05 1.05 0 0 0-.807-.113.6.6 0 0 0-.185.084.347.347 0 0 0-.047.526.9.9 0 0 0 .348.209c.283.103.57.2.854.305.316.117.626.25.896.461.361.28.55.647.578 1.106.046.863-.457 1.485-1.117 1.782a2.3 2.3 0 0 1-.536.17c-.05.01-.073.028-.071.086.005.158 0 .317 0 .475 0 .137-.047.184-.18.184h-.373z"/><path fill="#4389fa" d="M15.585 5.69q.043.013.085.03l.091.037c.047.018-.073-.034-.004 0l.085.038q.402.183.773.425a5.3 5.3 0 0 1 1.802 1.93c.314.591.493 1.25.55 1.918.036.429.708.433.67 0-.107-1.252-.576-2.417-1.412-3.354a6.26 6.26 0 0 0-2.461-1.674c-.41-.137-.587.515-.179.65"/><path fill="#4389fa" d="M10.848.837c.022 1.162.26 2.362.633 3.457.664 1.964 1.967 3.776 4.056 4.302a6 6 0 0 0 1.868.155 8 8 0 0 0 1.133-.158c.185-.038.38-.056.486-.231.156-.259.245-.605.326-.895.356-1.285.323-2.717-.364-3.89C17.718 1.426 14.917.815 12.64.592A23 23 0 0 0 11.182.5c-.43-.014-.43.66 0 .674 1.623.054 3.285.236 4.807.843.872.346 1.744.913 2.264 1.665.223.322.365.619.472.956q.08.257.127.521l.02.121c.007.04 0-.013.007.061q.015.135.023.268.02.466-.038.926c.01-.084-.016.103-.023.141l-.042.218c-.024.124-.056.245-.087.366a7 7 0 0 1-.203.619c-.015.04-.064.15-.011.029l-.031.072s-.025.051-.027.06l.2-.155c-1.12.261-2.305.32-3.4-.085-.82-.301-1.525-.881-2.044-1.582-.923-1.243-1.387-2.877-1.586-4.347a10 10 0 0 1-.089-1.034c-.009-.434-.678-.434-.669 0zM22.785 6.6c-.363.056-.72.193-1.052.341a4.66 4.66 0 0 0-1.846 1.464 4.5 4.5 0 0 0-.734 1.568c-.11.42.537.6.644.18.119-.458.304-.888.573-1.276a3.5 3.5 0 0 1 .578-.645l.094-.081.053-.045s.083-.063.043-.034c.265-.202.555-.373.856-.512l.1-.045a6 6 0 0 1 .22-.085 4 4 0 0 1 .648-.178c.178-.027.276-.254.234-.416-.054-.193-.232-.263-.413-.236z"/><path fill="#4389fa" d="M26.594 3.945a8.7 8.7 0 0 1-.718 2.11c-.569 1.176-1.447 2.313-2.754 2.669-.968.265-1.969.038-2.874-.342l.234.236a4 4 0 0 1-.071-.317l-.018-.106c-.01-.058-.016-.112-.007-.047a5 5 0 0 1-.04-.589q-.001-.168.011-.335l.016-.175c.006-.067 0 0 0-.02q.006-.056.018-.112c.091-.538.28-1.007.6-1.385.452-.537 1.06-.867 1.745-1.063 1.316-.375 2.75-.292 4.09-.108.18.025.357-.045.412-.236.045-.157-.055-.39-.234-.416-1.978-.27-4.43-.422-6.08.942-.883.73-1.274 1.868-1.247 2.994.009.34.05.683.123 1.013a1 1 0 0 0 .051.178c.118.258.593.348.85.43.256.08.53.145.802.186.926.14 1.862.015 2.687-.448.72-.404 1.298-1.024 1.75-1.708a8.9 8.9 0 0 0 1.285-3.112q.007-.03.011-.061c.08-.425-.564-.605-.644-.18z"/><path fill="#181d27" d="M21.534 15.104c.607.39 1.171.868 1.606 1.45.374.503.72 1.03 1.063 1.555.558.856 1.02 1.724 1.358 2.697.578 1.657.803 3.486.31 5.197-.24.836-.773 1.56-1.55 1.97-.45.239-1.027.135-1.518.13l-1.659-.017a414 414 0 0 0-4.731-.036c-.43 0-.43.674 0 .674 1.429 0 2.858.016 4.29.032l1.768.018c.55.006 1.168.094 1.71-.032.477-.11.888-.434 1.247-.753a3.4 3.4 0 0 0 .809-1.079c.357-.746.502-1.598.555-2.418.07-1.027-.071-2.065-.337-3.056a11.8 11.8 0 0 0-1.442-3.309 41 41 0 0 0-1.215-1.805 7.1 7.1 0 0 0-1.927-1.8c-.366-.234-.7.35-.337.582m-4.878-.779c-.562.46-1.077.99-1.568 1.53a19 19 0 0 0-1.362 1.686c-.4.557-.817 1.15-1.095 1.78-.17.382-.328.77-.49 1.155-.164.384.407.74.577.34q.218-.511.432-1.021c.239-.56.578-1.081.919-1.582a17.8 17.8 0 0 1 2.504-2.918c.18-.168.361-.339.553-.494.334-.274-.143-.748-.473-.476z"/><path fill="#181d27" d="M21.28 14.6c-.013.282-.225.378-.47.4a17 17 0 0 1-2.252.057c-.326-.013-.732.014-1.046-.085-.522-.164-.22-.852.163-.976.287-.092.657-.007.956 0q.595.016 1.191 0 .321-.007.642-.024c.143-.007.281-.02.417.036a.64.64 0 0 1 .397.59c0 .434.669.434.669 0 0-.37-.165-.743-.446-.986-.346-.297-.73-.33-1.164-.308a23 23 0 0 1-1.576.02c-.437-.009-.93-.11-1.35.05-.726.276-1.13 1.243-.608 1.892.299.373.733.396 1.175.43q.77.06 1.543.047c.515-.01 1.11.009 1.623-.113.48-.114.78-.55.803-1.031.02-.434-.649-.434-.669 0z"/><path fill="#181d27" d="M21.326 13.8c.524-.667 1.004-1.408 1.293-2.209.163-.447.277-1.011.016-1.445-.299-.494-.834-.411-1.222-.056.007-.007-.14.135-.138.142h.06q.106.015.025-.032c-.023-.047-.125-.099-.168-.126a1.6 1.6 0 0 0-.405-.2 1.36 1.36 0 0 0-1.055.1 2 2 0 0 0-.261.172c-.036.03-.071.068-.111.09-.04.023.156.056.004.01-.12-.04-.256-.208-.375-.273-.303-.164-.657-.238-.994-.137-.205.06-.386.18-.542.322a1 1 0 0 0-.11.107l.112-.013-.03-.02c-.021-.036-.11-.068-.144-.088-.216-.121-.461-.234-.715-.238-.792-.02-.799.953-.625 1.501.14.445.38.877.571 1.3q.268.585.533 1.17c.176.391.756.052.578-.34l-.886-1.941c-.06-.135-.124-.268-.165-.41a1.6 1.6 0 0 1-.058-.52c0-.02.01-.068.016-.08-.002.008-.045.023.009-.006.053-.03.303.092.403.148.241.138.482.28.754.11.163-.098.261-.27.444-.339a.56.56 0 0 1 .386 0c.25.088.401.33.642.416.424.15.62-.259.965-.393.243-.095.489-.025.696.114.252.169.48.35.791.167.148-.088.235-.248.384-.33.022-.012.063-.021.063-.021.008-.016-.058-.007-.034-.01-.036.005-.051-.069-.024-.015.015.03.035.04.046.056.03.043.052.11.058.153.032.189-.017.389-.071.569-.152.515-.43.991-.718 1.438q-.17.265-.352.517l-.114.153c-.053.072.04-.052-.007.007-.265.337.205.818.473.476zm.554.574c.17-.353.55-.58.885-.758.415-.222.819-.21 1.278-.175.357.027.716.03 1.052-.105.38-.151.7-.398.986-.688.303-.308-.17-.785-.473-.477-.245.25-.526.484-.87.576-.37.1-.827-.016-1.237-.007-.455.009-.874.166-1.258.405-.383.238-.744.492-.938.892s.388.73.577.34z"/><path fill="#181d27" d="M21.71 14.889a2.67 2.67 0 0 1 2.146.321 3 3 0 0 1 .752.701l.024.034q.023.03.045.063.06.088.116.18c.22.37.8.034.578-.34a3.7 3.7 0 0 0-1.213-1.243 3.34 3.34 0 0 0-2.623-.364c-.414.113-.238.762.179.65zm-5.138 11.073c-.016 2.03-1.29 3.909-3.205 4.587a4.87 4.87 0 0 1-5.364-1.497c-1.29-1.562-1.443-3.856-.413-5.591s3.11-2.684 5.09-2.28c2.248.459 3.872 2.475 3.89 4.779.002.433.67.433.668 0-.018-2.32-1.463-4.41-3.625-5.212-2.157-.803-4.687-.1-6.132 1.701-1.445 1.8-1.653 4.363-.47 6.354a5.56 5.56 0 0 0 5.808 2.596c2.553-.501 4.397-2.837 4.417-5.437.002-.434-.667-.434-.669 0z"/></g><defs><clipPath id="a"><path fill="#fff" d="M6.25.5h21v31h-21z"/></clipPath></defs></svg>