<svg xmlns="http://www.w3.org/2000/svg" width="212" height="80" fill="none" viewBox="0 0 212 80"><path fill="#8c68f2" fill-opacity=".5" d="M0 52a4 4 0 0 1 4-4h28a4 4 0 0 1 4 4v28H0zm44-24a4 4 0 0 1 4-4h28a4 4 0 0 1 4 4v52H44z"/><path fill="#8c68f2" fill-opacity=".6" d="M88 44a4 4 0 0 1 4-4h28a4 4 0 0 1 4 4v36H88z"/><path fill="#8c68f2" fill-opacity=".5" d="M132 12a4 4 0 0 1 4-4h28a4 4 0 0 1 4 4v68h-36z"/><path fill="#8c68f2" fill-opacity=".6" d="M176 36a4 4 0 0 1 4-4h28a4 4 0 0 1 4 4v44h-36z"/><g clip-path="url(#a)"><path fill="#8c68f2" d="M154.405 8.343a4.809 4.809 0 1 1-9.618 0v-.145a4.809 4.809 0 1 1 9.618 0z"/><path fill="#fff" d="M149.669 5.342a2.929 2.929 0 1 1 0 5.858 2.929 2.929 0 0 1 0-5.858"/></g><defs><clipPath id="a"><path fill="#fff" d="M144 14h11V3h-11z"/></clipPath></defs></svg>